%TF.GenerationSoftware,KiCad,Pcbnew,9.0.3*%
%TF.CreationDate,2026-08-19T23:41:34+01:00*%
%TF.ProjectId,XMOS_with_audio_codec,584d4f53-5f77-4697-9468-5f617564696f,rev?*%
%TF.SameCoordinates,Original*%
%TF.FileFunction,Legend,Top*%
%TF.FilePolarity,Positive*%
%FSLAX46Y46*%
G04 Gerber Fmt 4.6, Leading zero omitted, Abs format (unit mm)*
G04 Created by KiCad (PCBNEW 9.0.3) date 2026-08-19 23:41:34*
%MOMM*%
%LPD*%
G01*
G04 APERTURE LIST*
%ADD10C,0.100000*%
%ADD11C,0.062500*%
%ADD12C,0.087500*%
%ADD13C,0.150000*%
%ADD14C,0.120000*%
%ADD15C,0.127000*%
%ADD16C,0.200000*%
%ADD17C,0.300000*%
%ADD18C,0.152400*%
G04 APERTURE END LIST*
D10*
X160800000Y-89000000D02*
X162900000Y-89000000D01*
X162900000Y-89400000D01*
X160800000Y-89400000D01*
X160800000Y-89000000D01*
D11*
X161362070Y-88325559D02*
X161671594Y-88325559D01*
X161671594Y-88325559D02*
X161481118Y-88516035D01*
X161481118Y-88516035D02*
X161552546Y-88516035D01*
X161552546Y-88516035D02*
X161597189Y-88539845D01*
X161597189Y-88539845D02*
X161618022Y-88563654D01*
X161618022Y-88563654D02*
X161635879Y-88611273D01*
X161635879Y-88611273D02*
X161620998Y-88730321D01*
X161620998Y-88730321D02*
X161591237Y-88777940D01*
X161591237Y-88777940D02*
X161564451Y-88801750D01*
X161564451Y-88801750D02*
X161513856Y-88825559D01*
X161513856Y-88825559D02*
X161370998Y-88825559D01*
X161370998Y-88825559D02*
X161326356Y-88801750D01*
X161326356Y-88801750D02*
X161305522Y-88777940D01*
X161814450Y-88325559D02*
X161918617Y-88825559D01*
X161918617Y-88825559D02*
X162147784Y-88325559D01*
X162266831Y-88325559D02*
X162576355Y-88325559D01*
X162576355Y-88325559D02*
X162385879Y-88516035D01*
X162385879Y-88516035D02*
X162457307Y-88516035D01*
X162457307Y-88516035D02*
X162501950Y-88539845D01*
X162501950Y-88539845D02*
X162522783Y-88563654D01*
X162522783Y-88563654D02*
X162540640Y-88611273D01*
X162540640Y-88611273D02*
X162525759Y-88730321D01*
X162525759Y-88730321D02*
X162495998Y-88777940D01*
X162495998Y-88777940D02*
X162469212Y-88801750D01*
X162469212Y-88801750D02*
X162418617Y-88825559D01*
X162418617Y-88825559D02*
X162275759Y-88825559D01*
X162275759Y-88825559D02*
X162231117Y-88801750D01*
X162231117Y-88801750D02*
X162210283Y-88777940D01*
X156808618Y-88769369D02*
X156763975Y-88745559D01*
X156763975Y-88745559D02*
X156692546Y-88745559D01*
X156692546Y-88745559D02*
X156618141Y-88769369D01*
X156618141Y-88769369D02*
X156564570Y-88816988D01*
X156564570Y-88816988D02*
X156534808Y-88864607D01*
X156534808Y-88864607D02*
X156499094Y-88959845D01*
X156499094Y-88959845D02*
X156490165Y-89031273D01*
X156490165Y-89031273D02*
X156502070Y-89126511D01*
X156502070Y-89126511D02*
X156519927Y-89174130D01*
X156519927Y-89174130D02*
X156561594Y-89221750D01*
X156561594Y-89221750D02*
X156630046Y-89245559D01*
X156630046Y-89245559D02*
X156677665Y-89245559D01*
X156677665Y-89245559D02*
X156752070Y-89221750D01*
X156752070Y-89221750D02*
X156778856Y-89197940D01*
X156778856Y-89197940D02*
X156799689Y-89031273D01*
X156799689Y-89031273D02*
X156704451Y-89031273D01*
X156987189Y-89245559D02*
X157049689Y-88745559D01*
X157049689Y-88745559D02*
X157272903Y-89245559D01*
X157272903Y-89245559D02*
X157335403Y-88745559D01*
X157510999Y-89245559D02*
X157573499Y-88745559D01*
X157573499Y-88745559D02*
X157692547Y-88745559D01*
X157692547Y-88745559D02*
X157760999Y-88769369D01*
X157760999Y-88769369D02*
X157802666Y-88816988D01*
X157802666Y-88816988D02*
X157820523Y-88864607D01*
X157820523Y-88864607D02*
X157832428Y-88959845D01*
X157832428Y-88959845D02*
X157823499Y-89031273D01*
X157823499Y-89031273D02*
X157787785Y-89126511D01*
X157787785Y-89126511D02*
X157758023Y-89174130D01*
X157758023Y-89174130D02*
X157704451Y-89221750D01*
X157704451Y-89221750D02*
X157630047Y-89245559D01*
X157630047Y-89245559D02*
X157510999Y-89245559D01*
D12*
X169129707Y-91622182D02*
X169415422Y-91622182D01*
X169210065Y-92122182D02*
X169272565Y-91622182D01*
X169519588Y-92122182D02*
X169582088Y-91622182D01*
X169582088Y-91622182D02*
X169704112Y-91979325D01*
X169704112Y-91979325D02*
X169915421Y-91622182D01*
X169915421Y-91622182D02*
X169852921Y-92122182D01*
X170070184Y-92098373D02*
X170138636Y-92122182D01*
X170138636Y-92122182D02*
X170257684Y-92122182D01*
X170257684Y-92122182D02*
X170308279Y-92098373D01*
X170308279Y-92098373D02*
X170335065Y-92074563D01*
X170335065Y-92074563D02*
X170364826Y-92026944D01*
X170364826Y-92026944D02*
X170370779Y-91979325D01*
X170370779Y-91979325D02*
X170352922Y-91931706D01*
X170352922Y-91931706D02*
X170332088Y-91907896D01*
X170332088Y-91907896D02*
X170287446Y-91884087D01*
X170287446Y-91884087D02*
X170195184Y-91860277D01*
X170195184Y-91860277D02*
X170150541Y-91836468D01*
X170150541Y-91836468D02*
X170129707Y-91812658D01*
X170129707Y-91812658D02*
X170111850Y-91765039D01*
X170111850Y-91765039D02*
X170117803Y-91717420D01*
X170117803Y-91717420D02*
X170147565Y-91669801D01*
X170147565Y-91669801D02*
X170174350Y-91645992D01*
X170174350Y-91645992D02*
X170224946Y-91622182D01*
X170224946Y-91622182D02*
X170343993Y-91622182D01*
X170343993Y-91622182D02*
X170412446Y-91645992D01*
D11*
X157519689Y-92435559D02*
X157469094Y-92840321D01*
X157469094Y-92840321D02*
X157486951Y-92887940D01*
X157486951Y-92887940D02*
X157507784Y-92911750D01*
X157507784Y-92911750D02*
X157552427Y-92935559D01*
X157552427Y-92935559D02*
X157647665Y-92935559D01*
X157647665Y-92935559D02*
X157698260Y-92911750D01*
X157698260Y-92911750D02*
X157725046Y-92887940D01*
X157725046Y-92887940D02*
X157754808Y-92840321D01*
X157754808Y-92840321D02*
X157805403Y-92435559D01*
X157980999Y-92935559D02*
X158043499Y-92435559D01*
X158043499Y-92435559D02*
X158233975Y-92435559D01*
X158233975Y-92435559D02*
X158278618Y-92459369D01*
X158278618Y-92459369D02*
X158299451Y-92483178D01*
X158299451Y-92483178D02*
X158317308Y-92530797D01*
X158317308Y-92530797D02*
X158308380Y-92602226D01*
X158308380Y-92602226D02*
X158278618Y-92649845D01*
X158278618Y-92649845D02*
X158251832Y-92673654D01*
X158251832Y-92673654D02*
X158201237Y-92697464D01*
X158201237Y-92697464D02*
X158010761Y-92697464D01*
X158742904Y-92935559D02*
X158457189Y-92935559D01*
X158600047Y-92935559D02*
X158662547Y-92435559D01*
X158662547Y-92435559D02*
X158605999Y-92506988D01*
X158605999Y-92506988D02*
X158552428Y-92554607D01*
X158552428Y-92554607D02*
X158501832Y-92578416D01*
X167919094Y-89155559D02*
X167633379Y-89155559D01*
X167776237Y-89155559D02*
X167838737Y-88655559D01*
X167838737Y-88655559D02*
X167782189Y-88726988D01*
X167782189Y-88726988D02*
X167728618Y-88774607D01*
X167728618Y-88774607D02*
X167678022Y-88798416D01*
X168124450Y-88655559D02*
X168228617Y-89155559D01*
X168228617Y-89155559D02*
X168457784Y-88655559D01*
X168669093Y-88869845D02*
X168624450Y-88846035D01*
X168624450Y-88846035D02*
X168603617Y-88822226D01*
X168603617Y-88822226D02*
X168585759Y-88774607D01*
X168585759Y-88774607D02*
X168588736Y-88750797D01*
X168588736Y-88750797D02*
X168618498Y-88703178D01*
X168618498Y-88703178D02*
X168645283Y-88679369D01*
X168645283Y-88679369D02*
X168695879Y-88655559D01*
X168695879Y-88655559D02*
X168791117Y-88655559D01*
X168791117Y-88655559D02*
X168835759Y-88679369D01*
X168835759Y-88679369D02*
X168856593Y-88703178D01*
X168856593Y-88703178D02*
X168874450Y-88750797D01*
X168874450Y-88750797D02*
X168871474Y-88774607D01*
X168871474Y-88774607D02*
X168841712Y-88822226D01*
X168841712Y-88822226D02*
X168814926Y-88846035D01*
X168814926Y-88846035D02*
X168764331Y-88869845D01*
X168764331Y-88869845D02*
X168669093Y-88869845D01*
X168669093Y-88869845D02*
X168618498Y-88893654D01*
X168618498Y-88893654D02*
X168591712Y-88917464D01*
X168591712Y-88917464D02*
X168561950Y-88965083D01*
X168561950Y-88965083D02*
X168550045Y-89060321D01*
X168550045Y-89060321D02*
X168567902Y-89107940D01*
X168567902Y-89107940D02*
X168588736Y-89131750D01*
X168588736Y-89131750D02*
X168633379Y-89155559D01*
X168633379Y-89155559D02*
X168728617Y-89155559D01*
X168728617Y-89155559D02*
X168779212Y-89131750D01*
X168779212Y-89131750D02*
X168805998Y-89107940D01*
X168805998Y-89107940D02*
X168835759Y-89060321D01*
X168835759Y-89060321D02*
X168847664Y-88965083D01*
X168847664Y-88965083D02*
X168829807Y-88917464D01*
X168829807Y-88917464D02*
X168808974Y-88893654D01*
X168808974Y-88893654D02*
X168764331Y-88869845D01*
D10*
X203469047Y-33657419D02*
X202897619Y-33657419D01*
X203183333Y-33657419D02*
X203183333Y-32657419D01*
X203183333Y-32657419D02*
X203088095Y-32800276D01*
X203088095Y-32800276D02*
X202992857Y-32895514D01*
X202992857Y-32895514D02*
X202897619Y-32943133D01*
X204088095Y-32657419D02*
X204183333Y-32657419D01*
X204183333Y-32657419D02*
X204278571Y-32705038D01*
X204278571Y-32705038D02*
X204326190Y-32752657D01*
X204326190Y-32752657D02*
X204373809Y-32847895D01*
X204373809Y-32847895D02*
X204421428Y-33038371D01*
X204421428Y-33038371D02*
X204421428Y-33276466D01*
X204421428Y-33276466D02*
X204373809Y-33466942D01*
X204373809Y-33466942D02*
X204326190Y-33562180D01*
X204326190Y-33562180D02*
X204278571Y-33609800D01*
X204278571Y-33609800D02*
X204183333Y-33657419D01*
X204183333Y-33657419D02*
X204088095Y-33657419D01*
X204088095Y-33657419D02*
X203992857Y-33609800D01*
X203992857Y-33609800D02*
X203945238Y-33562180D01*
X203945238Y-33562180D02*
X203897619Y-33466942D01*
X203897619Y-33466942D02*
X203850000Y-33276466D01*
X203850000Y-33276466D02*
X203850000Y-33038371D01*
X203850000Y-33038371D02*
X203897619Y-32847895D01*
X203897619Y-32847895D02*
X203945238Y-32752657D01*
X203945238Y-32752657D02*
X203992857Y-32705038D01*
X203992857Y-32705038D02*
X204088095Y-32657419D01*
X204754762Y-32657419D02*
X205421428Y-32657419D01*
X205421428Y-32657419D02*
X204992857Y-33657419D01*
X205802381Y-33562180D02*
X205850000Y-33609800D01*
X205850000Y-33609800D02*
X205802381Y-33657419D01*
X205802381Y-33657419D02*
X205754762Y-33609800D01*
X205754762Y-33609800D02*
X205802381Y-33562180D01*
X205802381Y-33562180D02*
X205802381Y-33657419D01*
X206421428Y-33085990D02*
X206326190Y-33038371D01*
X206326190Y-33038371D02*
X206278571Y-32990752D01*
X206278571Y-32990752D02*
X206230952Y-32895514D01*
X206230952Y-32895514D02*
X206230952Y-32847895D01*
X206230952Y-32847895D02*
X206278571Y-32752657D01*
X206278571Y-32752657D02*
X206326190Y-32705038D01*
X206326190Y-32705038D02*
X206421428Y-32657419D01*
X206421428Y-32657419D02*
X206611904Y-32657419D01*
X206611904Y-32657419D02*
X206707142Y-32705038D01*
X206707142Y-32705038D02*
X206754761Y-32752657D01*
X206754761Y-32752657D02*
X206802380Y-32847895D01*
X206802380Y-32847895D02*
X206802380Y-32895514D01*
X206802380Y-32895514D02*
X206754761Y-32990752D01*
X206754761Y-32990752D02*
X206707142Y-33038371D01*
X206707142Y-33038371D02*
X206611904Y-33085990D01*
X206611904Y-33085990D02*
X206421428Y-33085990D01*
X206421428Y-33085990D02*
X206326190Y-33133609D01*
X206326190Y-33133609D02*
X206278571Y-33181228D01*
X206278571Y-33181228D02*
X206230952Y-33276466D01*
X206230952Y-33276466D02*
X206230952Y-33466942D01*
X206230952Y-33466942D02*
X206278571Y-33562180D01*
X206278571Y-33562180D02*
X206326190Y-33609800D01*
X206326190Y-33609800D02*
X206421428Y-33657419D01*
X206421428Y-33657419D02*
X206611904Y-33657419D01*
X206611904Y-33657419D02*
X206707142Y-33609800D01*
X206707142Y-33609800D02*
X206754761Y-33562180D01*
X206754761Y-33562180D02*
X206802380Y-33466942D01*
X206802380Y-33466942D02*
X206802380Y-33276466D01*
X206802380Y-33276466D02*
X206754761Y-33181228D01*
X206754761Y-33181228D02*
X206707142Y-33133609D01*
X206707142Y-33133609D02*
X206611904Y-33085990D01*
X150950000Y-79900000D02*
X150950000Y-33713580D01*
X258750000Y-33713580D02*
X258750000Y-79900000D01*
X150950000Y-34300000D02*
X258750000Y-34300000D01*
X150950000Y-34300000D02*
X152076504Y-33713579D01*
X150950000Y-34300000D02*
X152076504Y-34886421D01*
X258750000Y-34300000D02*
X257623496Y-34886421D01*
X258750000Y-34300000D02*
X257623496Y-33713579D01*
D13*
X174954166Y-83849366D02*
X174916666Y-83882700D01*
X174916666Y-83882700D02*
X174812499Y-83916033D01*
X174812499Y-83916033D02*
X174745833Y-83916033D01*
X174745833Y-83916033D02*
X174649999Y-83882700D01*
X174649999Y-83882700D02*
X174591666Y-83816033D01*
X174591666Y-83816033D02*
X174566666Y-83749366D01*
X174566666Y-83749366D02*
X174549999Y-83616033D01*
X174549999Y-83616033D02*
X174562499Y-83516033D01*
X174562499Y-83516033D02*
X174612499Y-83382700D01*
X174612499Y-83382700D02*
X174654166Y-83316033D01*
X174654166Y-83316033D02*
X174729166Y-83249366D01*
X174729166Y-83249366D02*
X174833333Y-83216033D01*
X174833333Y-83216033D02*
X174899999Y-83216033D01*
X174899999Y-83216033D02*
X174995833Y-83249366D01*
X174995833Y-83249366D02*
X175024999Y-83282700D01*
X175604166Y-83449366D02*
X175545833Y-83916033D01*
X175470833Y-83182700D02*
X175241666Y-83682700D01*
X175241666Y-83682700D02*
X175674999Y-83682700D01*
X175945833Y-83916033D02*
X176079166Y-83916033D01*
X176079166Y-83916033D02*
X176150000Y-83882700D01*
X176150000Y-83882700D02*
X176187500Y-83849366D01*
X176187500Y-83849366D02*
X176266666Y-83749366D01*
X176266666Y-83749366D02*
X176316666Y-83616033D01*
X176316666Y-83616033D02*
X176350000Y-83349366D01*
X176350000Y-83349366D02*
X176325000Y-83282700D01*
X176325000Y-83282700D02*
X176295833Y-83249366D01*
X176295833Y-83249366D02*
X176233333Y-83216033D01*
X176233333Y-83216033D02*
X176100000Y-83216033D01*
X176100000Y-83216033D02*
X176029166Y-83249366D01*
X176029166Y-83249366D02*
X175991666Y-83282700D01*
X175991666Y-83282700D02*
X175950000Y-83349366D01*
X175950000Y-83349366D02*
X175929166Y-83516033D01*
X175929166Y-83516033D02*
X175954166Y-83582700D01*
X175954166Y-83582700D02*
X175983333Y-83616033D01*
X175983333Y-83616033D02*
X176045833Y-83649366D01*
X176045833Y-83649366D02*
X176179166Y-83649366D01*
X176179166Y-83649366D02*
X176250000Y-83616033D01*
X176250000Y-83616033D02*
X176287500Y-83582700D01*
X176287500Y-83582700D02*
X176329166Y-83516033D01*
X243984819Y-88066666D02*
X243508628Y-88399999D01*
X243984819Y-88638094D02*
X242984819Y-88638094D01*
X242984819Y-88638094D02*
X242984819Y-88257142D01*
X242984819Y-88257142D02*
X243032438Y-88161904D01*
X243032438Y-88161904D02*
X243080057Y-88114285D01*
X243080057Y-88114285D02*
X243175295Y-88066666D01*
X243175295Y-88066666D02*
X243318152Y-88066666D01*
X243318152Y-88066666D02*
X243413390Y-88114285D01*
X243413390Y-88114285D02*
X243461009Y-88161904D01*
X243461009Y-88161904D02*
X243508628Y-88257142D01*
X243508628Y-88257142D02*
X243508628Y-88638094D01*
X242984819Y-87161904D02*
X242984819Y-87638094D01*
X242984819Y-87638094D02*
X243461009Y-87685713D01*
X243461009Y-87685713D02*
X243413390Y-87638094D01*
X243413390Y-87638094D02*
X243365771Y-87542856D01*
X243365771Y-87542856D02*
X243365771Y-87304761D01*
X243365771Y-87304761D02*
X243413390Y-87209523D01*
X243413390Y-87209523D02*
X243461009Y-87161904D01*
X243461009Y-87161904D02*
X243556247Y-87114285D01*
X243556247Y-87114285D02*
X243794342Y-87114285D01*
X243794342Y-87114285D02*
X243889580Y-87161904D01*
X243889580Y-87161904D02*
X243937200Y-87209523D01*
X243937200Y-87209523D02*
X243984819Y-87304761D01*
X243984819Y-87304761D02*
X243984819Y-87542856D01*
X243984819Y-87542856D02*
X243937200Y-87638094D01*
X243937200Y-87638094D02*
X243889580Y-87685713D01*
X219649366Y-80045833D02*
X219682700Y-80083333D01*
X219682700Y-80083333D02*
X219716033Y-80187500D01*
X219716033Y-80187500D02*
X219716033Y-80254167D01*
X219716033Y-80254167D02*
X219682700Y-80350000D01*
X219682700Y-80350000D02*
X219616033Y-80408333D01*
X219616033Y-80408333D02*
X219549366Y-80433333D01*
X219549366Y-80433333D02*
X219416033Y-80450000D01*
X219416033Y-80450000D02*
X219316033Y-80437500D01*
X219316033Y-80437500D02*
X219182700Y-80387500D01*
X219182700Y-80387500D02*
X219116033Y-80345833D01*
X219116033Y-80345833D02*
X219049366Y-80270833D01*
X219049366Y-80270833D02*
X219016033Y-80166667D01*
X219016033Y-80166667D02*
X219016033Y-80100000D01*
X219016033Y-80100000D02*
X219049366Y-80004167D01*
X219049366Y-80004167D02*
X219082700Y-79975000D01*
X219716033Y-79387500D02*
X219716033Y-79787500D01*
X219716033Y-79587500D02*
X219016033Y-79500000D01*
X219016033Y-79500000D02*
X219116033Y-79579167D01*
X219116033Y-79579167D02*
X219182700Y-79654167D01*
X219182700Y-79654167D02*
X219216033Y-79725000D01*
X219716033Y-79054166D02*
X219716033Y-78920833D01*
X219716033Y-78920833D02*
X219682700Y-78850000D01*
X219682700Y-78850000D02*
X219649366Y-78812500D01*
X219649366Y-78812500D02*
X219549366Y-78733333D01*
X219549366Y-78733333D02*
X219416033Y-78683333D01*
X219416033Y-78683333D02*
X219149366Y-78650000D01*
X219149366Y-78650000D02*
X219082700Y-78675000D01*
X219082700Y-78675000D02*
X219049366Y-78704166D01*
X219049366Y-78704166D02*
X219016033Y-78766666D01*
X219016033Y-78766666D02*
X219016033Y-78900000D01*
X219016033Y-78900000D02*
X219049366Y-78970833D01*
X219049366Y-78970833D02*
X219082700Y-79008333D01*
X219082700Y-79008333D02*
X219149366Y-79050000D01*
X219149366Y-79050000D02*
X219316033Y-79070833D01*
X219316033Y-79070833D02*
X219382700Y-79045833D01*
X219382700Y-79045833D02*
X219416033Y-79016666D01*
X219416033Y-79016666D02*
X219449366Y-78954166D01*
X219449366Y-78954166D02*
X219449366Y-78820833D01*
X219449366Y-78820833D02*
X219416033Y-78750000D01*
X219416033Y-78750000D02*
X219382700Y-78712500D01*
X219382700Y-78712500D02*
X219316033Y-78670833D01*
X157766033Y-86873333D02*
X157432700Y-87064999D01*
X157766033Y-87273333D02*
X157066033Y-87185833D01*
X157066033Y-87185833D02*
X157066033Y-86919166D01*
X157066033Y-86919166D02*
X157099366Y-86856666D01*
X157099366Y-86856666D02*
X157132700Y-86827499D01*
X157132700Y-86827499D02*
X157199366Y-86802499D01*
X157199366Y-86802499D02*
X157299366Y-86814999D01*
X157299366Y-86814999D02*
X157366033Y-86856666D01*
X157366033Y-86856666D02*
X157399366Y-86894166D01*
X157399366Y-86894166D02*
X157432700Y-86964999D01*
X157432700Y-86964999D02*
X157432700Y-87231666D01*
X157132700Y-86527499D02*
X157099366Y-86489999D01*
X157099366Y-86489999D02*
X157066033Y-86419166D01*
X157066033Y-86419166D02*
X157066033Y-86252499D01*
X157066033Y-86252499D02*
X157099366Y-86189999D01*
X157099366Y-86189999D02*
X157132700Y-86160833D01*
X157132700Y-86160833D02*
X157199366Y-86135833D01*
X157199366Y-86135833D02*
X157266033Y-86144166D01*
X157266033Y-86144166D02*
X157366033Y-86189999D01*
X157366033Y-86189999D02*
X157766033Y-86639999D01*
X157766033Y-86639999D02*
X157766033Y-86206666D01*
X172291666Y-69299366D02*
X172254166Y-69332700D01*
X172254166Y-69332700D02*
X172149999Y-69366033D01*
X172149999Y-69366033D02*
X172083333Y-69366033D01*
X172083333Y-69366033D02*
X171987499Y-69332700D01*
X171987499Y-69332700D02*
X171929166Y-69266033D01*
X171929166Y-69266033D02*
X171904166Y-69199366D01*
X171904166Y-69199366D02*
X171887499Y-69066033D01*
X171887499Y-69066033D02*
X171899999Y-68966033D01*
X171899999Y-68966033D02*
X171949999Y-68832700D01*
X171949999Y-68832700D02*
X171991666Y-68766033D01*
X171991666Y-68766033D02*
X172066666Y-68699366D01*
X172066666Y-68699366D02*
X172170833Y-68666033D01*
X172170833Y-68666033D02*
X172237499Y-68666033D01*
X172237499Y-68666033D02*
X172333333Y-68699366D01*
X172333333Y-68699366D02*
X172362499Y-68732700D01*
X172941666Y-68899366D02*
X172883333Y-69366033D01*
X172808333Y-68632700D02*
X172579166Y-69132700D01*
X172579166Y-69132700D02*
X173012499Y-69132700D01*
X173637500Y-68666033D02*
X173504166Y-68666033D01*
X173504166Y-68666033D02*
X173433333Y-68699366D01*
X173433333Y-68699366D02*
X173395833Y-68732700D01*
X173395833Y-68732700D02*
X173316666Y-68832700D01*
X173316666Y-68832700D02*
X173266666Y-68966033D01*
X173266666Y-68966033D02*
X173233333Y-69232700D01*
X173233333Y-69232700D02*
X173258333Y-69299366D01*
X173258333Y-69299366D02*
X173287500Y-69332700D01*
X173287500Y-69332700D02*
X173350000Y-69366033D01*
X173350000Y-69366033D02*
X173483333Y-69366033D01*
X173483333Y-69366033D02*
X173554166Y-69332700D01*
X173554166Y-69332700D02*
X173591666Y-69299366D01*
X173591666Y-69299366D02*
X173633333Y-69232700D01*
X173633333Y-69232700D02*
X173654166Y-69066033D01*
X173654166Y-69066033D02*
X173629166Y-68999366D01*
X173629166Y-68999366D02*
X173600000Y-68966033D01*
X173600000Y-68966033D02*
X173537500Y-68932700D01*
X173537500Y-68932700D02*
X173404166Y-68932700D01*
X173404166Y-68932700D02*
X173333333Y-68966033D01*
X173333333Y-68966033D02*
X173295833Y-68999366D01*
X173295833Y-68999366D02*
X173254166Y-69066033D01*
X180058333Y-75746033D02*
X179866666Y-75412700D01*
X179658333Y-75746033D02*
X179745833Y-75046033D01*
X179745833Y-75046033D02*
X180012499Y-75046033D01*
X180012499Y-75046033D02*
X180074999Y-75079366D01*
X180074999Y-75079366D02*
X180104166Y-75112700D01*
X180104166Y-75112700D02*
X180129166Y-75179366D01*
X180129166Y-75179366D02*
X180116666Y-75279366D01*
X180116666Y-75279366D02*
X180074999Y-75346033D01*
X180074999Y-75346033D02*
X180037499Y-75379366D01*
X180037499Y-75379366D02*
X179966666Y-75412700D01*
X179966666Y-75412700D02*
X179699999Y-75412700D01*
X180404166Y-75112700D02*
X180441666Y-75079366D01*
X180441666Y-75079366D02*
X180512499Y-75046033D01*
X180512499Y-75046033D02*
X180679166Y-75046033D01*
X180679166Y-75046033D02*
X180741666Y-75079366D01*
X180741666Y-75079366D02*
X180770833Y-75112700D01*
X180770833Y-75112700D02*
X180795833Y-75179366D01*
X180795833Y-75179366D02*
X180787499Y-75246033D01*
X180787499Y-75246033D02*
X180741666Y-75346033D01*
X180741666Y-75346033D02*
X180291666Y-75746033D01*
X180291666Y-75746033D02*
X180724999Y-75746033D01*
X181245833Y-75046033D02*
X181312500Y-75046033D01*
X181312500Y-75046033D02*
X181375000Y-75079366D01*
X181375000Y-75079366D02*
X181404166Y-75112700D01*
X181404166Y-75112700D02*
X181429166Y-75179366D01*
X181429166Y-75179366D02*
X181445833Y-75312700D01*
X181445833Y-75312700D02*
X181425000Y-75479366D01*
X181425000Y-75479366D02*
X181375000Y-75612700D01*
X181375000Y-75612700D02*
X181333333Y-75679366D01*
X181333333Y-75679366D02*
X181295833Y-75712700D01*
X181295833Y-75712700D02*
X181225000Y-75746033D01*
X181225000Y-75746033D02*
X181158333Y-75746033D01*
X181158333Y-75746033D02*
X181095833Y-75712700D01*
X181095833Y-75712700D02*
X181066666Y-75679366D01*
X181066666Y-75679366D02*
X181041666Y-75612700D01*
X181041666Y-75612700D02*
X181025000Y-75479366D01*
X181025000Y-75479366D02*
X181045833Y-75312700D01*
X181045833Y-75312700D02*
X181095833Y-75179366D01*
X181095833Y-75179366D02*
X181137500Y-75112700D01*
X181137500Y-75112700D02*
X181175000Y-75079366D01*
X181175000Y-75079366D02*
X181245833Y-75046033D01*
X216949366Y-83345833D02*
X216982700Y-83383333D01*
X216982700Y-83383333D02*
X217016033Y-83487500D01*
X217016033Y-83487500D02*
X217016033Y-83554167D01*
X217016033Y-83554167D02*
X216982700Y-83650000D01*
X216982700Y-83650000D02*
X216916033Y-83708333D01*
X216916033Y-83708333D02*
X216849366Y-83733333D01*
X216849366Y-83733333D02*
X216716033Y-83750000D01*
X216716033Y-83750000D02*
X216616033Y-83737500D01*
X216616033Y-83737500D02*
X216482700Y-83687500D01*
X216482700Y-83687500D02*
X216416033Y-83645833D01*
X216416033Y-83645833D02*
X216349366Y-83570833D01*
X216349366Y-83570833D02*
X216316033Y-83466667D01*
X216316033Y-83466667D02*
X216316033Y-83400000D01*
X216316033Y-83400000D02*
X216349366Y-83304167D01*
X216349366Y-83304167D02*
X216382700Y-83275000D01*
X216382700Y-83008333D02*
X216349366Y-82970833D01*
X216349366Y-82970833D02*
X216316033Y-82900000D01*
X216316033Y-82900000D02*
X216316033Y-82733333D01*
X216316033Y-82733333D02*
X216349366Y-82670833D01*
X216349366Y-82670833D02*
X216382700Y-82641667D01*
X216382700Y-82641667D02*
X216449366Y-82616667D01*
X216449366Y-82616667D02*
X216516033Y-82625000D01*
X216516033Y-82625000D02*
X216616033Y-82670833D01*
X216616033Y-82670833D02*
X217016033Y-83120833D01*
X217016033Y-83120833D02*
X217016033Y-82687500D01*
X216382700Y-82341666D02*
X216349366Y-82304166D01*
X216349366Y-82304166D02*
X216316033Y-82233333D01*
X216316033Y-82233333D02*
X216316033Y-82066666D01*
X216316033Y-82066666D02*
X216349366Y-82004166D01*
X216349366Y-82004166D02*
X216382700Y-81975000D01*
X216382700Y-81975000D02*
X216449366Y-81950000D01*
X216449366Y-81950000D02*
X216516033Y-81958333D01*
X216516033Y-81958333D02*
X216616033Y-82004166D01*
X216616033Y-82004166D02*
X217016033Y-82454166D01*
X217016033Y-82454166D02*
X217016033Y-82020833D01*
X252887500Y-89749366D02*
X252850000Y-89782700D01*
X252850000Y-89782700D02*
X252745833Y-89816033D01*
X252745833Y-89816033D02*
X252679167Y-89816033D01*
X252679167Y-89816033D02*
X252583333Y-89782700D01*
X252583333Y-89782700D02*
X252525000Y-89716033D01*
X252525000Y-89716033D02*
X252500000Y-89649366D01*
X252500000Y-89649366D02*
X252483333Y-89516033D01*
X252483333Y-89516033D02*
X252495833Y-89416033D01*
X252495833Y-89416033D02*
X252545833Y-89282700D01*
X252545833Y-89282700D02*
X252587500Y-89216033D01*
X252587500Y-89216033D02*
X252662500Y-89149366D01*
X252662500Y-89149366D02*
X252766667Y-89116033D01*
X252766667Y-89116033D02*
X252833333Y-89116033D01*
X252833333Y-89116033D02*
X252929167Y-89149366D01*
X252929167Y-89149366D02*
X252958333Y-89182700D01*
X253212500Y-89816033D02*
X253345833Y-89816033D01*
X253345833Y-89816033D02*
X253416667Y-89782700D01*
X253416667Y-89782700D02*
X253454167Y-89749366D01*
X253454167Y-89749366D02*
X253533333Y-89649366D01*
X253533333Y-89649366D02*
X253583333Y-89516033D01*
X253583333Y-89516033D02*
X253616667Y-89249366D01*
X253616667Y-89249366D02*
X253591667Y-89182700D01*
X253591667Y-89182700D02*
X253562500Y-89149366D01*
X253562500Y-89149366D02*
X253500000Y-89116033D01*
X253500000Y-89116033D02*
X253366667Y-89116033D01*
X253366667Y-89116033D02*
X253295833Y-89149366D01*
X253295833Y-89149366D02*
X253258333Y-89182700D01*
X253258333Y-89182700D02*
X253216667Y-89249366D01*
X253216667Y-89249366D02*
X253195833Y-89416033D01*
X253195833Y-89416033D02*
X253220833Y-89482700D01*
X253220833Y-89482700D02*
X253250000Y-89516033D01*
X253250000Y-89516033D02*
X253312500Y-89549366D01*
X253312500Y-89549366D02*
X253445833Y-89549366D01*
X253445833Y-89549366D02*
X253516667Y-89516033D01*
X253516667Y-89516033D02*
X253554167Y-89482700D01*
X253554167Y-89482700D02*
X253595833Y-89416033D01*
X221716666Y-76149366D02*
X221679166Y-76182700D01*
X221679166Y-76182700D02*
X221574999Y-76216033D01*
X221574999Y-76216033D02*
X221508333Y-76216033D01*
X221508333Y-76216033D02*
X221412499Y-76182700D01*
X221412499Y-76182700D02*
X221354166Y-76116033D01*
X221354166Y-76116033D02*
X221329166Y-76049366D01*
X221329166Y-76049366D02*
X221312499Y-75916033D01*
X221312499Y-75916033D02*
X221324999Y-75816033D01*
X221324999Y-75816033D02*
X221374999Y-75682700D01*
X221374999Y-75682700D02*
X221416666Y-75616033D01*
X221416666Y-75616033D02*
X221491666Y-75549366D01*
X221491666Y-75549366D02*
X221595833Y-75516033D01*
X221595833Y-75516033D02*
X221662499Y-75516033D01*
X221662499Y-75516033D02*
X221758333Y-75549366D01*
X221758333Y-75549366D02*
X221787499Y-75582700D01*
X222374999Y-76216033D02*
X221974999Y-76216033D01*
X222174999Y-76216033D02*
X222262499Y-75516033D01*
X222262499Y-75516033D02*
X222183333Y-75616033D01*
X222183333Y-75616033D02*
X222108333Y-75682700D01*
X222108333Y-75682700D02*
X222037499Y-75716033D01*
X223062500Y-75516033D02*
X222929166Y-75516033D01*
X222929166Y-75516033D02*
X222858333Y-75549366D01*
X222858333Y-75549366D02*
X222820833Y-75582700D01*
X222820833Y-75582700D02*
X222741666Y-75682700D01*
X222741666Y-75682700D02*
X222691666Y-75816033D01*
X222691666Y-75816033D02*
X222658333Y-76082700D01*
X222658333Y-76082700D02*
X222683333Y-76149366D01*
X222683333Y-76149366D02*
X222712500Y-76182700D01*
X222712500Y-76182700D02*
X222775000Y-76216033D01*
X222775000Y-76216033D02*
X222908333Y-76216033D01*
X222908333Y-76216033D02*
X222979166Y-76182700D01*
X222979166Y-76182700D02*
X223016666Y-76149366D01*
X223016666Y-76149366D02*
X223058333Y-76082700D01*
X223058333Y-76082700D02*
X223079166Y-75916033D01*
X223079166Y-75916033D02*
X223054166Y-75849366D01*
X223054166Y-75849366D02*
X223025000Y-75816033D01*
X223025000Y-75816033D02*
X222962500Y-75782700D01*
X222962500Y-75782700D02*
X222829166Y-75782700D01*
X222829166Y-75782700D02*
X222758333Y-75816033D01*
X222758333Y-75816033D02*
X222720833Y-75849366D01*
X222720833Y-75849366D02*
X222679166Y-75916033D01*
X203416666Y-86724366D02*
X203379166Y-86757700D01*
X203379166Y-86757700D02*
X203274999Y-86791033D01*
X203274999Y-86791033D02*
X203208333Y-86791033D01*
X203208333Y-86791033D02*
X203112499Y-86757700D01*
X203112499Y-86757700D02*
X203054166Y-86691033D01*
X203054166Y-86691033D02*
X203029166Y-86624366D01*
X203029166Y-86624366D02*
X203012499Y-86491033D01*
X203012499Y-86491033D02*
X203024999Y-86391033D01*
X203024999Y-86391033D02*
X203074999Y-86257700D01*
X203074999Y-86257700D02*
X203116666Y-86191033D01*
X203116666Y-86191033D02*
X203191666Y-86124366D01*
X203191666Y-86124366D02*
X203295833Y-86091033D01*
X203295833Y-86091033D02*
X203362499Y-86091033D01*
X203362499Y-86091033D02*
X203458333Y-86124366D01*
X203458333Y-86124366D02*
X203487499Y-86157700D01*
X204066666Y-86324366D02*
X204008333Y-86791033D01*
X203933333Y-86057700D02*
X203704166Y-86557700D01*
X203704166Y-86557700D02*
X204137499Y-86557700D01*
X204733333Y-86324366D02*
X204675000Y-86791033D01*
X204600000Y-86057700D02*
X204370833Y-86557700D01*
X204370833Y-86557700D02*
X204804166Y-86557700D01*
D10*
X167418633Y-87900000D02*
X167418633Y-87500000D01*
X168118633Y-87787500D02*
X167418633Y-87700000D01*
X168118633Y-87354167D02*
X167418633Y-87266667D01*
X167418633Y-87266667D02*
X167418633Y-87000000D01*
X167418633Y-87000000D02*
X167451966Y-86937500D01*
X167451966Y-86937500D02*
X167485300Y-86908333D01*
X167485300Y-86908333D02*
X167551966Y-86883333D01*
X167551966Y-86883333D02*
X167651966Y-86895833D01*
X167651966Y-86895833D02*
X167718633Y-86937500D01*
X167718633Y-86937500D02*
X167751966Y-86975000D01*
X167751966Y-86975000D02*
X167785300Y-87045833D01*
X167785300Y-87045833D02*
X167785300Y-87312500D01*
X167418633Y-86633333D02*
X167418633Y-86200000D01*
X167418633Y-86200000D02*
X167685300Y-86466667D01*
X167685300Y-86466667D02*
X167685300Y-86366667D01*
X167685300Y-86366667D02*
X167718633Y-86304167D01*
X167718633Y-86304167D02*
X167751966Y-86275000D01*
X167751966Y-86275000D02*
X167818633Y-86250000D01*
X167818633Y-86250000D02*
X167985300Y-86270833D01*
X167985300Y-86270833D02*
X168051966Y-86312500D01*
X168051966Y-86312500D02*
X168085300Y-86350000D01*
X168085300Y-86350000D02*
X168118633Y-86420833D01*
X168118633Y-86420833D02*
X168118633Y-86620833D01*
X168118633Y-86620833D02*
X168085300Y-86683333D01*
X168085300Y-86683333D02*
X168051966Y-86712500D01*
X167418633Y-86000000D02*
X168118633Y-85854166D01*
X168118633Y-85854166D02*
X167418633Y-85533333D01*
X167418633Y-85366666D02*
X167418633Y-84933333D01*
X167418633Y-84933333D02*
X167685300Y-85200000D01*
X167685300Y-85200000D02*
X167685300Y-85100000D01*
X167685300Y-85100000D02*
X167718633Y-85037500D01*
X167718633Y-85037500D02*
X167751966Y-85008333D01*
X167751966Y-85008333D02*
X167818633Y-84983333D01*
X167818633Y-84983333D02*
X167985300Y-85004166D01*
X167985300Y-85004166D02*
X168051966Y-85045833D01*
X168051966Y-85045833D02*
X168085300Y-85083333D01*
X168085300Y-85083333D02*
X168118633Y-85154166D01*
X168118633Y-85154166D02*
X168118633Y-85354166D01*
X168118633Y-85354166D02*
X168085300Y-85416666D01*
X168085300Y-85416666D02*
X168051966Y-85445833D01*
X167851966Y-84687499D02*
X167851966Y-84154166D01*
X168118633Y-84454166D02*
X167585300Y-84387499D01*
X168118633Y-83487499D02*
X168118633Y-83887499D01*
X168118633Y-83687499D02*
X167418633Y-83599999D01*
X167418633Y-83599999D02*
X167518633Y-83679166D01*
X167518633Y-83679166D02*
X167585300Y-83754166D01*
X167585300Y-83754166D02*
X167618633Y-83824999D01*
D13*
X251366033Y-79500000D02*
X251932700Y-79570833D01*
X251932700Y-79570833D02*
X251999366Y-79545833D01*
X251999366Y-79545833D02*
X252032700Y-79516666D01*
X252032700Y-79516666D02*
X252066033Y-79454166D01*
X252066033Y-79454166D02*
X252066033Y-79320833D01*
X252066033Y-79320833D02*
X252032700Y-79250000D01*
X252032700Y-79250000D02*
X251999366Y-79212500D01*
X251999366Y-79212500D02*
X251932700Y-79170833D01*
X251932700Y-79170833D02*
X251366033Y-79100000D01*
X251366033Y-78466667D02*
X251366033Y-78600000D01*
X251366033Y-78600000D02*
X251399366Y-78670833D01*
X251399366Y-78670833D02*
X251432700Y-78708333D01*
X251432700Y-78708333D02*
X251532700Y-78787500D01*
X251532700Y-78787500D02*
X251666033Y-78837500D01*
X251666033Y-78837500D02*
X251932700Y-78870833D01*
X251932700Y-78870833D02*
X251999366Y-78845833D01*
X251999366Y-78845833D02*
X252032700Y-78816667D01*
X252032700Y-78816667D02*
X252066033Y-78754167D01*
X252066033Y-78754167D02*
X252066033Y-78620833D01*
X252066033Y-78620833D02*
X252032700Y-78550000D01*
X252032700Y-78550000D02*
X251999366Y-78512500D01*
X251999366Y-78512500D02*
X251932700Y-78470833D01*
X251932700Y-78470833D02*
X251766033Y-78450000D01*
X251766033Y-78450000D02*
X251699366Y-78475000D01*
X251699366Y-78475000D02*
X251666033Y-78504167D01*
X251666033Y-78504167D02*
X251632700Y-78566667D01*
X251632700Y-78566667D02*
X251632700Y-78700000D01*
X251632700Y-78700000D02*
X251666033Y-78770833D01*
X251666033Y-78770833D02*
X251699366Y-78808333D01*
X251699366Y-78808333D02*
X251766033Y-78850000D01*
X258316033Y-76254167D02*
X257982700Y-76445833D01*
X258316033Y-76654167D02*
X257616033Y-76566667D01*
X257616033Y-76566667D02*
X257616033Y-76300000D01*
X257616033Y-76300000D02*
X257649366Y-76237500D01*
X257649366Y-76237500D02*
X257682700Y-76208333D01*
X257682700Y-76208333D02*
X257749366Y-76183333D01*
X257749366Y-76183333D02*
X257849366Y-76195833D01*
X257849366Y-76195833D02*
X257916033Y-76237500D01*
X257916033Y-76237500D02*
X257949366Y-76275000D01*
X257949366Y-76275000D02*
X257982700Y-76345833D01*
X257982700Y-76345833D02*
X257982700Y-76612500D01*
X257682700Y-75908333D02*
X257649366Y-75870833D01*
X257649366Y-75870833D02*
X257616033Y-75800000D01*
X257616033Y-75800000D02*
X257616033Y-75633333D01*
X257616033Y-75633333D02*
X257649366Y-75570833D01*
X257649366Y-75570833D02*
X257682700Y-75541667D01*
X257682700Y-75541667D02*
X257749366Y-75516667D01*
X257749366Y-75516667D02*
X257816033Y-75525000D01*
X257816033Y-75525000D02*
X257916033Y-75570833D01*
X257916033Y-75570833D02*
X258316033Y-76020833D01*
X258316033Y-76020833D02*
X258316033Y-75587500D01*
X258316033Y-75254166D02*
X258316033Y-75120833D01*
X258316033Y-75120833D02*
X258282700Y-75050000D01*
X258282700Y-75050000D02*
X258249366Y-75012500D01*
X258249366Y-75012500D02*
X258149366Y-74933333D01*
X258149366Y-74933333D02*
X258016033Y-74883333D01*
X258016033Y-74883333D02*
X257749366Y-74850000D01*
X257749366Y-74850000D02*
X257682700Y-74875000D01*
X257682700Y-74875000D02*
X257649366Y-74904166D01*
X257649366Y-74904166D02*
X257616033Y-74966666D01*
X257616033Y-74966666D02*
X257616033Y-75100000D01*
X257616033Y-75100000D02*
X257649366Y-75170833D01*
X257649366Y-75170833D02*
X257682700Y-75208333D01*
X257682700Y-75208333D02*
X257749366Y-75250000D01*
X257749366Y-75250000D02*
X257916033Y-75270833D01*
X257916033Y-75270833D02*
X257982700Y-75245833D01*
X257982700Y-75245833D02*
X258016033Y-75216666D01*
X258016033Y-75216666D02*
X258049366Y-75154166D01*
X258049366Y-75154166D02*
X258049366Y-75020833D01*
X258049366Y-75020833D02*
X258016033Y-74950000D01*
X258016033Y-74950000D02*
X257982700Y-74912500D01*
X257982700Y-74912500D02*
X257916033Y-74870833D01*
X237749366Y-69145833D02*
X237782700Y-69183333D01*
X237782700Y-69183333D02*
X237816033Y-69287500D01*
X237816033Y-69287500D02*
X237816033Y-69354167D01*
X237816033Y-69354167D02*
X237782700Y-69450000D01*
X237782700Y-69450000D02*
X237716033Y-69508333D01*
X237716033Y-69508333D02*
X237649366Y-69533333D01*
X237649366Y-69533333D02*
X237516033Y-69550000D01*
X237516033Y-69550000D02*
X237416033Y-69537500D01*
X237416033Y-69537500D02*
X237282700Y-69487500D01*
X237282700Y-69487500D02*
X237216033Y-69445833D01*
X237216033Y-69445833D02*
X237149366Y-69370833D01*
X237149366Y-69370833D02*
X237116033Y-69266667D01*
X237116033Y-69266667D02*
X237116033Y-69200000D01*
X237116033Y-69200000D02*
X237149366Y-69104167D01*
X237149366Y-69104167D02*
X237182700Y-69075000D01*
X237182700Y-68808333D02*
X237149366Y-68770833D01*
X237149366Y-68770833D02*
X237116033Y-68700000D01*
X237116033Y-68700000D02*
X237116033Y-68533333D01*
X237116033Y-68533333D02*
X237149366Y-68470833D01*
X237149366Y-68470833D02*
X237182700Y-68441667D01*
X237182700Y-68441667D02*
X237249366Y-68416667D01*
X237249366Y-68416667D02*
X237316033Y-68425000D01*
X237316033Y-68425000D02*
X237416033Y-68470833D01*
X237416033Y-68470833D02*
X237816033Y-68920833D01*
X237816033Y-68920833D02*
X237816033Y-68487500D01*
X237116033Y-68166666D02*
X237116033Y-67700000D01*
X237116033Y-67700000D02*
X237816033Y-68087500D01*
X190608333Y-69486033D02*
X190416666Y-69152700D01*
X190208333Y-69486033D02*
X190295833Y-68786033D01*
X190295833Y-68786033D02*
X190562499Y-68786033D01*
X190562499Y-68786033D02*
X190624999Y-68819366D01*
X190624999Y-68819366D02*
X190654166Y-68852700D01*
X190654166Y-68852700D02*
X190679166Y-68919366D01*
X190679166Y-68919366D02*
X190666666Y-69019366D01*
X190666666Y-69019366D02*
X190624999Y-69086033D01*
X190624999Y-69086033D02*
X190587499Y-69119366D01*
X190587499Y-69119366D02*
X190516666Y-69152700D01*
X190516666Y-69152700D02*
X190249999Y-69152700D01*
X190954166Y-68852700D02*
X190991666Y-68819366D01*
X190991666Y-68819366D02*
X191062499Y-68786033D01*
X191062499Y-68786033D02*
X191229166Y-68786033D01*
X191229166Y-68786033D02*
X191291666Y-68819366D01*
X191291666Y-68819366D02*
X191320833Y-68852700D01*
X191320833Y-68852700D02*
X191345833Y-68919366D01*
X191345833Y-68919366D02*
X191337499Y-68986033D01*
X191337499Y-68986033D02*
X191291666Y-69086033D01*
X191291666Y-69086033D02*
X190841666Y-69486033D01*
X190841666Y-69486033D02*
X191274999Y-69486033D01*
X191595833Y-68786033D02*
X192029166Y-68786033D01*
X192029166Y-68786033D02*
X191762500Y-69052700D01*
X191762500Y-69052700D02*
X191862500Y-69052700D01*
X191862500Y-69052700D02*
X191925000Y-69086033D01*
X191925000Y-69086033D02*
X191954166Y-69119366D01*
X191954166Y-69119366D02*
X191979166Y-69186033D01*
X191979166Y-69186033D02*
X191958333Y-69352700D01*
X191958333Y-69352700D02*
X191916666Y-69419366D01*
X191916666Y-69419366D02*
X191879166Y-69452700D01*
X191879166Y-69452700D02*
X191808333Y-69486033D01*
X191808333Y-69486033D02*
X191608333Y-69486033D01*
X191608333Y-69486033D02*
X191545833Y-69452700D01*
X191545833Y-69452700D02*
X191516666Y-69419366D01*
X242398809Y-94603628D02*
X242398809Y-95079819D01*
X242065476Y-94079819D02*
X242398809Y-94603628D01*
X242398809Y-94603628D02*
X242732142Y-94079819D01*
X243017857Y-94175057D02*
X243065476Y-94127438D01*
X243065476Y-94127438D02*
X243160714Y-94079819D01*
X243160714Y-94079819D02*
X243398809Y-94079819D01*
X243398809Y-94079819D02*
X243494047Y-94127438D01*
X243494047Y-94127438D02*
X243541666Y-94175057D01*
X243541666Y-94175057D02*
X243589285Y-94270295D01*
X243589285Y-94270295D02*
X243589285Y-94365533D01*
X243589285Y-94365533D02*
X243541666Y-94508390D01*
X243541666Y-94508390D02*
X242970238Y-95079819D01*
X242970238Y-95079819D02*
X243589285Y-95079819D01*
X237041666Y-91581009D02*
X236708333Y-91581009D01*
X236708333Y-92104819D02*
X236708333Y-91104819D01*
X236708333Y-91104819D02*
X237184523Y-91104819D01*
X237898809Y-91581009D02*
X238041666Y-91628628D01*
X238041666Y-91628628D02*
X238089285Y-91676247D01*
X238089285Y-91676247D02*
X238136904Y-91771485D01*
X238136904Y-91771485D02*
X238136904Y-91914342D01*
X238136904Y-91914342D02*
X238089285Y-92009580D01*
X238089285Y-92009580D02*
X238041666Y-92057200D01*
X238041666Y-92057200D02*
X237946428Y-92104819D01*
X237946428Y-92104819D02*
X237565476Y-92104819D01*
X237565476Y-92104819D02*
X237565476Y-91104819D01*
X237565476Y-91104819D02*
X237898809Y-91104819D01*
X237898809Y-91104819D02*
X237994047Y-91152438D01*
X237994047Y-91152438D02*
X238041666Y-91200057D01*
X238041666Y-91200057D02*
X238089285Y-91295295D01*
X238089285Y-91295295D02*
X238089285Y-91390533D01*
X238089285Y-91390533D02*
X238041666Y-91485771D01*
X238041666Y-91485771D02*
X237994047Y-91533390D01*
X237994047Y-91533390D02*
X237898809Y-91581009D01*
X237898809Y-91581009D02*
X237565476Y-91581009D01*
X239089285Y-92104819D02*
X238517857Y-92104819D01*
X238803571Y-92104819D02*
X238803571Y-91104819D01*
X238803571Y-91104819D02*
X238708333Y-91247676D01*
X238708333Y-91247676D02*
X238613095Y-91342914D01*
X238613095Y-91342914D02*
X238517857Y-91390533D01*
X178833333Y-88909580D02*
X178785714Y-88957200D01*
X178785714Y-88957200D02*
X178642857Y-89004819D01*
X178642857Y-89004819D02*
X178547619Y-89004819D01*
X178547619Y-89004819D02*
X178404762Y-88957200D01*
X178404762Y-88957200D02*
X178309524Y-88861961D01*
X178309524Y-88861961D02*
X178261905Y-88766723D01*
X178261905Y-88766723D02*
X178214286Y-88576247D01*
X178214286Y-88576247D02*
X178214286Y-88433390D01*
X178214286Y-88433390D02*
X178261905Y-88242914D01*
X178261905Y-88242914D02*
X178309524Y-88147676D01*
X178309524Y-88147676D02*
X178404762Y-88052438D01*
X178404762Y-88052438D02*
X178547619Y-88004819D01*
X178547619Y-88004819D02*
X178642857Y-88004819D01*
X178642857Y-88004819D02*
X178785714Y-88052438D01*
X178785714Y-88052438D02*
X178833333Y-88100057D01*
X179785714Y-89004819D02*
X179214286Y-89004819D01*
X179500000Y-89004819D02*
X179500000Y-88004819D01*
X179500000Y-88004819D02*
X179404762Y-88147676D01*
X179404762Y-88147676D02*
X179309524Y-88242914D01*
X179309524Y-88242914D02*
X179214286Y-88290533D01*
X215387500Y-98049366D02*
X215350000Y-98082700D01*
X215350000Y-98082700D02*
X215245833Y-98116033D01*
X215245833Y-98116033D02*
X215179167Y-98116033D01*
X215179167Y-98116033D02*
X215083333Y-98082700D01*
X215083333Y-98082700D02*
X215025000Y-98016033D01*
X215025000Y-98016033D02*
X215000000Y-97949366D01*
X215000000Y-97949366D02*
X214983333Y-97816033D01*
X214983333Y-97816033D02*
X214995833Y-97716033D01*
X214995833Y-97716033D02*
X215045833Y-97582700D01*
X215045833Y-97582700D02*
X215087500Y-97516033D01*
X215087500Y-97516033D02*
X215162500Y-97449366D01*
X215162500Y-97449366D02*
X215266667Y-97416033D01*
X215266667Y-97416033D02*
X215333333Y-97416033D01*
X215333333Y-97416033D02*
X215429167Y-97449366D01*
X215429167Y-97449366D02*
X215458333Y-97482700D01*
X215725000Y-97482700D02*
X215762500Y-97449366D01*
X215762500Y-97449366D02*
X215833333Y-97416033D01*
X215833333Y-97416033D02*
X216000000Y-97416033D01*
X216000000Y-97416033D02*
X216062500Y-97449366D01*
X216062500Y-97449366D02*
X216091667Y-97482700D01*
X216091667Y-97482700D02*
X216116667Y-97549366D01*
X216116667Y-97549366D02*
X216108333Y-97616033D01*
X216108333Y-97616033D02*
X216062500Y-97716033D01*
X216062500Y-97716033D02*
X215612500Y-98116033D01*
X215612500Y-98116033D02*
X216045833Y-98116033D01*
X258316033Y-73654167D02*
X257982700Y-73845833D01*
X258316033Y-74054167D02*
X257616033Y-73966667D01*
X257616033Y-73966667D02*
X257616033Y-73700000D01*
X257616033Y-73700000D02*
X257649366Y-73637500D01*
X257649366Y-73637500D02*
X257682700Y-73608333D01*
X257682700Y-73608333D02*
X257749366Y-73583333D01*
X257749366Y-73583333D02*
X257849366Y-73595833D01*
X257849366Y-73595833D02*
X257916033Y-73637500D01*
X257916033Y-73637500D02*
X257949366Y-73675000D01*
X257949366Y-73675000D02*
X257982700Y-73745833D01*
X257982700Y-73745833D02*
X257982700Y-74012500D01*
X257682700Y-73308333D02*
X257649366Y-73270833D01*
X257649366Y-73270833D02*
X257616033Y-73200000D01*
X257616033Y-73200000D02*
X257616033Y-73033333D01*
X257616033Y-73033333D02*
X257649366Y-72970833D01*
X257649366Y-72970833D02*
X257682700Y-72941667D01*
X257682700Y-72941667D02*
X257749366Y-72916667D01*
X257749366Y-72916667D02*
X257816033Y-72925000D01*
X257816033Y-72925000D02*
X257916033Y-72970833D01*
X257916033Y-72970833D02*
X258316033Y-73420833D01*
X258316033Y-73420833D02*
X258316033Y-72987500D01*
X257916033Y-72537500D02*
X257882700Y-72600000D01*
X257882700Y-72600000D02*
X257849366Y-72629166D01*
X257849366Y-72629166D02*
X257782700Y-72654166D01*
X257782700Y-72654166D02*
X257749366Y-72650000D01*
X257749366Y-72650000D02*
X257682700Y-72608333D01*
X257682700Y-72608333D02*
X257649366Y-72570833D01*
X257649366Y-72570833D02*
X257616033Y-72500000D01*
X257616033Y-72500000D02*
X257616033Y-72366666D01*
X257616033Y-72366666D02*
X257649366Y-72304166D01*
X257649366Y-72304166D02*
X257682700Y-72275000D01*
X257682700Y-72275000D02*
X257749366Y-72250000D01*
X257749366Y-72250000D02*
X257782700Y-72254166D01*
X257782700Y-72254166D02*
X257849366Y-72295833D01*
X257849366Y-72295833D02*
X257882700Y-72333333D01*
X257882700Y-72333333D02*
X257916033Y-72404166D01*
X257916033Y-72404166D02*
X257916033Y-72537500D01*
X257916033Y-72537500D02*
X257949366Y-72608333D01*
X257949366Y-72608333D02*
X257982700Y-72645833D01*
X257982700Y-72645833D02*
X258049366Y-72687500D01*
X258049366Y-72687500D02*
X258182700Y-72704166D01*
X258182700Y-72704166D02*
X258249366Y-72679166D01*
X258249366Y-72679166D02*
X258282700Y-72650000D01*
X258282700Y-72650000D02*
X258316033Y-72587500D01*
X258316033Y-72587500D02*
X258316033Y-72454166D01*
X258316033Y-72454166D02*
X258282700Y-72383333D01*
X258282700Y-72383333D02*
X258249366Y-72345833D01*
X258249366Y-72345833D02*
X258182700Y-72304166D01*
X258182700Y-72304166D02*
X258049366Y-72287500D01*
X258049366Y-72287500D02*
X257982700Y-72312500D01*
X257982700Y-72312500D02*
X257949366Y-72341666D01*
X257949366Y-72341666D02*
X257916033Y-72404166D01*
X242154166Y-72199366D02*
X242116666Y-72232700D01*
X242116666Y-72232700D02*
X242012499Y-72266033D01*
X242012499Y-72266033D02*
X241945833Y-72266033D01*
X241945833Y-72266033D02*
X241849999Y-72232700D01*
X241849999Y-72232700D02*
X241791666Y-72166033D01*
X241791666Y-72166033D02*
X241766666Y-72099366D01*
X241766666Y-72099366D02*
X241749999Y-71966033D01*
X241749999Y-71966033D02*
X241762499Y-71866033D01*
X241762499Y-71866033D02*
X241812499Y-71732700D01*
X241812499Y-71732700D02*
X241854166Y-71666033D01*
X241854166Y-71666033D02*
X241929166Y-71599366D01*
X241929166Y-71599366D02*
X242033333Y-71566033D01*
X242033333Y-71566033D02*
X242099999Y-71566033D01*
X242099999Y-71566033D02*
X242195833Y-71599366D01*
X242195833Y-71599366D02*
X242224999Y-71632700D01*
X242812499Y-72266033D02*
X242412499Y-72266033D01*
X242612499Y-72266033D02*
X242699999Y-71566033D01*
X242699999Y-71566033D02*
X242620833Y-71666033D01*
X242620833Y-71666033D02*
X242545833Y-71732700D01*
X242545833Y-71732700D02*
X242474999Y-71766033D01*
X243470833Y-71799366D02*
X243412500Y-72266033D01*
X243337500Y-71532700D02*
X243108333Y-72032700D01*
X243108333Y-72032700D02*
X243541666Y-72032700D01*
X227454166Y-69411866D02*
X227416666Y-69445200D01*
X227416666Y-69445200D02*
X227312499Y-69478533D01*
X227312499Y-69478533D02*
X227245833Y-69478533D01*
X227245833Y-69478533D02*
X227149999Y-69445200D01*
X227149999Y-69445200D02*
X227091666Y-69378533D01*
X227091666Y-69378533D02*
X227066666Y-69311866D01*
X227066666Y-69311866D02*
X227049999Y-69178533D01*
X227049999Y-69178533D02*
X227062499Y-69078533D01*
X227062499Y-69078533D02*
X227112499Y-68945200D01*
X227112499Y-68945200D02*
X227154166Y-68878533D01*
X227154166Y-68878533D02*
X227229166Y-68811866D01*
X227229166Y-68811866D02*
X227333333Y-68778533D01*
X227333333Y-68778533D02*
X227399999Y-68778533D01*
X227399999Y-68778533D02*
X227495833Y-68811866D01*
X227495833Y-68811866D02*
X227524999Y-68845200D01*
X228112499Y-69478533D02*
X227712499Y-69478533D01*
X227912499Y-69478533D02*
X227999999Y-68778533D01*
X227999999Y-68778533D02*
X227920833Y-68878533D01*
X227920833Y-68878533D02*
X227845833Y-68945200D01*
X227845833Y-68945200D02*
X227774999Y-68978533D01*
X228433333Y-68778533D02*
X228900000Y-68778533D01*
X228900000Y-68778533D02*
X228512500Y-69478533D01*
X185391666Y-69349366D02*
X185354166Y-69382700D01*
X185354166Y-69382700D02*
X185249999Y-69416033D01*
X185249999Y-69416033D02*
X185183333Y-69416033D01*
X185183333Y-69416033D02*
X185087499Y-69382700D01*
X185087499Y-69382700D02*
X185029166Y-69316033D01*
X185029166Y-69316033D02*
X185004166Y-69249366D01*
X185004166Y-69249366D02*
X184987499Y-69116033D01*
X184987499Y-69116033D02*
X184999999Y-69016033D01*
X184999999Y-69016033D02*
X185049999Y-68882700D01*
X185049999Y-68882700D02*
X185091666Y-68816033D01*
X185091666Y-68816033D02*
X185166666Y-68749366D01*
X185166666Y-68749366D02*
X185270833Y-68716033D01*
X185270833Y-68716033D02*
X185337499Y-68716033D01*
X185337499Y-68716033D02*
X185433333Y-68749366D01*
X185433333Y-68749366D02*
X185462499Y-68782700D01*
X186041666Y-68949366D02*
X185983333Y-69416033D01*
X185908333Y-68682700D02*
X185679166Y-69182700D01*
X185679166Y-69182700D02*
X186112499Y-69182700D01*
X186370833Y-68716033D02*
X186837500Y-68716033D01*
X186837500Y-68716033D02*
X186450000Y-69416033D01*
X191887500Y-90049366D02*
X191850000Y-90082700D01*
X191850000Y-90082700D02*
X191745833Y-90116033D01*
X191745833Y-90116033D02*
X191679167Y-90116033D01*
X191679167Y-90116033D02*
X191583333Y-90082700D01*
X191583333Y-90082700D02*
X191525000Y-90016033D01*
X191525000Y-90016033D02*
X191500000Y-89949366D01*
X191500000Y-89949366D02*
X191483333Y-89816033D01*
X191483333Y-89816033D02*
X191495833Y-89716033D01*
X191495833Y-89716033D02*
X191545833Y-89582700D01*
X191545833Y-89582700D02*
X191587500Y-89516033D01*
X191587500Y-89516033D02*
X191662500Y-89449366D01*
X191662500Y-89449366D02*
X191766667Y-89416033D01*
X191766667Y-89416033D02*
X191833333Y-89416033D01*
X191833333Y-89416033D02*
X191929167Y-89449366D01*
X191929167Y-89449366D02*
X191958333Y-89482700D01*
X192537500Y-89649366D02*
X192479167Y-90116033D01*
X192404167Y-89382700D02*
X192175000Y-89882700D01*
X192175000Y-89882700D02*
X192608333Y-89882700D01*
X230954166Y-93849366D02*
X230916666Y-93882700D01*
X230916666Y-93882700D02*
X230812499Y-93916033D01*
X230812499Y-93916033D02*
X230745833Y-93916033D01*
X230745833Y-93916033D02*
X230649999Y-93882700D01*
X230649999Y-93882700D02*
X230591666Y-93816033D01*
X230591666Y-93816033D02*
X230566666Y-93749366D01*
X230566666Y-93749366D02*
X230549999Y-93616033D01*
X230549999Y-93616033D02*
X230562499Y-93516033D01*
X230562499Y-93516033D02*
X230612499Y-93382700D01*
X230612499Y-93382700D02*
X230654166Y-93316033D01*
X230654166Y-93316033D02*
X230729166Y-93249366D01*
X230729166Y-93249366D02*
X230833333Y-93216033D01*
X230833333Y-93216033D02*
X230899999Y-93216033D01*
X230899999Y-93216033D02*
X230995833Y-93249366D01*
X230995833Y-93249366D02*
X231024999Y-93282700D01*
X231266666Y-93216033D02*
X231699999Y-93216033D01*
X231699999Y-93216033D02*
X231433333Y-93482700D01*
X231433333Y-93482700D02*
X231533333Y-93482700D01*
X231533333Y-93482700D02*
X231595833Y-93516033D01*
X231595833Y-93516033D02*
X231624999Y-93549366D01*
X231624999Y-93549366D02*
X231649999Y-93616033D01*
X231649999Y-93616033D02*
X231629166Y-93782700D01*
X231629166Y-93782700D02*
X231587499Y-93849366D01*
X231587499Y-93849366D02*
X231549999Y-93882700D01*
X231549999Y-93882700D02*
X231479166Y-93916033D01*
X231479166Y-93916033D02*
X231279166Y-93916033D01*
X231279166Y-93916033D02*
X231216666Y-93882700D01*
X231216666Y-93882700D02*
X231187499Y-93849366D01*
X231933333Y-93216033D02*
X232366666Y-93216033D01*
X232366666Y-93216033D02*
X232100000Y-93482700D01*
X232100000Y-93482700D02*
X232200000Y-93482700D01*
X232200000Y-93482700D02*
X232262500Y-93516033D01*
X232262500Y-93516033D02*
X232291666Y-93549366D01*
X232291666Y-93549366D02*
X232316666Y-93616033D01*
X232316666Y-93616033D02*
X232295833Y-93782700D01*
X232295833Y-93782700D02*
X232254166Y-93849366D01*
X232254166Y-93849366D02*
X232216666Y-93882700D01*
X232216666Y-93882700D02*
X232145833Y-93916033D01*
X232145833Y-93916033D02*
X231945833Y-93916033D01*
X231945833Y-93916033D02*
X231883333Y-93882700D01*
X231883333Y-93882700D02*
X231854166Y-93849366D01*
X153429167Y-88516033D02*
X153237500Y-88182700D01*
X153029167Y-88516033D02*
X153116667Y-87816033D01*
X153116667Y-87816033D02*
X153383333Y-87816033D01*
X153383333Y-87816033D02*
X153445833Y-87849366D01*
X153445833Y-87849366D02*
X153475000Y-87882700D01*
X153475000Y-87882700D02*
X153500000Y-87949366D01*
X153500000Y-87949366D02*
X153487500Y-88049366D01*
X153487500Y-88049366D02*
X153445833Y-88116033D01*
X153445833Y-88116033D02*
X153408333Y-88149366D01*
X153408333Y-88149366D02*
X153337500Y-88182700D01*
X153337500Y-88182700D02*
X153070833Y-88182700D01*
X154095833Y-88516033D02*
X153695833Y-88516033D01*
X153895833Y-88516033D02*
X153983333Y-87816033D01*
X153983333Y-87816033D02*
X153904167Y-87916033D01*
X153904167Y-87916033D02*
X153829167Y-87982700D01*
X153829167Y-87982700D02*
X153758333Y-88016033D01*
X202449366Y-91712499D02*
X202482700Y-91749999D01*
X202482700Y-91749999D02*
X202516033Y-91854166D01*
X202516033Y-91854166D02*
X202516033Y-91920833D01*
X202516033Y-91920833D02*
X202482700Y-92016666D01*
X202482700Y-92016666D02*
X202416033Y-92074999D01*
X202416033Y-92074999D02*
X202349366Y-92099999D01*
X202349366Y-92099999D02*
X202216033Y-92116666D01*
X202216033Y-92116666D02*
X202116033Y-92104166D01*
X202116033Y-92104166D02*
X201982700Y-92054166D01*
X201982700Y-92054166D02*
X201916033Y-92012499D01*
X201916033Y-92012499D02*
X201849366Y-91937499D01*
X201849366Y-91937499D02*
X201816033Y-91833333D01*
X201816033Y-91833333D02*
X201816033Y-91766666D01*
X201816033Y-91766666D02*
X201849366Y-91670833D01*
X201849366Y-91670833D02*
X201882700Y-91641666D01*
X201816033Y-90999999D02*
X201816033Y-91333333D01*
X201816033Y-91333333D02*
X202149366Y-91408333D01*
X202149366Y-91408333D02*
X202116033Y-91370833D01*
X202116033Y-91370833D02*
X202082700Y-91299999D01*
X202082700Y-91299999D02*
X202082700Y-91133333D01*
X202082700Y-91133333D02*
X202116033Y-91070833D01*
X202116033Y-91070833D02*
X202149366Y-91041666D01*
X202149366Y-91041666D02*
X202216033Y-91016666D01*
X202216033Y-91016666D02*
X202382700Y-91037499D01*
X202382700Y-91037499D02*
X202449366Y-91079166D01*
X202449366Y-91079166D02*
X202482700Y-91116666D01*
X202482700Y-91116666D02*
X202516033Y-91187499D01*
X202516033Y-91187499D02*
X202516033Y-91354166D01*
X202516033Y-91354166D02*
X202482700Y-91416666D01*
X202482700Y-91416666D02*
X202449366Y-91445833D01*
X226050000Y-98116033D02*
X225979166Y-98682700D01*
X225979166Y-98682700D02*
X226004166Y-98749366D01*
X226004166Y-98749366D02*
X226033333Y-98782700D01*
X226033333Y-98782700D02*
X226095833Y-98816033D01*
X226095833Y-98816033D02*
X226229166Y-98816033D01*
X226229166Y-98816033D02*
X226300000Y-98782700D01*
X226300000Y-98782700D02*
X226337500Y-98749366D01*
X226337500Y-98749366D02*
X226379166Y-98682700D01*
X226379166Y-98682700D02*
X226450000Y-98116033D01*
X226716666Y-98116033D02*
X227149999Y-98116033D01*
X227149999Y-98116033D02*
X226883333Y-98382700D01*
X226883333Y-98382700D02*
X226983333Y-98382700D01*
X226983333Y-98382700D02*
X227045833Y-98416033D01*
X227045833Y-98416033D02*
X227074999Y-98449366D01*
X227074999Y-98449366D02*
X227099999Y-98516033D01*
X227099999Y-98516033D02*
X227079166Y-98682700D01*
X227079166Y-98682700D02*
X227037499Y-98749366D01*
X227037499Y-98749366D02*
X226999999Y-98782700D01*
X226999999Y-98782700D02*
X226929166Y-98816033D01*
X226929166Y-98816033D02*
X226729166Y-98816033D01*
X226729166Y-98816033D02*
X226666666Y-98782700D01*
X226666666Y-98782700D02*
X226637499Y-98749366D01*
X199654166Y-75949366D02*
X199616666Y-75982700D01*
X199616666Y-75982700D02*
X199512499Y-76016033D01*
X199512499Y-76016033D02*
X199445833Y-76016033D01*
X199445833Y-76016033D02*
X199349999Y-75982700D01*
X199349999Y-75982700D02*
X199291666Y-75916033D01*
X199291666Y-75916033D02*
X199266666Y-75849366D01*
X199266666Y-75849366D02*
X199249999Y-75716033D01*
X199249999Y-75716033D02*
X199262499Y-75616033D01*
X199262499Y-75616033D02*
X199312499Y-75482700D01*
X199312499Y-75482700D02*
X199354166Y-75416033D01*
X199354166Y-75416033D02*
X199429166Y-75349366D01*
X199429166Y-75349366D02*
X199533333Y-75316033D01*
X199533333Y-75316033D02*
X199599999Y-75316033D01*
X199599999Y-75316033D02*
X199695833Y-75349366D01*
X199695833Y-75349366D02*
X199724999Y-75382700D01*
X200304166Y-75549366D02*
X200245833Y-76016033D01*
X200170833Y-75282700D02*
X199941666Y-75782700D01*
X199941666Y-75782700D02*
X200374999Y-75782700D01*
X200833333Y-75316033D02*
X200900000Y-75316033D01*
X200900000Y-75316033D02*
X200962500Y-75349366D01*
X200962500Y-75349366D02*
X200991666Y-75382700D01*
X200991666Y-75382700D02*
X201016666Y-75449366D01*
X201016666Y-75449366D02*
X201033333Y-75582700D01*
X201033333Y-75582700D02*
X201012500Y-75749366D01*
X201012500Y-75749366D02*
X200962500Y-75882700D01*
X200962500Y-75882700D02*
X200920833Y-75949366D01*
X200920833Y-75949366D02*
X200883333Y-75982700D01*
X200883333Y-75982700D02*
X200812500Y-76016033D01*
X200812500Y-76016033D02*
X200745833Y-76016033D01*
X200745833Y-76016033D02*
X200683333Y-75982700D01*
X200683333Y-75982700D02*
X200654166Y-75949366D01*
X200654166Y-75949366D02*
X200629166Y-75882700D01*
X200629166Y-75882700D02*
X200612500Y-75749366D01*
X200612500Y-75749366D02*
X200633333Y-75582700D01*
X200633333Y-75582700D02*
X200683333Y-75449366D01*
X200683333Y-75449366D02*
X200725000Y-75382700D01*
X200725000Y-75382700D02*
X200762500Y-75349366D01*
X200762500Y-75349366D02*
X200833333Y-75316033D01*
X235049366Y-85745833D02*
X235082700Y-85783333D01*
X235082700Y-85783333D02*
X235116033Y-85887500D01*
X235116033Y-85887500D02*
X235116033Y-85954167D01*
X235116033Y-85954167D02*
X235082700Y-86050000D01*
X235082700Y-86050000D02*
X235016033Y-86108333D01*
X235016033Y-86108333D02*
X234949366Y-86133333D01*
X234949366Y-86133333D02*
X234816033Y-86150000D01*
X234816033Y-86150000D02*
X234716033Y-86137500D01*
X234716033Y-86137500D02*
X234582700Y-86087500D01*
X234582700Y-86087500D02*
X234516033Y-86045833D01*
X234516033Y-86045833D02*
X234449366Y-85970833D01*
X234449366Y-85970833D02*
X234416033Y-85866667D01*
X234416033Y-85866667D02*
X234416033Y-85800000D01*
X234416033Y-85800000D02*
X234449366Y-85704167D01*
X234449366Y-85704167D02*
X234482700Y-85675000D01*
X235116033Y-85087500D02*
X235116033Y-85487500D01*
X235116033Y-85287500D02*
X234416033Y-85200000D01*
X234416033Y-85200000D02*
X234516033Y-85279167D01*
X234516033Y-85279167D02*
X234582700Y-85354167D01*
X234582700Y-85354167D02*
X234616033Y-85425000D01*
X234416033Y-84766666D02*
X234416033Y-84333333D01*
X234416033Y-84333333D02*
X234682700Y-84600000D01*
X234682700Y-84600000D02*
X234682700Y-84500000D01*
X234682700Y-84500000D02*
X234716033Y-84437500D01*
X234716033Y-84437500D02*
X234749366Y-84408333D01*
X234749366Y-84408333D02*
X234816033Y-84383333D01*
X234816033Y-84383333D02*
X234982700Y-84404166D01*
X234982700Y-84404166D02*
X235049366Y-84445833D01*
X235049366Y-84445833D02*
X235082700Y-84483333D01*
X235082700Y-84483333D02*
X235116033Y-84554166D01*
X235116033Y-84554166D02*
X235116033Y-84754166D01*
X235116033Y-84754166D02*
X235082700Y-84816666D01*
X235082700Y-84816666D02*
X235049366Y-84845833D01*
X244116033Y-81220833D02*
X243782700Y-81412499D01*
X244116033Y-81620833D02*
X243416033Y-81533333D01*
X243416033Y-81533333D02*
X243416033Y-81266666D01*
X243416033Y-81266666D02*
X243449366Y-81204166D01*
X243449366Y-81204166D02*
X243482700Y-81174999D01*
X243482700Y-81174999D02*
X243549366Y-81149999D01*
X243549366Y-81149999D02*
X243649366Y-81162499D01*
X243649366Y-81162499D02*
X243716033Y-81204166D01*
X243716033Y-81204166D02*
X243749366Y-81241666D01*
X243749366Y-81241666D02*
X243782700Y-81312499D01*
X243782700Y-81312499D02*
X243782700Y-81579166D01*
X243416033Y-80899999D02*
X243416033Y-80466666D01*
X243416033Y-80466666D02*
X243682700Y-80733333D01*
X243682700Y-80733333D02*
X243682700Y-80633333D01*
X243682700Y-80633333D02*
X243716033Y-80570833D01*
X243716033Y-80570833D02*
X243749366Y-80541666D01*
X243749366Y-80541666D02*
X243816033Y-80516666D01*
X243816033Y-80516666D02*
X243982700Y-80537499D01*
X243982700Y-80537499D02*
X244049366Y-80579166D01*
X244049366Y-80579166D02*
X244082700Y-80616666D01*
X244082700Y-80616666D02*
X244116033Y-80687499D01*
X244116033Y-80687499D02*
X244116033Y-80887499D01*
X244116033Y-80887499D02*
X244082700Y-80949999D01*
X244082700Y-80949999D02*
X244049366Y-80979166D01*
X218354166Y-85649366D02*
X218316666Y-85682700D01*
X218316666Y-85682700D02*
X218212499Y-85716033D01*
X218212499Y-85716033D02*
X218145833Y-85716033D01*
X218145833Y-85716033D02*
X218049999Y-85682700D01*
X218049999Y-85682700D02*
X217991666Y-85616033D01*
X217991666Y-85616033D02*
X217966666Y-85549366D01*
X217966666Y-85549366D02*
X217949999Y-85416033D01*
X217949999Y-85416033D02*
X217962499Y-85316033D01*
X217962499Y-85316033D02*
X218012499Y-85182700D01*
X218012499Y-85182700D02*
X218054166Y-85116033D01*
X218054166Y-85116033D02*
X218129166Y-85049366D01*
X218129166Y-85049366D02*
X218233333Y-85016033D01*
X218233333Y-85016033D02*
X218299999Y-85016033D01*
X218299999Y-85016033D02*
X218395833Y-85049366D01*
X218395833Y-85049366D02*
X218424999Y-85082700D01*
X218691666Y-85082700D02*
X218729166Y-85049366D01*
X218729166Y-85049366D02*
X218799999Y-85016033D01*
X218799999Y-85016033D02*
X218966666Y-85016033D01*
X218966666Y-85016033D02*
X219029166Y-85049366D01*
X219029166Y-85049366D02*
X219058333Y-85082700D01*
X219058333Y-85082700D02*
X219083333Y-85149366D01*
X219083333Y-85149366D02*
X219074999Y-85216033D01*
X219074999Y-85216033D02*
X219029166Y-85316033D01*
X219029166Y-85316033D02*
X218579166Y-85716033D01*
X218579166Y-85716033D02*
X219012499Y-85716033D01*
X219333333Y-85016033D02*
X219766666Y-85016033D01*
X219766666Y-85016033D02*
X219500000Y-85282700D01*
X219500000Y-85282700D02*
X219600000Y-85282700D01*
X219600000Y-85282700D02*
X219662500Y-85316033D01*
X219662500Y-85316033D02*
X219691666Y-85349366D01*
X219691666Y-85349366D02*
X219716666Y-85416033D01*
X219716666Y-85416033D02*
X219695833Y-85582700D01*
X219695833Y-85582700D02*
X219654166Y-85649366D01*
X219654166Y-85649366D02*
X219616666Y-85682700D01*
X219616666Y-85682700D02*
X219545833Y-85716033D01*
X219545833Y-85716033D02*
X219345833Y-85716033D01*
X219345833Y-85716033D02*
X219283333Y-85682700D01*
X219283333Y-85682700D02*
X219254166Y-85649366D01*
X174954166Y-76989366D02*
X174916666Y-77022700D01*
X174916666Y-77022700D02*
X174812499Y-77056033D01*
X174812499Y-77056033D02*
X174745833Y-77056033D01*
X174745833Y-77056033D02*
X174649999Y-77022700D01*
X174649999Y-77022700D02*
X174591666Y-76956033D01*
X174591666Y-76956033D02*
X174566666Y-76889366D01*
X174566666Y-76889366D02*
X174549999Y-76756033D01*
X174549999Y-76756033D02*
X174562499Y-76656033D01*
X174562499Y-76656033D02*
X174612499Y-76522700D01*
X174612499Y-76522700D02*
X174654166Y-76456033D01*
X174654166Y-76456033D02*
X174729166Y-76389366D01*
X174729166Y-76389366D02*
X174833333Y-76356033D01*
X174833333Y-76356033D02*
X174899999Y-76356033D01*
X174899999Y-76356033D02*
X174995833Y-76389366D01*
X174995833Y-76389366D02*
X175024999Y-76422700D01*
X175666666Y-76356033D02*
X175333333Y-76356033D01*
X175333333Y-76356033D02*
X175258333Y-76689366D01*
X175258333Y-76689366D02*
X175295833Y-76656033D01*
X175295833Y-76656033D02*
X175366666Y-76622700D01*
X175366666Y-76622700D02*
X175533333Y-76622700D01*
X175533333Y-76622700D02*
X175595833Y-76656033D01*
X175595833Y-76656033D02*
X175624999Y-76689366D01*
X175624999Y-76689366D02*
X175649999Y-76756033D01*
X175649999Y-76756033D02*
X175629166Y-76922700D01*
X175629166Y-76922700D02*
X175587499Y-76989366D01*
X175587499Y-76989366D02*
X175549999Y-77022700D01*
X175549999Y-77022700D02*
X175479166Y-77056033D01*
X175479166Y-77056033D02*
X175312499Y-77056033D01*
X175312499Y-77056033D02*
X175249999Y-77022700D01*
X175249999Y-77022700D02*
X175220833Y-76989366D01*
X176133333Y-76356033D02*
X176200000Y-76356033D01*
X176200000Y-76356033D02*
X176262500Y-76389366D01*
X176262500Y-76389366D02*
X176291666Y-76422700D01*
X176291666Y-76422700D02*
X176316666Y-76489366D01*
X176316666Y-76489366D02*
X176333333Y-76622700D01*
X176333333Y-76622700D02*
X176312500Y-76789366D01*
X176312500Y-76789366D02*
X176262500Y-76922700D01*
X176262500Y-76922700D02*
X176220833Y-76989366D01*
X176220833Y-76989366D02*
X176183333Y-77022700D01*
X176183333Y-77022700D02*
X176112500Y-77056033D01*
X176112500Y-77056033D02*
X176045833Y-77056033D01*
X176045833Y-77056033D02*
X175983333Y-77022700D01*
X175983333Y-77022700D02*
X175954166Y-76989366D01*
X175954166Y-76989366D02*
X175929166Y-76922700D01*
X175929166Y-76922700D02*
X175912500Y-76789366D01*
X175912500Y-76789366D02*
X175933333Y-76622700D01*
X175933333Y-76622700D02*
X175983333Y-76489366D01*
X175983333Y-76489366D02*
X176025000Y-76422700D01*
X176025000Y-76422700D02*
X176062500Y-76389366D01*
X176062500Y-76389366D02*
X176133333Y-76356033D01*
D10*
X246950000Y-90881366D02*
X246550000Y-90881366D01*
X246837500Y-90181366D02*
X246750000Y-90881366D01*
X246404167Y-90181366D02*
X246316667Y-90881366D01*
X246316667Y-90881366D02*
X246050000Y-90881366D01*
X246050000Y-90881366D02*
X245987500Y-90848033D01*
X245987500Y-90848033D02*
X245958333Y-90814700D01*
X245958333Y-90814700D02*
X245933333Y-90748033D01*
X245933333Y-90748033D02*
X245945833Y-90648033D01*
X245945833Y-90648033D02*
X245987500Y-90581366D01*
X245987500Y-90581366D02*
X246025000Y-90548033D01*
X246025000Y-90548033D02*
X246095833Y-90514700D01*
X246095833Y-90514700D02*
X246362500Y-90514700D01*
X245483333Y-90881366D02*
X245350000Y-90881366D01*
X245350000Y-90881366D02*
X245287500Y-90848033D01*
X245287500Y-90848033D02*
X245229167Y-90781366D01*
X245229167Y-90781366D02*
X245212500Y-90648033D01*
X245212500Y-90648033D02*
X245241667Y-90414700D01*
X245241667Y-90414700D02*
X245291667Y-90281366D01*
X245291667Y-90281366D02*
X245366667Y-90214700D01*
X245366667Y-90214700D02*
X245437500Y-90181366D01*
X245437500Y-90181366D02*
X245570833Y-90181366D01*
X245570833Y-90181366D02*
X245633333Y-90214700D01*
X245633333Y-90214700D02*
X245691667Y-90281366D01*
X245691667Y-90281366D02*
X245708333Y-90414700D01*
X245708333Y-90414700D02*
X245679167Y-90648033D01*
X245679167Y-90648033D02*
X245629167Y-90781366D01*
X245629167Y-90781366D02*
X245554167Y-90848033D01*
X245554167Y-90848033D02*
X245483333Y-90881366D01*
X245000000Y-90214700D02*
X244904167Y-90181366D01*
X244904167Y-90181366D02*
X244737500Y-90181366D01*
X244737500Y-90181366D02*
X244666667Y-90214700D01*
X244666667Y-90214700D02*
X244629167Y-90248033D01*
X244629167Y-90248033D02*
X244587500Y-90314700D01*
X244587500Y-90314700D02*
X244579167Y-90381366D01*
X244579167Y-90381366D02*
X244604167Y-90448033D01*
X244604167Y-90448033D02*
X244633334Y-90481366D01*
X244633334Y-90481366D02*
X244695834Y-90514700D01*
X244695834Y-90514700D02*
X244825000Y-90548033D01*
X244825000Y-90548033D02*
X244887500Y-90581366D01*
X244887500Y-90581366D02*
X244916667Y-90614700D01*
X244916667Y-90614700D02*
X244941667Y-90681366D01*
X244941667Y-90681366D02*
X244933334Y-90748033D01*
X244933334Y-90748033D02*
X244891667Y-90814700D01*
X244891667Y-90814700D02*
X244854167Y-90848033D01*
X244854167Y-90848033D02*
X244783334Y-90881366D01*
X244783334Y-90881366D02*
X244616667Y-90881366D01*
X244616667Y-90881366D02*
X244520834Y-90848033D01*
X243895833Y-90248033D02*
X243933333Y-90214700D01*
X243933333Y-90214700D02*
X244037500Y-90181366D01*
X244037500Y-90181366D02*
X244104167Y-90181366D01*
X244104167Y-90181366D02*
X244200000Y-90214700D01*
X244200000Y-90214700D02*
X244258333Y-90281366D01*
X244258333Y-90281366D02*
X244283333Y-90348033D01*
X244283333Y-90348033D02*
X244300000Y-90481366D01*
X244300000Y-90481366D02*
X244287500Y-90581366D01*
X244287500Y-90581366D02*
X244237500Y-90714700D01*
X244237500Y-90714700D02*
X244195833Y-90781366D01*
X244195833Y-90781366D02*
X244120833Y-90848033D01*
X244120833Y-90848033D02*
X244016667Y-90881366D01*
X244016667Y-90881366D02*
X243950000Y-90881366D01*
X243950000Y-90881366D02*
X243854167Y-90848033D01*
X243854167Y-90848033D02*
X243825000Y-90814700D01*
X243237500Y-90181366D02*
X243637500Y-90181366D01*
X243437500Y-90181366D02*
X243350000Y-90881366D01*
X243350000Y-90881366D02*
X243429167Y-90781366D01*
X243429167Y-90781366D02*
X243504167Y-90714700D01*
X243504167Y-90714700D02*
X243575000Y-90681366D01*
D13*
X245987500Y-84749366D02*
X245950000Y-84782700D01*
X245950000Y-84782700D02*
X245845833Y-84816033D01*
X245845833Y-84816033D02*
X245779167Y-84816033D01*
X245779167Y-84816033D02*
X245683333Y-84782700D01*
X245683333Y-84782700D02*
X245625000Y-84716033D01*
X245625000Y-84716033D02*
X245600000Y-84649366D01*
X245600000Y-84649366D02*
X245583333Y-84516033D01*
X245583333Y-84516033D02*
X245595833Y-84416033D01*
X245595833Y-84416033D02*
X245645833Y-84282700D01*
X245645833Y-84282700D02*
X245687500Y-84216033D01*
X245687500Y-84216033D02*
X245762500Y-84149366D01*
X245762500Y-84149366D02*
X245866667Y-84116033D01*
X245866667Y-84116033D02*
X245933333Y-84116033D01*
X245933333Y-84116033D02*
X246029167Y-84149366D01*
X246029167Y-84149366D02*
X246058333Y-84182700D01*
X246429167Y-84416033D02*
X246366667Y-84382700D01*
X246366667Y-84382700D02*
X246337500Y-84349366D01*
X246337500Y-84349366D02*
X246312500Y-84282700D01*
X246312500Y-84282700D02*
X246316667Y-84249366D01*
X246316667Y-84249366D02*
X246358333Y-84182700D01*
X246358333Y-84182700D02*
X246395833Y-84149366D01*
X246395833Y-84149366D02*
X246466667Y-84116033D01*
X246466667Y-84116033D02*
X246600000Y-84116033D01*
X246600000Y-84116033D02*
X246662500Y-84149366D01*
X246662500Y-84149366D02*
X246691667Y-84182700D01*
X246691667Y-84182700D02*
X246716667Y-84249366D01*
X246716667Y-84249366D02*
X246712500Y-84282700D01*
X246712500Y-84282700D02*
X246670833Y-84349366D01*
X246670833Y-84349366D02*
X246633333Y-84382700D01*
X246633333Y-84382700D02*
X246562500Y-84416033D01*
X246562500Y-84416033D02*
X246429167Y-84416033D01*
X246429167Y-84416033D02*
X246358333Y-84449366D01*
X246358333Y-84449366D02*
X246320833Y-84482700D01*
X246320833Y-84482700D02*
X246279167Y-84549366D01*
X246279167Y-84549366D02*
X246262500Y-84682700D01*
X246262500Y-84682700D02*
X246287500Y-84749366D01*
X246287500Y-84749366D02*
X246316667Y-84782700D01*
X246316667Y-84782700D02*
X246379167Y-84816033D01*
X246379167Y-84816033D02*
X246512500Y-84816033D01*
X246512500Y-84816033D02*
X246583333Y-84782700D01*
X246583333Y-84782700D02*
X246620833Y-84749366D01*
X246620833Y-84749366D02*
X246662500Y-84682700D01*
X246662500Y-84682700D02*
X246679167Y-84549366D01*
X246679167Y-84549366D02*
X246654167Y-84482700D01*
X246654167Y-84482700D02*
X246625000Y-84449366D01*
X246625000Y-84449366D02*
X246562500Y-84416033D01*
X232699366Y-72745833D02*
X232732700Y-72783333D01*
X232732700Y-72783333D02*
X232766033Y-72887500D01*
X232766033Y-72887500D02*
X232766033Y-72954167D01*
X232766033Y-72954167D02*
X232732700Y-73050000D01*
X232732700Y-73050000D02*
X232666033Y-73108333D01*
X232666033Y-73108333D02*
X232599366Y-73133333D01*
X232599366Y-73133333D02*
X232466033Y-73150000D01*
X232466033Y-73150000D02*
X232366033Y-73137500D01*
X232366033Y-73137500D02*
X232232700Y-73087500D01*
X232232700Y-73087500D02*
X232166033Y-73045833D01*
X232166033Y-73045833D02*
X232099366Y-72970833D01*
X232099366Y-72970833D02*
X232066033Y-72866667D01*
X232066033Y-72866667D02*
X232066033Y-72800000D01*
X232066033Y-72800000D02*
X232099366Y-72704167D01*
X232099366Y-72704167D02*
X232132700Y-72675000D01*
X232132700Y-72408333D02*
X232099366Y-72370833D01*
X232099366Y-72370833D02*
X232066033Y-72300000D01*
X232066033Y-72300000D02*
X232066033Y-72133333D01*
X232066033Y-72133333D02*
X232099366Y-72070833D01*
X232099366Y-72070833D02*
X232132700Y-72041667D01*
X232132700Y-72041667D02*
X232199366Y-72016667D01*
X232199366Y-72016667D02*
X232266033Y-72025000D01*
X232266033Y-72025000D02*
X232366033Y-72070833D01*
X232366033Y-72070833D02*
X232766033Y-72520833D01*
X232766033Y-72520833D02*
X232766033Y-72087500D01*
X232066033Y-71566666D02*
X232066033Y-71500000D01*
X232066033Y-71500000D02*
X232099366Y-71437500D01*
X232099366Y-71437500D02*
X232132700Y-71408333D01*
X232132700Y-71408333D02*
X232199366Y-71383333D01*
X232199366Y-71383333D02*
X232332700Y-71366666D01*
X232332700Y-71366666D02*
X232499366Y-71387500D01*
X232499366Y-71387500D02*
X232632700Y-71437500D01*
X232632700Y-71437500D02*
X232699366Y-71479166D01*
X232699366Y-71479166D02*
X232732700Y-71516666D01*
X232732700Y-71516666D02*
X232766033Y-71587500D01*
X232766033Y-71587500D02*
X232766033Y-71654166D01*
X232766033Y-71654166D02*
X232732700Y-71716666D01*
X232732700Y-71716666D02*
X232699366Y-71745833D01*
X232699366Y-71745833D02*
X232632700Y-71770833D01*
X232632700Y-71770833D02*
X232499366Y-71787500D01*
X232499366Y-71787500D02*
X232332700Y-71766666D01*
X232332700Y-71766666D02*
X232199366Y-71716666D01*
X232199366Y-71716666D02*
X232132700Y-71675000D01*
X232132700Y-71675000D02*
X232099366Y-71637500D01*
X232099366Y-71637500D02*
X232066033Y-71566666D01*
X237657142Y-94509580D02*
X237609523Y-94557200D01*
X237609523Y-94557200D02*
X237466666Y-94604819D01*
X237466666Y-94604819D02*
X237371428Y-94604819D01*
X237371428Y-94604819D02*
X237228571Y-94557200D01*
X237228571Y-94557200D02*
X237133333Y-94461961D01*
X237133333Y-94461961D02*
X237085714Y-94366723D01*
X237085714Y-94366723D02*
X237038095Y-94176247D01*
X237038095Y-94176247D02*
X237038095Y-94033390D01*
X237038095Y-94033390D02*
X237085714Y-93842914D01*
X237085714Y-93842914D02*
X237133333Y-93747676D01*
X237133333Y-93747676D02*
X237228571Y-93652438D01*
X237228571Y-93652438D02*
X237371428Y-93604819D01*
X237371428Y-93604819D02*
X237466666Y-93604819D01*
X237466666Y-93604819D02*
X237609523Y-93652438D01*
X237609523Y-93652438D02*
X237657142Y-93700057D01*
X237990476Y-93604819D02*
X238609523Y-93604819D01*
X238609523Y-93604819D02*
X238276190Y-93985771D01*
X238276190Y-93985771D02*
X238419047Y-93985771D01*
X238419047Y-93985771D02*
X238514285Y-94033390D01*
X238514285Y-94033390D02*
X238561904Y-94081009D01*
X238561904Y-94081009D02*
X238609523Y-94176247D01*
X238609523Y-94176247D02*
X238609523Y-94414342D01*
X238609523Y-94414342D02*
X238561904Y-94509580D01*
X238561904Y-94509580D02*
X238514285Y-94557200D01*
X238514285Y-94557200D02*
X238419047Y-94604819D01*
X238419047Y-94604819D02*
X238133333Y-94604819D01*
X238133333Y-94604819D02*
X238038095Y-94557200D01*
X238038095Y-94557200D02*
X237990476Y-94509580D01*
X239466666Y-93604819D02*
X239276190Y-93604819D01*
X239276190Y-93604819D02*
X239180952Y-93652438D01*
X239180952Y-93652438D02*
X239133333Y-93700057D01*
X239133333Y-93700057D02*
X239038095Y-93842914D01*
X239038095Y-93842914D02*
X238990476Y-94033390D01*
X238990476Y-94033390D02*
X238990476Y-94414342D01*
X238990476Y-94414342D02*
X239038095Y-94509580D01*
X239038095Y-94509580D02*
X239085714Y-94557200D01*
X239085714Y-94557200D02*
X239180952Y-94604819D01*
X239180952Y-94604819D02*
X239371428Y-94604819D01*
X239371428Y-94604819D02*
X239466666Y-94557200D01*
X239466666Y-94557200D02*
X239514285Y-94509580D01*
X239514285Y-94509580D02*
X239561904Y-94414342D01*
X239561904Y-94414342D02*
X239561904Y-94176247D01*
X239561904Y-94176247D02*
X239514285Y-94081009D01*
X239514285Y-94081009D02*
X239466666Y-94033390D01*
X239466666Y-94033390D02*
X239371428Y-93985771D01*
X239371428Y-93985771D02*
X239180952Y-93985771D01*
X239180952Y-93985771D02*
X239085714Y-94033390D01*
X239085714Y-94033390D02*
X239038095Y-94081009D01*
X239038095Y-94081009D02*
X238990476Y-94176247D01*
X247354166Y-91849366D02*
X247316666Y-91882700D01*
X247316666Y-91882700D02*
X247212499Y-91916033D01*
X247212499Y-91916033D02*
X247145833Y-91916033D01*
X247145833Y-91916033D02*
X247049999Y-91882700D01*
X247049999Y-91882700D02*
X246991666Y-91816033D01*
X246991666Y-91816033D02*
X246966666Y-91749366D01*
X246966666Y-91749366D02*
X246949999Y-91616033D01*
X246949999Y-91616033D02*
X246962499Y-91516033D01*
X246962499Y-91516033D02*
X247012499Y-91382700D01*
X247012499Y-91382700D02*
X247054166Y-91316033D01*
X247054166Y-91316033D02*
X247129166Y-91249366D01*
X247129166Y-91249366D02*
X247233333Y-91216033D01*
X247233333Y-91216033D02*
X247299999Y-91216033D01*
X247299999Y-91216033D02*
X247395833Y-91249366D01*
X247395833Y-91249366D02*
X247424999Y-91282700D01*
X248012499Y-91916033D02*
X247612499Y-91916033D01*
X247812499Y-91916033D02*
X247899999Y-91216033D01*
X247899999Y-91216033D02*
X247820833Y-91316033D01*
X247820833Y-91316033D02*
X247745833Y-91382700D01*
X247745833Y-91382700D02*
X247674999Y-91416033D01*
X248533333Y-91216033D02*
X248600000Y-91216033D01*
X248600000Y-91216033D02*
X248662500Y-91249366D01*
X248662500Y-91249366D02*
X248691666Y-91282700D01*
X248691666Y-91282700D02*
X248716666Y-91349366D01*
X248716666Y-91349366D02*
X248733333Y-91482700D01*
X248733333Y-91482700D02*
X248712500Y-91649366D01*
X248712500Y-91649366D02*
X248662500Y-91782700D01*
X248662500Y-91782700D02*
X248620833Y-91849366D01*
X248620833Y-91849366D02*
X248583333Y-91882700D01*
X248583333Y-91882700D02*
X248512500Y-91916033D01*
X248512500Y-91916033D02*
X248445833Y-91916033D01*
X248445833Y-91916033D02*
X248383333Y-91882700D01*
X248383333Y-91882700D02*
X248354166Y-91849366D01*
X248354166Y-91849366D02*
X248329166Y-91782700D01*
X248329166Y-91782700D02*
X248312500Y-91649366D01*
X248312500Y-91649366D02*
X248333333Y-91482700D01*
X248333333Y-91482700D02*
X248383333Y-91349366D01*
X248383333Y-91349366D02*
X248425000Y-91282700D01*
X248425000Y-91282700D02*
X248462500Y-91249366D01*
X248462500Y-91249366D02*
X248533333Y-91216033D01*
X252779167Y-76616033D02*
X252866667Y-75916033D01*
X252866667Y-75916033D02*
X253033333Y-75916033D01*
X253033333Y-75916033D02*
X253129167Y-75949366D01*
X253129167Y-75949366D02*
X253187500Y-76016033D01*
X253187500Y-76016033D02*
X253212500Y-76082700D01*
X253212500Y-76082700D02*
X253229167Y-76216033D01*
X253229167Y-76216033D02*
X253216667Y-76316033D01*
X253216667Y-76316033D02*
X253166667Y-76449366D01*
X253166667Y-76449366D02*
X253125000Y-76516033D01*
X253125000Y-76516033D02*
X253050000Y-76582700D01*
X253050000Y-76582700D02*
X252945833Y-76616033D01*
X252945833Y-76616033D02*
X252779167Y-76616033D01*
X253525000Y-75982700D02*
X253562500Y-75949366D01*
X253562500Y-75949366D02*
X253633333Y-75916033D01*
X253633333Y-75916033D02*
X253800000Y-75916033D01*
X253800000Y-75916033D02*
X253862500Y-75949366D01*
X253862500Y-75949366D02*
X253891667Y-75982700D01*
X253891667Y-75982700D02*
X253916667Y-76049366D01*
X253916667Y-76049366D02*
X253908333Y-76116033D01*
X253908333Y-76116033D02*
X253862500Y-76216033D01*
X253862500Y-76216033D02*
X253412500Y-76616033D01*
X253412500Y-76616033D02*
X253845833Y-76616033D01*
X214151667Y-78071033D02*
X213960000Y-77737700D01*
X213751667Y-78071033D02*
X213839167Y-77371033D01*
X213839167Y-77371033D02*
X214105833Y-77371033D01*
X214105833Y-77371033D02*
X214168333Y-77404366D01*
X214168333Y-77404366D02*
X214197500Y-77437700D01*
X214197500Y-77437700D02*
X214222500Y-77504366D01*
X214222500Y-77504366D02*
X214210000Y-77604366D01*
X214210000Y-77604366D02*
X214168333Y-77671033D01*
X214168333Y-77671033D02*
X214130833Y-77704366D01*
X214130833Y-77704366D02*
X214060000Y-77737700D01*
X214060000Y-77737700D02*
X213793333Y-77737700D01*
X214839167Y-77371033D02*
X214705833Y-77371033D01*
X214705833Y-77371033D02*
X214635000Y-77404366D01*
X214635000Y-77404366D02*
X214597500Y-77437700D01*
X214597500Y-77437700D02*
X214518333Y-77537700D01*
X214518333Y-77537700D02*
X214468333Y-77671033D01*
X214468333Y-77671033D02*
X214435000Y-77937700D01*
X214435000Y-77937700D02*
X214460000Y-78004366D01*
X214460000Y-78004366D02*
X214489167Y-78037700D01*
X214489167Y-78037700D02*
X214551667Y-78071033D01*
X214551667Y-78071033D02*
X214685000Y-78071033D01*
X214685000Y-78071033D02*
X214755833Y-78037700D01*
X214755833Y-78037700D02*
X214793333Y-78004366D01*
X214793333Y-78004366D02*
X214835000Y-77937700D01*
X214835000Y-77937700D02*
X214855833Y-77771033D01*
X214855833Y-77771033D02*
X214830833Y-77704366D01*
X214830833Y-77704366D02*
X214801667Y-77671033D01*
X214801667Y-77671033D02*
X214739167Y-77637700D01*
X214739167Y-77637700D02*
X214605833Y-77637700D01*
X214605833Y-77637700D02*
X214535000Y-77671033D01*
X214535000Y-77671033D02*
X214497500Y-77704366D01*
X214497500Y-77704366D02*
X214455833Y-77771033D01*
X190554166Y-99149366D02*
X190516666Y-99182700D01*
X190516666Y-99182700D02*
X190412499Y-99216033D01*
X190412499Y-99216033D02*
X190345833Y-99216033D01*
X190345833Y-99216033D02*
X190249999Y-99182700D01*
X190249999Y-99182700D02*
X190191666Y-99116033D01*
X190191666Y-99116033D02*
X190166666Y-99049366D01*
X190166666Y-99049366D02*
X190149999Y-98916033D01*
X190149999Y-98916033D02*
X190162499Y-98816033D01*
X190162499Y-98816033D02*
X190212499Y-98682700D01*
X190212499Y-98682700D02*
X190254166Y-98616033D01*
X190254166Y-98616033D02*
X190329166Y-98549366D01*
X190329166Y-98549366D02*
X190433333Y-98516033D01*
X190433333Y-98516033D02*
X190499999Y-98516033D01*
X190499999Y-98516033D02*
X190595833Y-98549366D01*
X190595833Y-98549366D02*
X190624999Y-98582700D01*
X190891666Y-98582700D02*
X190929166Y-98549366D01*
X190929166Y-98549366D02*
X190999999Y-98516033D01*
X190999999Y-98516033D02*
X191166666Y-98516033D01*
X191166666Y-98516033D02*
X191229166Y-98549366D01*
X191229166Y-98549366D02*
X191258333Y-98582700D01*
X191258333Y-98582700D02*
X191283333Y-98649366D01*
X191283333Y-98649366D02*
X191274999Y-98716033D01*
X191274999Y-98716033D02*
X191229166Y-98816033D01*
X191229166Y-98816033D02*
X190779166Y-99216033D01*
X190779166Y-99216033D02*
X191212499Y-99216033D01*
X191545833Y-99216033D02*
X191679166Y-99216033D01*
X191679166Y-99216033D02*
X191750000Y-99182700D01*
X191750000Y-99182700D02*
X191787500Y-99149366D01*
X191787500Y-99149366D02*
X191866666Y-99049366D01*
X191866666Y-99049366D02*
X191916666Y-98916033D01*
X191916666Y-98916033D02*
X191950000Y-98649366D01*
X191950000Y-98649366D02*
X191925000Y-98582700D01*
X191925000Y-98582700D02*
X191895833Y-98549366D01*
X191895833Y-98549366D02*
X191833333Y-98516033D01*
X191833333Y-98516033D02*
X191700000Y-98516033D01*
X191700000Y-98516033D02*
X191629166Y-98549366D01*
X191629166Y-98549366D02*
X191591666Y-98582700D01*
X191591666Y-98582700D02*
X191550000Y-98649366D01*
X191550000Y-98649366D02*
X191529166Y-98816033D01*
X191529166Y-98816033D02*
X191554166Y-98882700D01*
X191554166Y-98882700D02*
X191583333Y-98916033D01*
X191583333Y-98916033D02*
X191645833Y-98949366D01*
X191645833Y-98949366D02*
X191779166Y-98949366D01*
X191779166Y-98949366D02*
X191850000Y-98916033D01*
X191850000Y-98916033D02*
X191887500Y-98882700D01*
X191887500Y-98882700D02*
X191929166Y-98816033D01*
X254708333Y-92049366D02*
X254475000Y-92049366D01*
X254429167Y-92416033D02*
X254516667Y-91716033D01*
X254516667Y-91716033D02*
X254850000Y-91716033D01*
X255395833Y-92416033D02*
X254995833Y-92416033D01*
X255195833Y-92416033D02*
X255283333Y-91716033D01*
X255283333Y-91716033D02*
X255204167Y-91816033D01*
X255204167Y-91816033D02*
X255129167Y-91882700D01*
X255129167Y-91882700D02*
X255058333Y-91916033D01*
X216912295Y-76419047D02*
X216531342Y-76638095D01*
X216912295Y-76876190D02*
X216112295Y-76776190D01*
X216112295Y-76776190D02*
X216112295Y-76471428D01*
X216112295Y-76471428D02*
X216150390Y-76400000D01*
X216150390Y-76400000D02*
X216188485Y-76366666D01*
X216188485Y-76366666D02*
X216264676Y-76338095D01*
X216264676Y-76338095D02*
X216378961Y-76352381D01*
X216378961Y-76352381D02*
X216455152Y-76400000D01*
X216455152Y-76400000D02*
X216493247Y-76442857D01*
X216493247Y-76442857D02*
X216531342Y-76523809D01*
X216531342Y-76523809D02*
X216531342Y-76828571D01*
X216112295Y-76052381D02*
X216112295Y-75557143D01*
X216112295Y-75557143D02*
X216417057Y-75861905D01*
X216417057Y-75861905D02*
X216417057Y-75747619D01*
X216417057Y-75747619D02*
X216455152Y-75676190D01*
X216455152Y-75676190D02*
X216493247Y-75642857D01*
X216493247Y-75642857D02*
X216569438Y-75614285D01*
X216569438Y-75614285D02*
X216759914Y-75638095D01*
X216759914Y-75638095D02*
X216836104Y-75685714D01*
X216836104Y-75685714D02*
X216874200Y-75728571D01*
X216874200Y-75728571D02*
X216912295Y-75809524D01*
X216912295Y-75809524D02*
X216912295Y-76038095D01*
X216912295Y-76038095D02*
X216874200Y-76109524D01*
X216874200Y-76109524D02*
X216836104Y-76142857D01*
X216112295Y-75061904D02*
X216112295Y-74985714D01*
X216112295Y-74985714D02*
X216150390Y-74914285D01*
X216150390Y-74914285D02*
X216188485Y-74880952D01*
X216188485Y-74880952D02*
X216264676Y-74852380D01*
X216264676Y-74852380D02*
X216417057Y-74833333D01*
X216417057Y-74833333D02*
X216607533Y-74857142D01*
X216607533Y-74857142D02*
X216759914Y-74914285D01*
X216759914Y-74914285D02*
X216836104Y-74961904D01*
X216836104Y-74961904D02*
X216874200Y-75004761D01*
X216874200Y-75004761D02*
X216912295Y-75085714D01*
X216912295Y-75085714D02*
X216912295Y-75161904D01*
X216912295Y-75161904D02*
X216874200Y-75233333D01*
X216874200Y-75233333D02*
X216836104Y-75266666D01*
X216836104Y-75266666D02*
X216759914Y-75295238D01*
X216759914Y-75295238D02*
X216607533Y-75314285D01*
X216607533Y-75314285D02*
X216417057Y-75290476D01*
X216417057Y-75290476D02*
X216264676Y-75233333D01*
X216264676Y-75233333D02*
X216188485Y-75185714D01*
X216188485Y-75185714D02*
X216150390Y-75142857D01*
X216150390Y-75142857D02*
X216112295Y-75061904D01*
X169916033Y-75354167D02*
X169582700Y-75545833D01*
X169916033Y-75754167D02*
X169216033Y-75666667D01*
X169216033Y-75666667D02*
X169216033Y-75400000D01*
X169216033Y-75400000D02*
X169249366Y-75337500D01*
X169249366Y-75337500D02*
X169282700Y-75308333D01*
X169282700Y-75308333D02*
X169349366Y-75283333D01*
X169349366Y-75283333D02*
X169449366Y-75295833D01*
X169449366Y-75295833D02*
X169516033Y-75337500D01*
X169516033Y-75337500D02*
X169549366Y-75375000D01*
X169549366Y-75375000D02*
X169582700Y-75445833D01*
X169582700Y-75445833D02*
X169582700Y-75712500D01*
X169282700Y-75008333D02*
X169249366Y-74970833D01*
X169249366Y-74970833D02*
X169216033Y-74900000D01*
X169216033Y-74900000D02*
X169216033Y-74733333D01*
X169216033Y-74733333D02*
X169249366Y-74670833D01*
X169249366Y-74670833D02*
X169282700Y-74641667D01*
X169282700Y-74641667D02*
X169349366Y-74616667D01*
X169349366Y-74616667D02*
X169416033Y-74625000D01*
X169416033Y-74625000D02*
X169516033Y-74670833D01*
X169516033Y-74670833D02*
X169916033Y-75120833D01*
X169916033Y-75120833D02*
X169916033Y-74687500D01*
X169916033Y-74020833D02*
X169916033Y-74420833D01*
X169916033Y-74220833D02*
X169216033Y-74133333D01*
X169216033Y-74133333D02*
X169316033Y-74212500D01*
X169316033Y-74212500D02*
X169382700Y-74287500D01*
X169382700Y-74287500D02*
X169416033Y-74358333D01*
X196211866Y-71720833D02*
X196245200Y-71758333D01*
X196245200Y-71758333D02*
X196278533Y-71862500D01*
X196278533Y-71862500D02*
X196278533Y-71929167D01*
X196278533Y-71929167D02*
X196245200Y-72025000D01*
X196245200Y-72025000D02*
X196178533Y-72083333D01*
X196178533Y-72083333D02*
X196111866Y-72108333D01*
X196111866Y-72108333D02*
X195978533Y-72125000D01*
X195978533Y-72125000D02*
X195878533Y-72112500D01*
X195878533Y-72112500D02*
X195745200Y-72062500D01*
X195745200Y-72062500D02*
X195678533Y-72020833D01*
X195678533Y-72020833D02*
X195611866Y-71945833D01*
X195611866Y-71945833D02*
X195578533Y-71841667D01*
X195578533Y-71841667D02*
X195578533Y-71775000D01*
X195578533Y-71775000D02*
X195611866Y-71679167D01*
X195611866Y-71679167D02*
X195645200Y-71650000D01*
X195578533Y-71408333D02*
X195578533Y-70975000D01*
X195578533Y-70975000D02*
X195845200Y-71241667D01*
X195845200Y-71241667D02*
X195845200Y-71141667D01*
X195845200Y-71141667D02*
X195878533Y-71079167D01*
X195878533Y-71079167D02*
X195911866Y-71050000D01*
X195911866Y-71050000D02*
X195978533Y-71025000D01*
X195978533Y-71025000D02*
X196145200Y-71045833D01*
X196145200Y-71045833D02*
X196211866Y-71087500D01*
X196211866Y-71087500D02*
X196245200Y-71125000D01*
X196245200Y-71125000D02*
X196278533Y-71195833D01*
X196278533Y-71195833D02*
X196278533Y-71395833D01*
X196278533Y-71395833D02*
X196245200Y-71458333D01*
X196245200Y-71458333D02*
X196211866Y-71487500D01*
X196278533Y-70729166D02*
X196278533Y-70595833D01*
X196278533Y-70595833D02*
X196245200Y-70525000D01*
X196245200Y-70525000D02*
X196211866Y-70487500D01*
X196211866Y-70487500D02*
X196111866Y-70408333D01*
X196111866Y-70408333D02*
X195978533Y-70358333D01*
X195978533Y-70358333D02*
X195711866Y-70325000D01*
X195711866Y-70325000D02*
X195645200Y-70350000D01*
X195645200Y-70350000D02*
X195611866Y-70379166D01*
X195611866Y-70379166D02*
X195578533Y-70441666D01*
X195578533Y-70441666D02*
X195578533Y-70575000D01*
X195578533Y-70575000D02*
X195611866Y-70645833D01*
X195611866Y-70645833D02*
X195645200Y-70683333D01*
X195645200Y-70683333D02*
X195711866Y-70725000D01*
X195711866Y-70725000D02*
X195878533Y-70745833D01*
X195878533Y-70745833D02*
X195945200Y-70720833D01*
X195945200Y-70720833D02*
X195978533Y-70691666D01*
X195978533Y-70691666D02*
X196011866Y-70629166D01*
X196011866Y-70629166D02*
X196011866Y-70495833D01*
X196011866Y-70495833D02*
X195978533Y-70425000D01*
X195978533Y-70425000D02*
X195945200Y-70387500D01*
X195945200Y-70387500D02*
X195878533Y-70345833D01*
X185404166Y-75899366D02*
X185366666Y-75932700D01*
X185366666Y-75932700D02*
X185262499Y-75966033D01*
X185262499Y-75966033D02*
X185195833Y-75966033D01*
X185195833Y-75966033D02*
X185099999Y-75932700D01*
X185099999Y-75932700D02*
X185041666Y-75866033D01*
X185041666Y-75866033D02*
X185016666Y-75799366D01*
X185016666Y-75799366D02*
X184999999Y-75666033D01*
X184999999Y-75666033D02*
X185012499Y-75566033D01*
X185012499Y-75566033D02*
X185062499Y-75432700D01*
X185062499Y-75432700D02*
X185104166Y-75366033D01*
X185104166Y-75366033D02*
X185179166Y-75299366D01*
X185179166Y-75299366D02*
X185283333Y-75266033D01*
X185283333Y-75266033D02*
X185349999Y-75266033D01*
X185349999Y-75266033D02*
X185445833Y-75299366D01*
X185445833Y-75299366D02*
X185474999Y-75332700D01*
X186054166Y-75499366D02*
X185995833Y-75966033D01*
X185920833Y-75232700D02*
X185691666Y-75732700D01*
X185691666Y-75732700D02*
X186124999Y-75732700D01*
X186512500Y-75566033D02*
X186450000Y-75532700D01*
X186450000Y-75532700D02*
X186420833Y-75499366D01*
X186420833Y-75499366D02*
X186395833Y-75432700D01*
X186395833Y-75432700D02*
X186400000Y-75399366D01*
X186400000Y-75399366D02*
X186441666Y-75332700D01*
X186441666Y-75332700D02*
X186479166Y-75299366D01*
X186479166Y-75299366D02*
X186550000Y-75266033D01*
X186550000Y-75266033D02*
X186683333Y-75266033D01*
X186683333Y-75266033D02*
X186745833Y-75299366D01*
X186745833Y-75299366D02*
X186775000Y-75332700D01*
X186775000Y-75332700D02*
X186800000Y-75399366D01*
X186800000Y-75399366D02*
X186795833Y-75432700D01*
X186795833Y-75432700D02*
X186754166Y-75499366D01*
X186754166Y-75499366D02*
X186716666Y-75532700D01*
X186716666Y-75532700D02*
X186645833Y-75566033D01*
X186645833Y-75566033D02*
X186512500Y-75566033D01*
X186512500Y-75566033D02*
X186441666Y-75599366D01*
X186441666Y-75599366D02*
X186404166Y-75632700D01*
X186404166Y-75632700D02*
X186362500Y-75699366D01*
X186362500Y-75699366D02*
X186345833Y-75832700D01*
X186345833Y-75832700D02*
X186370833Y-75899366D01*
X186370833Y-75899366D02*
X186400000Y-75932700D01*
X186400000Y-75932700D02*
X186462500Y-75966033D01*
X186462500Y-75966033D02*
X186595833Y-75966033D01*
X186595833Y-75966033D02*
X186666666Y-75932700D01*
X186666666Y-75932700D02*
X186704166Y-75899366D01*
X186704166Y-75899366D02*
X186745833Y-75832700D01*
X186745833Y-75832700D02*
X186762500Y-75699366D01*
X186762500Y-75699366D02*
X186737500Y-75632700D01*
X186737500Y-75632700D02*
X186708333Y-75599366D01*
X186708333Y-75599366D02*
X186645833Y-75566033D01*
X169645833Y-83716033D02*
X169454166Y-83382700D01*
X169245833Y-83716033D02*
X169333333Y-83016033D01*
X169333333Y-83016033D02*
X169599999Y-83016033D01*
X169599999Y-83016033D02*
X169662499Y-83049366D01*
X169662499Y-83049366D02*
X169691666Y-83082700D01*
X169691666Y-83082700D02*
X169716666Y-83149366D01*
X169716666Y-83149366D02*
X169704166Y-83249366D01*
X169704166Y-83249366D02*
X169662499Y-83316033D01*
X169662499Y-83316033D02*
X169624999Y-83349366D01*
X169624999Y-83349366D02*
X169554166Y-83382700D01*
X169554166Y-83382700D02*
X169287499Y-83382700D01*
X169991666Y-83082700D02*
X170029166Y-83049366D01*
X170029166Y-83049366D02*
X170099999Y-83016033D01*
X170099999Y-83016033D02*
X170266666Y-83016033D01*
X170266666Y-83016033D02*
X170329166Y-83049366D01*
X170329166Y-83049366D02*
X170358333Y-83082700D01*
X170358333Y-83082700D02*
X170383333Y-83149366D01*
X170383333Y-83149366D02*
X170374999Y-83216033D01*
X170374999Y-83216033D02*
X170329166Y-83316033D01*
X170329166Y-83316033D02*
X169879166Y-83716033D01*
X169879166Y-83716033D02*
X170312499Y-83716033D01*
X171033333Y-83016033D02*
X170700000Y-83016033D01*
X170700000Y-83016033D02*
X170625000Y-83349366D01*
X170625000Y-83349366D02*
X170662500Y-83316033D01*
X170662500Y-83316033D02*
X170733333Y-83282700D01*
X170733333Y-83282700D02*
X170900000Y-83282700D01*
X170900000Y-83282700D02*
X170962500Y-83316033D01*
X170962500Y-83316033D02*
X170991666Y-83349366D01*
X170991666Y-83349366D02*
X171016666Y-83416033D01*
X171016666Y-83416033D02*
X170995833Y-83582700D01*
X170995833Y-83582700D02*
X170954166Y-83649366D01*
X170954166Y-83649366D02*
X170916666Y-83682700D01*
X170916666Y-83682700D02*
X170845833Y-83716033D01*
X170845833Y-83716033D02*
X170679166Y-83716033D01*
X170679166Y-83716033D02*
X170616666Y-83682700D01*
X170616666Y-83682700D02*
X170587500Y-83649366D01*
X168445833Y-77416033D02*
X168254166Y-77082700D01*
X168045833Y-77416033D02*
X168133333Y-76716033D01*
X168133333Y-76716033D02*
X168399999Y-76716033D01*
X168399999Y-76716033D02*
X168462499Y-76749366D01*
X168462499Y-76749366D02*
X168491666Y-76782700D01*
X168491666Y-76782700D02*
X168516666Y-76849366D01*
X168516666Y-76849366D02*
X168504166Y-76949366D01*
X168504166Y-76949366D02*
X168462499Y-77016033D01*
X168462499Y-77016033D02*
X168424999Y-77049366D01*
X168424999Y-77049366D02*
X168354166Y-77082700D01*
X168354166Y-77082700D02*
X168087499Y-77082700D01*
X168791666Y-76782700D02*
X168829166Y-76749366D01*
X168829166Y-76749366D02*
X168899999Y-76716033D01*
X168899999Y-76716033D02*
X169066666Y-76716033D01*
X169066666Y-76716033D02*
X169129166Y-76749366D01*
X169129166Y-76749366D02*
X169158333Y-76782700D01*
X169158333Y-76782700D02*
X169183333Y-76849366D01*
X169183333Y-76849366D02*
X169174999Y-76916033D01*
X169174999Y-76916033D02*
X169129166Y-77016033D01*
X169129166Y-77016033D02*
X168679166Y-77416033D01*
X168679166Y-77416033D02*
X169112499Y-77416033D01*
X169433333Y-76716033D02*
X169900000Y-76716033D01*
X169900000Y-76716033D02*
X169512500Y-77416033D01*
X233354166Y-93849366D02*
X233316666Y-93882700D01*
X233316666Y-93882700D02*
X233212499Y-93916033D01*
X233212499Y-93916033D02*
X233145833Y-93916033D01*
X233145833Y-93916033D02*
X233049999Y-93882700D01*
X233049999Y-93882700D02*
X232991666Y-93816033D01*
X232991666Y-93816033D02*
X232966666Y-93749366D01*
X232966666Y-93749366D02*
X232949999Y-93616033D01*
X232949999Y-93616033D02*
X232962499Y-93516033D01*
X232962499Y-93516033D02*
X233012499Y-93382700D01*
X233012499Y-93382700D02*
X233054166Y-93316033D01*
X233054166Y-93316033D02*
X233129166Y-93249366D01*
X233129166Y-93249366D02*
X233233333Y-93216033D01*
X233233333Y-93216033D02*
X233299999Y-93216033D01*
X233299999Y-93216033D02*
X233395833Y-93249366D01*
X233395833Y-93249366D02*
X233424999Y-93282700D01*
X233666666Y-93216033D02*
X234099999Y-93216033D01*
X234099999Y-93216033D02*
X233833333Y-93482700D01*
X233833333Y-93482700D02*
X233933333Y-93482700D01*
X233933333Y-93482700D02*
X233995833Y-93516033D01*
X233995833Y-93516033D02*
X234024999Y-93549366D01*
X234024999Y-93549366D02*
X234049999Y-93616033D01*
X234049999Y-93616033D02*
X234029166Y-93782700D01*
X234029166Y-93782700D02*
X233987499Y-93849366D01*
X233987499Y-93849366D02*
X233949999Y-93882700D01*
X233949999Y-93882700D02*
X233879166Y-93916033D01*
X233879166Y-93916033D02*
X233679166Y-93916033D01*
X233679166Y-93916033D02*
X233616666Y-93882700D01*
X233616666Y-93882700D02*
X233587499Y-93849366D01*
X234670833Y-93449366D02*
X234612500Y-93916033D01*
X234537500Y-93182700D02*
X234308333Y-93682700D01*
X234308333Y-93682700D02*
X234741666Y-93682700D01*
X171557142Y-85162080D02*
X171509523Y-85209700D01*
X171509523Y-85209700D02*
X171366666Y-85257319D01*
X171366666Y-85257319D02*
X171271428Y-85257319D01*
X171271428Y-85257319D02*
X171128571Y-85209700D01*
X171128571Y-85209700D02*
X171033333Y-85114461D01*
X171033333Y-85114461D02*
X170985714Y-85019223D01*
X170985714Y-85019223D02*
X170938095Y-84828747D01*
X170938095Y-84828747D02*
X170938095Y-84685890D01*
X170938095Y-84685890D02*
X170985714Y-84495414D01*
X170985714Y-84495414D02*
X171033333Y-84400176D01*
X171033333Y-84400176D02*
X171128571Y-84304938D01*
X171128571Y-84304938D02*
X171271428Y-84257319D01*
X171271428Y-84257319D02*
X171366666Y-84257319D01*
X171366666Y-84257319D02*
X171509523Y-84304938D01*
X171509523Y-84304938D02*
X171557142Y-84352557D01*
X171890476Y-84257319D02*
X172509523Y-84257319D01*
X172509523Y-84257319D02*
X172176190Y-84638271D01*
X172176190Y-84638271D02*
X172319047Y-84638271D01*
X172319047Y-84638271D02*
X172414285Y-84685890D01*
X172414285Y-84685890D02*
X172461904Y-84733509D01*
X172461904Y-84733509D02*
X172509523Y-84828747D01*
X172509523Y-84828747D02*
X172509523Y-85066842D01*
X172509523Y-85066842D02*
X172461904Y-85162080D01*
X172461904Y-85162080D02*
X172414285Y-85209700D01*
X172414285Y-85209700D02*
X172319047Y-85257319D01*
X172319047Y-85257319D02*
X172033333Y-85257319D01*
X172033333Y-85257319D02*
X171938095Y-85209700D01*
X171938095Y-85209700D02*
X171890476Y-85162080D01*
X173080952Y-84685890D02*
X172985714Y-84638271D01*
X172985714Y-84638271D02*
X172938095Y-84590652D01*
X172938095Y-84590652D02*
X172890476Y-84495414D01*
X172890476Y-84495414D02*
X172890476Y-84447795D01*
X172890476Y-84447795D02*
X172938095Y-84352557D01*
X172938095Y-84352557D02*
X172985714Y-84304938D01*
X172985714Y-84304938D02*
X173080952Y-84257319D01*
X173080952Y-84257319D02*
X173271428Y-84257319D01*
X173271428Y-84257319D02*
X173366666Y-84304938D01*
X173366666Y-84304938D02*
X173414285Y-84352557D01*
X173414285Y-84352557D02*
X173461904Y-84447795D01*
X173461904Y-84447795D02*
X173461904Y-84495414D01*
X173461904Y-84495414D02*
X173414285Y-84590652D01*
X173414285Y-84590652D02*
X173366666Y-84638271D01*
X173366666Y-84638271D02*
X173271428Y-84685890D01*
X173271428Y-84685890D02*
X173080952Y-84685890D01*
X173080952Y-84685890D02*
X172985714Y-84733509D01*
X172985714Y-84733509D02*
X172938095Y-84781128D01*
X172938095Y-84781128D02*
X172890476Y-84876366D01*
X172890476Y-84876366D02*
X172890476Y-85066842D01*
X172890476Y-85066842D02*
X172938095Y-85162080D01*
X172938095Y-85162080D02*
X172985714Y-85209700D01*
X172985714Y-85209700D02*
X173080952Y-85257319D01*
X173080952Y-85257319D02*
X173271428Y-85257319D01*
X173271428Y-85257319D02*
X173366666Y-85209700D01*
X173366666Y-85209700D02*
X173414285Y-85162080D01*
X173414285Y-85162080D02*
X173461904Y-85066842D01*
X173461904Y-85066842D02*
X173461904Y-84876366D01*
X173461904Y-84876366D02*
X173414285Y-84781128D01*
X173414285Y-84781128D02*
X173366666Y-84733509D01*
X173366666Y-84733509D02*
X173271428Y-84685890D01*
X218354166Y-82849366D02*
X218316666Y-82882700D01*
X218316666Y-82882700D02*
X218212499Y-82916033D01*
X218212499Y-82916033D02*
X218145833Y-82916033D01*
X218145833Y-82916033D02*
X218049999Y-82882700D01*
X218049999Y-82882700D02*
X217991666Y-82816033D01*
X217991666Y-82816033D02*
X217966666Y-82749366D01*
X217966666Y-82749366D02*
X217949999Y-82616033D01*
X217949999Y-82616033D02*
X217962499Y-82516033D01*
X217962499Y-82516033D02*
X218012499Y-82382700D01*
X218012499Y-82382700D02*
X218054166Y-82316033D01*
X218054166Y-82316033D02*
X218129166Y-82249366D01*
X218129166Y-82249366D02*
X218233333Y-82216033D01*
X218233333Y-82216033D02*
X218299999Y-82216033D01*
X218299999Y-82216033D02*
X218395833Y-82249366D01*
X218395833Y-82249366D02*
X218424999Y-82282700D01*
X218691666Y-82282700D02*
X218729166Y-82249366D01*
X218729166Y-82249366D02*
X218799999Y-82216033D01*
X218799999Y-82216033D02*
X218966666Y-82216033D01*
X218966666Y-82216033D02*
X219029166Y-82249366D01*
X219029166Y-82249366D02*
X219058333Y-82282700D01*
X219058333Y-82282700D02*
X219083333Y-82349366D01*
X219083333Y-82349366D02*
X219074999Y-82416033D01*
X219074999Y-82416033D02*
X219029166Y-82516033D01*
X219029166Y-82516033D02*
X218579166Y-82916033D01*
X218579166Y-82916033D02*
X219012499Y-82916033D01*
X219679166Y-82916033D02*
X219279166Y-82916033D01*
X219479166Y-82916033D02*
X219566666Y-82216033D01*
X219566666Y-82216033D02*
X219487500Y-82316033D01*
X219487500Y-82316033D02*
X219412500Y-82382700D01*
X219412500Y-82382700D02*
X219341666Y-82416033D01*
X211550000Y-88749366D02*
X211512500Y-88782700D01*
X211512500Y-88782700D02*
X211408333Y-88816033D01*
X211408333Y-88816033D02*
X211341667Y-88816033D01*
X211341667Y-88816033D02*
X211245833Y-88782700D01*
X211245833Y-88782700D02*
X211187500Y-88716033D01*
X211187500Y-88716033D02*
X211162500Y-88649366D01*
X211162500Y-88649366D02*
X211145833Y-88516033D01*
X211145833Y-88516033D02*
X211158333Y-88416033D01*
X211158333Y-88416033D02*
X211208333Y-88282700D01*
X211208333Y-88282700D02*
X211250000Y-88216033D01*
X211250000Y-88216033D02*
X211325000Y-88149366D01*
X211325000Y-88149366D02*
X211429167Y-88116033D01*
X211429167Y-88116033D02*
X211495833Y-88116033D01*
X211495833Y-88116033D02*
X211591667Y-88149366D01*
X211591667Y-88149366D02*
X211620833Y-88182700D01*
X212229167Y-88116033D02*
X212095833Y-88116033D01*
X212095833Y-88116033D02*
X212025000Y-88149366D01*
X212025000Y-88149366D02*
X211987500Y-88182700D01*
X211987500Y-88182700D02*
X211908333Y-88282700D01*
X211908333Y-88282700D02*
X211858333Y-88416033D01*
X211858333Y-88416033D02*
X211825000Y-88682700D01*
X211825000Y-88682700D02*
X211850000Y-88749366D01*
X211850000Y-88749366D02*
X211879167Y-88782700D01*
X211879167Y-88782700D02*
X211941667Y-88816033D01*
X211941667Y-88816033D02*
X212075000Y-88816033D01*
X212075000Y-88816033D02*
X212145833Y-88782700D01*
X212145833Y-88782700D02*
X212183333Y-88749366D01*
X212183333Y-88749366D02*
X212225000Y-88682700D01*
X212225000Y-88682700D02*
X212245833Y-88516033D01*
X212245833Y-88516033D02*
X212220833Y-88449366D01*
X212220833Y-88449366D02*
X212191667Y-88416033D01*
X212191667Y-88416033D02*
X212129167Y-88382700D01*
X212129167Y-88382700D02*
X211995833Y-88382700D01*
X211995833Y-88382700D02*
X211925000Y-88416033D01*
X211925000Y-88416033D02*
X211887500Y-88449366D01*
X211887500Y-88449366D02*
X211845833Y-88516033D01*
X202145833Y-73706033D02*
X201954166Y-73372700D01*
X201745833Y-73706033D02*
X201833333Y-73006033D01*
X201833333Y-73006033D02*
X202099999Y-73006033D01*
X202099999Y-73006033D02*
X202162499Y-73039366D01*
X202162499Y-73039366D02*
X202191666Y-73072700D01*
X202191666Y-73072700D02*
X202216666Y-73139366D01*
X202216666Y-73139366D02*
X202204166Y-73239366D01*
X202204166Y-73239366D02*
X202162499Y-73306033D01*
X202162499Y-73306033D02*
X202124999Y-73339366D01*
X202124999Y-73339366D02*
X202054166Y-73372700D01*
X202054166Y-73372700D02*
X201787499Y-73372700D01*
X202812499Y-73706033D02*
X202412499Y-73706033D01*
X202612499Y-73706033D02*
X202699999Y-73006033D01*
X202699999Y-73006033D02*
X202620833Y-73106033D01*
X202620833Y-73106033D02*
X202545833Y-73172700D01*
X202545833Y-73172700D02*
X202474999Y-73206033D01*
X203145833Y-73706033D02*
X203279166Y-73706033D01*
X203279166Y-73706033D02*
X203350000Y-73672700D01*
X203350000Y-73672700D02*
X203387500Y-73639366D01*
X203387500Y-73639366D02*
X203466666Y-73539366D01*
X203466666Y-73539366D02*
X203516666Y-73406033D01*
X203516666Y-73406033D02*
X203550000Y-73139366D01*
X203550000Y-73139366D02*
X203525000Y-73072700D01*
X203525000Y-73072700D02*
X203495833Y-73039366D01*
X203495833Y-73039366D02*
X203433333Y-73006033D01*
X203433333Y-73006033D02*
X203300000Y-73006033D01*
X203300000Y-73006033D02*
X203229166Y-73039366D01*
X203229166Y-73039366D02*
X203191666Y-73072700D01*
X203191666Y-73072700D02*
X203150000Y-73139366D01*
X203150000Y-73139366D02*
X203129166Y-73306033D01*
X203129166Y-73306033D02*
X203154166Y-73372700D01*
X203154166Y-73372700D02*
X203183333Y-73406033D01*
X203183333Y-73406033D02*
X203245833Y-73439366D01*
X203245833Y-73439366D02*
X203379166Y-73439366D01*
X203379166Y-73439366D02*
X203450000Y-73406033D01*
X203450000Y-73406033D02*
X203487500Y-73372700D01*
X203487500Y-73372700D02*
X203529166Y-73306033D01*
X221779167Y-91816033D02*
X221587500Y-91482700D01*
X221379167Y-91816033D02*
X221466667Y-91116033D01*
X221466667Y-91116033D02*
X221733333Y-91116033D01*
X221733333Y-91116033D02*
X221795833Y-91149366D01*
X221795833Y-91149366D02*
X221825000Y-91182700D01*
X221825000Y-91182700D02*
X221850000Y-91249366D01*
X221850000Y-91249366D02*
X221837500Y-91349366D01*
X221837500Y-91349366D02*
X221795833Y-91416033D01*
X221795833Y-91416033D02*
X221758333Y-91449366D01*
X221758333Y-91449366D02*
X221687500Y-91482700D01*
X221687500Y-91482700D02*
X221420833Y-91482700D01*
X222112500Y-91816033D02*
X222245833Y-91816033D01*
X222245833Y-91816033D02*
X222316667Y-91782700D01*
X222316667Y-91782700D02*
X222354167Y-91749366D01*
X222354167Y-91749366D02*
X222433333Y-91649366D01*
X222433333Y-91649366D02*
X222483333Y-91516033D01*
X222483333Y-91516033D02*
X222516667Y-91249366D01*
X222516667Y-91249366D02*
X222491667Y-91182700D01*
X222491667Y-91182700D02*
X222462500Y-91149366D01*
X222462500Y-91149366D02*
X222400000Y-91116033D01*
X222400000Y-91116033D02*
X222266667Y-91116033D01*
X222266667Y-91116033D02*
X222195833Y-91149366D01*
X222195833Y-91149366D02*
X222158333Y-91182700D01*
X222158333Y-91182700D02*
X222116667Y-91249366D01*
X222116667Y-91249366D02*
X222095833Y-91416033D01*
X222095833Y-91416033D02*
X222120833Y-91482700D01*
X222120833Y-91482700D02*
X222150000Y-91516033D01*
X222150000Y-91516033D02*
X222212500Y-91549366D01*
X222212500Y-91549366D02*
X222345833Y-91549366D01*
X222345833Y-91549366D02*
X222416667Y-91516033D01*
X222416667Y-91516033D02*
X222454167Y-91482700D01*
X222454167Y-91482700D02*
X222495833Y-91416033D01*
X196350000Y-89216033D02*
X196279166Y-89782700D01*
X196279166Y-89782700D02*
X196304166Y-89849366D01*
X196304166Y-89849366D02*
X196333333Y-89882700D01*
X196333333Y-89882700D02*
X196395833Y-89916033D01*
X196395833Y-89916033D02*
X196529166Y-89916033D01*
X196529166Y-89916033D02*
X196600000Y-89882700D01*
X196600000Y-89882700D02*
X196637500Y-89849366D01*
X196637500Y-89849366D02*
X196679166Y-89782700D01*
X196679166Y-89782700D02*
X196750000Y-89216033D01*
X197354166Y-89449366D02*
X197295833Y-89916033D01*
X197220833Y-89182700D02*
X196991666Y-89682700D01*
X196991666Y-89682700D02*
X197424999Y-89682700D01*
X161366667Y-80816033D02*
X161304167Y-81316033D01*
X161304167Y-81316033D02*
X161258333Y-81416033D01*
X161258333Y-81416033D02*
X161183333Y-81482700D01*
X161183333Y-81482700D02*
X161079167Y-81516033D01*
X161079167Y-81516033D02*
X161012500Y-81516033D01*
X161633333Y-80816033D02*
X162066666Y-80816033D01*
X162066666Y-80816033D02*
X161800000Y-81082700D01*
X161800000Y-81082700D02*
X161900000Y-81082700D01*
X161900000Y-81082700D02*
X161962500Y-81116033D01*
X161962500Y-81116033D02*
X161991666Y-81149366D01*
X161991666Y-81149366D02*
X162016666Y-81216033D01*
X162016666Y-81216033D02*
X161995833Y-81382700D01*
X161995833Y-81382700D02*
X161954166Y-81449366D01*
X161954166Y-81449366D02*
X161916666Y-81482700D01*
X161916666Y-81482700D02*
X161845833Y-81516033D01*
X161845833Y-81516033D02*
X161645833Y-81516033D01*
X161645833Y-81516033D02*
X161583333Y-81482700D01*
X161583333Y-81482700D02*
X161554166Y-81449366D01*
X162104167Y-81582700D02*
X162637500Y-81582700D01*
X162812500Y-81516033D02*
X162900000Y-80816033D01*
X163145833Y-81516033D02*
X163233333Y-80816033D01*
X163233333Y-80816033D02*
X163545833Y-81516033D01*
X163545833Y-81516033D02*
X163633333Y-80816033D01*
X164245832Y-81516033D02*
X163845832Y-81516033D01*
X164045832Y-81516033D02*
X164133332Y-80816033D01*
X164133332Y-80816033D02*
X164054166Y-80916033D01*
X164054166Y-80916033D02*
X163979166Y-80982700D01*
X163979166Y-80982700D02*
X163908332Y-81016033D01*
X201934166Y-93399366D02*
X201896666Y-93432700D01*
X201896666Y-93432700D02*
X201792499Y-93466033D01*
X201792499Y-93466033D02*
X201725833Y-93466033D01*
X201725833Y-93466033D02*
X201629999Y-93432700D01*
X201629999Y-93432700D02*
X201571666Y-93366033D01*
X201571666Y-93366033D02*
X201546666Y-93299366D01*
X201546666Y-93299366D02*
X201529999Y-93166033D01*
X201529999Y-93166033D02*
X201542499Y-93066033D01*
X201542499Y-93066033D02*
X201592499Y-92932700D01*
X201592499Y-92932700D02*
X201634166Y-92866033D01*
X201634166Y-92866033D02*
X201709166Y-92799366D01*
X201709166Y-92799366D02*
X201813333Y-92766033D01*
X201813333Y-92766033D02*
X201879999Y-92766033D01*
X201879999Y-92766033D02*
X201975833Y-92799366D01*
X201975833Y-92799366D02*
X202004999Y-92832700D01*
X202246666Y-92766033D02*
X202679999Y-92766033D01*
X202679999Y-92766033D02*
X202413333Y-93032700D01*
X202413333Y-93032700D02*
X202513333Y-93032700D01*
X202513333Y-93032700D02*
X202575833Y-93066033D01*
X202575833Y-93066033D02*
X202604999Y-93099366D01*
X202604999Y-93099366D02*
X202629999Y-93166033D01*
X202629999Y-93166033D02*
X202609166Y-93332700D01*
X202609166Y-93332700D02*
X202567499Y-93399366D01*
X202567499Y-93399366D02*
X202529999Y-93432700D01*
X202529999Y-93432700D02*
X202459166Y-93466033D01*
X202459166Y-93466033D02*
X202259166Y-93466033D01*
X202259166Y-93466033D02*
X202196666Y-93432700D01*
X202196666Y-93432700D02*
X202167499Y-93399366D01*
X203259166Y-93466033D02*
X202859166Y-93466033D01*
X203059166Y-93466033D02*
X203146666Y-92766033D01*
X203146666Y-92766033D02*
X203067500Y-92866033D01*
X203067500Y-92866033D02*
X202992500Y-92932700D01*
X202992500Y-92932700D02*
X202921666Y-92966033D01*
X237354166Y-89649366D02*
X237316666Y-89682700D01*
X237316666Y-89682700D02*
X237212499Y-89716033D01*
X237212499Y-89716033D02*
X237145833Y-89716033D01*
X237145833Y-89716033D02*
X237049999Y-89682700D01*
X237049999Y-89682700D02*
X236991666Y-89616033D01*
X236991666Y-89616033D02*
X236966666Y-89549366D01*
X236966666Y-89549366D02*
X236949999Y-89416033D01*
X236949999Y-89416033D02*
X236962499Y-89316033D01*
X236962499Y-89316033D02*
X237012499Y-89182700D01*
X237012499Y-89182700D02*
X237054166Y-89116033D01*
X237054166Y-89116033D02*
X237129166Y-89049366D01*
X237129166Y-89049366D02*
X237233333Y-89016033D01*
X237233333Y-89016033D02*
X237299999Y-89016033D01*
X237299999Y-89016033D02*
X237395833Y-89049366D01*
X237395833Y-89049366D02*
X237424999Y-89082700D01*
X237666666Y-89016033D02*
X238099999Y-89016033D01*
X238099999Y-89016033D02*
X237833333Y-89282700D01*
X237833333Y-89282700D02*
X237933333Y-89282700D01*
X237933333Y-89282700D02*
X237995833Y-89316033D01*
X237995833Y-89316033D02*
X238024999Y-89349366D01*
X238024999Y-89349366D02*
X238049999Y-89416033D01*
X238049999Y-89416033D02*
X238029166Y-89582700D01*
X238029166Y-89582700D02*
X237987499Y-89649366D01*
X237987499Y-89649366D02*
X237949999Y-89682700D01*
X237949999Y-89682700D02*
X237879166Y-89716033D01*
X237879166Y-89716033D02*
X237679166Y-89716033D01*
X237679166Y-89716033D02*
X237616666Y-89682700D01*
X237616666Y-89682700D02*
X237587499Y-89649366D01*
X238358333Y-89082700D02*
X238395833Y-89049366D01*
X238395833Y-89049366D02*
X238466666Y-89016033D01*
X238466666Y-89016033D02*
X238633333Y-89016033D01*
X238633333Y-89016033D02*
X238695833Y-89049366D01*
X238695833Y-89049366D02*
X238725000Y-89082700D01*
X238725000Y-89082700D02*
X238750000Y-89149366D01*
X238750000Y-89149366D02*
X238741666Y-89216033D01*
X238741666Y-89216033D02*
X238695833Y-89316033D01*
X238695833Y-89316033D02*
X238245833Y-89716033D01*
X238245833Y-89716033D02*
X238679166Y-89716033D01*
X251068533Y-83280000D02*
X251568533Y-83342500D01*
X251568533Y-83342500D02*
X251668533Y-83388333D01*
X251668533Y-83388333D02*
X251735200Y-83463333D01*
X251735200Y-83463333D02*
X251768533Y-83567500D01*
X251768533Y-83567500D02*
X251768533Y-83634166D01*
X251768533Y-82667500D02*
X251768533Y-83067500D01*
X251768533Y-82867500D02*
X251068533Y-82780000D01*
X251068533Y-82780000D02*
X251168533Y-82859167D01*
X251168533Y-82859167D02*
X251235200Y-82934167D01*
X251235200Y-82934167D02*
X251268533Y-83005000D01*
X161300001Y-70616033D02*
X161237501Y-71116033D01*
X161237501Y-71116033D02*
X161191667Y-71216033D01*
X161191667Y-71216033D02*
X161116667Y-71282700D01*
X161116667Y-71282700D02*
X161012501Y-71316033D01*
X161012501Y-71316033D02*
X160945834Y-71316033D01*
X161904167Y-70849366D02*
X161845834Y-71316033D01*
X161770834Y-70582700D02*
X161541667Y-71082700D01*
X161541667Y-71082700D02*
X161975000Y-71082700D01*
X162037501Y-71382700D02*
X162570834Y-71382700D01*
X162966667Y-70616033D02*
X163100000Y-70616033D01*
X163100000Y-70616033D02*
X163162500Y-70649366D01*
X163162500Y-70649366D02*
X163220834Y-70716033D01*
X163220834Y-70716033D02*
X163237500Y-70849366D01*
X163237500Y-70849366D02*
X163208334Y-71082700D01*
X163208334Y-71082700D02*
X163158334Y-71216033D01*
X163158334Y-71216033D02*
X163083334Y-71282700D01*
X163083334Y-71282700D02*
X163012500Y-71316033D01*
X163012500Y-71316033D02*
X162879167Y-71316033D01*
X162879167Y-71316033D02*
X162816667Y-71282700D01*
X162816667Y-71282700D02*
X162758334Y-71216033D01*
X162758334Y-71216033D02*
X162741667Y-71082700D01*
X162741667Y-71082700D02*
X162770834Y-70849366D01*
X162770834Y-70849366D02*
X162820834Y-70716033D01*
X162820834Y-70716033D02*
X162895834Y-70649366D01*
X162895834Y-70649366D02*
X162966667Y-70616033D01*
X163566667Y-70616033D02*
X163495833Y-71182700D01*
X163495833Y-71182700D02*
X163520833Y-71249366D01*
X163520833Y-71249366D02*
X163550000Y-71282700D01*
X163550000Y-71282700D02*
X163612500Y-71316033D01*
X163612500Y-71316033D02*
X163745833Y-71316033D01*
X163745833Y-71316033D02*
X163816667Y-71282700D01*
X163816667Y-71282700D02*
X163854167Y-71249366D01*
X163854167Y-71249366D02*
X163895833Y-71182700D01*
X163895833Y-71182700D02*
X163966667Y-70616033D01*
X164200000Y-70616033D02*
X164600000Y-70616033D01*
X164312500Y-71316033D02*
X164400000Y-70616033D01*
X165112499Y-71316033D02*
X164712499Y-71316033D01*
X164912499Y-71316033D02*
X164999999Y-70616033D01*
X164999999Y-70616033D02*
X164920833Y-70716033D01*
X164920833Y-70716033D02*
X164845833Y-70782700D01*
X164845833Y-70782700D02*
X164774999Y-70816033D01*
D10*
X182900000Y-85118633D02*
X183300000Y-85118633D01*
X183012500Y-85818633D02*
X183100000Y-85118633D01*
X183445833Y-85818633D02*
X183533333Y-85118633D01*
X183533333Y-85118633D02*
X183799999Y-85118633D01*
X183799999Y-85118633D02*
X183862499Y-85151966D01*
X183862499Y-85151966D02*
X183891666Y-85185300D01*
X183891666Y-85185300D02*
X183916666Y-85251966D01*
X183916666Y-85251966D02*
X183904166Y-85351966D01*
X183904166Y-85351966D02*
X183862499Y-85418633D01*
X183862499Y-85418633D02*
X183824999Y-85451966D01*
X183824999Y-85451966D02*
X183754166Y-85485300D01*
X183754166Y-85485300D02*
X183487499Y-85485300D01*
X184512499Y-85818633D02*
X184112499Y-85818633D01*
X184312499Y-85818633D02*
X184399999Y-85118633D01*
X184399999Y-85118633D02*
X184320833Y-85218633D01*
X184320833Y-85218633D02*
X184245833Y-85285300D01*
X184245833Y-85285300D02*
X184174999Y-85318633D01*
X184800000Y-85118633D02*
X184945833Y-85818633D01*
X184945833Y-85818633D02*
X185266666Y-85118633D01*
X185562500Y-85418633D02*
X185500000Y-85385300D01*
X185500000Y-85385300D02*
X185470833Y-85351966D01*
X185470833Y-85351966D02*
X185445833Y-85285300D01*
X185445833Y-85285300D02*
X185450000Y-85251966D01*
X185450000Y-85251966D02*
X185491666Y-85185300D01*
X185491666Y-85185300D02*
X185529166Y-85151966D01*
X185529166Y-85151966D02*
X185600000Y-85118633D01*
X185600000Y-85118633D02*
X185733333Y-85118633D01*
X185733333Y-85118633D02*
X185795833Y-85151966D01*
X185795833Y-85151966D02*
X185825000Y-85185300D01*
X185825000Y-85185300D02*
X185850000Y-85251966D01*
X185850000Y-85251966D02*
X185845833Y-85285300D01*
X185845833Y-85285300D02*
X185804166Y-85351966D01*
X185804166Y-85351966D02*
X185766666Y-85385300D01*
X185766666Y-85385300D02*
X185695833Y-85418633D01*
X185695833Y-85418633D02*
X185562500Y-85418633D01*
X185562500Y-85418633D02*
X185491666Y-85451966D01*
X185491666Y-85451966D02*
X185454166Y-85485300D01*
X185454166Y-85485300D02*
X185412500Y-85551966D01*
X185412500Y-85551966D02*
X185395833Y-85685300D01*
X185395833Y-85685300D02*
X185420833Y-85751966D01*
X185420833Y-85751966D02*
X185450000Y-85785300D01*
X185450000Y-85785300D02*
X185512500Y-85818633D01*
X185512500Y-85818633D02*
X185645833Y-85818633D01*
X185645833Y-85818633D02*
X185716666Y-85785300D01*
X185716666Y-85785300D02*
X185754166Y-85751966D01*
X185754166Y-85751966D02*
X185795833Y-85685300D01*
X185795833Y-85685300D02*
X185812500Y-85551966D01*
X185812500Y-85551966D02*
X185787500Y-85485300D01*
X185787500Y-85485300D02*
X185758333Y-85451966D01*
X185758333Y-85451966D02*
X185695833Y-85418633D01*
X186112500Y-85551966D02*
X186645833Y-85551966D01*
X186345833Y-85818633D02*
X186412500Y-85285300D01*
X187312500Y-85818633D02*
X186912500Y-85818633D01*
X187112500Y-85818633D02*
X187200000Y-85118633D01*
X187200000Y-85118633D02*
X187120834Y-85218633D01*
X187120834Y-85218633D02*
X187045834Y-85285300D01*
X187045834Y-85285300D02*
X186975000Y-85318633D01*
D13*
X216687500Y-91849366D02*
X216650000Y-91882700D01*
X216650000Y-91882700D02*
X216545833Y-91916033D01*
X216545833Y-91916033D02*
X216479167Y-91916033D01*
X216479167Y-91916033D02*
X216383333Y-91882700D01*
X216383333Y-91882700D02*
X216325000Y-91816033D01*
X216325000Y-91816033D02*
X216300000Y-91749366D01*
X216300000Y-91749366D02*
X216283333Y-91616033D01*
X216283333Y-91616033D02*
X216295833Y-91516033D01*
X216295833Y-91516033D02*
X216345833Y-91382700D01*
X216345833Y-91382700D02*
X216387500Y-91316033D01*
X216387500Y-91316033D02*
X216462500Y-91249366D01*
X216462500Y-91249366D02*
X216566667Y-91216033D01*
X216566667Y-91216033D02*
X216633333Y-91216033D01*
X216633333Y-91216033D02*
X216729167Y-91249366D01*
X216729167Y-91249366D02*
X216758333Y-91282700D01*
X217000000Y-91216033D02*
X217433333Y-91216033D01*
X217433333Y-91216033D02*
X217166667Y-91482700D01*
X217166667Y-91482700D02*
X217266667Y-91482700D01*
X217266667Y-91482700D02*
X217329167Y-91516033D01*
X217329167Y-91516033D02*
X217358333Y-91549366D01*
X217358333Y-91549366D02*
X217383333Y-91616033D01*
X217383333Y-91616033D02*
X217362500Y-91782700D01*
X217362500Y-91782700D02*
X217320833Y-91849366D01*
X217320833Y-91849366D02*
X217283333Y-91882700D01*
X217283333Y-91882700D02*
X217212500Y-91916033D01*
X217212500Y-91916033D02*
X217012500Y-91916033D01*
X217012500Y-91916033D02*
X216950000Y-91882700D01*
X216950000Y-91882700D02*
X216920833Y-91849366D01*
D10*
X223918633Y-74700000D02*
X223918633Y-74300000D01*
X224618633Y-74587500D02*
X223918633Y-74500000D01*
X224618633Y-74154167D02*
X223918633Y-74066667D01*
X223918633Y-74066667D02*
X223918633Y-73800000D01*
X223918633Y-73800000D02*
X223951966Y-73737500D01*
X223951966Y-73737500D02*
X223985300Y-73708333D01*
X223985300Y-73708333D02*
X224051966Y-73683333D01*
X224051966Y-73683333D02*
X224151966Y-73695833D01*
X224151966Y-73695833D02*
X224218633Y-73737500D01*
X224218633Y-73737500D02*
X224251966Y-73775000D01*
X224251966Y-73775000D02*
X224285300Y-73845833D01*
X224285300Y-73845833D02*
X224285300Y-74112500D01*
X223918633Y-73233333D02*
X223918633Y-73166667D01*
X223918633Y-73166667D02*
X223951966Y-73104167D01*
X223951966Y-73104167D02*
X223985300Y-73075000D01*
X223985300Y-73075000D02*
X224051966Y-73050000D01*
X224051966Y-73050000D02*
X224185300Y-73033333D01*
X224185300Y-73033333D02*
X224351966Y-73054167D01*
X224351966Y-73054167D02*
X224485300Y-73104167D01*
X224485300Y-73104167D02*
X224551966Y-73145833D01*
X224551966Y-73145833D02*
X224585300Y-73183333D01*
X224585300Y-73183333D02*
X224618633Y-73254167D01*
X224618633Y-73254167D02*
X224618633Y-73320833D01*
X224618633Y-73320833D02*
X224585300Y-73383333D01*
X224585300Y-73383333D02*
X224551966Y-73412500D01*
X224551966Y-73412500D02*
X224485300Y-73437500D01*
X224485300Y-73437500D02*
X224351966Y-73454167D01*
X224351966Y-73454167D02*
X224185300Y-73433333D01*
X224185300Y-73433333D02*
X224051966Y-73383333D01*
X224051966Y-73383333D02*
X223985300Y-73341667D01*
X223985300Y-73341667D02*
X223951966Y-73304167D01*
X223951966Y-73304167D02*
X223918633Y-73233333D01*
X223918633Y-72800000D02*
X224618633Y-72654166D01*
X224618633Y-72654166D02*
X223918633Y-72333333D01*
X224618633Y-72154166D02*
X224618633Y-72020833D01*
X224618633Y-72020833D02*
X224585300Y-71950000D01*
X224585300Y-71950000D02*
X224551966Y-71912500D01*
X224551966Y-71912500D02*
X224451966Y-71833333D01*
X224451966Y-71833333D02*
X224318633Y-71783333D01*
X224318633Y-71783333D02*
X224051966Y-71750000D01*
X224051966Y-71750000D02*
X223985300Y-71775000D01*
X223985300Y-71775000D02*
X223951966Y-71804166D01*
X223951966Y-71804166D02*
X223918633Y-71866666D01*
X223918633Y-71866666D02*
X223918633Y-72000000D01*
X223918633Y-72000000D02*
X223951966Y-72070833D01*
X223951966Y-72070833D02*
X223985300Y-72108333D01*
X223985300Y-72108333D02*
X224051966Y-72150000D01*
X224051966Y-72150000D02*
X224218633Y-72170833D01*
X224218633Y-72170833D02*
X224285300Y-72145833D01*
X224285300Y-72145833D02*
X224318633Y-72116666D01*
X224318633Y-72116666D02*
X224351966Y-72054166D01*
X224351966Y-72054166D02*
X224351966Y-71920833D01*
X224351966Y-71920833D02*
X224318633Y-71850000D01*
X224318633Y-71850000D02*
X224285300Y-71812500D01*
X224285300Y-71812500D02*
X224218633Y-71770833D01*
X224351966Y-71487499D02*
X224351966Y-70954166D01*
X224618633Y-71254166D02*
X224085300Y-71187499D01*
X224618633Y-70287499D02*
X224618633Y-70687499D01*
X224618633Y-70487499D02*
X223918633Y-70399999D01*
X223918633Y-70399999D02*
X224018633Y-70479166D01*
X224018633Y-70479166D02*
X224085300Y-70554166D01*
X224085300Y-70554166D02*
X224118633Y-70624999D01*
D13*
X233191033Y-95912500D02*
X233691033Y-95975000D01*
X233691033Y-95975000D02*
X233791033Y-96020833D01*
X233791033Y-96020833D02*
X233857700Y-96095833D01*
X233857700Y-96095833D02*
X233891033Y-96200000D01*
X233891033Y-96200000D02*
X233891033Y-96266666D01*
X233191033Y-95645833D02*
X233191033Y-95212500D01*
X233191033Y-95212500D02*
X233457700Y-95479167D01*
X233457700Y-95479167D02*
X233457700Y-95379167D01*
X233457700Y-95379167D02*
X233491033Y-95316667D01*
X233491033Y-95316667D02*
X233524366Y-95287500D01*
X233524366Y-95287500D02*
X233591033Y-95262500D01*
X233591033Y-95262500D02*
X233757700Y-95283333D01*
X233757700Y-95283333D02*
X233824366Y-95325000D01*
X233824366Y-95325000D02*
X233857700Y-95362500D01*
X233857700Y-95362500D02*
X233891033Y-95433333D01*
X233891033Y-95433333D02*
X233891033Y-95633333D01*
X233891033Y-95633333D02*
X233857700Y-95695833D01*
X233857700Y-95695833D02*
X233824366Y-95725000D01*
X245779167Y-73416033D02*
X245866667Y-72716033D01*
X245866667Y-72716033D02*
X246033333Y-72716033D01*
X246033333Y-72716033D02*
X246129167Y-72749366D01*
X246129167Y-72749366D02*
X246187500Y-72816033D01*
X246187500Y-72816033D02*
X246212500Y-72882700D01*
X246212500Y-72882700D02*
X246229167Y-73016033D01*
X246229167Y-73016033D02*
X246216667Y-73116033D01*
X246216667Y-73116033D02*
X246166667Y-73249366D01*
X246166667Y-73249366D02*
X246125000Y-73316033D01*
X246125000Y-73316033D02*
X246050000Y-73382700D01*
X246050000Y-73382700D02*
X245945833Y-73416033D01*
X245945833Y-73416033D02*
X245779167Y-73416033D01*
X246845833Y-73416033D02*
X246445833Y-73416033D01*
X246645833Y-73416033D02*
X246733333Y-72716033D01*
X246733333Y-72716033D02*
X246654167Y-72816033D01*
X246654167Y-72816033D02*
X246579167Y-72882700D01*
X246579167Y-72882700D02*
X246508333Y-72916033D01*
X188316666Y-76324366D02*
X188279166Y-76357700D01*
X188279166Y-76357700D02*
X188174999Y-76391033D01*
X188174999Y-76391033D02*
X188108333Y-76391033D01*
X188108333Y-76391033D02*
X188012499Y-76357700D01*
X188012499Y-76357700D02*
X187954166Y-76291033D01*
X187954166Y-76291033D02*
X187929166Y-76224366D01*
X187929166Y-76224366D02*
X187912499Y-76091033D01*
X187912499Y-76091033D02*
X187924999Y-75991033D01*
X187924999Y-75991033D02*
X187974999Y-75857700D01*
X187974999Y-75857700D02*
X188016666Y-75791033D01*
X188016666Y-75791033D02*
X188091666Y-75724366D01*
X188091666Y-75724366D02*
X188195833Y-75691033D01*
X188195833Y-75691033D02*
X188262499Y-75691033D01*
X188262499Y-75691033D02*
X188358333Y-75724366D01*
X188358333Y-75724366D02*
X188387499Y-75757700D01*
X188966666Y-75924366D02*
X188908333Y-76391033D01*
X188833333Y-75657700D02*
X188604166Y-76157700D01*
X188604166Y-76157700D02*
X189037499Y-76157700D01*
X189641666Y-76391033D02*
X189241666Y-76391033D01*
X189441666Y-76391033D02*
X189529166Y-75691033D01*
X189529166Y-75691033D02*
X189450000Y-75791033D01*
X189450000Y-75791033D02*
X189375000Y-75857700D01*
X189375000Y-75857700D02*
X189304166Y-75891033D01*
X243354166Y-80749366D02*
X243316666Y-80782700D01*
X243316666Y-80782700D02*
X243212499Y-80816033D01*
X243212499Y-80816033D02*
X243145833Y-80816033D01*
X243145833Y-80816033D02*
X243049999Y-80782700D01*
X243049999Y-80782700D02*
X242991666Y-80716033D01*
X242991666Y-80716033D02*
X242966666Y-80649366D01*
X242966666Y-80649366D02*
X242949999Y-80516033D01*
X242949999Y-80516033D02*
X242962499Y-80416033D01*
X242962499Y-80416033D02*
X243012499Y-80282700D01*
X243012499Y-80282700D02*
X243054166Y-80216033D01*
X243054166Y-80216033D02*
X243129166Y-80149366D01*
X243129166Y-80149366D02*
X243233333Y-80116033D01*
X243233333Y-80116033D02*
X243299999Y-80116033D01*
X243299999Y-80116033D02*
X243395833Y-80149366D01*
X243395833Y-80149366D02*
X243424999Y-80182700D01*
X244012499Y-80816033D02*
X243612499Y-80816033D01*
X243812499Y-80816033D02*
X243899999Y-80116033D01*
X243899999Y-80116033D02*
X243820833Y-80216033D01*
X243820833Y-80216033D02*
X243745833Y-80282700D01*
X243745833Y-80282700D02*
X243674999Y-80316033D01*
X244733333Y-80116033D02*
X244400000Y-80116033D01*
X244400000Y-80116033D02*
X244325000Y-80449366D01*
X244325000Y-80449366D02*
X244362500Y-80416033D01*
X244362500Y-80416033D02*
X244433333Y-80382700D01*
X244433333Y-80382700D02*
X244600000Y-80382700D01*
X244600000Y-80382700D02*
X244662500Y-80416033D01*
X244662500Y-80416033D02*
X244691666Y-80449366D01*
X244691666Y-80449366D02*
X244716666Y-80516033D01*
X244716666Y-80516033D02*
X244695833Y-80682700D01*
X244695833Y-80682700D02*
X244654166Y-80749366D01*
X244654166Y-80749366D02*
X244616666Y-80782700D01*
X244616666Y-80782700D02*
X244545833Y-80816033D01*
X244545833Y-80816033D02*
X244379166Y-80816033D01*
X244379166Y-80816033D02*
X244316666Y-80782700D01*
X244316666Y-80782700D02*
X244287500Y-80749366D01*
X230154519Y-81987004D02*
X230964042Y-81987004D01*
X230964042Y-81987004D02*
X231059280Y-81939385D01*
X231059280Y-81939385D02*
X231106900Y-81891766D01*
X231106900Y-81891766D02*
X231154519Y-81796528D01*
X231154519Y-81796528D02*
X231154519Y-81606052D01*
X231154519Y-81606052D02*
X231106900Y-81510814D01*
X231106900Y-81510814D02*
X231059280Y-81463195D01*
X231059280Y-81463195D02*
X230964042Y-81415576D01*
X230964042Y-81415576D02*
X230154519Y-81415576D01*
X230249757Y-80987004D02*
X230202138Y-80939385D01*
X230202138Y-80939385D02*
X230154519Y-80844147D01*
X230154519Y-80844147D02*
X230154519Y-80606052D01*
X230154519Y-80606052D02*
X230202138Y-80510814D01*
X230202138Y-80510814D02*
X230249757Y-80463195D01*
X230249757Y-80463195D02*
X230344995Y-80415576D01*
X230344995Y-80415576D02*
X230440233Y-80415576D01*
X230440233Y-80415576D02*
X230583090Y-80463195D01*
X230583090Y-80463195D02*
X231154519Y-81034623D01*
X231154519Y-81034623D02*
X231154519Y-80415576D01*
X227354169Y-85363648D02*
X227592264Y-85363648D01*
X227497026Y-85601743D02*
X227592264Y-85363648D01*
X227592264Y-85363648D02*
X227497026Y-85125553D01*
X227782740Y-85506505D02*
X227592264Y-85363648D01*
X227592264Y-85363648D02*
X227782740Y-85220791D01*
X227354169Y-85363648D02*
X227592264Y-85363648D01*
X227497026Y-85601743D02*
X227592264Y-85363648D01*
X227592264Y-85363648D02*
X227497026Y-85125553D01*
X227782740Y-85506505D02*
X227592264Y-85363648D01*
X227592264Y-85363648D02*
X227782740Y-85220791D01*
X174829166Y-75699366D02*
X174791666Y-75732700D01*
X174791666Y-75732700D02*
X174687499Y-75766033D01*
X174687499Y-75766033D02*
X174620833Y-75766033D01*
X174620833Y-75766033D02*
X174524999Y-75732700D01*
X174524999Y-75732700D02*
X174466666Y-75666033D01*
X174466666Y-75666033D02*
X174441666Y-75599366D01*
X174441666Y-75599366D02*
X174424999Y-75466033D01*
X174424999Y-75466033D02*
X174437499Y-75366033D01*
X174437499Y-75366033D02*
X174487499Y-75232700D01*
X174487499Y-75232700D02*
X174529166Y-75166033D01*
X174529166Y-75166033D02*
X174604166Y-75099366D01*
X174604166Y-75099366D02*
X174708333Y-75066033D01*
X174708333Y-75066033D02*
X174774999Y-75066033D01*
X174774999Y-75066033D02*
X174870833Y-75099366D01*
X174870833Y-75099366D02*
X174899999Y-75132700D01*
X175479166Y-75299366D02*
X175420833Y-75766033D01*
X175345833Y-75032700D02*
X175116666Y-75532700D01*
X175116666Y-75532700D02*
X175549999Y-75532700D01*
X176208333Y-75066033D02*
X175875000Y-75066033D01*
X175875000Y-75066033D02*
X175800000Y-75399366D01*
X175800000Y-75399366D02*
X175837500Y-75366033D01*
X175837500Y-75366033D02*
X175908333Y-75332700D01*
X175908333Y-75332700D02*
X176075000Y-75332700D01*
X176075000Y-75332700D02*
X176137500Y-75366033D01*
X176137500Y-75366033D02*
X176166666Y-75399366D01*
X176166666Y-75399366D02*
X176191666Y-75466033D01*
X176191666Y-75466033D02*
X176170833Y-75632700D01*
X176170833Y-75632700D02*
X176129166Y-75699366D01*
X176129166Y-75699366D02*
X176091666Y-75732700D01*
X176091666Y-75732700D02*
X176020833Y-75766033D01*
X176020833Y-75766033D02*
X175854166Y-75766033D01*
X175854166Y-75766033D02*
X175791666Y-75732700D01*
X175791666Y-75732700D02*
X175762500Y-75699366D01*
X201854166Y-96049366D02*
X201816666Y-96082700D01*
X201816666Y-96082700D02*
X201712499Y-96116033D01*
X201712499Y-96116033D02*
X201645833Y-96116033D01*
X201645833Y-96116033D02*
X201549999Y-96082700D01*
X201549999Y-96082700D02*
X201491666Y-96016033D01*
X201491666Y-96016033D02*
X201466666Y-95949366D01*
X201466666Y-95949366D02*
X201449999Y-95816033D01*
X201449999Y-95816033D02*
X201462499Y-95716033D01*
X201462499Y-95716033D02*
X201512499Y-95582700D01*
X201512499Y-95582700D02*
X201554166Y-95516033D01*
X201554166Y-95516033D02*
X201629166Y-95449366D01*
X201629166Y-95449366D02*
X201733333Y-95416033D01*
X201733333Y-95416033D02*
X201799999Y-95416033D01*
X201799999Y-95416033D02*
X201895833Y-95449366D01*
X201895833Y-95449366D02*
X201924999Y-95482700D01*
X202166666Y-95416033D02*
X202599999Y-95416033D01*
X202599999Y-95416033D02*
X202333333Y-95682700D01*
X202333333Y-95682700D02*
X202433333Y-95682700D01*
X202433333Y-95682700D02*
X202495833Y-95716033D01*
X202495833Y-95716033D02*
X202524999Y-95749366D01*
X202524999Y-95749366D02*
X202549999Y-95816033D01*
X202549999Y-95816033D02*
X202529166Y-95982700D01*
X202529166Y-95982700D02*
X202487499Y-96049366D01*
X202487499Y-96049366D02*
X202449999Y-96082700D01*
X202449999Y-96082700D02*
X202379166Y-96116033D01*
X202379166Y-96116033D02*
X202179166Y-96116033D01*
X202179166Y-96116033D02*
X202116666Y-96082700D01*
X202116666Y-96082700D02*
X202087499Y-96049366D01*
X202833333Y-95416033D02*
X203300000Y-95416033D01*
X203300000Y-95416033D02*
X202912500Y-96116033D01*
X207054166Y-84849366D02*
X207016666Y-84882700D01*
X207016666Y-84882700D02*
X206912499Y-84916033D01*
X206912499Y-84916033D02*
X206845833Y-84916033D01*
X206845833Y-84916033D02*
X206749999Y-84882700D01*
X206749999Y-84882700D02*
X206691666Y-84816033D01*
X206691666Y-84816033D02*
X206666666Y-84749366D01*
X206666666Y-84749366D02*
X206649999Y-84616033D01*
X206649999Y-84616033D02*
X206662499Y-84516033D01*
X206662499Y-84516033D02*
X206712499Y-84382700D01*
X206712499Y-84382700D02*
X206754166Y-84316033D01*
X206754166Y-84316033D02*
X206829166Y-84249366D01*
X206829166Y-84249366D02*
X206933333Y-84216033D01*
X206933333Y-84216033D02*
X206999999Y-84216033D01*
X206999999Y-84216033D02*
X207095833Y-84249366D01*
X207095833Y-84249366D02*
X207124999Y-84282700D01*
X207712499Y-84916033D02*
X207312499Y-84916033D01*
X207512499Y-84916033D02*
X207599999Y-84216033D01*
X207599999Y-84216033D02*
X207520833Y-84316033D01*
X207520833Y-84316033D02*
X207445833Y-84382700D01*
X207445833Y-84382700D02*
X207374999Y-84416033D01*
X208379166Y-84916033D02*
X207979166Y-84916033D01*
X208179166Y-84916033D02*
X208266666Y-84216033D01*
X208266666Y-84216033D02*
X208187500Y-84316033D01*
X208187500Y-84316033D02*
X208112500Y-84382700D01*
X208112500Y-84382700D02*
X208041666Y-84416033D01*
X212879167Y-84746033D02*
X212687500Y-84412700D01*
X212479167Y-84746033D02*
X212566667Y-84046033D01*
X212566667Y-84046033D02*
X212833333Y-84046033D01*
X212833333Y-84046033D02*
X212895833Y-84079366D01*
X212895833Y-84079366D02*
X212925000Y-84112700D01*
X212925000Y-84112700D02*
X212950000Y-84179366D01*
X212950000Y-84179366D02*
X212937500Y-84279366D01*
X212937500Y-84279366D02*
X212895833Y-84346033D01*
X212895833Y-84346033D02*
X212858333Y-84379366D01*
X212858333Y-84379366D02*
X212787500Y-84412700D01*
X212787500Y-84412700D02*
X212520833Y-84412700D01*
X213200000Y-84046033D02*
X213666667Y-84046033D01*
X213666667Y-84046033D02*
X213279167Y-84746033D01*
X180095833Y-77056033D02*
X179904166Y-76722700D01*
X179695833Y-77056033D02*
X179783333Y-76356033D01*
X179783333Y-76356033D02*
X180049999Y-76356033D01*
X180049999Y-76356033D02*
X180112499Y-76389366D01*
X180112499Y-76389366D02*
X180141666Y-76422700D01*
X180141666Y-76422700D02*
X180166666Y-76489366D01*
X180166666Y-76489366D02*
X180154166Y-76589366D01*
X180154166Y-76589366D02*
X180112499Y-76656033D01*
X180112499Y-76656033D02*
X180074999Y-76689366D01*
X180074999Y-76689366D02*
X180004166Y-76722700D01*
X180004166Y-76722700D02*
X179737499Y-76722700D01*
X180441666Y-76422700D02*
X180479166Y-76389366D01*
X180479166Y-76389366D02*
X180549999Y-76356033D01*
X180549999Y-76356033D02*
X180716666Y-76356033D01*
X180716666Y-76356033D02*
X180779166Y-76389366D01*
X180779166Y-76389366D02*
X180808333Y-76422700D01*
X180808333Y-76422700D02*
X180833333Y-76489366D01*
X180833333Y-76489366D02*
X180824999Y-76556033D01*
X180824999Y-76556033D02*
X180779166Y-76656033D01*
X180779166Y-76656033D02*
X180329166Y-77056033D01*
X180329166Y-77056033D02*
X180762499Y-77056033D01*
X181450000Y-76356033D02*
X181316666Y-76356033D01*
X181316666Y-76356033D02*
X181245833Y-76389366D01*
X181245833Y-76389366D02*
X181208333Y-76422700D01*
X181208333Y-76422700D02*
X181129166Y-76522700D01*
X181129166Y-76522700D02*
X181079166Y-76656033D01*
X181079166Y-76656033D02*
X181045833Y-76922700D01*
X181045833Y-76922700D02*
X181070833Y-76989366D01*
X181070833Y-76989366D02*
X181100000Y-77022700D01*
X181100000Y-77022700D02*
X181162500Y-77056033D01*
X181162500Y-77056033D02*
X181295833Y-77056033D01*
X181295833Y-77056033D02*
X181366666Y-77022700D01*
X181366666Y-77022700D02*
X181404166Y-76989366D01*
X181404166Y-76989366D02*
X181445833Y-76922700D01*
X181445833Y-76922700D02*
X181466666Y-76756033D01*
X181466666Y-76756033D02*
X181441666Y-76689366D01*
X181441666Y-76689366D02*
X181412500Y-76656033D01*
X181412500Y-76656033D02*
X181350000Y-76622700D01*
X181350000Y-76622700D02*
X181216666Y-76622700D01*
X181216666Y-76622700D02*
X181145833Y-76656033D01*
X181145833Y-76656033D02*
X181108333Y-76689366D01*
X181108333Y-76689366D02*
X181066666Y-76756033D01*
X180145833Y-83916033D02*
X179954166Y-83582700D01*
X179745833Y-83916033D02*
X179833333Y-83216033D01*
X179833333Y-83216033D02*
X180099999Y-83216033D01*
X180099999Y-83216033D02*
X180162499Y-83249366D01*
X180162499Y-83249366D02*
X180191666Y-83282700D01*
X180191666Y-83282700D02*
X180216666Y-83349366D01*
X180216666Y-83349366D02*
X180204166Y-83449366D01*
X180204166Y-83449366D02*
X180162499Y-83516033D01*
X180162499Y-83516033D02*
X180124999Y-83549366D01*
X180124999Y-83549366D02*
X180054166Y-83582700D01*
X180054166Y-83582700D02*
X179787499Y-83582700D01*
X180491666Y-83282700D02*
X180529166Y-83249366D01*
X180529166Y-83249366D02*
X180599999Y-83216033D01*
X180599999Y-83216033D02*
X180766666Y-83216033D01*
X180766666Y-83216033D02*
X180829166Y-83249366D01*
X180829166Y-83249366D02*
X180858333Y-83282700D01*
X180858333Y-83282700D02*
X180883333Y-83349366D01*
X180883333Y-83349366D02*
X180874999Y-83416033D01*
X180874999Y-83416033D02*
X180829166Y-83516033D01*
X180829166Y-83516033D02*
X180379166Y-83916033D01*
X180379166Y-83916033D02*
X180812499Y-83916033D01*
X181470833Y-83449366D02*
X181412500Y-83916033D01*
X181337500Y-83182700D02*
X181108333Y-83682700D01*
X181108333Y-83682700D02*
X181541666Y-83682700D01*
X231449366Y-69145833D02*
X231482700Y-69183333D01*
X231482700Y-69183333D02*
X231516033Y-69287500D01*
X231516033Y-69287500D02*
X231516033Y-69354167D01*
X231516033Y-69354167D02*
X231482700Y-69450000D01*
X231482700Y-69450000D02*
X231416033Y-69508333D01*
X231416033Y-69508333D02*
X231349366Y-69533333D01*
X231349366Y-69533333D02*
X231216033Y-69550000D01*
X231216033Y-69550000D02*
X231116033Y-69537500D01*
X231116033Y-69537500D02*
X230982700Y-69487500D01*
X230982700Y-69487500D02*
X230916033Y-69445833D01*
X230916033Y-69445833D02*
X230849366Y-69370833D01*
X230849366Y-69370833D02*
X230816033Y-69266667D01*
X230816033Y-69266667D02*
X230816033Y-69200000D01*
X230816033Y-69200000D02*
X230849366Y-69104167D01*
X230849366Y-69104167D02*
X230882700Y-69075000D01*
X230882700Y-68808333D02*
X230849366Y-68770833D01*
X230849366Y-68770833D02*
X230816033Y-68700000D01*
X230816033Y-68700000D02*
X230816033Y-68533333D01*
X230816033Y-68533333D02*
X230849366Y-68470833D01*
X230849366Y-68470833D02*
X230882700Y-68441667D01*
X230882700Y-68441667D02*
X230949366Y-68416667D01*
X230949366Y-68416667D02*
X231016033Y-68425000D01*
X231016033Y-68425000D02*
X231116033Y-68470833D01*
X231116033Y-68470833D02*
X231516033Y-68920833D01*
X231516033Y-68920833D02*
X231516033Y-68487500D01*
X231049366Y-67829166D02*
X231516033Y-67887500D01*
X230782700Y-67962500D02*
X231282700Y-68191666D01*
X231282700Y-68191666D02*
X231282700Y-67758333D01*
X211150000Y-96236033D02*
X211079166Y-96802700D01*
X211079166Y-96802700D02*
X211104166Y-96869366D01*
X211104166Y-96869366D02*
X211133333Y-96902700D01*
X211133333Y-96902700D02*
X211195833Y-96936033D01*
X211195833Y-96936033D02*
X211329166Y-96936033D01*
X211329166Y-96936033D02*
X211400000Y-96902700D01*
X211400000Y-96902700D02*
X211437500Y-96869366D01*
X211437500Y-96869366D02*
X211479166Y-96802700D01*
X211479166Y-96802700D02*
X211550000Y-96236033D01*
X212216666Y-96236033D02*
X211883333Y-96236033D01*
X211883333Y-96236033D02*
X211808333Y-96569366D01*
X211808333Y-96569366D02*
X211845833Y-96536033D01*
X211845833Y-96536033D02*
X211916666Y-96502700D01*
X211916666Y-96502700D02*
X212083333Y-96502700D01*
X212083333Y-96502700D02*
X212145833Y-96536033D01*
X212145833Y-96536033D02*
X212174999Y-96569366D01*
X212174999Y-96569366D02*
X212199999Y-96636033D01*
X212199999Y-96636033D02*
X212179166Y-96802700D01*
X212179166Y-96802700D02*
X212137499Y-96869366D01*
X212137499Y-96869366D02*
X212099999Y-96902700D01*
X212099999Y-96902700D02*
X212029166Y-96936033D01*
X212029166Y-96936033D02*
X211862499Y-96936033D01*
X211862499Y-96936033D02*
X211799999Y-96902700D01*
X211799999Y-96902700D02*
X211770833Y-96869366D01*
X227486866Y-91345833D02*
X227520200Y-91383333D01*
X227520200Y-91383333D02*
X227553533Y-91487500D01*
X227553533Y-91487500D02*
X227553533Y-91554167D01*
X227553533Y-91554167D02*
X227520200Y-91650000D01*
X227520200Y-91650000D02*
X227453533Y-91708333D01*
X227453533Y-91708333D02*
X227386866Y-91733333D01*
X227386866Y-91733333D02*
X227253533Y-91750000D01*
X227253533Y-91750000D02*
X227153533Y-91737500D01*
X227153533Y-91737500D02*
X227020200Y-91687500D01*
X227020200Y-91687500D02*
X226953533Y-91645833D01*
X226953533Y-91645833D02*
X226886866Y-91570833D01*
X226886866Y-91570833D02*
X226853533Y-91466667D01*
X226853533Y-91466667D02*
X226853533Y-91400000D01*
X226853533Y-91400000D02*
X226886866Y-91304167D01*
X226886866Y-91304167D02*
X226920200Y-91275000D01*
X227553533Y-90687500D02*
X227553533Y-91087500D01*
X227553533Y-90887500D02*
X226853533Y-90800000D01*
X226853533Y-90800000D02*
X226953533Y-90879167D01*
X226953533Y-90879167D02*
X227020200Y-90954167D01*
X227020200Y-90954167D02*
X227053533Y-91025000D01*
X226920200Y-90341666D02*
X226886866Y-90304166D01*
X226886866Y-90304166D02*
X226853533Y-90233333D01*
X226853533Y-90233333D02*
X226853533Y-90066666D01*
X226853533Y-90066666D02*
X226886866Y-90004166D01*
X226886866Y-90004166D02*
X226920200Y-89975000D01*
X226920200Y-89975000D02*
X226986866Y-89950000D01*
X226986866Y-89950000D02*
X227053533Y-89958333D01*
X227053533Y-89958333D02*
X227153533Y-90004166D01*
X227153533Y-90004166D02*
X227553533Y-90454166D01*
X227553533Y-90454166D02*
X227553533Y-90020833D01*
X236754166Y-74399366D02*
X236716666Y-74432700D01*
X236716666Y-74432700D02*
X236612499Y-74466033D01*
X236612499Y-74466033D02*
X236545833Y-74466033D01*
X236545833Y-74466033D02*
X236449999Y-74432700D01*
X236449999Y-74432700D02*
X236391666Y-74366033D01*
X236391666Y-74366033D02*
X236366666Y-74299366D01*
X236366666Y-74299366D02*
X236349999Y-74166033D01*
X236349999Y-74166033D02*
X236362499Y-74066033D01*
X236362499Y-74066033D02*
X236412499Y-73932700D01*
X236412499Y-73932700D02*
X236454166Y-73866033D01*
X236454166Y-73866033D02*
X236529166Y-73799366D01*
X236529166Y-73799366D02*
X236633333Y-73766033D01*
X236633333Y-73766033D02*
X236699999Y-73766033D01*
X236699999Y-73766033D02*
X236795833Y-73799366D01*
X236795833Y-73799366D02*
X236824999Y-73832700D01*
X237091666Y-73832700D02*
X237129166Y-73799366D01*
X237129166Y-73799366D02*
X237199999Y-73766033D01*
X237199999Y-73766033D02*
X237366666Y-73766033D01*
X237366666Y-73766033D02*
X237429166Y-73799366D01*
X237429166Y-73799366D02*
X237458333Y-73832700D01*
X237458333Y-73832700D02*
X237483333Y-73899366D01*
X237483333Y-73899366D02*
X237474999Y-73966033D01*
X237474999Y-73966033D02*
X237429166Y-74066033D01*
X237429166Y-74066033D02*
X236979166Y-74466033D01*
X236979166Y-74466033D02*
X237412499Y-74466033D01*
X238133333Y-73766033D02*
X237800000Y-73766033D01*
X237800000Y-73766033D02*
X237725000Y-74099366D01*
X237725000Y-74099366D02*
X237762500Y-74066033D01*
X237762500Y-74066033D02*
X237833333Y-74032700D01*
X237833333Y-74032700D02*
X238000000Y-74032700D01*
X238000000Y-74032700D02*
X238062500Y-74066033D01*
X238062500Y-74066033D02*
X238091666Y-74099366D01*
X238091666Y-74099366D02*
X238116666Y-74166033D01*
X238116666Y-74166033D02*
X238095833Y-74332700D01*
X238095833Y-74332700D02*
X238054166Y-74399366D01*
X238054166Y-74399366D02*
X238016666Y-74432700D01*
X238016666Y-74432700D02*
X237945833Y-74466033D01*
X237945833Y-74466033D02*
X237779166Y-74466033D01*
X237779166Y-74466033D02*
X237716666Y-74432700D01*
X237716666Y-74432700D02*
X237687500Y-74399366D01*
X228291666Y-93849366D02*
X228254166Y-93882700D01*
X228254166Y-93882700D02*
X228149999Y-93916033D01*
X228149999Y-93916033D02*
X228083333Y-93916033D01*
X228083333Y-93916033D02*
X227987499Y-93882700D01*
X227987499Y-93882700D02*
X227929166Y-93816033D01*
X227929166Y-93816033D02*
X227904166Y-93749366D01*
X227904166Y-93749366D02*
X227887499Y-93616033D01*
X227887499Y-93616033D02*
X227899999Y-93516033D01*
X227899999Y-93516033D02*
X227949999Y-93382700D01*
X227949999Y-93382700D02*
X227991666Y-93316033D01*
X227991666Y-93316033D02*
X228066666Y-93249366D01*
X228066666Y-93249366D02*
X228170833Y-93216033D01*
X228170833Y-93216033D02*
X228237499Y-93216033D01*
X228237499Y-93216033D02*
X228333333Y-93249366D01*
X228333333Y-93249366D02*
X228362499Y-93282700D01*
X228949999Y-93916033D02*
X228549999Y-93916033D01*
X228749999Y-93916033D02*
X228837499Y-93216033D01*
X228837499Y-93216033D02*
X228758333Y-93316033D01*
X228758333Y-93316033D02*
X228683333Y-93382700D01*
X228683333Y-93382700D02*
X228612499Y-93416033D01*
X229400000Y-93516033D02*
X229337500Y-93482700D01*
X229337500Y-93482700D02*
X229308333Y-93449366D01*
X229308333Y-93449366D02*
X229283333Y-93382700D01*
X229283333Y-93382700D02*
X229287500Y-93349366D01*
X229287500Y-93349366D02*
X229329166Y-93282700D01*
X229329166Y-93282700D02*
X229366666Y-93249366D01*
X229366666Y-93249366D02*
X229437500Y-93216033D01*
X229437500Y-93216033D02*
X229570833Y-93216033D01*
X229570833Y-93216033D02*
X229633333Y-93249366D01*
X229633333Y-93249366D02*
X229662500Y-93282700D01*
X229662500Y-93282700D02*
X229687500Y-93349366D01*
X229687500Y-93349366D02*
X229683333Y-93382700D01*
X229683333Y-93382700D02*
X229641666Y-93449366D01*
X229641666Y-93449366D02*
X229604166Y-93482700D01*
X229604166Y-93482700D02*
X229533333Y-93516033D01*
X229533333Y-93516033D02*
X229400000Y-93516033D01*
X229400000Y-93516033D02*
X229329166Y-93549366D01*
X229329166Y-93549366D02*
X229291666Y-93582700D01*
X229291666Y-93582700D02*
X229250000Y-93649366D01*
X229250000Y-93649366D02*
X229233333Y-93782700D01*
X229233333Y-93782700D02*
X229258333Y-93849366D01*
X229258333Y-93849366D02*
X229287500Y-93882700D01*
X229287500Y-93882700D02*
X229350000Y-93916033D01*
X229350000Y-93916033D02*
X229483333Y-93916033D01*
X229483333Y-93916033D02*
X229554166Y-93882700D01*
X229554166Y-93882700D02*
X229591666Y-93849366D01*
X229591666Y-93849366D02*
X229633333Y-93782700D01*
X229633333Y-93782700D02*
X229650000Y-93649366D01*
X229650000Y-93649366D02*
X229625000Y-93582700D01*
X229625000Y-93582700D02*
X229595833Y-93549366D01*
X229595833Y-93549366D02*
X229533333Y-93516033D01*
X203549366Y-80445833D02*
X203582700Y-80483333D01*
X203582700Y-80483333D02*
X203616033Y-80587500D01*
X203616033Y-80587500D02*
X203616033Y-80654167D01*
X203616033Y-80654167D02*
X203582700Y-80750000D01*
X203582700Y-80750000D02*
X203516033Y-80808333D01*
X203516033Y-80808333D02*
X203449366Y-80833333D01*
X203449366Y-80833333D02*
X203316033Y-80850000D01*
X203316033Y-80850000D02*
X203216033Y-80837500D01*
X203216033Y-80837500D02*
X203082700Y-80787500D01*
X203082700Y-80787500D02*
X203016033Y-80745833D01*
X203016033Y-80745833D02*
X202949366Y-80670833D01*
X202949366Y-80670833D02*
X202916033Y-80566667D01*
X202916033Y-80566667D02*
X202916033Y-80500000D01*
X202916033Y-80500000D02*
X202949366Y-80404167D01*
X202949366Y-80404167D02*
X202982700Y-80375000D01*
X203149366Y-79795833D02*
X203616033Y-79854167D01*
X202882700Y-79929167D02*
X203382700Y-80158333D01*
X203382700Y-80158333D02*
X203382700Y-79725000D01*
X202982700Y-79441666D02*
X202949366Y-79404166D01*
X202949366Y-79404166D02*
X202916033Y-79333333D01*
X202916033Y-79333333D02*
X202916033Y-79166666D01*
X202916033Y-79166666D02*
X202949366Y-79104166D01*
X202949366Y-79104166D02*
X202982700Y-79075000D01*
X202982700Y-79075000D02*
X203049366Y-79050000D01*
X203049366Y-79050000D02*
X203116033Y-79058333D01*
X203116033Y-79058333D02*
X203216033Y-79104166D01*
X203216033Y-79104166D02*
X203616033Y-79554166D01*
X203616033Y-79554166D02*
X203616033Y-79120833D01*
X199816666Y-84924366D02*
X199779166Y-84957700D01*
X199779166Y-84957700D02*
X199674999Y-84991033D01*
X199674999Y-84991033D02*
X199608333Y-84991033D01*
X199608333Y-84991033D02*
X199512499Y-84957700D01*
X199512499Y-84957700D02*
X199454166Y-84891033D01*
X199454166Y-84891033D02*
X199429166Y-84824366D01*
X199429166Y-84824366D02*
X199412499Y-84691033D01*
X199412499Y-84691033D02*
X199424999Y-84591033D01*
X199424999Y-84591033D02*
X199474999Y-84457700D01*
X199474999Y-84457700D02*
X199516666Y-84391033D01*
X199516666Y-84391033D02*
X199591666Y-84324366D01*
X199591666Y-84324366D02*
X199695833Y-84291033D01*
X199695833Y-84291033D02*
X199762499Y-84291033D01*
X199762499Y-84291033D02*
X199858333Y-84324366D01*
X199858333Y-84324366D02*
X199887499Y-84357700D01*
X200466666Y-84524366D02*
X200408333Y-84991033D01*
X200333333Y-84257700D02*
X200104166Y-84757700D01*
X200104166Y-84757700D02*
X200537499Y-84757700D01*
X200795833Y-84291033D02*
X201229166Y-84291033D01*
X201229166Y-84291033D02*
X200962500Y-84557700D01*
X200962500Y-84557700D02*
X201062500Y-84557700D01*
X201062500Y-84557700D02*
X201125000Y-84591033D01*
X201125000Y-84591033D02*
X201154166Y-84624366D01*
X201154166Y-84624366D02*
X201179166Y-84691033D01*
X201179166Y-84691033D02*
X201158333Y-84857700D01*
X201158333Y-84857700D02*
X201116666Y-84924366D01*
X201116666Y-84924366D02*
X201079166Y-84957700D01*
X201079166Y-84957700D02*
X201008333Y-84991033D01*
X201008333Y-84991033D02*
X200808333Y-84991033D01*
X200808333Y-84991033D02*
X200745833Y-84957700D01*
X200745833Y-84957700D02*
X200716666Y-84924366D01*
X185708333Y-77591033D02*
X185516666Y-77257700D01*
X185308333Y-77591033D02*
X185395833Y-76891033D01*
X185395833Y-76891033D02*
X185662499Y-76891033D01*
X185662499Y-76891033D02*
X185724999Y-76924366D01*
X185724999Y-76924366D02*
X185754166Y-76957700D01*
X185754166Y-76957700D02*
X185779166Y-77024366D01*
X185779166Y-77024366D02*
X185766666Y-77124366D01*
X185766666Y-77124366D02*
X185724999Y-77191033D01*
X185724999Y-77191033D02*
X185687499Y-77224366D01*
X185687499Y-77224366D02*
X185616666Y-77257700D01*
X185616666Y-77257700D02*
X185349999Y-77257700D01*
X186374999Y-77591033D02*
X185974999Y-77591033D01*
X186174999Y-77591033D02*
X186262499Y-76891033D01*
X186262499Y-76891033D02*
X186183333Y-76991033D01*
X186183333Y-76991033D02*
X186108333Y-77057700D01*
X186108333Y-77057700D02*
X186037499Y-77091033D01*
X186825000Y-77191033D02*
X186762500Y-77157700D01*
X186762500Y-77157700D02*
X186733333Y-77124366D01*
X186733333Y-77124366D02*
X186708333Y-77057700D01*
X186708333Y-77057700D02*
X186712500Y-77024366D01*
X186712500Y-77024366D02*
X186754166Y-76957700D01*
X186754166Y-76957700D02*
X186791666Y-76924366D01*
X186791666Y-76924366D02*
X186862500Y-76891033D01*
X186862500Y-76891033D02*
X186995833Y-76891033D01*
X186995833Y-76891033D02*
X187058333Y-76924366D01*
X187058333Y-76924366D02*
X187087500Y-76957700D01*
X187087500Y-76957700D02*
X187112500Y-77024366D01*
X187112500Y-77024366D02*
X187108333Y-77057700D01*
X187108333Y-77057700D02*
X187066666Y-77124366D01*
X187066666Y-77124366D02*
X187029166Y-77157700D01*
X187029166Y-77157700D02*
X186958333Y-77191033D01*
X186958333Y-77191033D02*
X186825000Y-77191033D01*
X186825000Y-77191033D02*
X186754166Y-77224366D01*
X186754166Y-77224366D02*
X186716666Y-77257700D01*
X186716666Y-77257700D02*
X186675000Y-77324366D01*
X186675000Y-77324366D02*
X186658333Y-77457700D01*
X186658333Y-77457700D02*
X186683333Y-77524366D01*
X186683333Y-77524366D02*
X186712500Y-77557700D01*
X186712500Y-77557700D02*
X186775000Y-77591033D01*
X186775000Y-77591033D02*
X186908333Y-77591033D01*
X186908333Y-77591033D02*
X186979166Y-77557700D01*
X186979166Y-77557700D02*
X187016666Y-77524366D01*
X187016666Y-77524366D02*
X187058333Y-77457700D01*
X187058333Y-77457700D02*
X187075000Y-77324366D01*
X187075000Y-77324366D02*
X187050000Y-77257700D01*
X187050000Y-77257700D02*
X187020833Y-77224366D01*
X187020833Y-77224366D02*
X186958333Y-77191033D01*
X206652142Y-72054819D02*
X206550952Y-72864342D01*
X206550952Y-72864342D02*
X206586666Y-72959580D01*
X206586666Y-72959580D02*
X206628333Y-73007200D01*
X206628333Y-73007200D02*
X206717619Y-73054819D01*
X206717619Y-73054819D02*
X206908095Y-73054819D01*
X206908095Y-73054819D02*
X207009285Y-73007200D01*
X207009285Y-73007200D02*
X207062857Y-72959580D01*
X207062857Y-72959580D02*
X207122380Y-72864342D01*
X207122380Y-72864342D02*
X207223571Y-72054819D01*
X208098571Y-73054819D02*
X207527142Y-73054819D01*
X207812857Y-73054819D02*
X207937857Y-72054819D01*
X207937857Y-72054819D02*
X207824761Y-72197676D01*
X207824761Y-72197676D02*
X207717619Y-72292914D01*
X207717619Y-72292914D02*
X207616428Y-72340533D01*
X192912500Y-82191033D02*
X192841666Y-82757700D01*
X192841666Y-82757700D02*
X192866666Y-82824366D01*
X192866666Y-82824366D02*
X192895833Y-82857700D01*
X192895833Y-82857700D02*
X192958333Y-82891033D01*
X192958333Y-82891033D02*
X193091666Y-82891033D01*
X193091666Y-82891033D02*
X193162500Y-82857700D01*
X193162500Y-82857700D02*
X193200000Y-82824366D01*
X193200000Y-82824366D02*
X193241666Y-82757700D01*
X193241666Y-82757700D02*
X193312500Y-82191033D01*
X193591666Y-82891033D02*
X193724999Y-82891033D01*
X193724999Y-82891033D02*
X193795833Y-82857700D01*
X193795833Y-82857700D02*
X193833333Y-82824366D01*
X193833333Y-82824366D02*
X193912499Y-82724366D01*
X193912499Y-82724366D02*
X193962499Y-82591033D01*
X193962499Y-82591033D02*
X193995833Y-82324366D01*
X193995833Y-82324366D02*
X193970833Y-82257700D01*
X193970833Y-82257700D02*
X193941666Y-82224366D01*
X193941666Y-82224366D02*
X193879166Y-82191033D01*
X193879166Y-82191033D02*
X193745833Y-82191033D01*
X193745833Y-82191033D02*
X193674999Y-82224366D01*
X193674999Y-82224366D02*
X193637499Y-82257700D01*
X193637499Y-82257700D02*
X193595833Y-82324366D01*
X193595833Y-82324366D02*
X193574999Y-82491033D01*
X193574999Y-82491033D02*
X193599999Y-82557700D01*
X193599999Y-82557700D02*
X193629166Y-82591033D01*
X193629166Y-82591033D02*
X193691666Y-82624366D01*
X193691666Y-82624366D02*
X193824999Y-82624366D01*
X193824999Y-82624366D02*
X193895833Y-82591033D01*
X193895833Y-82591033D02*
X193933333Y-82557700D01*
X193933333Y-82557700D02*
X193974999Y-82491033D01*
X245079167Y-88016033D02*
X244887500Y-87682700D01*
X244679167Y-88016033D02*
X244766667Y-87316033D01*
X244766667Y-87316033D02*
X245033333Y-87316033D01*
X245033333Y-87316033D02*
X245095833Y-87349366D01*
X245095833Y-87349366D02*
X245125000Y-87382700D01*
X245125000Y-87382700D02*
X245150000Y-87449366D01*
X245150000Y-87449366D02*
X245137500Y-87549366D01*
X245137500Y-87549366D02*
X245095833Y-87616033D01*
X245095833Y-87616033D02*
X245058333Y-87649366D01*
X245058333Y-87649366D02*
X244987500Y-87682700D01*
X244987500Y-87682700D02*
X244720833Y-87682700D01*
X245737500Y-87549366D02*
X245679167Y-88016033D01*
X245604167Y-87282700D02*
X245375000Y-87782700D01*
X245375000Y-87782700D02*
X245808333Y-87782700D01*
X195549366Y-96208333D02*
X195582700Y-96245833D01*
X195582700Y-96245833D02*
X195616033Y-96350000D01*
X195616033Y-96350000D02*
X195616033Y-96416667D01*
X195616033Y-96416667D02*
X195582700Y-96512500D01*
X195582700Y-96512500D02*
X195516033Y-96570833D01*
X195516033Y-96570833D02*
X195449366Y-96595833D01*
X195449366Y-96595833D02*
X195316033Y-96612500D01*
X195316033Y-96612500D02*
X195216033Y-96600000D01*
X195216033Y-96600000D02*
X195082700Y-96550000D01*
X195082700Y-96550000D02*
X195016033Y-96508333D01*
X195016033Y-96508333D02*
X194949366Y-96433333D01*
X194949366Y-96433333D02*
X194916033Y-96329167D01*
X194916033Y-96329167D02*
X194916033Y-96262500D01*
X194916033Y-96262500D02*
X194949366Y-96166667D01*
X194949366Y-96166667D02*
X194982700Y-96137500D01*
X194916033Y-95895833D02*
X194916033Y-95462500D01*
X194916033Y-95462500D02*
X195182700Y-95729167D01*
X195182700Y-95729167D02*
X195182700Y-95629167D01*
X195182700Y-95629167D02*
X195216033Y-95566667D01*
X195216033Y-95566667D02*
X195249366Y-95537500D01*
X195249366Y-95537500D02*
X195316033Y-95512500D01*
X195316033Y-95512500D02*
X195482700Y-95533333D01*
X195482700Y-95533333D02*
X195549366Y-95575000D01*
X195549366Y-95575000D02*
X195582700Y-95612500D01*
X195582700Y-95612500D02*
X195616033Y-95683333D01*
X195616033Y-95683333D02*
X195616033Y-95883333D01*
X195616033Y-95883333D02*
X195582700Y-95945833D01*
X195582700Y-95945833D02*
X195549366Y-95975000D01*
X194916033Y-95029166D02*
X194916033Y-94962500D01*
X194916033Y-94962500D02*
X194949366Y-94900000D01*
X194949366Y-94900000D02*
X194982700Y-94870833D01*
X194982700Y-94870833D02*
X195049366Y-94845833D01*
X195049366Y-94845833D02*
X195182700Y-94829166D01*
X195182700Y-94829166D02*
X195349366Y-94850000D01*
X195349366Y-94850000D02*
X195482700Y-94900000D01*
X195482700Y-94900000D02*
X195549366Y-94941666D01*
X195549366Y-94941666D02*
X195582700Y-94979166D01*
X195582700Y-94979166D02*
X195616033Y-95050000D01*
X195616033Y-95050000D02*
X195616033Y-95116666D01*
X195616033Y-95116666D02*
X195582700Y-95179166D01*
X195582700Y-95179166D02*
X195549366Y-95208333D01*
X195549366Y-95208333D02*
X195482700Y-95233333D01*
X195482700Y-95233333D02*
X195349366Y-95250000D01*
X195349366Y-95250000D02*
X195182700Y-95229166D01*
X195182700Y-95229166D02*
X195049366Y-95179166D01*
X195049366Y-95179166D02*
X194982700Y-95137500D01*
X194982700Y-95137500D02*
X194949366Y-95100000D01*
X194949366Y-95100000D02*
X194916033Y-95029166D01*
D10*
X232981366Y-95779166D02*
X232981366Y-95445833D01*
X232981366Y-95445833D02*
X233681366Y-95533333D01*
X232981366Y-96379166D02*
X232981366Y-95979166D01*
X232981366Y-96179166D02*
X233681366Y-96266666D01*
X233681366Y-96266666D02*
X233581366Y-96187500D01*
X233581366Y-96187500D02*
X233514700Y-96112500D01*
X233514700Y-96112500D02*
X233481366Y-96041666D01*
D13*
X243549366Y-83245833D02*
X243582700Y-83283333D01*
X243582700Y-83283333D02*
X243616033Y-83387500D01*
X243616033Y-83387500D02*
X243616033Y-83454167D01*
X243616033Y-83454167D02*
X243582700Y-83550000D01*
X243582700Y-83550000D02*
X243516033Y-83608333D01*
X243516033Y-83608333D02*
X243449366Y-83633333D01*
X243449366Y-83633333D02*
X243316033Y-83650000D01*
X243316033Y-83650000D02*
X243216033Y-83637500D01*
X243216033Y-83637500D02*
X243082700Y-83587500D01*
X243082700Y-83587500D02*
X243016033Y-83545833D01*
X243016033Y-83545833D02*
X242949366Y-83470833D01*
X242949366Y-83470833D02*
X242916033Y-83366667D01*
X242916033Y-83366667D02*
X242916033Y-83300000D01*
X242916033Y-83300000D02*
X242949366Y-83204167D01*
X242949366Y-83204167D02*
X242982700Y-83175000D01*
X242982700Y-82908333D02*
X242949366Y-82870833D01*
X242949366Y-82870833D02*
X242916033Y-82800000D01*
X242916033Y-82800000D02*
X242916033Y-82633333D01*
X242916033Y-82633333D02*
X242949366Y-82570833D01*
X242949366Y-82570833D02*
X242982700Y-82541667D01*
X242982700Y-82541667D02*
X243049366Y-82516667D01*
X243049366Y-82516667D02*
X243116033Y-82525000D01*
X243116033Y-82525000D02*
X243216033Y-82570833D01*
X243216033Y-82570833D02*
X243616033Y-83020833D01*
X243616033Y-83020833D02*
X243616033Y-82587500D01*
X243216033Y-82137500D02*
X243182700Y-82200000D01*
X243182700Y-82200000D02*
X243149366Y-82229166D01*
X243149366Y-82229166D02*
X243082700Y-82254166D01*
X243082700Y-82254166D02*
X243049366Y-82250000D01*
X243049366Y-82250000D02*
X242982700Y-82208333D01*
X242982700Y-82208333D02*
X242949366Y-82170833D01*
X242949366Y-82170833D02*
X242916033Y-82100000D01*
X242916033Y-82100000D02*
X242916033Y-81966666D01*
X242916033Y-81966666D02*
X242949366Y-81904166D01*
X242949366Y-81904166D02*
X242982700Y-81875000D01*
X242982700Y-81875000D02*
X243049366Y-81850000D01*
X243049366Y-81850000D02*
X243082700Y-81854166D01*
X243082700Y-81854166D02*
X243149366Y-81895833D01*
X243149366Y-81895833D02*
X243182700Y-81933333D01*
X243182700Y-81933333D02*
X243216033Y-82004166D01*
X243216033Y-82004166D02*
X243216033Y-82137500D01*
X243216033Y-82137500D02*
X243249366Y-82208333D01*
X243249366Y-82208333D02*
X243282700Y-82245833D01*
X243282700Y-82245833D02*
X243349366Y-82287500D01*
X243349366Y-82287500D02*
X243482700Y-82304166D01*
X243482700Y-82304166D02*
X243549366Y-82279166D01*
X243549366Y-82279166D02*
X243582700Y-82250000D01*
X243582700Y-82250000D02*
X243616033Y-82187500D01*
X243616033Y-82187500D02*
X243616033Y-82054166D01*
X243616033Y-82054166D02*
X243582700Y-81983333D01*
X243582700Y-81983333D02*
X243549366Y-81945833D01*
X243549366Y-81945833D02*
X243482700Y-81904166D01*
X243482700Y-81904166D02*
X243349366Y-81887500D01*
X243349366Y-81887500D02*
X243282700Y-81912500D01*
X243282700Y-81912500D02*
X243249366Y-81941666D01*
X243249366Y-81941666D02*
X243216033Y-82004166D01*
X221445833Y-98221033D02*
X221254166Y-97887700D01*
X221045833Y-98221033D02*
X221133333Y-97521033D01*
X221133333Y-97521033D02*
X221399999Y-97521033D01*
X221399999Y-97521033D02*
X221462499Y-97554366D01*
X221462499Y-97554366D02*
X221491666Y-97587700D01*
X221491666Y-97587700D02*
X221516666Y-97654366D01*
X221516666Y-97654366D02*
X221504166Y-97754366D01*
X221504166Y-97754366D02*
X221462499Y-97821033D01*
X221462499Y-97821033D02*
X221424999Y-97854366D01*
X221424999Y-97854366D02*
X221354166Y-97887700D01*
X221354166Y-97887700D02*
X221087499Y-97887700D01*
X222112499Y-98221033D02*
X221712499Y-98221033D01*
X221912499Y-98221033D02*
X221999999Y-97521033D01*
X221999999Y-97521033D02*
X221920833Y-97621033D01*
X221920833Y-97621033D02*
X221845833Y-97687700D01*
X221845833Y-97687700D02*
X221774999Y-97721033D01*
X222433333Y-97521033D02*
X222900000Y-97521033D01*
X222900000Y-97521033D02*
X222512500Y-98221033D01*
X221757142Y-90309580D02*
X221709523Y-90357200D01*
X221709523Y-90357200D02*
X221566666Y-90404819D01*
X221566666Y-90404819D02*
X221471428Y-90404819D01*
X221471428Y-90404819D02*
X221328571Y-90357200D01*
X221328571Y-90357200D02*
X221233333Y-90261961D01*
X221233333Y-90261961D02*
X221185714Y-90166723D01*
X221185714Y-90166723D02*
X221138095Y-89976247D01*
X221138095Y-89976247D02*
X221138095Y-89833390D01*
X221138095Y-89833390D02*
X221185714Y-89642914D01*
X221185714Y-89642914D02*
X221233333Y-89547676D01*
X221233333Y-89547676D02*
X221328571Y-89452438D01*
X221328571Y-89452438D02*
X221471428Y-89404819D01*
X221471428Y-89404819D02*
X221566666Y-89404819D01*
X221566666Y-89404819D02*
X221709523Y-89452438D01*
X221709523Y-89452438D02*
X221757142Y-89500057D01*
X222138095Y-89500057D02*
X222185714Y-89452438D01*
X222185714Y-89452438D02*
X222280952Y-89404819D01*
X222280952Y-89404819D02*
X222519047Y-89404819D01*
X222519047Y-89404819D02*
X222614285Y-89452438D01*
X222614285Y-89452438D02*
X222661904Y-89500057D01*
X222661904Y-89500057D02*
X222709523Y-89595295D01*
X222709523Y-89595295D02*
X222709523Y-89690533D01*
X222709523Y-89690533D02*
X222661904Y-89833390D01*
X222661904Y-89833390D02*
X222090476Y-90404819D01*
X222090476Y-90404819D02*
X222709523Y-90404819D01*
X223566666Y-89404819D02*
X223376190Y-89404819D01*
X223376190Y-89404819D02*
X223280952Y-89452438D01*
X223280952Y-89452438D02*
X223233333Y-89500057D01*
X223233333Y-89500057D02*
X223138095Y-89642914D01*
X223138095Y-89642914D02*
X223090476Y-89833390D01*
X223090476Y-89833390D02*
X223090476Y-90214342D01*
X223090476Y-90214342D02*
X223138095Y-90309580D01*
X223138095Y-90309580D02*
X223185714Y-90357200D01*
X223185714Y-90357200D02*
X223280952Y-90404819D01*
X223280952Y-90404819D02*
X223471428Y-90404819D01*
X223471428Y-90404819D02*
X223566666Y-90357200D01*
X223566666Y-90357200D02*
X223614285Y-90309580D01*
X223614285Y-90309580D02*
X223661904Y-90214342D01*
X223661904Y-90214342D02*
X223661904Y-89976247D01*
X223661904Y-89976247D02*
X223614285Y-89881009D01*
X223614285Y-89881009D02*
X223566666Y-89833390D01*
X223566666Y-89833390D02*
X223471428Y-89785771D01*
X223471428Y-89785771D02*
X223280952Y-89785771D01*
X223280952Y-89785771D02*
X223185714Y-89833390D01*
X223185714Y-89833390D02*
X223138095Y-89881009D01*
X223138095Y-89881009D02*
X223090476Y-89976247D01*
X206087500Y-88899366D02*
X206050000Y-88932700D01*
X206050000Y-88932700D02*
X205945833Y-88966033D01*
X205945833Y-88966033D02*
X205879167Y-88966033D01*
X205879167Y-88966033D02*
X205783333Y-88932700D01*
X205783333Y-88932700D02*
X205725000Y-88866033D01*
X205725000Y-88866033D02*
X205700000Y-88799366D01*
X205700000Y-88799366D02*
X205683333Y-88666033D01*
X205683333Y-88666033D02*
X205695833Y-88566033D01*
X205695833Y-88566033D02*
X205745833Y-88432700D01*
X205745833Y-88432700D02*
X205787500Y-88366033D01*
X205787500Y-88366033D02*
X205862500Y-88299366D01*
X205862500Y-88299366D02*
X205966667Y-88266033D01*
X205966667Y-88266033D02*
X206033333Y-88266033D01*
X206033333Y-88266033D02*
X206129167Y-88299366D01*
X206129167Y-88299366D02*
X206158333Y-88332700D01*
X206400000Y-88266033D02*
X206866667Y-88266033D01*
X206866667Y-88266033D02*
X206479167Y-88966033D01*
X210021033Y-70550000D02*
X210521033Y-70612500D01*
X210521033Y-70612500D02*
X210621033Y-70658333D01*
X210621033Y-70658333D02*
X210687700Y-70733333D01*
X210687700Y-70733333D02*
X210721033Y-70837500D01*
X210721033Y-70837500D02*
X210721033Y-70904166D01*
X210087700Y-70258333D02*
X210054366Y-70220833D01*
X210054366Y-70220833D02*
X210021033Y-70150000D01*
X210021033Y-70150000D02*
X210021033Y-69983333D01*
X210021033Y-69983333D02*
X210054366Y-69920833D01*
X210054366Y-69920833D02*
X210087700Y-69891667D01*
X210087700Y-69891667D02*
X210154366Y-69866667D01*
X210154366Y-69866667D02*
X210221033Y-69875000D01*
X210221033Y-69875000D02*
X210321033Y-69920833D01*
X210321033Y-69920833D02*
X210721033Y-70370833D01*
X210721033Y-70370833D02*
X210721033Y-69937500D01*
X185979167Y-83916033D02*
X185787500Y-83582700D01*
X185579167Y-83916033D02*
X185666667Y-83216033D01*
X185666667Y-83216033D02*
X185933333Y-83216033D01*
X185933333Y-83216033D02*
X185995833Y-83249366D01*
X185995833Y-83249366D02*
X186025000Y-83282700D01*
X186025000Y-83282700D02*
X186050000Y-83349366D01*
X186050000Y-83349366D02*
X186037500Y-83449366D01*
X186037500Y-83449366D02*
X185995833Y-83516033D01*
X185995833Y-83516033D02*
X185958333Y-83549366D01*
X185958333Y-83549366D02*
X185887500Y-83582700D01*
X185887500Y-83582700D02*
X185620833Y-83582700D01*
X186429167Y-83516033D02*
X186366667Y-83482700D01*
X186366667Y-83482700D02*
X186337500Y-83449366D01*
X186337500Y-83449366D02*
X186312500Y-83382700D01*
X186312500Y-83382700D02*
X186316667Y-83349366D01*
X186316667Y-83349366D02*
X186358333Y-83282700D01*
X186358333Y-83282700D02*
X186395833Y-83249366D01*
X186395833Y-83249366D02*
X186466667Y-83216033D01*
X186466667Y-83216033D02*
X186600000Y-83216033D01*
X186600000Y-83216033D02*
X186662500Y-83249366D01*
X186662500Y-83249366D02*
X186691667Y-83282700D01*
X186691667Y-83282700D02*
X186716667Y-83349366D01*
X186716667Y-83349366D02*
X186712500Y-83382700D01*
X186712500Y-83382700D02*
X186670833Y-83449366D01*
X186670833Y-83449366D02*
X186633333Y-83482700D01*
X186633333Y-83482700D02*
X186562500Y-83516033D01*
X186562500Y-83516033D02*
X186429167Y-83516033D01*
X186429167Y-83516033D02*
X186358333Y-83549366D01*
X186358333Y-83549366D02*
X186320833Y-83582700D01*
X186320833Y-83582700D02*
X186279167Y-83649366D01*
X186279167Y-83649366D02*
X186262500Y-83782700D01*
X186262500Y-83782700D02*
X186287500Y-83849366D01*
X186287500Y-83849366D02*
X186316667Y-83882700D01*
X186316667Y-83882700D02*
X186379167Y-83916033D01*
X186379167Y-83916033D02*
X186512500Y-83916033D01*
X186512500Y-83916033D02*
X186583333Y-83882700D01*
X186583333Y-83882700D02*
X186620833Y-83849366D01*
X186620833Y-83849366D02*
X186662500Y-83782700D01*
X186662500Y-83782700D02*
X186679167Y-83649366D01*
X186679167Y-83649366D02*
X186654167Y-83582700D01*
X186654167Y-83582700D02*
X186625000Y-83549366D01*
X186625000Y-83549366D02*
X186562500Y-83516033D01*
X180058333Y-69116033D02*
X179866666Y-68782700D01*
X179658333Y-69116033D02*
X179745833Y-68416033D01*
X179745833Y-68416033D02*
X180012499Y-68416033D01*
X180012499Y-68416033D02*
X180074999Y-68449366D01*
X180074999Y-68449366D02*
X180104166Y-68482700D01*
X180104166Y-68482700D02*
X180129166Y-68549366D01*
X180129166Y-68549366D02*
X180116666Y-68649366D01*
X180116666Y-68649366D02*
X180074999Y-68716033D01*
X180074999Y-68716033D02*
X180037499Y-68749366D01*
X180037499Y-68749366D02*
X179966666Y-68782700D01*
X179966666Y-68782700D02*
X179699999Y-68782700D01*
X180404166Y-68482700D02*
X180441666Y-68449366D01*
X180441666Y-68449366D02*
X180512499Y-68416033D01*
X180512499Y-68416033D02*
X180679166Y-68416033D01*
X180679166Y-68416033D02*
X180741666Y-68449366D01*
X180741666Y-68449366D02*
X180770833Y-68482700D01*
X180770833Y-68482700D02*
X180795833Y-68549366D01*
X180795833Y-68549366D02*
X180787499Y-68616033D01*
X180787499Y-68616033D02*
X180741666Y-68716033D01*
X180741666Y-68716033D02*
X180291666Y-69116033D01*
X180291666Y-69116033D02*
X180724999Y-69116033D01*
X181070833Y-68482700D02*
X181108333Y-68449366D01*
X181108333Y-68449366D02*
X181179166Y-68416033D01*
X181179166Y-68416033D02*
X181345833Y-68416033D01*
X181345833Y-68416033D02*
X181408333Y-68449366D01*
X181408333Y-68449366D02*
X181437500Y-68482700D01*
X181437500Y-68482700D02*
X181462500Y-68549366D01*
X181462500Y-68549366D02*
X181454166Y-68616033D01*
X181454166Y-68616033D02*
X181408333Y-68716033D01*
X181408333Y-68716033D02*
X180958333Y-69116033D01*
X180958333Y-69116033D02*
X181391666Y-69116033D01*
D14*
%TO.C,C49*%
X174688748Y-80690000D02*
X176111252Y-80690000D01*
X174688748Y-82510000D02*
X176111252Y-82510000D01*
%TO.C,R5*%
X240790000Y-87172936D02*
X240790000Y-88627064D01*
X242610000Y-87172936D02*
X242610000Y-88627064D01*
%TO.C,C19*%
X223211252Y-78690000D02*
X221788748Y-78690000D01*
X223211252Y-80510000D02*
X221788748Y-80510000D01*
%TO.C,R2*%
X161227064Y-85942500D02*
X159772936Y-85942500D01*
X161227064Y-87762500D02*
X159772936Y-87762500D01*
%TO.C,C46*%
X172026248Y-69990000D02*
X173448752Y-69990000D01*
X172026248Y-71810000D02*
X173448752Y-71810000D01*
%TO.C,R20*%
X181239564Y-72690000D02*
X179785436Y-72690000D01*
X181239564Y-74510000D02*
X179785436Y-74510000D01*
%TO.C,C22*%
X217690000Y-82188748D02*
X217690000Y-83611252D01*
X219510000Y-82188748D02*
X219510000Y-83611252D01*
%TO.C,C9*%
X248688748Y-86290000D02*
X250111252Y-86290000D01*
X248688748Y-88110000D02*
X250111252Y-88110000D01*
%TO.C,C16*%
X226611252Y-74990000D02*
X225188748Y-74990000D01*
X226611252Y-76810000D02*
X225188748Y-76810000D01*
%TO.C,C44*%
X199551248Y-85565000D02*
X200973752Y-85565000D01*
X199551248Y-87385000D02*
X200973752Y-87385000D01*
%TO.C,U6*%
X250325000Y-78400000D02*
X250875000Y-78400000D01*
X250325000Y-79700000D02*
X250875000Y-79700000D01*
X250875000Y-78400000D02*
X250875000Y-78600000D01*
X250875000Y-79700000D02*
X250875000Y-79500000D01*
X249895000Y-78290000D02*
X249615000Y-78290000D01*
X249895000Y-78010000D01*
X249895000Y-78290000D01*
G36*
X249895000Y-78290000D02*
G01*
X249615000Y-78290000D01*
X249895000Y-78010000D01*
X249895000Y-78290000D01*
G37*
%TO.C,R29*%
X254272936Y-74890000D02*
X255727064Y-74890000D01*
X254272936Y-76710000D02*
X255727064Y-76710000D01*
%TO.C,C27*%
X236590000Y-72911252D02*
X236590000Y-71488748D01*
X238410000Y-72911252D02*
X238410000Y-71488748D01*
%TO.C,R23*%
X190335436Y-70090000D02*
X191789564Y-70090000D01*
X190335436Y-71910000D02*
X191789564Y-71910000D01*
%TO.C,Y2*%
X241765000Y-91805000D02*
X241765000Y-92445000D01*
X243035000Y-93485000D02*
X242705000Y-93485000D01*
X243045000Y-90765000D02*
X242705000Y-90765000D01*
X243255000Y-93685000D02*
X243945000Y-93685000D01*
X243985000Y-91805000D02*
X243985000Y-92445000D01*
X243255000Y-93685000D02*
G75*
G02*
X243034999Y-93485000I90001J320002D01*
G01*
%TO.C,FB1*%
X238274622Y-89540000D02*
X237475378Y-89540000D01*
X238274622Y-90660000D02*
X237475378Y-90660000D01*
%TO.C,C1*%
X179711252Y-85790000D02*
X178288748Y-85790000D01*
X179711252Y-87610000D02*
X178288748Y-87610000D01*
%TO.C,C2*%
X217411252Y-94990000D02*
X215988748Y-94990000D01*
X217411252Y-96810000D02*
X215988748Y-96810000D01*
%TO.C,R28*%
X255727064Y-72190000D02*
X254272936Y-72190000D01*
X255727064Y-74010000D02*
X254272936Y-74010000D01*
%TO.C,C14*%
X241888748Y-72890000D02*
X243311252Y-72890000D01*
X241888748Y-74710000D02*
X243311252Y-74710000D01*
%TO.C,C17*%
X226990000Y-72973752D02*
X226990000Y-71551248D01*
X228810000Y-72973752D02*
X228810000Y-71551248D01*
%TO.C,C47*%
X185113748Y-70090000D02*
X186536252Y-70090000D01*
X185113748Y-71910000D02*
X186536252Y-71910000D01*
%TO.C,C4*%
X192711252Y-90790000D02*
X191288748Y-90790000D01*
X192711252Y-92610000D02*
X191288748Y-92610000D01*
%TO.C,C33*%
X230490000Y-89688748D02*
X230490000Y-91111252D01*
X232310000Y-89688748D02*
X232310000Y-91111252D01*
%TO.C,R1*%
X152590000Y-90472936D02*
X152590000Y-91927064D01*
X154410000Y-90472936D02*
X154410000Y-91927064D01*
%TO.C,C5*%
X199290000Y-90888748D02*
X199290000Y-92311252D01*
X201110000Y-90888748D02*
X201110000Y-92311252D01*
D15*
%TO.C,U3*%
X225260000Y-94900000D02*
X225260000Y-94400000D01*
X225260000Y-97400000D02*
X225260000Y-96900000D01*
X227640000Y-94400000D02*
X227640000Y-94900000D01*
X227640000Y-96900000D02*
X227640000Y-97400000D01*
D16*
X228300000Y-96400000D02*
G75*
G02*
X228100000Y-96400000I-100000J0D01*
G01*
X228100000Y-96400000D02*
G75*
G02*
X228300000Y-96400000I100000J0D01*
G01*
D14*
%TO.C,C40*%
X199413748Y-76465000D02*
X200836252Y-76465000D01*
X199413748Y-78285000D02*
X200836252Y-78285000D01*
%TO.C,C13*%
X237088748Y-84390000D02*
X238511252Y-84390000D01*
X237088748Y-86210000D02*
X238511252Y-86210000D01*
%TO.C,R3*%
X247427064Y-80190000D02*
X245972936Y-80190000D01*
X247427064Y-82010000D02*
X245972936Y-82010000D01*
%TO.C,C23*%
X223211252Y-84590000D02*
X221788748Y-84590000D01*
X223211252Y-86410000D02*
X221788748Y-86410000D01*
%TO.C,C50*%
X174688748Y-77990000D02*
X176111252Y-77990000D01*
X174688748Y-79810000D02*
X176111252Y-79810000D01*
%TO.C,C8*%
X250111252Y-83590000D02*
X248688748Y-83590000D01*
X250111252Y-85410000D02*
X248688748Y-85410000D01*
%TO.C,C20*%
X233390000Y-73011252D02*
X233390000Y-71588748D01*
X235210000Y-73011252D02*
X235210000Y-71588748D01*
%TO.C,C36*%
X239011252Y-91390000D02*
X237588748Y-91390000D01*
X239011252Y-93210000D02*
X237588748Y-93210000D01*
%TO.C,C10*%
X248688748Y-88890000D02*
X250111252Y-88890000D01*
X248688748Y-90710000D02*
X250111252Y-90710000D01*
%TO.C,D2*%
X247515000Y-74715000D02*
X247515000Y-77885000D01*
X247515000Y-77885000D02*
X251400000Y-77885000D01*
X251400000Y-74715000D02*
X247515000Y-74715000D01*
%TO.C,R6*%
X213572936Y-78390000D02*
X215027064Y-78390000D01*
X213572936Y-80210000D02*
X215027064Y-80210000D01*
%TO.C,C29*%
X189690000Y-96511252D02*
X189690000Y-95088748D01*
X191510000Y-96511252D02*
X191510000Y-95088748D01*
%TO.C,F1*%
X253190000Y-90713748D02*
X253190000Y-93486252D01*
X256610000Y-90713748D02*
X256610000Y-93486252D01*
%TO.C,R30*%
X212822936Y-74890000D02*
X214277064Y-74890000D01*
X212822936Y-76710000D02*
X214277064Y-76710000D01*
%TO.C,R21*%
X170465000Y-75627064D02*
X170465000Y-74172936D01*
X172285000Y-75627064D02*
X172285000Y-74172936D01*
%TO.C,C39*%
X192051248Y-72665000D02*
X193473752Y-72665000D01*
X192051248Y-74485000D02*
X193473752Y-74485000D01*
%TO.C,C48*%
X185126248Y-72690000D02*
X186548752Y-72690000D01*
X185126248Y-74510000D02*
X186548752Y-74510000D01*
%TO.C,R25*%
X170877064Y-80730000D02*
X169422936Y-80730000D01*
X170877064Y-82550000D02*
X169422936Y-82550000D01*
%TO.C,R27*%
X170877064Y-77930000D02*
X169422936Y-77930000D01*
X170877064Y-79750000D02*
X169422936Y-79750000D01*
%TO.C,C34*%
X232890000Y-89688748D02*
X232890000Y-91111252D01*
X234710000Y-89688748D02*
X234710000Y-91111252D01*
%TO.C,C38*%
X171488748Y-85742500D02*
X172911252Y-85742500D01*
X171488748Y-87562500D02*
X172911252Y-87562500D01*
%TO.C,C21*%
X223211252Y-81690000D02*
X221788748Y-81690000D01*
X223211252Y-83510000D02*
X221788748Y-83510000D01*
%TO.C,C6*%
X212311252Y-89590000D02*
X210888748Y-89590000D01*
X212311252Y-91410000D02*
X210888748Y-91410000D01*
%TO.C,R19*%
X197947936Y-72565000D02*
X199402064Y-72565000D01*
X197947936Y-74385000D02*
X199402064Y-74385000D01*
%TO.C,R9*%
X221172936Y-92475000D02*
X222627064Y-92475000D01*
X221172936Y-94295000D02*
X222627064Y-94295000D01*
%TO.C,U4*%
X196800000Y-90440000D02*
X196000000Y-90440000D01*
X196800000Y-90440000D02*
X197600000Y-90440000D01*
X196800000Y-93560000D02*
X196000000Y-93560000D01*
X196800000Y-93560000D02*
X197600000Y-93560000D01*
X195500000Y-90490000D02*
X195260000Y-90160000D01*
X195740000Y-90160000D01*
X195500000Y-90490000D01*
G36*
X195500000Y-90490000D02*
G01*
X195260000Y-90160000D01*
X195740000Y-90160000D01*
X195500000Y-90490000D01*
G37*
D17*
%TO.C,J3_IN1*%
X149700000Y-80400000D02*
X149700000Y-85400000D01*
X152200000Y-80400000D02*
X149700000Y-80400000D01*
D10*
X152200000Y-80400000D02*
X166700000Y-80400000D01*
D17*
X152200000Y-85400000D02*
X149700000Y-85400000D01*
X152200000Y-85400000D02*
X152200000Y-80400000D01*
D10*
X154200000Y-85400000D02*
X152200000Y-85400000D01*
X166700000Y-80400000D02*
X166700000Y-85400000D01*
X166700000Y-85400000D02*
X154200000Y-85400000D01*
D14*
%TO.C,C31*%
X205588748Y-92290000D02*
X207011252Y-92290000D01*
X205588748Y-94110000D02*
X207011252Y-94110000D01*
%TO.C,C32*%
X237088748Y-86790000D02*
X238511252Y-86790000D01*
X237088748Y-88610000D02*
X238511252Y-88610000D01*
%TO.C,J1*%
X252897500Y-78150000D02*
X252897500Y-88110000D01*
X252897500Y-88110000D02*
X253192500Y-88110000D01*
X253192500Y-78150000D02*
X252897500Y-78150000D01*
X256292500Y-78150000D02*
X255662500Y-78150000D01*
X256292500Y-88110000D02*
X255662500Y-88110000D01*
D17*
%TO.C,J4_OUT1*%
X149900000Y-70100000D02*
X149900000Y-75100000D01*
X152400000Y-70100000D02*
X149900000Y-70100000D01*
D10*
X152400000Y-70100000D02*
X166900000Y-70100000D01*
D17*
X152400000Y-75100000D02*
X149900000Y-75100000D01*
X152400000Y-75100000D02*
X152400000Y-70100000D01*
D10*
X154400000Y-75100000D02*
X152400000Y-75100000D01*
X166900000Y-70100000D02*
X166900000Y-75100000D01*
X166900000Y-75100000D02*
X154400000Y-75100000D01*
D14*
%TO.C,C3*%
X217411252Y-92490000D02*
X215988748Y-92490000D01*
X217411252Y-94310000D02*
X215988748Y-94310000D01*
%TO.C,J3*%
X234510000Y-96922500D02*
X234510000Y-95762500D01*
X235320000Y-96922500D02*
X234510000Y-96922500D01*
X236130000Y-94602500D02*
X247495000Y-94602500D01*
X236130000Y-95095792D02*
X236130000Y-94602500D01*
X236130000Y-96922500D02*
X236130000Y-96429208D01*
X236130000Y-96922500D02*
X247495000Y-96922500D01*
X247495000Y-95444577D02*
X247495000Y-94602500D01*
X247495000Y-96922500D02*
X247495000Y-96080423D01*
%TO.C,D1*%
X247465000Y-71515000D02*
X247465000Y-74685000D01*
X247465000Y-74685000D02*
X251350000Y-74685000D01*
X251350000Y-71515000D02*
X247465000Y-71515000D01*
%TO.C,C41*%
X192051248Y-75165000D02*
X193473752Y-75165000D01*
X192051248Y-76985000D02*
X193473752Y-76985000D01*
%TO.C,C15*%
X239488748Y-79590000D02*
X240911252Y-79590000D01*
X239488748Y-81410000D02*
X240911252Y-81410000D01*
D18*
%TO.C,U2*%
X227067500Y-77592900D02*
X227067500Y-77990866D01*
X227067500Y-84459334D02*
X227067500Y-84857300D01*
X227067500Y-84857300D02*
X227465487Y-84857300D01*
X227465487Y-77592900D02*
X227067500Y-77592900D01*
X233933913Y-84857300D02*
X234331900Y-84857300D01*
X234331900Y-77592900D02*
X233933913Y-77592900D01*
X234331900Y-77990866D02*
X234331900Y-77592900D01*
X234331900Y-84857300D02*
X234331900Y-84459334D01*
D14*
%TO.C,C45*%
X175986252Y-72690000D02*
X174563748Y-72690000D01*
X175986252Y-74510000D02*
X174563748Y-74510000D01*
%TO.C,C37*%
X205608748Y-94890000D02*
X207031252Y-94890000D01*
X205608748Y-96710000D02*
X207031252Y-96710000D01*
%TO.C,C11*%
X206788748Y-81690000D02*
X208211252Y-81690000D01*
X206788748Y-83510000D02*
X208211252Y-83510000D01*
%TO.C,R7*%
X213727064Y-81690000D02*
X212272936Y-81690000D01*
X213727064Y-83510000D02*
X212272936Y-83510000D01*
%TO.C,R26*%
X179872936Y-77990000D02*
X181327064Y-77990000D01*
X179872936Y-79810000D02*
X181327064Y-79810000D01*
%TO.C,R24*%
X179872936Y-80690000D02*
X181327064Y-80690000D01*
X179872936Y-82510000D02*
X181327064Y-82510000D01*
%TO.C,U8*%
X156045000Y-89420000D02*
X156045000Y-90282077D01*
X156045000Y-90917923D02*
X156045000Y-91552077D01*
X156045000Y-92187923D02*
X156045000Y-93050000D01*
X167410000Y-89420000D02*
X156045000Y-89420000D01*
X167410000Y-89420000D02*
X167410000Y-89933292D01*
X168220000Y-89420000D02*
X169030000Y-89420000D01*
X168965000Y-92187923D02*
X168965000Y-93050000D01*
X168965000Y-93050000D02*
X156045000Y-93050000D01*
X169030000Y-89420000D02*
X169030000Y-90600000D01*
%TO.C,C24*%
X230290000Y-73011252D02*
X230290000Y-71588748D01*
X232110000Y-73011252D02*
X232110000Y-71588748D01*
%TO.C,U5*%
X211600000Y-92540000D02*
X210800000Y-92540000D01*
X211600000Y-92540000D02*
X212400000Y-92540000D01*
X211600000Y-95660000D02*
X210800000Y-95660000D01*
X211600000Y-95660000D02*
X212400000Y-95660000D01*
X210300000Y-92590000D02*
X210060000Y-92260000D01*
X210540000Y-92260000D01*
X210300000Y-92590000D01*
G36*
X210300000Y-92590000D02*
G01*
X210060000Y-92260000D01*
X210540000Y-92260000D01*
X210300000Y-92590000D01*
G37*
%TO.C,C12*%
X224911252Y-89990000D02*
X223488748Y-89990000D01*
X224911252Y-91810000D02*
X223488748Y-91810000D01*
%TO.C,C25*%
X236488748Y-75090000D02*
X237911252Y-75090000D01*
X236488748Y-76910000D02*
X237911252Y-76910000D01*
%TO.C,C18*%
X227790000Y-89688748D02*
X227790000Y-91111252D01*
X229610000Y-89688748D02*
X229610000Y-91111252D01*
%TO.C,C42*%
X199451248Y-79065000D02*
X200873752Y-79065000D01*
X199451248Y-80885000D02*
X200873752Y-80885000D01*
%TO.C,C43*%
X199551248Y-81865000D02*
X200973752Y-81865000D01*
X199551248Y-83685000D02*
X200973752Y-83685000D01*
%TO.C,R18*%
X185335436Y-78065000D02*
X186789564Y-78065000D01*
X185335436Y-79885000D02*
X186789564Y-79885000D01*
%TO.C,U1*%
X204785000Y-80300000D02*
X204785000Y-74300000D01*
X210005000Y-80300000D02*
X210005000Y-74300000D01*
X205055000Y-81420000D02*
X204575000Y-80940000D01*
X205055000Y-80940000D01*
X205055000Y-81420000D01*
G36*
X205055000Y-81420000D02*
G01*
X204575000Y-80940000D01*
X205055000Y-80940000D01*
X205055000Y-81420000D01*
G37*
%TO.C,U9*%
X191052500Y-77715000D02*
X191052500Y-77990000D01*
X191052500Y-87635000D02*
X191052500Y-87360000D01*
X193362500Y-77715000D02*
X191052500Y-77715000D01*
X193362500Y-77715000D02*
X195672500Y-77715000D01*
X193362500Y-87635000D02*
X191052500Y-87635000D01*
X193362500Y-87635000D02*
X195672500Y-87635000D01*
X195672500Y-77715000D02*
X195672500Y-77990000D01*
X195672500Y-87635000D02*
X195672500Y-87360000D01*
X190462500Y-77990000D02*
X190222500Y-77660000D01*
X190702500Y-77660000D01*
X190462500Y-77990000D01*
G36*
X190462500Y-77990000D02*
G01*
X190222500Y-77660000D01*
X190702500Y-77660000D01*
X190462500Y-77990000D01*
G37*
%TO.C,R4*%
X244290000Y-84072936D02*
X244290000Y-85527064D01*
X246110000Y-84072936D02*
X246110000Y-85527064D01*
%TO.C,C30*%
X192390000Y-96473752D02*
X192390000Y-95051248D01*
X194210000Y-96473752D02*
X194210000Y-95051248D01*
%TO.C,L1*%
D10*
X228705000Y-97840000D02*
X232495000Y-97840000D01*
X232495000Y-94160000D01*
X228705000Y-94160000D01*
X228705000Y-97840000D01*
D14*
%TO.C,C28*%
X239488748Y-81890000D02*
X240911252Y-81890000D01*
X239488748Y-83710000D02*
X240911252Y-83710000D01*
%TO.C,R17*%
X221172936Y-94990000D02*
X222627064Y-94990000D01*
X221172936Y-96810000D02*
X222627064Y-96810000D01*
%TO.C,C26*%
X223111252Y-87190000D02*
X221688748Y-87190000D01*
X223111252Y-89010000D02*
X221688748Y-89010000D01*
%TO.C,C7*%
X205488748Y-89590000D02*
X206911252Y-89590000D01*
X205488748Y-91410000D02*
X206911252Y-91410000D01*
%TO.C,J2*%
X211340000Y-71560000D02*
X211340000Y-70400000D01*
X212150000Y-71560000D02*
X211340000Y-71560000D01*
X212960000Y-69240000D02*
X224325000Y-69240000D01*
X212960000Y-69733292D02*
X212960000Y-69240000D01*
X212960000Y-71560000D02*
X212960000Y-71066708D01*
X212960000Y-71560000D02*
X224325000Y-71560000D01*
X224325000Y-70082077D02*
X224325000Y-69240000D01*
X224325000Y-71560000D02*
X224325000Y-70717923D01*
%TO.C,R8*%
X185335436Y-80665000D02*
X186789564Y-80665000D01*
X185335436Y-82485000D02*
X186789564Y-82485000D01*
%TO.C,R22*%
X181239564Y-70090000D02*
X179785436Y-70090000D01*
X181239564Y-71910000D02*
X179785436Y-71910000D01*
%TD*%
M02*
