M48
; DRILL file {KiCad 9.0.3} date 2026-08-19T23:41:28+0100
; FORMAT={-:-/ absolute / metric / decimal}
; #@! TF.CreationDate,2026-08-19T23:41:28+01:00
; #@! TF.GenerationSoftware,Kicad,Pcbnew,9.0.3
; #@! TF.FileFunction,Plated,1,4,PTH
FMAT,2
METRIC
; #@! TA.AperFunction,Plated,PTH,ViaDrill
T1C0.150
; #@! TA.AperFunction,Plated,PTH,ViaDrill
T2C0.200
; #@! TA.AperFunction,Plated,PTH,ComponentDrill
T3C0.800
%
G90
G05
T1
X217.74Y-73.22
X221.83Y-78.11
T2
X153.6Y-86.8
X153.8Y-76.4
X160.85Y-88.52
X161.04Y-85.22
X164.81Y-88.89
X164.92Y-93.94
X167.95Y-87.82
X167.95Y-89.0
X169.1Y-91.2
X170.7Y-91.93
X171.1Y-72.236
X171.1Y-91.0
X171.8Y-80.4
X172.7Y-90.8
X175.39Y-77.65
X175.4Y-73.1
X175.5Y-86.652
X176.1Y-76.2
X176.96Y-76.47
X177.9Y-71.2
X177.9Y-75.1
X177.9Y-77.01
X178.9Y-85.4
X180.0Y-72.8
X180.4Y-79.3
X180.6Y-75.1
X180.6Y-82.4
X182.1Y-86.7
X184.31Y-75.04
X184.6Y-83.22
X185.53Y-77.33
X185.6Y-71.5
X185.7Y-81.4
X185.7Y-90.7
X185.9Y-83.2
X186.0Y-73.4
X187.2Y-83.2
X188.3Y-84.4
X189.2Y-90.3
X189.4Y-83.0
X190.08Y-74.86
X190.2Y-88.5
X191.8Y-82.9
X191.86Y-92.9
X192.09Y-77.88
X192.1Y-79.0
X192.6Y-78.4
X192.67Y-69.34
X193.0Y-81.7
X193.0Y-85.7
X193.06Y-77.58
X193.2Y-85.0
X193.5Y-81.0
X193.5Y-88.3
X193.7Y-83.2
X193.8Y-84.1
X193.8Y-90.1
X194.1Y-80.4
X194.6Y-88.3
X194.8Y-83.3
X194.9Y-82.0
X194.9Y-84.5
X194.9Y-97.3
X195.0Y-85.6
X195.15Y-79.97
X195.4Y-73.0
X195.7Y-75.1
X196.9Y-89.0
X197.0Y-92.0
X197.4Y-81.6
X197.5Y-82.7
X197.6Y-78.8
X197.9Y-84.3
X198.2Y-95.2
X198.9Y-91.9
X199.7Y-85.0
X200.1Y-86.1
X200.29Y-94.65
X201.31Y-73.42
X201.5Y-90.2
X201.88Y-89.29
X202.8Y-78.6
X203.1Y-82.7
X203.4Y-86.5
X203.55Y-88.66
X204.1Y-84.11
X204.2Y-75.8
X204.97Y-76.69
X206.1Y-91.7
X206.3Y-83.9
X206.5Y-84.6
X207.2Y-84.5
X207.882Y-97.5
X207.9Y-84.4
X209.11Y-94.35
X209.2Y-92.1
X209.8Y-79.3
X210.3Y-76.5
X210.3Y-83.2
X211.4Y-94.6
X211.6Y-79.45
X212.0Y-73.5
X212.3Y-92.2
X213.1Y-82.6
X213.2Y-77.2
X213.37Y-73.7
X213.8Y-92.0
X213.9Y-84.4
X214.7Y-80.9
X215.2Y-94.6
X215.3Y-71.9
X215.6Y-73.4
X216.82Y-71.2
X216.9Y-97.7
X216.93Y-72.0
X217.1Y-82.0
X217.9Y-83.0
X218.9Y-75.2
X219.2Y-79.8
X219.828Y-83.8
X219.9Y-85.3
X220.2Y-73.6
X220.87Y-90.13
X221.29Y-72.01
X221.5Y-93.7
X221.9Y-86.6
X222.1Y-82.9
X222.5Y-82.6
X222.9Y-81.3
X223.2Y-74.9
X223.21Y-75.84
X223.45Y-97.48
X223.73Y-74.75
X224.8Y-92.5
X225.42Y-83.98
X225.6Y-80.1
X225.6Y-82.0
X225.8Y-85.6
X225.9Y-75.0
X225.9Y-84.7
X226.01Y-92.11
X226.03Y-78.83
X226.1Y-82.8
X226.13Y-82.17
X226.3Y-87.4
X226.46Y-93.37
X226.56Y-79.09
X226.7Y-88.7
X226.72Y-80.12
X226.72Y-82.01
X226.79Y-99.53
X226.8Y-86.2
X226.8Y-87.0
X227.0Y-85.7
X227.2Y-98.3
X227.4Y-88.4
X227.99Y-87.16
X228.0Y-85.7
X228.141Y-81.225
X228.55Y-77.12
X228.66Y-86.5
X228.7Y-93.3
X228.83Y-76.14
X229.1Y-82.8
X229.2Y-74.9
X229.2Y-79.8
X229.2Y-81.2
X229.5Y-69.1
X229.688Y-76.2
X229.75Y-85.97
X229.87Y-77.08
X229.9Y-87.5
X230.22Y-76.5
X230.22Y-85.55
X230.32Y-75.2
X230.5Y-89.98
X230.67Y-86.28
X230.7Y-78.666
X230.7Y-81.225
X230.7Y-83.784
X230.7Y-79.7
X230.7Y-82.8
X230.9Y-87.4
X231.1Y-75.3
X231.19Y-76.18
X231.21Y-77.39
X231.31Y-76.8
X231.4Y-93.2
X231.79Y-76.5
X232.0Y-90.0
X232.1Y-79.8
X232.1Y-86.3
X232.2Y-81.3
X232.2Y-82.8
X232.3Y-76.1
X232.6Y-86.7
X232.9Y-94.8
X233.05Y-83.8
X233.23Y-76.6
X233.259Y-81.225
X233.275Y-90.4
X233.4Y-75.0
X233.85Y-93.35
X234.0Y-85.0
X234.2Y-76.4
X234.36Y-84.41
X234.5Y-77.6
X234.5Y-81.3
X234.7Y-83.7
X234.8Y-82.8
X234.88Y-80.77
X235.2Y-77.9
X235.35Y-82.37
X235.5Y-80.6
X235.8Y-69.1
X235.8Y-83.7
X236.4Y-74.8
X236.4Y-82.0
X236.5Y-80.3
X236.8Y-83.51
X236.8Y-93.8
X236.9Y-77.94
X237.4Y-80.2
X237.9Y-85.2
X237.9Y-87.6
X239.9Y-75.0
X240.0Y-76.1
X240.0Y-83.2
X243.315Y-82.885
X243.37Y-80.53
X244.45Y-91.28
X245.2Y-84.95
X245.6Y-73.8
X246.69Y-85.79
X247.1Y-74.7
X251.62Y-80.96
X252.36Y-84.47
X252.395Y-87.195
X252.4Y-89.84
X252.97Y-80.73
X254.71Y-82.82
X254.91Y-73.08
X255.62Y-83.15
T3
X156.79Y-90.6
X156.79Y-91.87
X158.06Y-90.6
X158.06Y-91.87
X159.33Y-90.6
X159.33Y-91.87
X160.6Y-90.6
X160.6Y-91.87
X161.87Y-90.6
X161.87Y-91.87
X163.14Y-90.6
X163.14Y-91.87
X164.41Y-90.6
X164.41Y-91.87
X165.68Y-90.6
X165.68Y-91.87
X166.95Y-90.6
X166.95Y-91.87
X168.22Y-90.6
X168.22Y-91.87
X168.8Y-85.7
X185.1Y-86.5
X212.15Y-70.4
X213.42Y-70.4
X214.69Y-70.4
X215.96Y-70.4
X217.23Y-70.4
X218.5Y-70.4
X219.77Y-70.4
X221.04Y-70.4
X222.31Y-70.4
X223.58Y-70.4
X225.3Y-72.5
X235.32Y-95.762
X236.59Y-95.762
X237.86Y-95.762
X239.13Y-95.762
X240.4Y-95.762
X241.67Y-95.762
X242.94Y-95.762
X244.21Y-95.762
X245.1Y-89.5
X245.48Y-95.762
X246.75Y-95.762
X254.427Y-78.68
X254.427Y-87.58
X257.627Y-78.68
X257.627Y-87.58
M30
