M48
; DRILL file {KiCad 9.0.3} date 2026-08-11T15:45:13+0100
; FORMAT={-:-/ absolute / inch / decimal}
; #@! TF.CreationDate,2026-08-11T15:45:13+01:00
; #@! TF.GenerationSoftware,Kicad,Pcbnew,9.0.3
; #@! TF.FileFunction,Plated,1,4,PTH
FMAT,2
INCH
; #@! TA.AperFunction,Plated,PTH,ViaDrill
T1C0.0079
; #@! TA.AperFunction,Plated,PTH,ComponentDrill
T2C0.0177
; #@! TA.AperFunction,Plated,PTH,ComponentDrill
T3C0.0256
; #@! TA.AperFunction,Plated,PTH,ComponentDrill
T4C0.0315
; #@! TA.AperFunction,Plated,PTH,ComponentDrill
T5C0.0319
; #@! TA.AperFunction,Plated,PTH,ComponentDrill
T6C0.0394
%
G90
G05
T1
X6.0394Y-3.5788
X6.0394Y-3.7009
X6.126Y-3.4124
X6.1339Y-3.0069
X6.1693Y-3.4606
X6.2008Y-3.123
X6.2087Y-2.7175
X6.2579Y-3.4194
X6.3189Y-3.2756
X6.3228Y-3.3661
X6.3799Y-3.4194
X6.4921Y-3.4124
X6.5Y-3.0069
X6.6378Y-3.1039
X6.6378Y-3.2142
X6.718Y-3.4115
X6.7283Y-2.8583
X6.7392Y-2.7913
X6.747Y-2.8878
X6.747Y-3.0098
X6.7598Y-3.1039
X6.7598Y-3.2142
X6.8391Y-2.8976
X6.841Y-3.4115
X6.844Y-3.1063
X6.844Y-3.2126
X6.8622Y-2.7913
X6.9621Y-2.8976
X6.967Y-3.1063
X6.967Y-3.2126
X6.9857Y-3.4036
X7.0458Y-2.7953
X7.0458Y-2.8976
X7.0492Y-3.1063
X7.0492Y-3.2126
X7.1088Y-3.4036
X7.1654Y-3.5236
X7.1678Y-2.7953
X7.1678Y-2.8976
X7.1713Y-3.1063
X7.1713Y-3.2126
X7.1732Y-3.6535
X7.189Y-3.4961
X7.2544Y-2.7953
X7.2549Y-2.8976
X7.2643Y-3.1093
X7.2643Y-3.2116
X7.3775Y-2.7953
X7.378Y-2.8976
X7.3863Y-3.1093
X7.3863Y-3.2116
X7.4611Y-2.7953
X7.4975Y-3.6102
X7.5Y-3.0886
X7.5Y-3.1142
X7.5Y-3.1398
X7.5Y-3.1654
X7.5Y-3.1909
X7.5Y-3.2165
X7.5Y-3.2421
X7.5Y-3.2677
X7.5Y-3.2933
X7.5Y-3.3189
X7.5Y-3.3445
X7.5Y-3.3701
X7.5039Y-3.7101
X7.5039Y-3.8332
X7.5276Y-2.8967
X7.5276Y-2.9951
X7.5472Y-3.1535
X7.5591Y-3.3071
X7.563Y-3.3307
X7.5832Y-2.7953
X7.6102Y-3.7087
X7.6102Y-3.8317
X7.6206Y-3.6102
X7.6299Y-3.6772
X7.6378Y-3.5197
X7.6506Y-2.8967
X7.6506Y-2.9951
X7.6575Y-3.0433
X7.6654Y-3.2165
X7.6654Y-3.2717
X7.7032Y-3.5846
X7.7032Y-3.622
X7.7032Y-3.6594
X7.7244Y-3.4961
X7.7254Y-3.0886
X7.7254Y-3.1398
X7.7254Y-3.1654
X7.7254Y-3.1909
X7.7254Y-3.2165
X7.7254Y-3.2677
X7.7254Y-3.2933
X7.7254Y-3.3445
X7.7254Y-3.3957
X7.7254Y-3.4213
X7.752Y-3.5197
X7.7598Y-3.6772
X7.7608Y-2.8927
X7.7928Y-3.5846
X7.7992Y-3.7205
X7.8174Y-3.0463
X7.8189Y-3.1486
X7.8228Y-3.2589
X7.8228Y-3.4045
X7.8819Y-3.5448
X7.8819Y-3.6678
X7.8829Y-2.8927
X7.8858Y-3.2205
X7.9405Y-3.0463
X7.9419Y-3.1486
X7.9459Y-3.2589
X7.9459Y-3.4045
X8.0433Y-2.6654
X8.0433Y-2.7087
X8.0566Y-3.563
X8.0591Y-2.7283
X8.0605Y-3.6693
X8.0613Y-3.7717
X8.0669Y-3.126
X8.0787Y-3.0354
X8.0902Y-2.9291
X8.0902Y-3.1575
X8.1078Y-3.252
X8.1339Y-3.5197
X8.1402Y-2.9291
X8.1402Y-3.1575
X8.1575Y-3.2205
X8.1693Y-3.3858
X8.1796Y-3.563
X8.1836Y-3.6693
X8.1844Y-3.7717
X8.1902Y-2.9291
X8.1902Y-3.1575
X8.2308Y-3.252
X8.2402Y-2.9291
X8.2402Y-3.1575
X8.2692Y-3.563
X8.2859Y-3.6673
X8.2859Y-3.7047
X8.2859Y-3.7421
X8.2913Y-2.8386
X8.311Y-3.7559
X8.3228Y-2.7283
X8.3228Y-3.689
X8.3248Y-3.252
X8.3465Y-2.9843
X8.3583Y-3.0551
X8.3755Y-3.6673
X8.376Y-3.122
X8.3858Y-3.4921
X8.3922Y-3.563
X8.4094Y-2.9488
X8.4252Y-3.0945
X8.4469Y-3.252
X8.4685Y-2.9843
X8.47Y-3.6772
X8.47Y-3.7756
X8.477Y-2.7788
X8.477Y-2.9019
X8.4961Y-3.6496
X8.498Y-3.122
X8.5Y-3.0748
X8.5079Y-2.7795
X8.5433Y-3.2244
X8.5551Y-3.5197
X8.5723Y-3.0236
X8.5913Y-2.8551
X8.593Y-3.6772
X8.593Y-3.7756
X8.626Y-3.4094
X8.6299Y-2.8701
X8.6299Y-3.0551
X8.6457Y-3.0669
X8.6575Y-3.0118
X8.6575Y-3.2559
X8.6642Y-2.8551
X8.6642Y-2.9122
X8.6752Y-3.6766
X8.6752Y-3.7756
X8.689Y-2.9409
X8.6954Y-3.0236
X8.6983Y-3.1339
X8.6983Y-3.252
X8.6983Y-3.3661
X8.7047Y-2.9528
X8.7205Y-3.4291
X8.7323Y-2.9173
X8.7323Y-2.9567
X8.7362Y-3.1575
X8.7402Y-2.8386
X8.7441Y-3.0433
X8.748Y-2.9409
X8.7638Y-3.3701
X8.7653Y-3.5787
X8.7771Y-3.0
X8.7795Y-3.1024
X8.7795Y-3.2835
X8.7972Y-3.6766
X8.7972Y-3.7756
X8.8214Y-3.1339
X8.8214Y-3.252
X8.8214Y-3.3661
X8.8543Y-3.3189
X8.8565Y-2.7805
X8.8565Y-2.9026
X8.8583Y-3.1496
X8.8583Y-3.2638
X8.8583Y-3.2953
X8.8622Y-3.248
X8.8883Y-3.5787
X8.8898Y-2.9528
X8.8898Y-3.3622
X8.9001Y-3.0
X8.9055Y-3.7205
X8.9094Y-2.9291
X8.9134Y-2.8622
X8.9154Y-3.7559
X8.9154Y-3.7756
X8.9232Y-3.1496
X8.9232Y-3.1831
X8.9232Y-3.2008
X8.9232Y-3.2185
X8.9232Y-3.2343
X8.9232Y-3.2933
X8.9252Y-2.9055
X8.9252Y-3.0748
X8.9252Y-3.7205
X8.9252Y-3.8307
X8.9331Y-3.0925
X8.939Y-3.1181
X8.939Y-3.1654
X8.939Y-3.2461
X8.939Y-3.2776
X8.9449Y-3.8307
X8.9488Y-3.311
X8.9537Y-3.0876
X8.9685Y-3.0669
X8.9685Y-3.3268
X8.9724Y-2.7835
X8.9724Y-2.9065
X8.9764Y-3.1142
X8.9819Y-3.1978
X8.9843Y-3.1339
X8.9843Y-3.2598
X8.9843Y-3.4779
X8.9843Y-3.6009
X8.9882Y-3.1024
X8.9882Y-3.2953
X8.9882Y-3.3465
X9.0039Y-3.0512
X9.0039Y-3.3583
X9.0156Y-3.1308
X9.0156Y-3.1755
X9.0156Y-3.2202
X9.0156Y-3.2649
X9.0157Y-3.5827
X9.0197Y-3.1024
X9.0197Y-3.2953
X9.0236Y-3.3504
X9.0236Y-3.4016
X9.0354Y-3.0354
X9.0433Y-2.9331
X9.0512Y-3.3583
X9.0551Y-3.0354
X9.0551Y-3.6654
X9.0603Y-3.1308
X9.0603Y-3.1755
X9.0603Y-3.2202
X9.0603Y-3.2649
X9.0669Y-2.8661
X9.0669Y-3.0512
X9.0669Y-3.3465
X9.0801Y-3.7331
X9.0801Y-3.8264
X9.0827Y-3.0971
X9.0827Y-3.2986
X9.0827Y-3.0354
X9.0827Y-3.3583
X9.0945Y-3.4779
X9.0945Y-3.5236
X9.0945Y-3.6009
X9.0984Y-3.0512
X9.1024Y-2.7849
X9.1024Y-2.908
X9.1024Y-3.3583
X9.105Y-3.1308
X9.105Y-3.1755
X9.105Y-3.2202
X9.105Y-3.2649
X9.1142Y-3.0354
X9.122Y-3.3583
X9.1299Y-2.9843
X9.1299Y-3.0512
X9.1299Y-3.4331
X9.1378Y-3.3504
X9.1457Y-3.1024
X9.1457Y-3.2953
X9.1457Y-3.4567
X9.1497Y-3.1308
X9.1497Y-3.1755
X9.1497Y-3.2202
X9.1497Y-3.2649
X9.1575Y-2.937
X9.1614Y-3.0512
X9.1614Y-3.3583
X9.1772Y-2.9134
X9.1772Y-3.3071
X9.1811Y-3.2598
X9.1811Y-3.2913
X9.1811Y-3.4173
X9.1834Y-3.1978
X9.189Y-3.0945
X9.189Y-3.122
X9.1969Y-3.0669
X9.2087Y-3.4779
X9.2087Y-3.6009
X9.2116Y-3.0876
X9.2126Y-2.9528
X9.2126Y-3.311
X9.2165Y-3.4213
X9.2244Y-2.7849
X9.2244Y-2.908
X9.2264Y-3.1496
X9.2264Y-3.1988
X9.2264Y-3.2461
X9.2264Y-3.2776
X9.2323Y-3.1713
X9.2362Y-3.2992
X9.2362Y-3.3504
X9.2421Y-3.2146
X9.2421Y-3.2303
X9.252Y-3.0866
X9.2559Y-3.4173
X9.2559Y-3.5591
X9.2771Y-3.0079
X9.2835Y-2.878
X9.2835Y-3.5827
X9.3007Y-3.4252
X9.3031Y-3.2205
X9.311Y-3.378
X9.3233Y-3.5472
X9.3425Y-3.0354
X9.3425Y-3.4724
X9.3504Y-2.781
X9.3504Y-2.904
X9.3952Y-3.1102
X9.3952Y-3.2126
X9.3952Y-3.311
X9.4001Y-3.0079
X9.407Y-3.5472
X9.4237Y-3.4252
X9.4488Y-3.5827
X9.4685Y-3.5709
X9.4936Y-2.8701
X9.4936Y-3.002
X9.5182Y-3.1102
X9.5182Y-3.2126
X9.5182Y-3.311
X9.5236Y-3.4331
X9.5492Y-3.4331
X9.5492Y-3.5354
X9.6142Y-3.6496
X9.6166Y-2.8701
X9.6166Y-3.002
X9.6693Y-3.4882
X9.6713Y-3.4331
X9.6713Y-3.5354
X9.7126Y-3.5236
X9.7574Y-3.3268
X9.7574Y-3.4331
X9.7574Y-3.5354
X9.7776Y-2.878
X9.7795Y-3.0039
X9.8425Y-3.5472
X9.8804Y-3.3268
X9.8804Y-3.4331
X9.8804Y-3.5354
X9.8868Y-3.2057
X9.8878Y-2.878
X9.8898Y-3.0039
X9.9783Y-2.878
X9.9783Y-2.9843
X10.0099Y-3.3024
X10.0354Y-3.2795
X10.0354Y-3.5418
X10.0354Y-3.7101
X10.0551Y-3.2559
X10.0592Y-3.1547
X10.0592Y-3.2138
X10.0592Y-3.2335
X10.0592Y-3.3319
X10.0592Y-3.3909
X10.063Y-3.2874
X10.0866Y-3.252
X10.1004Y-2.878
X10.1004Y-2.9843
T3
X7.9193Y-2.7677
X7.9693Y-2.7677
X8.0193Y-2.7677
X8.0693Y-2.7677
X8.1193Y-2.7677
X8.1693Y-2.7677
X8.2193Y-2.7677
X8.2693Y-2.7677
X8.3193Y-2.7677
X8.3693Y-2.7677
X9.4378Y-3.7087
X9.4878Y-3.7087
X9.5378Y-3.7087
X9.5878Y-3.7087
X9.6378Y-3.7087
X9.6878Y-3.7087
X9.7378Y-3.7087
X9.7878Y-3.7087
X9.8378Y-3.7087
X9.8878Y-3.7087
T4
X6.6378Y-3.4882
X7.2874Y-3.4055
X8.7559Y-2.878
X9.0394Y-2.9724
T6
X6.3118Y-3.6102
X6.3118Y-3.7102
X6.4118Y-3.6102
X6.4118Y-3.7102
X6.5118Y-3.6102
X6.5118Y-3.7102
X6.6118Y-3.6102
X6.6118Y-3.7102
X6.7118Y-3.6102
X6.7118Y-3.7102
X6.8118Y-3.6102
X6.8118Y-3.7102
X6.9118Y-3.6102
X6.9118Y-3.7102
X7.0118Y-3.6102
X7.0118Y-3.7102
X7.1118Y-3.6102
X7.1118Y-3.7102
X7.2118Y-3.6102
X7.2118Y-3.7102
T2
G00X9.9971Y-3.0976
M15
G01X10.0365Y-3.0976
M16
G05
G00X9.9971Y-3.448
M15
G01X10.0365Y-3.448
M16
G05
G00X10.1192Y-3.448
M15
G01X10.1664Y-3.448
M16
G05
T5
G00X10.1263Y-3.0976
M15
G01X10.1594Y-3.0976
M16
G05
M30
