%TF.GenerationSoftware,KiCad,Pcbnew,9.0.3*%
%TF.CreationDate,2026-08-11T15:45:13+01:00*%
%TF.ProjectId,XMOS_with_audio_codec,584d4f53-5f77-4697-9468-5f617564696f,rev?*%
%TF.SameCoordinates,Original*%
%TF.FileFunction,Legend,Bot*%
%TF.FilePolarity,Positive*%
%FSLAX46Y46*%
G04 Gerber Fmt 4.6, Leading zero omitted, Abs format (unit mm)*
G04 Created by KiCad (PCBNEW 9.0.3) date 2026-08-11 15:45:13*
%MOMM*%
%LPD*%
G01*
G04 APERTURE LIST*
G04 Aperture macros list*
%AMRoundRect*
0 Rectangle with rounded corners*
0 $1 Rounding radius*
0 $2 $3 $4 $5 $6 $7 $8 $9 X,Y pos of 4 corners*
0 Add a 4 corners polygon primitive as box body*
4,1,4,$2,$3,$4,$5,$6,$7,$8,$9,$2,$3,0*
0 Add four circle primitives for the rounded corners*
1,1,$1+$1,$2,$3*
1,1,$1+$1,$4,$5*
1,1,$1+$1,$6,$7*
1,1,$1+$1,$8,$9*
0 Add four rect primitives between the rounded corners*
20,1,$1+$1,$2,$3,$4,$5,0*
20,1,$1+$1,$4,$5,$6,$7,0*
20,1,$1+$1,$6,$7,$8,$9,0*
20,1,$1+$1,$8,$9,$2,$3,0*%
G04 Aperture macros list end*
%ADD10C,0.000000*%
%ADD11C,1.200000*%
%ADD12C,1.800000*%
%ADD13C,1.700000*%
%ADD14O,2.150000X1.250000*%
%ADD15O,1.950000X0.950000*%
%ADD16O,2.150000X0.950000*%
%ADD17C,1.000000*%
%ADD18R,1.000000X1.000000*%
%ADD19RoundRect,0.250000X-0.600000X0.600000X-0.600000X-0.600000X0.600000X-0.600000X0.600000X0.600000X0*%
G04 APERTURE END LIST*
D10*
%TO.C,G\u002A\u002A\u002A*%
G36*
X190417288Y-68541773D02*
G01*
X190455183Y-68681144D01*
X190456596Y-68743551D01*
X190488955Y-68817421D01*
X190595713Y-68750533D01*
X190602141Y-68746533D01*
X190604428Y-68745910D01*
X190651921Y-68732973D01*
X190748540Y-68720512D01*
X190898475Y-68709105D01*
X191108204Y-68698710D01*
X191384203Y-68689281D01*
X191732948Y-68680777D01*
X192160917Y-68673152D01*
X192674587Y-68666365D01*
X193280434Y-68660370D01*
X193984936Y-68655126D01*
X194794568Y-68650587D01*
X195715809Y-68646711D01*
X196755134Y-68643454D01*
X197919020Y-68640773D01*
X199213945Y-68638624D01*
X200646386Y-68636963D01*
X202222818Y-68635747D01*
X203949720Y-68634932D01*
X204599330Y-68634774D01*
X205017000Y-68634673D01*
X205833567Y-68634475D01*
X207880837Y-68634333D01*
X208187873Y-68634341D01*
X209082925Y-68634366D01*
X210161049Y-68634498D01*
X210885618Y-68634587D01*
X211011516Y-68634602D01*
X211055768Y-68634615D01*
X212780829Y-68635104D01*
X214397571Y-68635923D01*
X215868449Y-68637108D01*
X217200171Y-68638709D01*
X218399442Y-68640775D01*
X219472971Y-68643356D01*
X220427463Y-68646501D01*
X221269626Y-68650261D01*
X222006167Y-68654685D01*
X222643793Y-68659821D01*
X223189210Y-68665721D01*
X223649125Y-68672433D01*
X223889387Y-68677208D01*
X224030246Y-68680007D01*
X224339278Y-68688493D01*
X224582930Y-68697941D01*
X224767908Y-68708399D01*
X224900919Y-68719918D01*
X224988670Y-68732546D01*
X225037868Y-68746335D01*
X225055219Y-68761333D01*
X225057029Y-68864728D01*
X225001027Y-69056791D01*
X224997156Y-69072044D01*
X224985192Y-69232948D01*
X224975063Y-69561299D01*
X224966772Y-70055649D01*
X224960322Y-70714549D01*
X224955717Y-71536548D01*
X224952958Y-72520199D01*
X224952049Y-73664052D01*
X224952993Y-74966658D01*
X224955793Y-76426567D01*
X224960451Y-78042331D01*
X224966972Y-79812500D01*
X224975356Y-81735625D01*
X224980722Y-82899070D01*
X224987858Y-84502307D01*
X224993892Y-85949292D01*
X224998780Y-87247864D01*
X225002477Y-88405858D01*
X225004939Y-89431113D01*
X225006122Y-90331466D01*
X225005980Y-91114752D01*
X225004470Y-91788811D01*
X225001546Y-92361478D01*
X224997165Y-92840590D01*
X224991281Y-93233986D01*
X224983851Y-93549502D01*
X224974829Y-93794975D01*
X224964171Y-93978243D01*
X224951833Y-94107142D01*
X224937770Y-94189510D01*
X224921938Y-94233183D01*
X224904292Y-94245999D01*
X224876337Y-94247418D01*
X224782191Y-94303136D01*
X224808398Y-94398295D01*
X224944815Y-94475467D01*
X225050675Y-94535333D01*
X225114715Y-94721541D01*
X225114715Y-94923333D01*
X217150668Y-94934352D01*
X216984533Y-94934581D01*
X215702798Y-94936313D01*
X214281530Y-94938175D01*
X212747381Y-94940136D01*
X211127001Y-94942163D01*
X209447041Y-94944225D01*
X207734152Y-94946290D01*
X206014985Y-94948324D01*
X204316190Y-94950296D01*
X202664419Y-94952174D01*
X201086321Y-94953926D01*
X199608549Y-94955519D01*
X190030477Y-94965666D01*
X190030456Y-94775166D01*
X190030695Y-94757958D01*
X190079308Y-94621437D01*
X190242809Y-94584666D01*
X190382485Y-94605687D01*
X190455183Y-94669333D01*
X190457652Y-94689570D01*
X190540133Y-94753999D01*
X190613048Y-94728538D01*
X190624339Y-94630566D01*
X190546747Y-94507278D01*
X190401459Y-94411070D01*
X190177834Y-94326331D01*
X190251145Y-87322332D01*
X190255995Y-86852757D01*
X190266703Y-85767381D01*
X190276354Y-84720374D01*
X190284850Y-83726287D01*
X190292095Y-82799671D01*
X190297990Y-81955075D01*
X190302438Y-81207050D01*
X190305341Y-80570146D01*
X190306602Y-80058914D01*
X190306122Y-79687904D01*
X190303805Y-79471666D01*
X190290483Y-78915140D01*
X190274059Y-78208871D01*
X190256063Y-77418276D01*
X190236993Y-76566410D01*
X190217344Y-75676329D01*
X190197612Y-74771089D01*
X190178294Y-73873746D01*
X190159885Y-73007357D01*
X190142882Y-72194976D01*
X190127781Y-71459661D01*
X190115077Y-70824467D01*
X190105268Y-70312450D01*
X190098848Y-69946666D01*
X190091278Y-69435788D01*
X190089957Y-69184666D01*
X190604428Y-69184666D01*
X190658567Y-80805166D01*
X190661825Y-81487688D01*
X190668965Y-82881050D01*
X190676545Y-84234810D01*
X190684473Y-85538156D01*
X190692661Y-86780278D01*
X190701019Y-87950364D01*
X190709457Y-89037605D01*
X190717885Y-90031189D01*
X190726214Y-90920306D01*
X190734354Y-91694144D01*
X190742216Y-92341893D01*
X190749709Y-92852743D01*
X190756744Y-93215882D01*
X190763231Y-93420499D01*
X190813757Y-94415333D01*
X192736978Y-94401783D01*
X193073032Y-94398843D01*
X193557694Y-94392252D01*
X193799572Y-94387110D01*
X195240690Y-94387110D01*
X195253141Y-94397243D01*
X195353957Y-94387110D01*
X195367247Y-94361644D01*
X195297324Y-94330666D01*
X195252351Y-94336776D01*
X195240690Y-94387110D01*
X193799572Y-94387110D01*
X193950476Y-94383902D01*
X194231875Y-94374360D01*
X194382385Y-94364192D01*
X194382500Y-94353965D01*
X194353024Y-94349875D01*
X194191733Y-94304323D01*
X194150309Y-94246308D01*
X194134280Y-94164913D01*
X194015288Y-94046892D01*
X193909307Y-93939194D01*
X193891456Y-93829432D01*
X193905755Y-93790008D01*
X193844971Y-93737999D01*
X193817894Y-93733508D01*
X193663656Y-93660739D01*
X193464476Y-93527188D01*
X193378748Y-93465108D01*
X193217142Y-93383842D01*
X193138680Y-93421354D01*
X193119533Y-93437481D01*
X193141690Y-93323025D01*
X193153140Y-93273942D01*
X193150812Y-93164423D01*
X193058677Y-93171160D01*
X192975766Y-93192264D01*
X192883702Y-93159307D01*
X192901315Y-93066648D01*
X193034640Y-92965822D01*
X193148871Y-92889101D01*
X193204444Y-92768331D01*
X193141726Y-92682755D01*
X192972381Y-92684982D01*
X192865042Y-92713296D01*
X192858186Y-92693217D01*
X192986490Y-92595210D01*
X193037648Y-92555925D01*
X193126025Y-92442898D01*
X193082276Y-92333371D01*
X193027071Y-92226932D01*
X193088628Y-92086999D01*
X193096099Y-92077949D01*
X193148557Y-91983111D01*
X193066956Y-91959999D01*
X192978660Y-91982046D01*
X192828405Y-92093452D01*
X192825724Y-92096682D01*
X192760149Y-92215000D01*
X192826964Y-92294468D01*
X192860179Y-92319693D01*
X192881518Y-92413125D01*
X192793219Y-92580203D01*
X192709836Y-92767092D01*
X192702765Y-92964728D01*
X192716977Y-93071635D01*
X192667334Y-93185537D01*
X192663860Y-93187628D01*
X192595460Y-93188519D01*
X192567217Y-93069342D01*
X192573317Y-92806666D01*
X192576210Y-92742632D01*
X192560883Y-92659393D01*
X192499071Y-92721999D01*
X192448387Y-92780880D01*
X192410330Y-92770999D01*
X192441800Y-92685957D01*
X192550426Y-92537279D01*
X192635810Y-92421709D01*
X192620499Y-92321492D01*
X192493143Y-92170779D01*
X192465574Y-92140652D01*
X192398853Y-92049663D01*
X192493979Y-92049663D01*
X192500649Y-92080286D01*
X192578929Y-92086999D01*
X192604351Y-92069622D01*
X192663879Y-91997336D01*
X192661670Y-91988886D01*
X192578929Y-91959999D01*
X192555645Y-91963445D01*
X192493979Y-92049663D01*
X192398853Y-92049663D01*
X192371348Y-92012153D01*
X192375229Y-91959999D01*
X192392958Y-91950873D01*
X192426046Y-91832594D01*
X192425427Y-91779377D01*
X192493979Y-91779377D01*
X192522620Y-91805799D01*
X192578929Y-91818158D01*
X192676408Y-91839553D01*
X192918728Y-91852755D01*
X193071671Y-91847807D01*
X193267058Y-91821239D01*
X193343477Y-91779377D01*
X193314836Y-91752955D01*
X193161049Y-91719201D01*
X192918728Y-91705999D01*
X192765786Y-91710947D01*
X192570398Y-91737515D01*
X192493979Y-91779377D01*
X192425427Y-91779377D01*
X192423589Y-91621333D01*
X192419939Y-91581884D01*
X192415813Y-91409666D01*
X192663879Y-91409666D01*
X192706354Y-91451999D01*
X192748829Y-91409666D01*
X193088628Y-91409666D01*
X193131103Y-91451999D01*
X193173578Y-91409666D01*
X193131103Y-91367333D01*
X193088628Y-91409666D01*
X192748829Y-91409666D01*
X192706354Y-91367333D01*
X192663879Y-91409666D01*
X192415813Y-91409666D01*
X192415191Y-91383712D01*
X192464504Y-91297787D01*
X192591244Y-91275982D01*
X192706354Y-91268797D01*
X192710799Y-91268520D01*
X192710850Y-91244275D01*
X192557692Y-91184259D01*
X192394721Y-91105617D01*
X192324079Y-91031485D01*
X192283899Y-90979120D01*
X192137713Y-90915175D01*
X192024126Y-90879409D01*
X192004533Y-90820743D01*
X192108405Y-90693634D01*
X192133796Y-90665003D01*
X192210517Y-90547760D01*
X192152253Y-90531796D01*
X191960633Y-90617946D01*
X191954786Y-90621064D01*
X191837903Y-90677264D01*
X191830087Y-90643396D01*
X191923743Y-90493925D01*
X192023563Y-90294846D01*
X192069230Y-90100311D01*
X192089540Y-89998241D01*
X192175417Y-89922632D01*
X192175913Y-89922606D01*
X192187862Y-89891511D01*
X192069230Y-89824740D01*
X191911068Y-89766369D01*
X191793143Y-89745440D01*
X191776972Y-89746016D01*
X191729431Y-89673999D01*
X191793444Y-89615087D01*
X191963043Y-89586288D01*
X192196655Y-89583243D01*
X191949900Y-89382162D01*
X191862712Y-89297201D01*
X191726100Y-89037285D01*
X191724027Y-88919055D01*
X191814380Y-88919055D01*
X191835104Y-89020197D01*
X191915258Y-89061930D01*
X191957179Y-89042812D01*
X192025503Y-88954333D01*
X195297324Y-88954333D01*
X195339799Y-88996666D01*
X195382273Y-88954333D01*
X195339799Y-88911999D01*
X195297324Y-88954333D01*
X192025503Y-88954333D01*
X192046692Y-88926893D01*
X192014367Y-88800874D01*
X191959555Y-88758226D01*
X191855478Y-88766747D01*
X191814380Y-88919055D01*
X191724027Y-88919055D01*
X191721254Y-88760958D01*
X191854117Y-88521633D01*
X191940286Y-88392991D01*
X191891861Y-88268029D01*
X191853979Y-88192333D01*
X192069230Y-88192333D01*
X192111705Y-88234666D01*
X192154180Y-88192333D01*
X192111705Y-88149999D01*
X192069230Y-88192333D01*
X191853979Y-88192333D01*
X191838277Y-88160956D01*
X191902837Y-88018788D01*
X191949785Y-87949960D01*
X191959555Y-87916337D01*
X192026498Y-87685953D01*
X192001905Y-87404736D01*
X191878306Y-87184528D01*
X191769097Y-87070244D01*
X191769685Y-87044336D01*
X191899330Y-87044336D01*
X191902595Y-87068911D01*
X191984280Y-87133999D01*
X192003505Y-87133028D01*
X192069230Y-87096663D01*
X192065321Y-87083081D01*
X191984280Y-87006999D01*
X191951374Y-86993770D01*
X191899330Y-87044336D01*
X191769685Y-87044336D01*
X191770960Y-86988126D01*
X191902782Y-86877405D01*
X191951374Y-86840874D01*
X192096967Y-86731419D01*
X191908767Y-86631033D01*
X191792857Y-86532241D01*
X191744116Y-86387823D01*
X191747562Y-86312523D01*
X191701060Y-86139166D01*
X191678978Y-86087869D01*
X191715328Y-86033333D01*
X191755334Y-86026993D01*
X191840009Y-85932148D01*
X191840221Y-85906333D01*
X191984280Y-85906333D01*
X192026755Y-85948666D01*
X192069230Y-85906333D01*
X192026755Y-85863999D01*
X191984280Y-85906333D01*
X191840221Y-85906333D01*
X191841259Y-85780123D01*
X191752144Y-85644268D01*
X191686667Y-85592698D01*
X191661334Y-85539717D01*
X191793143Y-85528025D01*
X191795991Y-85527979D01*
X191943575Y-85481075D01*
X191984280Y-85320721D01*
X191960075Y-85182202D01*
X191878093Y-85077305D01*
X191814506Y-85026792D01*
X191847284Y-84974999D01*
X191984280Y-84974999D01*
X192026755Y-85017333D01*
X192069230Y-84974999D01*
X192026755Y-84932666D01*
X191984280Y-84974999D01*
X191847284Y-84974999D01*
X191878093Y-84926316D01*
X191948456Y-84777577D01*
X191974229Y-84555899D01*
X191964179Y-84297666D01*
X191910517Y-84528164D01*
X191860717Y-84675278D01*
X191797961Y-84713439D01*
X191740717Y-84613209D01*
X191697471Y-84391403D01*
X191680636Y-84126631D01*
X191832530Y-84126631D01*
X191842697Y-84227110D01*
X191868249Y-84240356D01*
X191899330Y-84170666D01*
X191893200Y-84125844D01*
X191842697Y-84114221D01*
X191832530Y-84126631D01*
X191680636Y-84126631D01*
X191676707Y-84064833D01*
X191676600Y-84058766D01*
X191676491Y-83773701D01*
X191685635Y-83570691D01*
X191702098Y-83493333D01*
X191709818Y-83495756D01*
X191777769Y-83590029D01*
X191842697Y-83724749D01*
X191869965Y-83781328D01*
X191963940Y-84014659D01*
X192026755Y-84203535D01*
X192037229Y-84235029D01*
X192067364Y-84387445D01*
X192096611Y-84544539D01*
X192111705Y-84594399D01*
X192175449Y-84804966D01*
X192286216Y-85107112D01*
X192395813Y-85397089D01*
X192479466Y-85646712D01*
X192516225Y-85794634D01*
X192536292Y-85863453D01*
X192611000Y-85886578D01*
X192649812Y-85883084D01*
X192636813Y-85981507D01*
X192618830Y-86057424D01*
X192658356Y-86079068D01*
X192680127Y-86075341D01*
X192790925Y-86144734D01*
X192918728Y-86293881D01*
X192930401Y-86307504D01*
X192968870Y-86360770D01*
X193105875Y-86530379D01*
X193131103Y-86553390D01*
X193197237Y-86613712D01*
X193263168Y-86682857D01*
X193347692Y-86848715D01*
X193431058Y-86991602D01*
X193573920Y-87110292D01*
X193673024Y-87166015D01*
X193849099Y-87313220D01*
X194096407Y-87560717D01*
X194432057Y-87924743D01*
X194546172Y-88027690D01*
X194799638Y-88202113D01*
X195089701Y-88360238D01*
X195295138Y-88468914D01*
X195339799Y-88500075D01*
X195470645Y-88591368D01*
X195530219Y-88677460D01*
X195532144Y-88719836D01*
X195622733Y-88781151D01*
X195709304Y-88811613D01*
X195845552Y-88934637D01*
X195931390Y-89014857D01*
X196107489Y-89026082D01*
X196202510Y-89004350D01*
X196198219Y-89066944D01*
X196200161Y-89136936D01*
X196349170Y-89165999D01*
X196496769Y-89184636D01*
X196611013Y-89245774D01*
X196665137Y-89289140D01*
X196856949Y-89349973D01*
X197117512Y-89385644D01*
X197382843Y-89389115D01*
X197588958Y-89353348D01*
X197621280Y-89342295D01*
X197830837Y-89329603D01*
X198080003Y-89432208D01*
X198113103Y-89450408D01*
X198348568Y-89550985D01*
X198582222Y-89578729D01*
X198865368Y-89532764D01*
X199249306Y-89412212D01*
X199438835Y-89354670D01*
X199922401Y-89257416D01*
X200435660Y-89208433D01*
X200510605Y-89205204D01*
X200841957Y-89183914D01*
X201106816Y-89156099D01*
X201253499Y-89126912D01*
X201289853Y-89115784D01*
X201383045Y-89154383D01*
X201443265Y-89334441D01*
X201480431Y-89441212D01*
X201668496Y-89650899D01*
X201969499Y-89791796D01*
X202346913Y-89843333D01*
X202603645Y-89827921D01*
X203102908Y-89747415D01*
X203687142Y-89608009D01*
X204316042Y-89420969D01*
X204949302Y-89197560D01*
X205546617Y-88949047D01*
X205562722Y-88941811D01*
X205776825Y-88859875D01*
X205928891Y-88824640D01*
X206063622Y-88789576D01*
X206267731Y-88629815D01*
X206416662Y-88385495D01*
X206444544Y-88318862D01*
X206498422Y-88246272D01*
X206595264Y-88198752D01*
X206766777Y-88168499D01*
X207044666Y-88147711D01*
X207460637Y-88128584D01*
X208422073Y-88088045D01*
X209271571Y-88963737D01*
X209467865Y-89166489D01*
X209748119Y-89463640D01*
X209952083Y-89703408D01*
X210106795Y-89927265D01*
X210239295Y-90176682D01*
X210376623Y-90493129D01*
X210545819Y-90918078D01*
X210559747Y-90953528D01*
X210757085Y-91467966D01*
X210979636Y-92065985D01*
X211201135Y-92676193D01*
X211395317Y-93227196D01*
X211820066Y-94457666D01*
X213115551Y-94456383D01*
X213329192Y-94456043D01*
X213763768Y-94455011D01*
X214333788Y-94453395D01*
X215019025Y-94451262D01*
X215799253Y-94448681D01*
X216654246Y-94445719D01*
X217563777Y-94442442D01*
X218507621Y-94438919D01*
X219465551Y-94435216D01*
X224520066Y-94415333D01*
X224520066Y-88827333D01*
X224519755Y-87984586D01*
X224518188Y-86946941D01*
X224515127Y-86061327D01*
X224510381Y-85317667D01*
X224503757Y-84705884D01*
X224495066Y-84215901D01*
X224484114Y-83837641D01*
X224470711Y-83561028D01*
X224454666Y-83375984D01*
X224435785Y-83272433D01*
X224413879Y-83240298D01*
X224301364Y-83256002D01*
X224016255Y-83326530D01*
X223593464Y-83450056D01*
X223045378Y-83622559D01*
X222384385Y-83840021D01*
X221622870Y-84098422D01*
X220773222Y-84393742D01*
X219847825Y-84721963D01*
X219362304Y-84895655D01*
X218821889Y-85088768D01*
X218320653Y-85267668D01*
X217898831Y-85417998D01*
X217596655Y-85525396D01*
X217241658Y-85651470D01*
X216290257Y-85992415D01*
X215461872Y-86294521D01*
X214727840Y-86568314D01*
X214059494Y-86824321D01*
X214015435Y-86841419D01*
X213566917Y-87012163D01*
X213173410Y-87153094D01*
X212790832Y-87277930D01*
X212375106Y-87400387D01*
X211882153Y-87534182D01*
X211267892Y-87693033D01*
X210830119Y-87792839D01*
X210315934Y-87865347D01*
X209823745Y-87874554D01*
X209186621Y-87850167D01*
X209483946Y-87730779D01*
X210055939Y-87476991D01*
X210741612Y-87118134D01*
X211385476Y-86726377D01*
X211925628Y-86337057D01*
X212292897Y-86029312D01*
X212800760Y-85550472D01*
X213276690Y-85025645D01*
X213753150Y-84418072D01*
X214262605Y-83690996D01*
X214380416Y-83516746D01*
X214617333Y-83173592D01*
X214814430Y-82897855D01*
X214953850Y-82714212D01*
X215017735Y-82647346D01*
X215096215Y-82693078D01*
X215265415Y-82824564D01*
X215484959Y-83011854D01*
X215689107Y-83188179D01*
X215927660Y-83384273D01*
X216098548Y-83513466D01*
X216111182Y-83521838D01*
X216314361Y-83602644D01*
X216471638Y-83577947D01*
X216534782Y-83454288D01*
X216534782Y-83454202D01*
X216601845Y-83358463D01*
X216777311Y-83209127D01*
X217023243Y-83038485D01*
X217511705Y-82728275D01*
X218361203Y-82793304D01*
X218692903Y-82814252D01*
X219216229Y-82837045D01*
X219775371Y-82852586D01*
X220294674Y-82858333D01*
X220300492Y-82858333D01*
X220750584Y-82862768D01*
X221037613Y-82875757D01*
X221159363Y-82897115D01*
X221113619Y-82926659D01*
X221086505Y-82933745D01*
X220905263Y-82990355D01*
X220869101Y-83021131D01*
X220957084Y-83024787D01*
X221148278Y-83000035D01*
X221421748Y-82945591D01*
X221842305Y-82863958D01*
X222413610Y-82775175D01*
X223102573Y-82684528D01*
X223882942Y-82595749D01*
X224028832Y-82579012D01*
X224271527Y-82545083D01*
X224413879Y-82516695D01*
X224450455Y-82472922D01*
X224481769Y-82331311D01*
X224501042Y-82075169D01*
X224509533Y-81686296D01*
X224508497Y-81146490D01*
X224505595Y-80883950D01*
X224497624Y-80436043D01*
X224487068Y-80056391D01*
X224474957Y-79778687D01*
X224462322Y-79636622D01*
X224427715Y-79462912D01*
X223390780Y-79654060D01*
X223053526Y-79714687D01*
X222482300Y-79812568D01*
X221909541Y-79905987D01*
X221419397Y-79980991D01*
X221198901Y-80013772D01*
X220443451Y-80141631D01*
X219809327Y-80279921D01*
X219257982Y-80439389D01*
X218750870Y-80630783D01*
X218249443Y-80864852D01*
X218012553Y-80984216D01*
X217713715Y-81127609D01*
X217499090Y-81210971D01*
X217326968Y-81245374D01*
X217155638Y-81241894D01*
X216943389Y-81211604D01*
X216773028Y-81177336D01*
X216426463Y-81077102D01*
X216144019Y-80959635D01*
X215891271Y-80836476D01*
X215704118Y-80799701D01*
X215541057Y-80866321D01*
X215340676Y-81042684D01*
X215248124Y-81131364D01*
X215111391Y-81235885D01*
X215003645Y-81241534D01*
X214864335Y-81163691D01*
X214827764Y-81140069D01*
X214695306Y-81076915D01*
X214590958Y-81113063D01*
X214447427Y-81264840D01*
X214403698Y-81313101D01*
X214287785Y-81410730D01*
X214241240Y-81397833D01*
X214226629Y-81348851D01*
X214113712Y-81291999D01*
X214054998Y-81281748D01*
X213986287Y-81201444D01*
X213944544Y-81150716D01*
X213798295Y-81137944D01*
X213796062Y-81138272D01*
X213640274Y-81222736D01*
X213554610Y-81438045D01*
X213478449Y-81681009D01*
X213352687Y-81933521D01*
X213262750Y-82134347D01*
X213248620Y-82316642D01*
X213260413Y-82410088D01*
X213222995Y-82477333D01*
X213164133Y-82531982D01*
X213101243Y-82691625D01*
X213094049Y-82715094D01*
X212971004Y-82905170D01*
X212773472Y-83072309D01*
X212716574Y-83107980D01*
X212589679Y-83201402D01*
X212576543Y-83239016D01*
X212592345Y-83278140D01*
X212514791Y-83392007D01*
X212428835Y-83521598D01*
X212352963Y-83751841D01*
X212350757Y-83859848D01*
X212416441Y-83948375D01*
X212605852Y-83985530D01*
X212811703Y-84034083D01*
X212873292Y-84128144D01*
X212775860Y-84258635D01*
X212520902Y-84417941D01*
X212357535Y-84547012D01*
X212287290Y-84697970D01*
X212271049Y-84781787D01*
X212202340Y-84805666D01*
X212150093Y-84810599D01*
X212117391Y-84927669D01*
X212100794Y-85030873D01*
X212032441Y-85101999D01*
X211993361Y-85116327D01*
X211947491Y-85228999D01*
X211908607Y-85309604D01*
X211756354Y-85365765D01*
X211621991Y-85374545D01*
X211428336Y-85406220D01*
X211247001Y-85475597D01*
X211206604Y-85488858D01*
X210998165Y-85507764D01*
X210737302Y-85488530D01*
X210673196Y-85479085D01*
X210380075Y-85440694D01*
X210142307Y-85416104D01*
X210023545Y-85385914D01*
X209920415Y-85306265D01*
X209906068Y-85224327D01*
X210007803Y-85186666D01*
X210041916Y-85182910D01*
X210055193Y-85144333D01*
X210163544Y-85144333D01*
X210206019Y-85186666D01*
X210248494Y-85144333D01*
X210206019Y-85101999D01*
X210163544Y-85144333D01*
X210055193Y-85144333D01*
X210057554Y-85137473D01*
X209999485Y-85123905D01*
X209852258Y-85168365D01*
X209747496Y-85205876D01*
X209584174Y-85208523D01*
X209567191Y-85201204D01*
X209545995Y-85133968D01*
X209649614Y-85045626D01*
X209844468Y-84957084D01*
X210096976Y-84889251D01*
X210111067Y-84886451D01*
X210206019Y-84850795D01*
X210375642Y-84787098D01*
X210589401Y-84635157D01*
X210641009Y-84587866D01*
X210874481Y-84440581D01*
X211150541Y-84327896D01*
X211238577Y-84299714D01*
X211437386Y-84203869D01*
X211485566Y-84111566D01*
X211484236Y-84047039D01*
X211710783Y-84047039D01*
X211728026Y-84149488D01*
X211762700Y-84163301D01*
X211871359Y-84111078D01*
X211911567Y-84056937D01*
X211875813Y-83967174D01*
X211787312Y-83963958D01*
X211710783Y-84047039D01*
X211484236Y-84047039D01*
X211484181Y-84044392D01*
X211577117Y-83932036D01*
X211607398Y-83910538D01*
X211656034Y-83828530D01*
X211661995Y-83789666D01*
X211947491Y-83789666D01*
X211989966Y-83831999D01*
X212032441Y-83789666D01*
X211989966Y-83747333D01*
X211947491Y-83789666D01*
X211661995Y-83789666D01*
X211679722Y-83674079D01*
X211681535Y-83415130D01*
X211664543Y-83019631D01*
X211640058Y-82588999D01*
X211614139Y-82252879D01*
X211582242Y-82019404D01*
X211537541Y-81853952D01*
X211473211Y-81721902D01*
X211382425Y-81588629D01*
X211328284Y-81522230D01*
X211173352Y-81415993D01*
X211058171Y-81453287D01*
X211013043Y-81630666D01*
X211000198Y-81722561D01*
X210928093Y-81842333D01*
X210912855Y-81857052D01*
X210863180Y-81999567D01*
X210843143Y-82223333D01*
X210841764Y-82283137D01*
X210812838Y-82493149D01*
X210758193Y-82604333D01*
X210706599Y-82676164D01*
X210673243Y-82850207D01*
X210637129Y-83003931D01*
X210510255Y-83190765D01*
X210406090Y-83274849D01*
X210308099Y-83280667D01*
X210175765Y-83166846D01*
X210073276Y-83032842D01*
X210105141Y-82954975D01*
X210141384Y-82935858D01*
X210121069Y-82907541D01*
X210081718Y-82836521D01*
X210060568Y-82624617D01*
X210064610Y-82301022D01*
X210066861Y-82240350D01*
X210058381Y-81883214D01*
X210019342Y-81536123D01*
X209957631Y-81238898D01*
X209881132Y-81031361D01*
X209797732Y-80953333D01*
X209784363Y-80959354D01*
X209758927Y-81068312D01*
X209773499Y-81270833D01*
X209785804Y-81435884D01*
X209775320Y-81759417D01*
X209734355Y-82096333D01*
X209695080Y-82321193D01*
X209639419Y-82640286D01*
X209598276Y-82876627D01*
X209529885Y-83073067D01*
X209385566Y-83201248D01*
X209384113Y-83201708D01*
X209274370Y-83267097D01*
X209316887Y-83369744D01*
X209367566Y-83467446D01*
X209331237Y-83604352D01*
X209171206Y-83662666D01*
X209086826Y-83685390D01*
X209136028Y-83779916D01*
X209164741Y-83819800D01*
X209156085Y-83897195D01*
X209002198Y-83955067D01*
X208929198Y-83975157D01*
X208838676Y-84026752D01*
X208893727Y-84090520D01*
X208900640Y-84094901D01*
X208968095Y-84154779D01*
X208877148Y-84169369D01*
X208750441Y-84122957D01*
X208673020Y-83951293D01*
X208682466Y-83676654D01*
X208781598Y-83323999D01*
X208805471Y-83218886D01*
X208811085Y-83007917D01*
X208811646Y-82879720D01*
X208852948Y-82721453D01*
X208882147Y-82644596D01*
X208924423Y-82400180D01*
X208953709Y-82045118D01*
X208966219Y-81616365D01*
X208967305Y-81573350D01*
X208997375Y-81364909D01*
X209055217Y-81252117D01*
X209091883Y-81185128D01*
X209027361Y-81012417D01*
X209008746Y-80976525D01*
X208951095Y-80732986D01*
X208946160Y-80623572D01*
X209701738Y-80623572D01*
X209745354Y-80791677D01*
X209761177Y-80814548D01*
X209807769Y-80824506D01*
X209821135Y-80691223D01*
X215940133Y-80691223D01*
X216005257Y-80780163D01*
X216151658Y-80836331D01*
X216287598Y-80821610D01*
X216355825Y-80758738D01*
X216327253Y-80678573D01*
X216152508Y-80634081D01*
X216012241Y-80641229D01*
X215940133Y-80691223D01*
X209821135Y-80691223D01*
X209822444Y-80678166D01*
X209812953Y-80509532D01*
X209775408Y-80452416D01*
X209713269Y-80558844D01*
X209701738Y-80623572D01*
X208946160Y-80623572D01*
X208935622Y-80389956D01*
X208965588Y-80000833D01*
X208975373Y-79969372D01*
X209067558Y-79935328D01*
X209213542Y-80001209D01*
X209364785Y-80148999D01*
X209434388Y-80237358D01*
X209548967Y-80351356D01*
X209583688Y-80332161D01*
X209536102Y-80192571D01*
X209403759Y-79945383D01*
X209307626Y-79771347D01*
X209286368Y-79725666D01*
X212627090Y-79725666D01*
X212669564Y-79767999D01*
X212712039Y-79725666D01*
X212669564Y-79683333D01*
X212627090Y-79725666D01*
X209286368Y-79725666D01*
X209188222Y-79514767D01*
X209129876Y-79331550D01*
X209082686Y-79201530D01*
X208931772Y-79132999D01*
X208871558Y-79141094D01*
X208826042Y-79180830D01*
X208792568Y-79275146D01*
X208767846Y-79446982D01*
X208748588Y-79719276D01*
X208731506Y-80114969D01*
X208713313Y-80656999D01*
X208706683Y-80847686D01*
X208678366Y-81431990D01*
X208642263Y-81909887D01*
X208600224Y-82260408D01*
X208554097Y-82462580D01*
X208473883Y-82622723D01*
X208386891Y-82675520D01*
X208318012Y-82572065D01*
X208271230Y-82319420D01*
X208250531Y-81924649D01*
X208246844Y-81721475D01*
X208230533Y-81466355D01*
X208187026Y-81301633D01*
X208099139Y-81176870D01*
X207949687Y-81041629D01*
X207879429Y-80982949D01*
X207723821Y-80871162D01*
X207629869Y-80858864D01*
X207550683Y-80933327D01*
X207485327Y-81125354D01*
X207496942Y-81471092D01*
X207516248Y-81631442D01*
X207513573Y-81807154D01*
X207445783Y-81911379D01*
X207289439Y-82004353D01*
X207282011Y-82008147D01*
X207051708Y-82100457D01*
X206859733Y-82138666D01*
X206757654Y-82152816D01*
X206638126Y-82223333D01*
X206555508Y-82288615D01*
X206372386Y-82293918D01*
X206177591Y-82195606D01*
X206054426Y-82123171D01*
X205784330Y-82016015D01*
X205437863Y-81910426D01*
X205066554Y-81823654D01*
X204947767Y-81803913D01*
X204419032Y-81776155D01*
X203749832Y-81821569D01*
X203461148Y-81854585D01*
X203121186Y-81903668D01*
X202895191Y-81961704D01*
X202749291Y-82043379D01*
X202649612Y-82163376D01*
X202562281Y-82336380D01*
X202520039Y-82436276D01*
X202444869Y-82664225D01*
X202425727Y-82812415D01*
X202428095Y-82839509D01*
X202405049Y-83021986D01*
X202341423Y-83259676D01*
X202304556Y-83362165D01*
X202227364Y-83495699D01*
X202160701Y-83474927D01*
X202137217Y-83455715D01*
X202111746Y-83533648D01*
X202117305Y-83751640D01*
X202118768Y-83770760D01*
X202124640Y-84003149D01*
X202087218Y-84114639D01*
X201992928Y-84148545D01*
X201878731Y-84142724D01*
X201854926Y-84077746D01*
X201987123Y-83947938D01*
X202040036Y-83900367D01*
X202029608Y-83864741D01*
X201899805Y-83860099D01*
X201626086Y-83881956D01*
X201586113Y-83885668D01*
X201326130Y-83901706D01*
X201216988Y-83887074D01*
X201243812Y-83840148D01*
X201317557Y-83772332D01*
X201259325Y-83748629D01*
X201197089Y-83719902D01*
X201201337Y-83577999D01*
X201216764Y-83474755D01*
X201171666Y-83408666D01*
X201144155Y-83413427D01*
X201055896Y-83504868D01*
X200993752Y-83552836D01*
X200841685Y-83487764D01*
X200679594Y-83421632D01*
X200463268Y-83464277D01*
X200458144Y-83466591D01*
X200238996Y-83531589D01*
X199976960Y-83565572D01*
X199724399Y-83567953D01*
X199533679Y-83538143D01*
X199457164Y-83475557D01*
X199431833Y-83431163D01*
X199341611Y-83514499D01*
X199151021Y-83638939D01*
X198894416Y-83645085D01*
X198629269Y-83530865D01*
X198530323Y-83465316D01*
X198455386Y-83447518D01*
X198440467Y-83535862D01*
X198453419Y-83600262D01*
X198525417Y-83620333D01*
X198558324Y-83607103D01*
X198610367Y-83657669D01*
X198632829Y-83705779D01*
X198759029Y-83753063D01*
X198801224Y-83755984D01*
X198834565Y-83782831D01*
X198716554Y-83850668D01*
X198593015Y-83927155D01*
X198525417Y-84014271D01*
X198520177Y-84037348D01*
X198427301Y-84085999D01*
X198398529Y-84042540D01*
X198478778Y-83921252D01*
X198562286Y-83824839D01*
X198572514Y-83769862D01*
X198455355Y-83769494D01*
X198358732Y-83789867D01*
X198320461Y-83843962D01*
X198322185Y-83847176D01*
X198276290Y-83880206D01*
X198140033Y-83881235D01*
X197984269Y-83855810D01*
X197879852Y-83809475D01*
X197845455Y-83792041D01*
X197709007Y-83804972D01*
X197635775Y-83815318D01*
X197474624Y-83756497D01*
X197332290Y-83700899D01*
X197114669Y-83693269D01*
X197092783Y-83695973D01*
X196983432Y-83704112D01*
X197021802Y-83687133D01*
X197102003Y-83643900D01*
X197125941Y-83577999D01*
X197845819Y-83577999D01*
X197848287Y-83598237D01*
X197930768Y-83662666D01*
X197951074Y-83660206D01*
X198015718Y-83577999D01*
X198013250Y-83557762D01*
X197984963Y-83535666D01*
X198185618Y-83535666D01*
X198228093Y-83577999D01*
X198270568Y-83535666D01*
X198228093Y-83493333D01*
X198185618Y-83535666D01*
X197984963Y-83535666D01*
X197930768Y-83493333D01*
X197910463Y-83495793D01*
X197845819Y-83577999D01*
X197125941Y-83577999D01*
X197136192Y-83549777D01*
X197279486Y-83549777D01*
X197291937Y-83559910D01*
X197392753Y-83549777D01*
X197406043Y-83524311D01*
X197336120Y-83493333D01*
X197291147Y-83499443D01*
X197279486Y-83549777D01*
X197136192Y-83549777D01*
X197151347Y-83508056D01*
X197147942Y-83434098D01*
X197188903Y-83281666D01*
X197336120Y-83281666D01*
X197378595Y-83323999D01*
X197421069Y-83281666D01*
X197378595Y-83239333D01*
X197336120Y-83281666D01*
X197188903Y-83281666D01*
X197194591Y-83260499D01*
X197216535Y-83209144D01*
X197208199Y-83196999D01*
X201923411Y-83196999D01*
X201965886Y-83239333D01*
X202008360Y-83196999D01*
X201965886Y-83154666D01*
X201923411Y-83196999D01*
X197208199Y-83196999D01*
X197179143Y-83154666D01*
X197147555Y-83087217D01*
X197138684Y-82998980D01*
X197275520Y-82998980D01*
X197285533Y-83056917D01*
X197311756Y-83094529D01*
X197378595Y-83150470D01*
X197383608Y-83154666D01*
X197395484Y-83153842D01*
X197414192Y-83104831D01*
X197322994Y-83019581D01*
X197275520Y-82998980D01*
X197138684Y-82998980D01*
X197128541Y-82898087D01*
X197125168Y-82636719D01*
X197137983Y-82352880D01*
X197167531Y-82096333D01*
X202433110Y-82096333D01*
X202475585Y-82138666D01*
X202518059Y-82096333D01*
X202475585Y-82053999D01*
X202433110Y-82096333D01*
X197167531Y-82096333D01*
X197171402Y-81948623D01*
X197139215Y-81695815D01*
X197078770Y-81427862D01*
X197004501Y-81206036D01*
X196930842Y-81091607D01*
X196850983Y-81018995D01*
X196922416Y-80943441D01*
X196996071Y-80870478D01*
X196921725Y-80793465D01*
X196870624Y-80743524D01*
X196860611Y-80628026D01*
X196891075Y-80506530D01*
X196875375Y-80402999D01*
X202348160Y-80402999D01*
X202390635Y-80445333D01*
X202433110Y-80402999D01*
X202390635Y-80360666D01*
X202348160Y-80402999D01*
X196875375Y-80402999D01*
X196865006Y-80334621D01*
X196793489Y-80196688D01*
X196699799Y-80160408D01*
X196649120Y-80169823D01*
X196532675Y-80112438D01*
X196529706Y-80057699D01*
X196641106Y-80021999D01*
X196740851Y-80003801D01*
X196911370Y-79894999D01*
X196968797Y-79804884D01*
X196919670Y-79767999D01*
X196830796Y-79708814D01*
X196738188Y-79547726D01*
X196730066Y-79527088D01*
X196635399Y-79386317D01*
X196506678Y-79387998D01*
X196409773Y-79424428D01*
X196189297Y-79493542D01*
X196096363Y-79512097D01*
X196097352Y-79476659D01*
X196223532Y-79356937D01*
X196286130Y-79298807D01*
X196355970Y-79203093D01*
X196294324Y-79175333D01*
X196229787Y-79163976D01*
X196117894Y-79069499D01*
X196068435Y-79013894D01*
X195980809Y-79090666D01*
X195947360Y-79132211D01*
X195915495Y-79131459D01*
X195941076Y-78984833D01*
X195963005Y-78864536D01*
X195927833Y-78771382D01*
X195773757Y-78751999D01*
X195625143Y-78729997D01*
X195552173Y-78667333D01*
X195582820Y-78618628D01*
X195719407Y-78582666D01*
X195823931Y-78560081D01*
X195837743Y-78455666D01*
X195736624Y-78367274D01*
X195517599Y-78328666D01*
X195394860Y-78322265D01*
X195181341Y-78258157D01*
X195103892Y-78138626D01*
X195119125Y-78106388D01*
X195200585Y-78106388D01*
X195235228Y-78133339D01*
X195321436Y-78146951D01*
X195490078Y-78130202D01*
X195497651Y-78126828D01*
X195484878Y-78100323D01*
X195339799Y-78091171D01*
X195313418Y-78091730D01*
X195200585Y-78106388D01*
X195119125Y-78106388D01*
X195178698Y-77980309D01*
X195258818Y-77851451D01*
X195228561Y-77683168D01*
X195207732Y-77641001D01*
X195208480Y-77623966D01*
X202400984Y-77623966D01*
X202446967Y-78154474D01*
X202450971Y-78189079D01*
X202510944Y-78774775D01*
X202545408Y-79258827D01*
X202553952Y-79624856D01*
X202536167Y-79856484D01*
X202491641Y-79937333D01*
X202463622Y-79956595D01*
X202475585Y-79982666D01*
X202506921Y-80050956D01*
X202549802Y-80116678D01*
X202557744Y-80208224D01*
X202556477Y-80253444D01*
X202643431Y-80358968D01*
X202711213Y-80438716D01*
X202772909Y-80625033D01*
X202791028Y-80714035D01*
X202879096Y-80786692D01*
X202911953Y-80817822D01*
X202825966Y-80909624D01*
X202738126Y-81008761D01*
X202717113Y-81160931D01*
X202736318Y-81201913D01*
X202849200Y-81288091D01*
X202975362Y-81237488D01*
X203066893Y-81063454D01*
X203132789Y-80896996D01*
X203300149Y-80676004D01*
X203506281Y-80531252D01*
X203703621Y-80504493D01*
X203780988Y-80516766D01*
X203832782Y-80484075D01*
X203858549Y-80373934D01*
X203865023Y-80155747D01*
X203858939Y-79798922D01*
X203857049Y-79686838D01*
X203857120Y-79677774D01*
X204015228Y-79677774D01*
X204016643Y-79810868D01*
X204024260Y-79829830D01*
X204081203Y-79889823D01*
X204182832Y-79814204D01*
X204244664Y-79730384D01*
X204298620Y-79556333D01*
X205753481Y-79556333D01*
X205983429Y-79618948D01*
X206290934Y-79651403D01*
X206728207Y-79562280D01*
X207186255Y-79332613D01*
X207364501Y-79223905D01*
X207776958Y-79029376D01*
X208130300Y-78945072D01*
X208397376Y-78978921D01*
X208513103Y-79011836D01*
X208675845Y-78979271D01*
X208882072Y-78855157D01*
X209744278Y-78855157D01*
X209775408Y-78890971D01*
X209837002Y-78961834D01*
X209866952Y-78988534D01*
X210067771Y-79089849D01*
X210325463Y-79151081D01*
X210410598Y-79159703D01*
X210598350Y-79167727D01*
X210673243Y-79152438D01*
X210658836Y-79120066D01*
X210557276Y-78999459D01*
X210404107Y-78849373D01*
X210253855Y-78721450D01*
X210161049Y-78667333D01*
X210125463Y-78681914D01*
X210048424Y-78792905D01*
X210000125Y-78856554D01*
X209848198Y-78865552D01*
X209774276Y-78841677D01*
X209744278Y-78855157D01*
X208882072Y-78855157D01*
X208900660Y-78843970D01*
X209040459Y-78737273D01*
X209172790Y-78574696D01*
X209191086Y-78455666D01*
X211182942Y-78455666D01*
X211225417Y-78497999D01*
X211267892Y-78455666D01*
X211225417Y-78413333D01*
X211182942Y-78455666D01*
X209191086Y-78455666D01*
X209200820Y-78392334D01*
X209175002Y-78232903D01*
X209129305Y-78161974D01*
X210939336Y-78161974D01*
X210995783Y-78272421D01*
X211103006Y-78328666D01*
X211118862Y-78327081D01*
X211182942Y-78248996D01*
X211157316Y-78177214D01*
X211055768Y-78096504D01*
X210956409Y-78102888D01*
X210939336Y-78161974D01*
X209129305Y-78161974D01*
X209127712Y-78159501D01*
X209124941Y-78159261D01*
X209042467Y-78087206D01*
X208930236Y-77925541D01*
X208907107Y-77897376D01*
X211114812Y-77897376D01*
X211139405Y-77992316D01*
X211225417Y-78105381D01*
X211251661Y-78139879D01*
X211399924Y-78271644D01*
X211527755Y-78328666D01*
X211563238Y-78341586D01*
X211556610Y-78434499D01*
X211534910Y-78479635D01*
X211561710Y-78480864D01*
X211584737Y-78468844D01*
X211696997Y-78503288D01*
X211787312Y-78591432D01*
X211810636Y-78614195D01*
X211862541Y-78745952D01*
X211865546Y-78771208D01*
X211938282Y-78836666D01*
X211989966Y-78885490D01*
X212006712Y-78901309D01*
X212072325Y-79069499D01*
X212076826Y-79086680D01*
X212164336Y-79298687D01*
X212284624Y-79470239D01*
X212407688Y-79575122D01*
X212503527Y-79587119D01*
X212542140Y-79480018D01*
X212542141Y-79470753D01*
X212546642Y-79440155D01*
X212570830Y-79414655D01*
X212631371Y-79392719D01*
X212669564Y-79386022D01*
X212744930Y-79372808D01*
X212928172Y-79353388D01*
X213197762Y-79332923D01*
X213570366Y-79309876D01*
X214062648Y-79282711D01*
X214691274Y-79249892D01*
X215472909Y-79209883D01*
X215692762Y-79196545D01*
X216152508Y-79158143D01*
X216223256Y-79152233D01*
X216759774Y-79094032D01*
X217214380Y-79030976D01*
X217337164Y-79012864D01*
X217803836Y-78963393D01*
X218393921Y-78922373D01*
X219072674Y-78891908D01*
X219805350Y-78874102D01*
X220389526Y-78862318D01*
X221051195Y-78842439D01*
X221697103Y-78817083D01*
X222275871Y-78788283D01*
X222736120Y-78758075D01*
X222809142Y-78752366D01*
X223255363Y-78719275D01*
X223656745Y-78692346D01*
X223971797Y-78674221D01*
X224159029Y-78667538D01*
X224435116Y-78667333D01*
X224435116Y-73925999D01*
X224434581Y-73312028D01*
X224432018Y-72468102D01*
X224427524Y-71687229D01*
X224421302Y-70984593D01*
X224413556Y-70375377D01*
X224404490Y-69874762D01*
X224394306Y-69497931D01*
X224383210Y-69260068D01*
X224371404Y-69176355D01*
X224340806Y-69174671D01*
X224169354Y-69171872D01*
X223889387Y-69170557D01*
X223543143Y-69170999D01*
X223530830Y-69171045D01*
X223280972Y-69171754D01*
X222882825Y-69172622D01*
X222356478Y-69173616D01*
X221722019Y-69174702D01*
X220999538Y-69175847D01*
X220209124Y-69177019D01*
X219370866Y-69178185D01*
X218504852Y-69179310D01*
X217841260Y-69180834D01*
X216940871Y-69185489D01*
X216155898Y-69192836D01*
X215495421Y-69202692D01*
X214968518Y-69214877D01*
X214584270Y-69229210D01*
X214351755Y-69245509D01*
X214280052Y-69263593D01*
X214344227Y-69293131D01*
X214539044Y-69313139D01*
X214808671Y-69306178D01*
X214940094Y-69297497D01*
X215163396Y-69293698D01*
X215232613Y-69311487D01*
X215157177Y-69344802D01*
X214946521Y-69387583D01*
X214610077Y-69433772D01*
X214433473Y-69454334D01*
X214218486Y-69481602D01*
X214158782Y-69497030D01*
X214245490Y-69505578D01*
X214469735Y-69512205D01*
X214634947Y-69521678D01*
X214852897Y-69554561D01*
X214958314Y-69600103D01*
X214950872Y-69638138D01*
X214835902Y-69632562D01*
X214793046Y-69623143D01*
X214691494Y-69649159D01*
X214665886Y-69802866D01*
X214677670Y-69963432D01*
X214723215Y-70166384D01*
X214744659Y-70219615D01*
X214787890Y-70264332D01*
X214839203Y-70152142D01*
X214859065Y-70111773D01*
X214884628Y-70153086D01*
X214889499Y-70348833D01*
X214885526Y-70443318D01*
X214863258Y-70633165D01*
X214830653Y-70708666D01*
X214779687Y-70784165D01*
X214676251Y-71002886D01*
X214527159Y-71349065D01*
X214339023Y-71806934D01*
X214118455Y-72360724D01*
X213872068Y-72994666D01*
X213861806Y-73021624D01*
X213751580Y-73330690D01*
X213612554Y-73745408D01*
X213461488Y-74214828D01*
X213315137Y-74687999D01*
X213286945Y-74780736D01*
X213117262Y-75320037D01*
X212930846Y-75886012D01*
X212737368Y-76451774D01*
X212546503Y-76990436D01*
X212367923Y-77475113D01*
X212211299Y-77878916D01*
X212086306Y-78174961D01*
X212002615Y-78336361D01*
X211993998Y-78348557D01*
X211922939Y-78428480D01*
X211844830Y-78432971D01*
X211721110Y-78348142D01*
X211513218Y-78160106D01*
X211339366Y-78010679D01*
X211184805Y-77905977D01*
X211114812Y-77897376D01*
X208907107Y-77897376D01*
X208809349Y-77778333D01*
X210843143Y-77778333D01*
X210885618Y-77820666D01*
X210928093Y-77778333D01*
X210885618Y-77735999D01*
X210843143Y-77778333D01*
X208809349Y-77778333D01*
X208781254Y-77744121D01*
X208495618Y-77554996D01*
X208187873Y-77481999D01*
X208120780Y-77491749D01*
X207891910Y-77575850D01*
X207589146Y-77727413D01*
X207255866Y-77923593D01*
X206935451Y-78141546D01*
X206667741Y-78355023D01*
X206316102Y-78715702D01*
X205996846Y-79166938D01*
X205753481Y-79556333D01*
X204298620Y-79556333D01*
X204303307Y-79541213D01*
X204303349Y-79537007D01*
X204319993Y-79442133D01*
X204379678Y-79505162D01*
X204411061Y-79543472D01*
X204482712Y-79532960D01*
X204579697Y-79378162D01*
X204657379Y-79167991D01*
X204729349Y-78785400D01*
X204753610Y-78361345D01*
X204722844Y-77967897D01*
X204702843Y-77858265D01*
X204653996Y-77661771D01*
X204619395Y-77630652D01*
X204602718Y-77762173D01*
X204607645Y-78053597D01*
X204616044Y-78259085D01*
X204616017Y-78388652D01*
X204600997Y-78366277D01*
X204568410Y-78201666D01*
X204549757Y-78102081D01*
X204522629Y-77997360D01*
X204499895Y-78014583D01*
X204474229Y-78169242D01*
X204438306Y-78476833D01*
X204433325Y-78519876D01*
X204390031Y-78809072D01*
X204342493Y-79013290D01*
X204300134Y-79090666D01*
X204298927Y-79090703D01*
X204233902Y-79166438D01*
X204174795Y-79343695D01*
X204114179Y-79534283D01*
X204044331Y-79642740D01*
X204015228Y-79677774D01*
X203857120Y-79677774D01*
X203860040Y-79303549D01*
X203875658Y-78963972D01*
X203901409Y-78730833D01*
X203917794Y-78578402D01*
X203896192Y-78436562D01*
X203838650Y-78407369D01*
X203763618Y-78519166D01*
X203735820Y-78557065D01*
X203714064Y-78476833D01*
X203723563Y-78398134D01*
X203792307Y-78328666D01*
X203812612Y-78326206D01*
X203877257Y-78243999D01*
X203842272Y-78193571D01*
X203700607Y-78159333D01*
X203681591Y-78158977D01*
X203600109Y-78137327D01*
X203562837Y-78062437D01*
X203566625Y-77985002D01*
X203622407Y-77985002D01*
X203625672Y-78009578D01*
X203707357Y-78074666D01*
X203726582Y-78073695D01*
X203792307Y-78037329D01*
X203788398Y-78023748D01*
X203707357Y-77947666D01*
X203674451Y-77934436D01*
X203622407Y-77985002D01*
X203566625Y-77985002D01*
X203570444Y-77906928D01*
X203613465Y-77693666D01*
X204386956Y-77693666D01*
X204429431Y-77735999D01*
X204471906Y-77693666D01*
X204429431Y-77651333D01*
X204386956Y-77693666D01*
X203613465Y-77693666D01*
X203623601Y-77643419D01*
X203674451Y-77439310D01*
X203681319Y-77411741D01*
X204375286Y-77411741D01*
X204417924Y-77390277D01*
X204429431Y-77371019D01*
X204465443Y-77310749D01*
X204550035Y-77143333D01*
X204607046Y-77020389D01*
X204606894Y-76991930D01*
X204519067Y-77096015D01*
X204446298Y-77209335D01*
X204390729Y-77334014D01*
X204375286Y-77411741D01*
X203681319Y-77411741D01*
X203722976Y-77244533D01*
X203753748Y-77112832D01*
X203772641Y-76902575D01*
X203719699Y-76783100D01*
X203649974Y-76730125D01*
X203622407Y-76787733D01*
X203566951Y-76855337D01*
X203405019Y-76889333D01*
X203270541Y-76911338D01*
X203239532Y-76973029D01*
X203247646Y-77011862D01*
X203161778Y-77007139D01*
X203119987Y-76989688D01*
X203076995Y-76933066D01*
X203163643Y-76826472D01*
X203177699Y-76812240D01*
X203247826Y-76703008D01*
X203182697Y-76624325D01*
X203141922Y-76591297D01*
X203810457Y-76591297D01*
X203820624Y-76691777D01*
X203846175Y-76705023D01*
X203868229Y-76655575D01*
X204933499Y-76655575D01*
X204965676Y-76693169D01*
X205014801Y-76706697D01*
X205128497Y-76686485D01*
X205127182Y-76657583D01*
X205017000Y-76642017D01*
X204933499Y-76655575D01*
X203868229Y-76655575D01*
X203877257Y-76635333D01*
X203871126Y-76590510D01*
X203820624Y-76578888D01*
X203810457Y-76591297D01*
X203141922Y-76591297D01*
X203118888Y-76572639D01*
X203176421Y-76551962D01*
X203275363Y-76515555D01*
X203273437Y-76508333D01*
X203452508Y-76508333D01*
X203494982Y-76550666D01*
X203537457Y-76508333D01*
X203494982Y-76465999D01*
X203452508Y-76508333D01*
X203273437Y-76508333D01*
X203256887Y-76446285D01*
X203184933Y-76423666D01*
X204556855Y-76423666D01*
X204599330Y-76465999D01*
X204606894Y-76458460D01*
X204619395Y-76446001D01*
X204641805Y-76423666D01*
X204599330Y-76381333D01*
X204556855Y-76423666D01*
X203184933Y-76423666D01*
X203133946Y-76407638D01*
X203038866Y-76418990D01*
X202792075Y-76542304D01*
X202574622Y-76763713D01*
X202438421Y-77036290D01*
X202404544Y-77237668D01*
X202400984Y-77623966D01*
X195208480Y-77623966D01*
X195212744Y-77526888D01*
X195339799Y-77435973D01*
X195357188Y-77423530D01*
X195524503Y-77362878D01*
X195655065Y-77366051D01*
X195700100Y-77363165D01*
X195683083Y-77238942D01*
X195669089Y-77155395D01*
X195724545Y-76999418D01*
X195905288Y-76805006D01*
X195983153Y-76737219D01*
X196162987Y-76603721D01*
X196278371Y-76550666D01*
X196286283Y-76550024D01*
X196410797Y-76482900D01*
X196571571Y-76338999D01*
X196585255Y-76324771D01*
X196755069Y-76184858D01*
X196891827Y-76127333D01*
X197034071Y-76084999D01*
X204556855Y-76084999D01*
X204599330Y-76127333D01*
X204641805Y-76084999D01*
X204599330Y-76042666D01*
X204556855Y-76084999D01*
X197034071Y-76084999D01*
X197043224Y-76082275D01*
X197238056Y-75973776D01*
X197275520Y-75954168D01*
X197544534Y-75813372D01*
X197930768Y-75690521D01*
X198009118Y-75665600D01*
X198228093Y-75630062D01*
X198522956Y-75582209D01*
X198631812Y-75569107D01*
X198837802Y-75519296D01*
X198933723Y-75456831D01*
X198956628Y-75422846D01*
X199062116Y-75424297D01*
X199091223Y-75440527D01*
X199356329Y-75518737D01*
X199778427Y-75562289D01*
X199798842Y-75563523D01*
X199980082Y-75590126D01*
X200054514Y-75630624D01*
X200066175Y-75656376D01*
X200198581Y-75726428D01*
X200448114Y-75790144D01*
X200776588Y-75836630D01*
X200802434Y-75839201D01*
X201071033Y-75870140D01*
X201428203Y-75915918D01*
X201803989Y-75967616D01*
X201965886Y-75985712D01*
X202130124Y-76004069D01*
X202390635Y-76014803D01*
X202564975Y-76021986D01*
X202908337Y-75999351D01*
X203133946Y-75964983D01*
X203207714Y-75953746D01*
X203461462Y-75923492D01*
X203494982Y-75921089D01*
X203728572Y-75904340D01*
X203820624Y-75900394D01*
X204087296Y-75888962D01*
X204289514Y-75879861D01*
X204419713Y-75860684D01*
X204421837Y-75819273D01*
X204319487Y-75740539D01*
X204202795Y-75628398D01*
X204178173Y-75528873D01*
X204186594Y-75491100D01*
X204105046Y-75449999D01*
X204024557Y-75430722D01*
X203877257Y-75322999D01*
X203784367Y-75251010D01*
X203585767Y-75195999D01*
X203443801Y-75171775D01*
X203235132Y-75071692D01*
X203177179Y-75033063D01*
X202992088Y-74958757D01*
X202837580Y-74952821D01*
X202772909Y-75021669D01*
X202776149Y-75045423D01*
X202857859Y-75153666D01*
X202935863Y-75214472D01*
X202943814Y-75277693D01*
X202837770Y-75288723D01*
X202650233Y-75234853D01*
X202613028Y-75220179D01*
X202386845Y-75161125D01*
X202223831Y-75164197D01*
X202208966Y-75167667D01*
X202051026Y-75141928D01*
X201799064Y-75051182D01*
X201498593Y-74911299D01*
X201293441Y-74808365D01*
X200911028Y-74639120D01*
X200587511Y-74537793D01*
X200266889Y-74485002D01*
X200228800Y-74479076D01*
X200017979Y-74419709D01*
X199768053Y-74323704D01*
X199693894Y-74292457D01*
X199471942Y-74212174D01*
X199329145Y-74179999D01*
X199288631Y-74175738D01*
X199190858Y-74113700D01*
X199114647Y-74081294D01*
X198899296Y-74070650D01*
X198580017Y-74085354D01*
X198190590Y-74121158D01*
X197764799Y-74173812D01*
X197336427Y-74239070D01*
X196939256Y-74312681D01*
X196607070Y-74390399D01*
X196373651Y-74467975D01*
X196351933Y-74477728D01*
X196107474Y-74604587D01*
X195823693Y-74774023D01*
X195537945Y-74960701D01*
X195287588Y-75139284D01*
X195109979Y-75284435D01*
X195042474Y-75370818D01*
X194998327Y-75454538D01*
X194837583Y-75576996D01*
X194612217Y-75684977D01*
X194378791Y-75746468D01*
X194167066Y-75737549D01*
X193968500Y-75662780D01*
X193925810Y-75630449D01*
X193866044Y-75554116D01*
X193871855Y-75539663D01*
X194108026Y-75539663D01*
X194114696Y-75570286D01*
X194192976Y-75576999D01*
X194218398Y-75559622D01*
X194277926Y-75487336D01*
X194275717Y-75478886D01*
X194192976Y-75449999D01*
X194169692Y-75453445D01*
X194108026Y-75539663D01*
X193871855Y-75539663D01*
X193904064Y-75459553D01*
X194051279Y-75296242D01*
X194090806Y-75253569D01*
X194192976Y-75107418D01*
X194210529Y-75082309D01*
X194199941Y-74988623D01*
X194164603Y-74953100D01*
X194114232Y-74791469D01*
X194122583Y-74601976D01*
X194191236Y-74477404D01*
X194225248Y-74417404D01*
X194169999Y-74258157D01*
X194158151Y-74238720D01*
X194109889Y-74103497D01*
X194184117Y-74016627D01*
X194237090Y-73960348D01*
X194250496Y-73807544D01*
X194244675Y-73756666D01*
X194575250Y-73756666D01*
X194592686Y-73782004D01*
X194665213Y-73841333D01*
X194673691Y-73839131D01*
X194702675Y-73756666D01*
X194699218Y-73733460D01*
X194612711Y-73671999D01*
X194581985Y-73678647D01*
X194575250Y-73756666D01*
X194244675Y-73756666D01*
X194240329Y-73718682D01*
X194344304Y-73669425D01*
X194397129Y-73667832D01*
X194443619Y-73648187D01*
X194341638Y-73580551D01*
X194224263Y-73489147D01*
X194220215Y-73381236D01*
X194384113Y-73274113D01*
X194575250Y-73189017D01*
X194379437Y-73126990D01*
X194305214Y-73096543D01*
X194219428Y-72998434D01*
X194280190Y-72901425D01*
X194475614Y-72840875D01*
X194612711Y-72801763D01*
X194655765Y-72789480D01*
X194693840Y-72709055D01*
X194575250Y-72625381D01*
X194499124Y-72554529D01*
X194457680Y-72383490D01*
X194474108Y-72274622D01*
X194504506Y-72328783D01*
X194504764Y-72329730D01*
X194607993Y-72442282D01*
X194802595Y-72519283D01*
X195014350Y-72556993D01*
X195155140Y-72561925D01*
X195147519Y-72511439D01*
X194999999Y-72400410D01*
X194954557Y-72370051D01*
X194823624Y-72275552D01*
X194825944Y-72244472D01*
X194954042Y-72252801D01*
X195100317Y-72241695D01*
X195193826Y-72127129D01*
X195191020Y-72030836D01*
X195091121Y-72030354D01*
X195011796Y-72041942D01*
X194957524Y-71954449D01*
X194974019Y-71887031D01*
X195090333Y-71776656D01*
X195152589Y-71739046D01*
X195176197Y-71650156D01*
X195166267Y-71619171D01*
X195234525Y-71579547D01*
X195238081Y-71579677D01*
X195394076Y-71562621D01*
X195615886Y-71517071D01*
X195746139Y-71475876D01*
X195872948Y-71397010D01*
X195871263Y-71329778D01*
X195727086Y-71301332D01*
X195642056Y-71293299D01*
X195507405Y-71201941D01*
X195513837Y-71024781D01*
X195515488Y-71023375D01*
X196238851Y-71023375D01*
X196257172Y-71038306D01*
X196387513Y-71047333D01*
X196500304Y-71023753D01*
X196571571Y-70909966D01*
X196570504Y-70872588D01*
X196536614Y-70817410D01*
X196422909Y-70886008D01*
X196327331Y-70958317D01*
X196238851Y-71023375D01*
X195515488Y-71023375D01*
X195609621Y-70943210D01*
X195856889Y-70925682D01*
X196012322Y-70917176D01*
X196240964Y-70840340D01*
X196426061Y-70713680D01*
X196527278Y-70567859D01*
X196504280Y-70433539D01*
X196435704Y-70292051D01*
X196386820Y-70072660D01*
X196359197Y-69819666D01*
X196536614Y-69828104D01*
X196805183Y-69840878D01*
X196982396Y-69845517D01*
X197180229Y-69821769D01*
X197262184Y-69741663D01*
X197261230Y-69586833D01*
X197318787Y-69539825D01*
X197484782Y-69511318D01*
X197588704Y-69500579D01*
X197582475Y-69495110D01*
X197874135Y-69495110D01*
X197886586Y-69505243D01*
X197987402Y-69495110D01*
X198000692Y-69469644D01*
X197930768Y-69438666D01*
X197885796Y-69444776D01*
X197874135Y-69495110D01*
X197582475Y-69495110D01*
X197564440Y-69479277D01*
X197378595Y-69444019D01*
X197263285Y-69423487D01*
X197190775Y-69398893D01*
X197238797Y-69373951D01*
X197423459Y-69342530D01*
X197760869Y-69298499D01*
X197864727Y-69284178D01*
X197930768Y-69270080D01*
X197953946Y-69265132D01*
X197951398Y-69249134D01*
X197847315Y-69235874D01*
X197631932Y-69225042D01*
X197295482Y-69216329D01*
X196828199Y-69209424D01*
X196220315Y-69204018D01*
X195462066Y-69199802D01*
X194543685Y-69196465D01*
X190604428Y-69184666D01*
X190089957Y-69184666D01*
X190089323Y-69064158D01*
X190095952Y-68813012D01*
X190114041Y-68657816D01*
X190146468Y-68574038D01*
X190196109Y-68537147D01*
X190265842Y-68522611D01*
X190275120Y-68521343D01*
X190417288Y-68541773D01*
G37*
G36*
X205533778Y-82750191D02*
G01*
X205581694Y-82761465D01*
X205659269Y-82823655D01*
X205695027Y-82969597D01*
X205703678Y-83241856D01*
X205708272Y-83395391D01*
X205750621Y-83672987D01*
X205852006Y-83970689D01*
X206030209Y-84348772D01*
X206053328Y-84393673D01*
X206259053Y-84755812D01*
X206484525Y-85102584D01*
X206684948Y-85364492D01*
X206826960Y-85531524D01*
X206962843Y-85707308D01*
X207016779Y-85800499D01*
X207002264Y-85818604D01*
X206871138Y-85851118D01*
X206647215Y-85863999D01*
X206621947Y-85864141D01*
X206347287Y-85897222D01*
X206225649Y-85989657D01*
X206202311Y-86025339D01*
X206114642Y-86068040D01*
X205941992Y-86091158D01*
X205656177Y-86097530D01*
X205229011Y-86089993D01*
X204914242Y-86081019D01*
X204604373Y-86066546D01*
X204406990Y-86042291D01*
X204288873Y-86000204D01*
X204216803Y-85932236D01*
X204157562Y-85830334D01*
X204116191Y-85733159D01*
X204080544Y-85558443D01*
X204090618Y-85423462D01*
X204139512Y-85370799D01*
X204220325Y-85443039D01*
X204245601Y-85477596D01*
X204287727Y-85470521D01*
X204300705Y-85309433D01*
X204326814Y-85105387D01*
X204391837Y-84961668D01*
X204402069Y-84950172D01*
X204468808Y-84767466D01*
X204494654Y-84473592D01*
X204484502Y-84115087D01*
X204443247Y-83738485D01*
X204375785Y-83390323D01*
X204287013Y-83117137D01*
X204181825Y-82965462D01*
X204169321Y-82951613D01*
X204228964Y-82916611D01*
X204408193Y-82901962D01*
X204445790Y-82901920D01*
X204635297Y-82917359D01*
X204712245Y-82989121D01*
X204726755Y-83157394D01*
X204768760Y-83370940D01*
X204917892Y-83490694D01*
X205019151Y-83544018D01*
X205002842Y-83572632D01*
X204940087Y-83593986D01*
X204898323Y-83703997D01*
X204946386Y-83854731D01*
X205073979Y-83986305D01*
X205157064Y-84035340D01*
X205221513Y-84042260D01*
X205197321Y-83927161D01*
X205191123Y-83790751D01*
X205320310Y-83663249D01*
X205391989Y-83617378D01*
X205460939Y-83497351D01*
X205444188Y-83286789D01*
X205429759Y-83076026D01*
X205492744Y-82942112D01*
X205547222Y-82884969D01*
X205479136Y-82800864D01*
X205474208Y-82797477D01*
X205427219Y-82745254D01*
X205533778Y-82750191D01*
G37*
G36*
X192792637Y-77080744D02*
G01*
X192856907Y-77144557D01*
X192915497Y-77236532D01*
X192915204Y-77259187D01*
X192879581Y-77410414D01*
X192808465Y-77590740D01*
X192730114Y-77736448D01*
X192672785Y-77783819D01*
X192626287Y-77776169D01*
X192489923Y-77826252D01*
X192475640Y-77835564D01*
X192410344Y-77910862D01*
X192493979Y-77996847D01*
X192533672Y-78027760D01*
X192535585Y-78060868D01*
X192390055Y-78038134D01*
X192318022Y-78024237D01*
X192205230Y-78030447D01*
X192208006Y-78115952D01*
X192215749Y-78196114D01*
X192110886Y-78243999D01*
X192008290Y-78204206D01*
X192013292Y-78057905D01*
X192023999Y-77925798D01*
X191969001Y-77759983D01*
X191952785Y-77675317D01*
X192077843Y-77675317D01*
X192131527Y-77746505D01*
X192193988Y-77794817D01*
X192283852Y-77804314D01*
X192283106Y-77766182D01*
X192179081Y-77699109D01*
X192162964Y-77693082D01*
X192077843Y-77675317D01*
X191952785Y-77675317D01*
X191945534Y-77637461D01*
X192020834Y-77483896D01*
X192077843Y-77434265D01*
X192154222Y-77367770D01*
X192297482Y-77349356D01*
X192364020Y-77348603D01*
X192409029Y-77234400D01*
X192429245Y-77183964D01*
X192512129Y-77183964D01*
X192522296Y-77284444D01*
X192547847Y-77297689D01*
X192578929Y-77227999D01*
X192572798Y-77183177D01*
X192522296Y-77171555D01*
X192512129Y-77183964D01*
X192429245Y-77183964D01*
X192472368Y-77076379D01*
X192522296Y-77056008D01*
X192622626Y-77015073D01*
X192792637Y-77080744D01*
G37*
G36*
X209036368Y-85348068D02*
G01*
X209079454Y-85430125D01*
X209133099Y-85499402D01*
X209334304Y-85510657D01*
X209616050Y-85518750D01*
X209908695Y-85567468D01*
X209933153Y-85573854D01*
X210100623Y-85623190D01*
X210116541Y-85652478D01*
X209993645Y-85678339D01*
X209891475Y-85715209D01*
X209677809Y-85853566D01*
X209456787Y-86051701D01*
X209343050Y-86167223D01*
X209160854Y-86313818D01*
X208977361Y-86377601D01*
X208721223Y-86391538D01*
X208486677Y-86384488D01*
X208249151Y-86344159D01*
X208176603Y-86267752D01*
X208268327Y-86154897D01*
X208338973Y-86099296D01*
X208349598Y-86075666D01*
X208719397Y-86075666D01*
X208761872Y-86117999D01*
X208804347Y-86075666D01*
X208761872Y-86033333D01*
X208719397Y-86075666D01*
X208349598Y-86075666D01*
X208362376Y-86047248D01*
X208228270Y-86036025D01*
X208214671Y-86035600D01*
X208038712Y-85970077D01*
X207975942Y-85831636D01*
X208052785Y-85674687D01*
X208184171Y-85573637D01*
X208415067Y-85454216D01*
X208662109Y-85370134D01*
X208761872Y-85352663D01*
X208883231Y-85331411D01*
X209036368Y-85348068D01*
G37*
G36*
X204117445Y-89368732D02*
G01*
X203979324Y-89419093D01*
X203734029Y-89489251D01*
X203396911Y-89572579D01*
X203372313Y-89578273D01*
X203027663Y-89652126D01*
X202803694Y-89681924D01*
X202660029Y-89669854D01*
X202556291Y-89618104D01*
X202524088Y-89594704D01*
X202465221Y-89544940D01*
X202473182Y-89513492D01*
X202573687Y-89493660D01*
X202792449Y-89478741D01*
X203155183Y-89462035D01*
X203176013Y-89461018D01*
X203508407Y-89431140D01*
X203834782Y-89383532D01*
X204010766Y-89353911D01*
X204133043Y-89344795D01*
X204117445Y-89368732D01*
G37*
G36*
X194032960Y-75788897D02*
G01*
X194135811Y-75944041D01*
X194155826Y-76017897D01*
X194183122Y-76111163D01*
X194178887Y-76116745D01*
X194098528Y-76079149D01*
X194040077Y-76065848D01*
X193926048Y-76137652D01*
X193915064Y-76153061D01*
X193877692Y-76156630D01*
X193893579Y-76000333D01*
X193897722Y-75976442D01*
X193910840Y-75847551D01*
X193889080Y-75852166D01*
X193863271Y-75892537D01*
X193750746Y-75957999D01*
X193713782Y-75938094D01*
X193764036Y-75836032D01*
X193878884Y-75760019D01*
X194032960Y-75788897D01*
G37*
G36*
X206626337Y-84213420D02*
G01*
X206774046Y-84373866D01*
X206796568Y-84401614D01*
X206924444Y-84529286D01*
X207001032Y-84556859D01*
X207042543Y-84546934D01*
X207162189Y-84605880D01*
X207177873Y-84619273D01*
X207226718Y-84708293D01*
X207131089Y-84807393D01*
X207081354Y-84840461D01*
X206928538Y-84879029D01*
X206795790Y-84781239D01*
X206657277Y-84532080D01*
X206574043Y-84322695D01*
X206558053Y-84198553D01*
X206626337Y-84213420D01*
G37*
G36*
X203864735Y-84209038D02*
G01*
X203961964Y-84260485D01*
X204008850Y-84378999D01*
X204000247Y-84610200D01*
X203983130Y-84762365D01*
X203940977Y-84947708D01*
X203862130Y-85035714D01*
X203717876Y-85073495D01*
X203665389Y-85077433D01*
X203603517Y-85040478D01*
X203586393Y-84912442D01*
X203603554Y-84655035D01*
X203614047Y-84541510D01*
X203641185Y-84308948D01*
X203678618Y-84198888D01*
X203746438Y-84177021D01*
X203864735Y-84209038D01*
G37*
G36*
X209265906Y-84351700D02*
G01*
X209214251Y-84442580D01*
X209072569Y-84593999D01*
X209005083Y-84654553D01*
X208812536Y-84792795D01*
X208670616Y-84847999D01*
X208598652Y-84833864D01*
X208567087Y-84760687D01*
X208636744Y-84669227D01*
X208783594Y-84610083D01*
X208897160Y-84576001D01*
X209063429Y-84461916D01*
X209129195Y-84398377D01*
X209252097Y-84339999D01*
X209265906Y-84351700D01*
G37*
G36*
X204641805Y-88821627D02*
G01*
X204614651Y-88871943D01*
X204482524Y-88911999D01*
X204479667Y-88912008D01*
X204283209Y-88928326D01*
X204036538Y-88966494D01*
X203993875Y-88974052D01*
X203838491Y-88987489D01*
X203803121Y-88962771D01*
X203906496Y-88911362D01*
X204100446Y-88862618D01*
X204297973Y-88823911D01*
X204493143Y-88775969D01*
X204576539Y-88766550D01*
X204641805Y-88821627D01*
G37*
G36*
X193080077Y-76336294D02*
G01*
X193188833Y-76379526D01*
X193258528Y-76435077D01*
X193223925Y-76449661D01*
X193088628Y-76423666D01*
X192984398Y-76408167D01*
X192918728Y-76465290D01*
X192909715Y-76500712D01*
X192826377Y-76503773D01*
X192779233Y-76456201D01*
X192802830Y-76375574D01*
X192919186Y-76324993D01*
X193080077Y-76336294D01*
G37*
G36*
X196363198Y-79612731D02*
G01*
X196315754Y-79656475D01*
X196158836Y-79746545D01*
X195870980Y-79897199D01*
X195858172Y-79903153D01*
X195863656Y-79878594D01*
X195976922Y-79777229D01*
X195978531Y-79775907D01*
X196165190Y-79652940D01*
X196316722Y-79601070D01*
X196322633Y-79601052D01*
X196363198Y-79612731D01*
G37*
G36*
X193832707Y-76406899D02*
G01*
X193874160Y-76438203D01*
X193794621Y-76509582D01*
X193690392Y-76564623D01*
X193598865Y-76556144D01*
X193567767Y-76523890D01*
X193428427Y-76447501D01*
X193407061Y-76436645D01*
X193451915Y-76412033D01*
X193624183Y-76400940D01*
X193646904Y-76400780D01*
X193832707Y-76406899D01*
G37*
G36*
X205002849Y-88999398D02*
G01*
X205066173Y-89015354D01*
X204981605Y-89081333D01*
X204908581Y-89119101D01*
X204726755Y-89163406D01*
X204705511Y-89163267D01*
X204642187Y-89147311D01*
X204726755Y-89081333D01*
X204799779Y-89043564D01*
X204981605Y-88999259D01*
X205002849Y-88999398D01*
G37*
G36*
X203323503Y-83658228D02*
G01*
X203363858Y-83791956D01*
X203351603Y-83934767D01*
X203287621Y-84001333D01*
X203270061Y-83999666D01*
X203159921Y-83924306D01*
X203146564Y-83894534D01*
X203149242Y-83760852D01*
X203208575Y-83646287D01*
X203291509Y-83625816D01*
X203323503Y-83658228D01*
G37*
G36*
X191443151Y-84624553D02*
G01*
X191554776Y-84760965D01*
X191558486Y-84765812D01*
X191656885Y-84931462D01*
X191672749Y-85040243D01*
X191623564Y-85071378D01*
X191522705Y-85020668D01*
X191430774Y-84891481D01*
X191391520Y-84731799D01*
X191399766Y-84618101D01*
X191443151Y-84624553D01*
G37*
G36*
X203569685Y-79029906D02*
G01*
X203578915Y-79154166D01*
X203563493Y-79234698D01*
X203542656Y-79344666D01*
X203526145Y-79348015D01*
X203456812Y-79264042D01*
X203429283Y-79210081D01*
X203426991Y-79067113D01*
X203534954Y-79005999D01*
X203569685Y-79029906D01*
G37*
G36*
X196019397Y-69946666D02*
G01*
X196085786Y-70022501D01*
X196144120Y-70189866D01*
X196141515Y-70234976D01*
X196109310Y-70267701D01*
X196016696Y-70163317D01*
X195971086Y-70098837D01*
X195900188Y-69954593D01*
X195916422Y-69893407D01*
X196019397Y-69946666D01*
G37*
G36*
X204582278Y-86262377D02*
G01*
X204641805Y-86334663D01*
X204639597Y-86343112D01*
X204556855Y-86371999D01*
X204533572Y-86368554D01*
X204471906Y-86282336D01*
X204478576Y-86251712D01*
X204556855Y-86244999D01*
X204582278Y-86262377D01*
G37*
G36*
X203642712Y-85189126D02*
G01*
X203707357Y-85271333D01*
X203704889Y-85291570D01*
X203622407Y-85355999D01*
X203602102Y-85353539D01*
X203537457Y-85271333D01*
X203539926Y-85251095D01*
X203622407Y-85186666D01*
X203642712Y-85189126D01*
G37*
G36*
X203471732Y-85526303D02*
G01*
X203537457Y-85562669D01*
X203533548Y-85576250D01*
X203452508Y-85652333D01*
X203419601Y-85665562D01*
X203367558Y-85614996D01*
X203370822Y-85590420D01*
X203452508Y-85525333D01*
X203471732Y-85526303D01*
G37*
G36*
X202929106Y-77344177D02*
G01*
X202942809Y-77481999D01*
X202928393Y-77580350D01*
X202865812Y-77651333D01*
X202828480Y-77617007D01*
X202833245Y-77481999D01*
X202865618Y-77382476D01*
X202910241Y-77312666D01*
X202929106Y-77344177D01*
G37*
G36*
X196591216Y-79432586D02*
G01*
X196656521Y-79513999D01*
X196655547Y-79533160D01*
X196619060Y-79598666D01*
X196605433Y-79594770D01*
X196529096Y-79513999D01*
X196515823Y-79481202D01*
X196566558Y-79429333D01*
X196591216Y-79432586D01*
G37*
G36*
X196231772Y-70412333D02*
G01*
X196254972Y-70429662D01*
X196316722Y-70544329D01*
X196256055Y-70612771D01*
X196128294Y-70613764D01*
X196023025Y-70545183D01*
X196017401Y-70462961D01*
X196105788Y-70395768D01*
X196231772Y-70412333D01*
G37*
G36*
X195467223Y-78923990D02*
G01*
X195452868Y-78961690D01*
X195339799Y-79005999D01*
X195281742Y-79002321D01*
X195212374Y-78972724D01*
X195228025Y-78950810D01*
X195339799Y-78890715D01*
X195404954Y-78877405D01*
X195467223Y-78923990D01*
G37*
G36*
X193363783Y-76553126D02*
G01*
X193428427Y-76635333D01*
X193425959Y-76655570D01*
X193343477Y-76719999D01*
X193323172Y-76717539D01*
X193258528Y-76635333D01*
X193260996Y-76615095D01*
X193343477Y-76550666D01*
X193363783Y-76553126D01*
G37*
G36*
X192577628Y-76651502D02*
G01*
X192567894Y-76726171D01*
X192493979Y-76846999D01*
X192431409Y-76864497D01*
X192418937Y-76790457D01*
X192493979Y-76635333D01*
X192505154Y-76618295D01*
X192563881Y-76556750D01*
X192577628Y-76651502D01*
G37*
G36*
X191579175Y-86967919D02*
G01*
X191644481Y-87049333D01*
X191643507Y-87068493D01*
X191607019Y-87133999D01*
X191593393Y-87130103D01*
X191517056Y-87049333D01*
X191503782Y-87016536D01*
X191554518Y-86964666D01*
X191579175Y-86967919D01*
G37*
G36*
X191701559Y-83106699D02*
G01*
X191608207Y-83198817D01*
X191492020Y-83267346D01*
X191398293Y-83276187D01*
X191391745Y-83266227D01*
X191431802Y-83189348D01*
X191552493Y-83109656D01*
X191686956Y-83073988D01*
X191701559Y-83106699D01*
G37*
G36*
X203877257Y-85562669D02*
G01*
X203875595Y-85605416D01*
X203835467Y-85690924D01*
X203753460Y-85615849D01*
X203741916Y-85585321D01*
X203790921Y-85483853D01*
X203835461Y-85475466D01*
X203877257Y-85562669D01*
G37*
G36*
X203750231Y-83367584D02*
G01*
X203769701Y-83596227D01*
X203775178Y-83958999D01*
X203685456Y-83680191D01*
X203640665Y-83474841D01*
X203679979Y-83317420D01*
X203701659Y-83302976D01*
X203750231Y-83367584D01*
G37*
G36*
X195206722Y-78621518D02*
G01*
X195262702Y-78661338D01*
X195285934Y-78718214D01*
X195166235Y-78696549D01*
X195104297Y-78664754D01*
X195075634Y-78606061D01*
X195095539Y-78595493D01*
X195206722Y-78621518D01*
G37*
G36*
X193700080Y-93924502D02*
G01*
X193728045Y-93988301D01*
X193689826Y-94020674D01*
X193553132Y-94021576D01*
X193459875Y-93976667D01*
X193450276Y-93926134D01*
X193603340Y-93907333D01*
X193700080Y-93924502D01*
G37*
G36*
X191886205Y-78278248D02*
G01*
X191903498Y-78289496D01*
X191981734Y-78373152D01*
X191946819Y-78413333D01*
X191927711Y-78405764D01*
X191848743Y-78315584D01*
X191828074Y-78268268D01*
X191886205Y-78278248D01*
G37*
G36*
X191676446Y-82739131D02*
G01*
X191622398Y-82854269D01*
X191546974Y-82925343D01*
X191490140Y-82926938D01*
X191523958Y-82786270D01*
X191564709Y-82718858D01*
X191652537Y-82693961D01*
X191676446Y-82739131D01*
G37*
G36*
X211219550Y-86215337D02*
G01*
X211244885Y-86253819D01*
X211214831Y-86270596D01*
X211082064Y-86260503D01*
X211042744Y-86230027D01*
X211133388Y-86209350D01*
X211219550Y-86215337D01*
G37*
G36*
X204431928Y-89256776D02*
G01*
X204443589Y-89307110D01*
X204431138Y-89317243D01*
X204330323Y-89307110D01*
X204317032Y-89281644D01*
X204386956Y-89250666D01*
X204431928Y-89256776D01*
G37*
G36*
X204338613Y-82744003D02*
G01*
X204363948Y-82782485D01*
X204333894Y-82799263D01*
X204201128Y-82789169D01*
X204161808Y-82758694D01*
X204252452Y-82738017D01*
X204338613Y-82744003D01*
G37*
G36*
X203962207Y-85863999D02*
G01*
X203956076Y-85908821D01*
X203905573Y-85920444D01*
X203895407Y-85908034D01*
X203905573Y-85807555D01*
X203931125Y-85794309D01*
X203962207Y-85863999D01*
G37*
G36*
X203792307Y-78751999D02*
G01*
X203786176Y-78796821D01*
X203735674Y-78808444D01*
X203725507Y-78796034D01*
X203735674Y-78695555D01*
X203761225Y-78682309D01*
X203792307Y-78751999D01*
G37*
G36*
X203707357Y-86033333D02*
G01*
X203701226Y-86078155D01*
X203650724Y-86089777D01*
X203640557Y-86077368D01*
X203650724Y-85976888D01*
X203676275Y-85963642D01*
X203707357Y-86033333D01*
G37*
G36*
X202393132Y-89680109D02*
G01*
X202404793Y-89730444D01*
X202392342Y-89740577D01*
X202291527Y-89730444D01*
X202278236Y-89704977D01*
X202348160Y-89673999D01*
X202393132Y-89680109D01*
G37*
G36*
X202053333Y-84430776D02*
G01*
X202064994Y-84481110D01*
X202052543Y-84491243D01*
X201951727Y-84481110D01*
X201938437Y-84455644D01*
X202008360Y-84424666D01*
X202053333Y-84430776D01*
G37*
G36*
X201668561Y-84339999D02*
G01*
X201662430Y-84384821D01*
X201611928Y-84396444D01*
X201601761Y-84384034D01*
X201611928Y-84283555D01*
X201637479Y-84270309D01*
X201668561Y-84339999D01*
G37*
G36*
X199374916Y-75195999D02*
G01*
X199368785Y-75240821D01*
X199318282Y-75252444D01*
X199308116Y-75240034D01*
X199318282Y-75139555D01*
X199343834Y-75126309D01*
X199374916Y-75195999D01*
G37*
G36*
X196361694Y-80112776D02*
G01*
X196373355Y-80163110D01*
X196360904Y-80173243D01*
X196260088Y-80163110D01*
X196246798Y-80137644D01*
X196316722Y-80106666D01*
X196361694Y-80112776D01*
G37*
G36*
X195885266Y-70489944D02*
G01*
X195879259Y-70575818D01*
X195840649Y-70601069D01*
X195823815Y-70571115D01*
X195833942Y-70438791D01*
X195864519Y-70399601D01*
X195885266Y-70489944D01*
G37*
G36*
X195205667Y-71167277D02*
G01*
X195199661Y-71253151D01*
X195161050Y-71278402D01*
X195144216Y-71248448D01*
X195154343Y-71116124D01*
X195184921Y-71076935D01*
X195205667Y-71167277D01*
G37*
G36*
X195087446Y-79858776D02*
G01*
X195099107Y-79909110D01*
X195086656Y-79919243D01*
X194985841Y-79909110D01*
X194972551Y-79883644D01*
X195042474Y-79852666D01*
X195087446Y-79858776D01*
G37*
G36*
X195002496Y-78250109D02*
G01*
X195014158Y-78300444D01*
X195001707Y-78310577D01*
X194900891Y-78300444D01*
X194887601Y-78274977D01*
X194957524Y-78243999D01*
X195002496Y-78250109D01*
G37*
G36*
X194362875Y-75873333D02*
G01*
X194356745Y-75918155D01*
X194306242Y-75929777D01*
X194296075Y-75917368D01*
X194306242Y-75816888D01*
X194331794Y-75803642D01*
X194362875Y-75873333D01*
G37*
G36*
X193003678Y-76804666D02*
G01*
X192997547Y-76849488D01*
X192947045Y-76861110D01*
X192936878Y-76848701D01*
X192947045Y-76748221D01*
X192972596Y-76734976D01*
X193003678Y-76804666D01*
G37*
G36*
X191899330Y-85271333D02*
G01*
X191893200Y-85316155D01*
X191842697Y-85327777D01*
X191832530Y-85315368D01*
X191842697Y-85214888D01*
X191868249Y-85201642D01*
X191899330Y-85271333D01*
G37*
G36*
X191899330Y-77905333D02*
G01*
X191893200Y-77950155D01*
X191842697Y-77961777D01*
X191832530Y-77949368D01*
X191842697Y-77848888D01*
X191868249Y-77835642D01*
X191899330Y-77905333D01*
G37*
G36*
X191814380Y-90351333D02*
G01*
X191808250Y-90396155D01*
X191757747Y-90407777D01*
X191747580Y-90395368D01*
X191757747Y-90294888D01*
X191783299Y-90281642D01*
X191814380Y-90351333D01*
G37*
G36*
X191519553Y-86462776D02*
G01*
X191531214Y-86513110D01*
X191518764Y-86523243D01*
X191417948Y-86513110D01*
X191404658Y-86487644D01*
X191474581Y-86456666D01*
X191519553Y-86462776D01*
G37*
G36*
X215175585Y-69988999D02*
G01*
X215133110Y-70031333D01*
X215090635Y-69988999D01*
X215133110Y-69946666D01*
X215175585Y-69988999D01*
G37*
G36*
X203792307Y-84043666D02*
G01*
X203749832Y-84085999D01*
X203707357Y-84043666D01*
X203749832Y-84001333D01*
X203792307Y-84043666D01*
G37*
G36*
X203792307Y-82773666D02*
G01*
X203749832Y-82815999D01*
X203707357Y-82773666D01*
X203749832Y-82731333D01*
X203792307Y-82773666D01*
G37*
G36*
X203792307Y-78963666D02*
G01*
X203749832Y-79005999D01*
X203707357Y-78963666D01*
X203749832Y-78921333D01*
X203792307Y-78963666D01*
G37*
G36*
X203707357Y-85821666D02*
G01*
X203664882Y-85863999D01*
X203622407Y-85821666D01*
X203664882Y-85779333D01*
X203707357Y-85821666D01*
G37*
G36*
X203367558Y-85990999D02*
G01*
X203325083Y-86033333D01*
X203282608Y-85990999D01*
X203325083Y-85948666D01*
X203367558Y-85990999D01*
G37*
G36*
X201413712Y-84043666D02*
G01*
X201371237Y-84085999D01*
X201328762Y-84043666D01*
X201371237Y-84001333D01*
X201413712Y-84043666D01*
G37*
G36*
X199205016Y-75322999D02*
G01*
X199162541Y-75365333D01*
X199120066Y-75322999D01*
X199162541Y-75280666D01*
X199205016Y-75322999D01*
G37*
G36*
X198185618Y-84043666D02*
G01*
X198143143Y-84085999D01*
X198100668Y-84043666D01*
X198143143Y-84001333D01*
X198185618Y-84043666D01*
G37*
G36*
X196996320Y-69396333D02*
G01*
X196953845Y-69438666D01*
X196911370Y-69396333D01*
X196953845Y-69353999D01*
X196996320Y-69396333D01*
G37*
G36*
X196741471Y-81164999D02*
G01*
X196698996Y-81207333D01*
X196656521Y-81164999D01*
X196698996Y-81122666D01*
X196741471Y-81164999D01*
G37*
G36*
X196571571Y-75746333D02*
G01*
X196529096Y-75788666D01*
X196486621Y-75746333D01*
X196529096Y-75703999D01*
X196571571Y-75746333D01*
G37*
G36*
X196146822Y-75746333D02*
G01*
X196104347Y-75788666D01*
X196061872Y-75746333D01*
X196104347Y-75703999D01*
X196146822Y-75746333D01*
G37*
G36*
X195722073Y-78878999D02*
G01*
X195679598Y-78921333D01*
X195637123Y-78878999D01*
X195679598Y-78836666D01*
X195722073Y-78878999D01*
G37*
G36*
X195467223Y-79217666D02*
G01*
X195424748Y-79259999D01*
X195382273Y-79217666D01*
X195424748Y-79175333D01*
X195467223Y-79217666D01*
G37*
G36*
X194872574Y-81503666D02*
G01*
X194830100Y-81545999D01*
X194787625Y-81503666D01*
X194830100Y-81461333D01*
X194872574Y-81503666D01*
G37*
G36*
X194617725Y-78624999D02*
G01*
X194575250Y-78667333D01*
X194532775Y-78624999D01*
X194575250Y-78582666D01*
X194617725Y-78624999D01*
G37*
G36*
X193428427Y-94288333D02*
G01*
X193385952Y-94330666D01*
X193343477Y-94288333D01*
X193385952Y-94245999D01*
X193428427Y-94288333D01*
G37*
G36*
X193173578Y-93949666D02*
G01*
X193131103Y-93991999D01*
X193088628Y-93949666D01*
X193131103Y-93907333D01*
X193173578Y-93949666D01*
G37*
G36*
X192493979Y-75661666D02*
G01*
X192451504Y-75703999D01*
X192409029Y-75661666D01*
X192451504Y-75619333D01*
X192493979Y-75661666D01*
G37*
G36*
X192324079Y-91240333D02*
G01*
X192281605Y-91282666D01*
X192239130Y-91240333D01*
X192281605Y-91197999D01*
X192324079Y-91240333D01*
G37*
G36*
X191899330Y-89970333D02*
G01*
X191856855Y-90012666D01*
X191814380Y-89970333D01*
X191856855Y-89927999D01*
X191899330Y-89970333D01*
G37*
G36*
X191644481Y-89292999D02*
G01*
X191602006Y-89335333D01*
X191559531Y-89292999D01*
X191602006Y-89250666D01*
X191644481Y-89292999D01*
G37*
G36*
X191559531Y-83789666D02*
G01*
X191517056Y-83831999D01*
X191474581Y-83789666D01*
X191517056Y-83747333D01*
X191559531Y-83789666D01*
G37*
G36*
X191559531Y-82519666D02*
G01*
X191517056Y-82561999D01*
X191474581Y-82519666D01*
X191517056Y-82477333D01*
X191559531Y-82519666D01*
G37*
%TD*%
%LPC*%
D11*
%TO.C,TP3V3+1*%
X168600000Y-88600000D03*
%TD*%
D12*
%TO.C,J3_IN1*%
X163700000Y-83000000D03*
D13*
X156700000Y-83000000D03*
%TD*%
D14*
%TO.C,J1*%
X257627500Y-78680000D03*
D15*
X254427500Y-78680000D03*
D16*
X257627500Y-87580000D03*
D15*
X254427500Y-87580000D03*
%TD*%
D12*
%TO.C,J4_OUT1*%
X163900000Y-72700000D03*
D13*
X156900000Y-72700000D03*
%TD*%
D11*
%TO.C,TP1V8+1*%
X185100000Y-86500000D03*
%TD*%
%TO.C,TP0V9+1*%
X229600000Y-75500000D03*
%TD*%
D17*
%TO.C,J3*%
X251150000Y-94200000D03*
X249880000Y-94200000D03*
X248610000Y-94200000D03*
X247340000Y-94200000D03*
X246070000Y-94200000D03*
X244800000Y-94200000D03*
X243530000Y-94200000D03*
X242260000Y-94200000D03*
X240990000Y-94200000D03*
D18*
X239720000Y-94200000D03*
%TD*%
D13*
%TO.C,U8*%
X160320000Y-94240000D03*
X160320000Y-91700000D03*
X162860000Y-94240000D03*
X162860000Y-91700000D03*
X165400000Y-94240000D03*
X165400000Y-91700000D03*
X167940000Y-94240000D03*
X167940000Y-91700000D03*
X170480000Y-94240000D03*
D19*
X170480000Y-91700000D03*
D13*
X173020000Y-94240000D03*
X173020000Y-91700000D03*
X175560000Y-94240000D03*
X175560000Y-91700000D03*
X178100000Y-94240000D03*
X178100000Y-91700000D03*
X180640000Y-94240000D03*
X180640000Y-91700000D03*
X183180000Y-94240000D03*
D19*
X183180000Y-91700000D03*
%TD*%
D17*
%TO.C,J2*%
X212580000Y-70300000D03*
X211310000Y-70300000D03*
X210040000Y-70300000D03*
X208770000Y-70300000D03*
X207500000Y-70300000D03*
X206230000Y-70300000D03*
X204960000Y-70300000D03*
X203690000Y-70300000D03*
X202420000Y-70300000D03*
D18*
X201150000Y-70300000D03*
%TD*%
D11*
%TO.C,TPOSC1*%
X222400000Y-73100000D03*
%TD*%
%LPD*%
M02*
