%TF.GenerationSoftware,KiCad,Pcbnew,9.0.3*%
%TF.CreationDate,2026-08-11T15:45:13+01:00*%
%TF.ProjectId,XMOS_with_audio_codec,584d4f53-5f77-4697-9468-5f617564696f,rev?*%
%TF.SameCoordinates,Original*%
%TF.FileFunction,Other,Comment*%
%FSLAX46Y46*%
G04 Gerber Fmt 4.6, Leading zero omitted, Abs format (unit mm)*
G04 Created by KiCad (PCBNEW 9.0.3) date 2026-08-11 15:45:13*
%MOMM*%
%LPD*%
G01*
G04 APERTURE LIST*
%ADD10C,0.150000*%
%ADD11C,0.100000*%
G04 APERTURE END LIST*
D10*
X263492319Y-88391905D02*
X262492319Y-88391905D01*
X263492319Y-87820477D02*
X262920890Y-88249048D01*
X262492319Y-87820477D02*
X263063747Y-88391905D01*
X263444700Y-87010953D02*
X263492319Y-87106191D01*
X263492319Y-87106191D02*
X263492319Y-87296667D01*
X263492319Y-87296667D02*
X263444700Y-87391905D01*
X263444700Y-87391905D02*
X263349461Y-87439524D01*
X263349461Y-87439524D02*
X262968509Y-87439524D01*
X262968509Y-87439524D02*
X262873271Y-87391905D01*
X262873271Y-87391905D02*
X262825652Y-87296667D01*
X262825652Y-87296667D02*
X262825652Y-87106191D01*
X262825652Y-87106191D02*
X262873271Y-87010953D01*
X262873271Y-87010953D02*
X262968509Y-86963334D01*
X262968509Y-86963334D02*
X263063747Y-86963334D01*
X263063747Y-86963334D02*
X263158985Y-87439524D01*
X263444700Y-86153810D02*
X263492319Y-86249048D01*
X263492319Y-86249048D02*
X263492319Y-86439524D01*
X263492319Y-86439524D02*
X263444700Y-86534762D01*
X263444700Y-86534762D02*
X263349461Y-86582381D01*
X263349461Y-86582381D02*
X262968509Y-86582381D01*
X262968509Y-86582381D02*
X262873271Y-86534762D01*
X262873271Y-86534762D02*
X262825652Y-86439524D01*
X262825652Y-86439524D02*
X262825652Y-86249048D01*
X262825652Y-86249048D02*
X262873271Y-86153810D01*
X262873271Y-86153810D02*
X262968509Y-86106191D01*
X262968509Y-86106191D02*
X263063747Y-86106191D01*
X263063747Y-86106191D02*
X263158985Y-86582381D01*
X262825652Y-85677619D02*
X263825652Y-85677619D01*
X262873271Y-85677619D02*
X262825652Y-85582381D01*
X262825652Y-85582381D02*
X262825652Y-85391905D01*
X262825652Y-85391905D02*
X262873271Y-85296667D01*
X262873271Y-85296667D02*
X262920890Y-85249048D01*
X262920890Y-85249048D02*
X263016128Y-85201429D01*
X263016128Y-85201429D02*
X263301842Y-85201429D01*
X263301842Y-85201429D02*
X263397080Y-85249048D01*
X263397080Y-85249048D02*
X263444700Y-85296667D01*
X263444700Y-85296667D02*
X263492319Y-85391905D01*
X263492319Y-85391905D02*
X263492319Y-85582381D01*
X263492319Y-85582381D02*
X263444700Y-85677619D01*
X263492319Y-83868095D02*
X263444700Y-83963333D01*
X263444700Y-83963333D02*
X263397080Y-84010952D01*
X263397080Y-84010952D02*
X263301842Y-84058571D01*
X263301842Y-84058571D02*
X263016128Y-84058571D01*
X263016128Y-84058571D02*
X262920890Y-84010952D01*
X262920890Y-84010952D02*
X262873271Y-83963333D01*
X262873271Y-83963333D02*
X262825652Y-83868095D01*
X262825652Y-83868095D02*
X262825652Y-83725238D01*
X262825652Y-83725238D02*
X262873271Y-83630000D01*
X262873271Y-83630000D02*
X262920890Y-83582381D01*
X262920890Y-83582381D02*
X263016128Y-83534762D01*
X263016128Y-83534762D02*
X263301842Y-83534762D01*
X263301842Y-83534762D02*
X263397080Y-83582381D01*
X263397080Y-83582381D02*
X263444700Y-83630000D01*
X263444700Y-83630000D02*
X263492319Y-83725238D01*
X263492319Y-83725238D02*
X263492319Y-83868095D01*
X262825652Y-82677619D02*
X263492319Y-82677619D01*
X262825652Y-83106190D02*
X263349461Y-83106190D01*
X263349461Y-83106190D02*
X263444700Y-83058571D01*
X263444700Y-83058571D02*
X263492319Y-82963333D01*
X263492319Y-82963333D02*
X263492319Y-82820476D01*
X263492319Y-82820476D02*
X263444700Y-82725238D01*
X263444700Y-82725238D02*
X263397080Y-82677619D01*
X262825652Y-82344285D02*
X262825652Y-81963333D01*
X262492319Y-82201428D02*
X263349461Y-82201428D01*
X263349461Y-82201428D02*
X263444700Y-82153809D01*
X263444700Y-82153809D02*
X263492319Y-82058571D01*
X263492319Y-82058571D02*
X263492319Y-81963333D01*
X262825652Y-80963332D02*
X262825652Y-80439523D01*
X262825652Y-80439523D02*
X263492319Y-80963332D01*
X263492319Y-80963332D02*
X263492319Y-80439523D01*
X263492319Y-79915713D02*
X263444700Y-80010951D01*
X263444700Y-80010951D02*
X263397080Y-80058570D01*
X263397080Y-80058570D02*
X263301842Y-80106189D01*
X263301842Y-80106189D02*
X263016128Y-80106189D01*
X263016128Y-80106189D02*
X262920890Y-80058570D01*
X262920890Y-80058570D02*
X262873271Y-80010951D01*
X262873271Y-80010951D02*
X262825652Y-79915713D01*
X262825652Y-79915713D02*
X262825652Y-79772856D01*
X262825652Y-79772856D02*
X262873271Y-79677618D01*
X262873271Y-79677618D02*
X262920890Y-79629999D01*
X262920890Y-79629999D02*
X263016128Y-79582380D01*
X263016128Y-79582380D02*
X263301842Y-79582380D01*
X263301842Y-79582380D02*
X263397080Y-79629999D01*
X263397080Y-79629999D02*
X263444700Y-79677618D01*
X263444700Y-79677618D02*
X263492319Y-79772856D01*
X263492319Y-79772856D02*
X263492319Y-79915713D01*
X262825652Y-79153808D02*
X263492319Y-79153808D01*
X262920890Y-79153808D02*
X262873271Y-79106189D01*
X262873271Y-79106189D02*
X262825652Y-79010951D01*
X262825652Y-79010951D02*
X262825652Y-78868094D01*
X262825652Y-78868094D02*
X262873271Y-78772856D01*
X262873271Y-78772856D02*
X262968509Y-78725237D01*
X262968509Y-78725237D02*
X263492319Y-78725237D01*
X263444700Y-77868094D02*
X263492319Y-77963332D01*
X263492319Y-77963332D02*
X263492319Y-78153808D01*
X263492319Y-78153808D02*
X263444700Y-78249046D01*
X263444700Y-78249046D02*
X263349461Y-78296665D01*
X263349461Y-78296665D02*
X262968509Y-78296665D01*
X262968509Y-78296665D02*
X262873271Y-78249046D01*
X262873271Y-78249046D02*
X262825652Y-78153808D01*
X262825652Y-78153808D02*
X262825652Y-77963332D01*
X262825652Y-77963332D02*
X262873271Y-77868094D01*
X262873271Y-77868094D02*
X262968509Y-77820475D01*
X262968509Y-77820475D02*
X263063747Y-77820475D01*
X263063747Y-77820475D02*
X263158985Y-78296665D01*
%TO.C,J1*%
D11*
X253177500Y-88055000D02*
X261827500Y-88055000D01*
X261827500Y-78205000D01*
X253177500Y-78205000D01*
X253177500Y-88055000D01*
%TD*%
M02*
