%TF.GenerationSoftware,KiCad,Pcbnew,9.0.3*%
%TF.CreationDate,2026-08-11T16:00:47+01:00*%
%TF.ProjectId,XMOS_with_audio_codec,584d4f53-5f77-4697-9468-5f617564696f,rev?*%
%TF.SameCoordinates,Original*%
%TF.FileFunction,Paste,Top*%
%TF.FilePolarity,Positive*%
%FSLAX46Y46*%
G04 Gerber Fmt 4.6, Leading zero omitted, Abs format (unit mm)*
G04 Created by KiCad (PCBNEW 9.0.3) date 2026-08-11 16:00:47*
%MOMM*%
%LPD*%
G01*
G04 APERTURE LIST*
G04 Aperture macros list*
%AMRoundRect*
0 Rectangle with rounded corners*
0 $1 Rounding radius*
0 $2 $3 $4 $5 $6 $7 $8 $9 X,Y pos of 4 corners*
0 Add a 4 corners polygon primitive as box body*
4,1,4,$2,$3,$4,$5,$6,$7,$8,$9,$2,$3,0*
0 Add four circle primitives for the rounded corners*
1,1,$1+$1,$2,$3*
1,1,$1+$1,$4,$5*
1,1,$1+$1,$6,$7*
1,1,$1+$1,$8,$9*
0 Add four rect primitives between the rounded corners*
20,1,$1+$1,$2,$3,$4,$5,0*
20,1,$1+$1,$4,$5,$6,$7,0*
20,1,$1+$1,$6,$7,$8,$9,0*
20,1,$1+$1,$8,$9,$2,$3,0*%
G04 Aperture macros list end*
%ADD10C,0.010000*%
%ADD11RoundRect,0.250000X-0.412500X-0.650000X0.412500X-0.650000X0.412500X0.650000X-0.412500X0.650000X0*%
%ADD12RoundRect,0.250000X0.625000X-0.400000X0.625000X0.400000X-0.625000X0.400000X-0.625000X-0.400000X0*%
%ADD13RoundRect,0.250000X0.412500X0.650000X-0.412500X0.650000X-0.412500X-0.650000X0.412500X-0.650000X0*%
%ADD14RoundRect,0.250000X0.400000X0.625000X-0.400000X0.625000X-0.400000X-0.625000X0.400000X-0.625000X0*%
%ADD15RoundRect,0.250000X0.650000X-0.412500X0.650000X0.412500X-0.650000X0.412500X-0.650000X-0.412500X0*%
%ADD16RoundRect,0.075000X-0.075000X0.075000X-0.075000X-0.075000X0.075000X-0.075000X0.075000X0.075000X0*%
%ADD17RoundRect,0.250000X-0.400000X-0.625000X0.400000X-0.625000X0.400000X0.625000X-0.400000X0.625000X0*%
%ADD18RoundRect,0.218750X0.218750X0.381250X-0.218750X0.381250X-0.218750X-0.381250X0.218750X-0.381250X0*%
%ADD19RoundRect,0.250000X-0.650000X0.412500X-0.650000X-0.412500X0.650000X-0.412500X0.650000X0.412500X0*%
%ADD20RoundRect,0.250000X-0.625000X0.400000X-0.625000X-0.400000X0.625000X-0.400000X0.625000X0.400000X0*%
%ADD21RoundRect,0.031250X0.093750X0.268750X-0.093750X0.268750X-0.093750X-0.268750X0.093750X-0.268750X0*%
%ADD22RoundRect,0.250000X-0.375000X-1.075000X0.375000X-1.075000X0.375000X1.075000X-0.375000X1.075000X0*%
%ADD23RoundRect,0.250000X-1.450000X0.312500X-1.450000X-0.312500X1.450000X-0.312500X1.450000X0.312500X0*%
%ADD24RoundRect,0.200000X0.250000X-0.200000X0.250000X0.200000X-0.250000X0.200000X-0.250000X-0.200000X0*%
%ADD25RoundRect,0.150000X-0.512500X-0.150000X0.512500X-0.150000X0.512500X0.150000X-0.512500X0.150000X0*%
%ADD26R,2.400000X2.550000*%
%ADD27R,2.900000X2.550000*%
%ADD28RoundRect,0.062500X0.312500X-0.062500X0.312500X0.062500X-0.312500X0.062500X-0.312500X-0.062500X0*%
%ADD29RoundRect,0.075000X0.300000X-0.075000X0.300000X0.075000X-0.300000X0.075000X-0.300000X-0.075000X0*%
%ADD30R,3.657600X3.657600*%
%ADD31R,0.660400X3.657600*%
%ADD32R,3.657600X0.660400*%
%ADD33R,0.457200X0.254000*%
%ADD34R,0.254000X0.457200*%
%ADD35R,0.500000X1.100000*%
%ADD36R,0.800000X0.800000*%
%ADD37RoundRect,0.100000X-0.637500X-0.100000X0.637500X-0.100000X0.637500X0.100000X-0.637500X0.100000X0*%
%ADD38RoundRect,0.147000X1.553000X0.343000X-1.553000X0.343000X-1.553000X-0.343000X1.553000X-0.343000X0*%
G04 APERTURE END LIST*
D10*
%TO.C,U3*%
X227598000Y-96276000D02*
X227600000Y-96276000D01*
X227603000Y-96277000D01*
X227605000Y-96277000D01*
X227608000Y-96278000D01*
X227610000Y-96279000D01*
X227613000Y-96280000D01*
X227615000Y-96282000D01*
X227617000Y-96283000D01*
X227619000Y-96285000D01*
X227621000Y-96286000D01*
X227623000Y-96288000D01*
X227625000Y-96290000D01*
X227627000Y-96292000D01*
X227629000Y-96294000D01*
X227630000Y-96296000D01*
X227632000Y-96298000D01*
X227633000Y-96300000D01*
X227635000Y-96302000D01*
X227636000Y-96305000D01*
X227637000Y-96307000D01*
X227638000Y-96310000D01*
X227638000Y-96312000D01*
X227639000Y-96315000D01*
X227639000Y-96317000D01*
X227640000Y-96320000D01*
X227640000Y-96322000D01*
X227640000Y-96325000D01*
X227640000Y-96475000D01*
X227640000Y-96478000D01*
X227640000Y-96480000D01*
X227639000Y-96483000D01*
X227639000Y-96485000D01*
X227638000Y-96488000D01*
X227638000Y-96490000D01*
X227637000Y-96493000D01*
X227636000Y-96495000D01*
X227635000Y-96498000D01*
X227633000Y-96500000D01*
X227632000Y-96502000D01*
X227630000Y-96504000D01*
X227629000Y-96506000D01*
X227627000Y-96508000D01*
X227625000Y-96510000D01*
X227623000Y-96512000D01*
X227621000Y-96514000D01*
X227619000Y-96515000D01*
X227617000Y-96517000D01*
X227615000Y-96518000D01*
X227613000Y-96520000D01*
X227610000Y-96521000D01*
X227608000Y-96522000D01*
X227605000Y-96523000D01*
X227603000Y-96523000D01*
X227600000Y-96524000D01*
X227598000Y-96524000D01*
X227595000Y-96525000D01*
X227593000Y-96525000D01*
X227590000Y-96525000D01*
X227030000Y-96525000D01*
X227027000Y-96525000D01*
X227025000Y-96525000D01*
X227022000Y-96524000D01*
X227020000Y-96524000D01*
X227017000Y-96523000D01*
X227015000Y-96523000D01*
X227012000Y-96522000D01*
X227010000Y-96521000D01*
X227007000Y-96520000D01*
X227005000Y-96518000D01*
X227003000Y-96517000D01*
X227001000Y-96515000D01*
X226999000Y-96514000D01*
X226997000Y-96512000D01*
X226995000Y-96510000D01*
X226993000Y-96508000D01*
X226991000Y-96506000D01*
X226990000Y-96504000D01*
X226988000Y-96502000D01*
X226987000Y-96500000D01*
X226985000Y-96498000D01*
X226984000Y-96495000D01*
X226983000Y-96493000D01*
X226982000Y-96490000D01*
X226982000Y-96488000D01*
X226981000Y-96485000D01*
X226981000Y-96483000D01*
X226980000Y-96480000D01*
X226980000Y-96478000D01*
X226980000Y-96475000D01*
X226980000Y-96325000D01*
X226980000Y-96322000D01*
X226980000Y-96320000D01*
X226981000Y-96317000D01*
X226981000Y-96315000D01*
X226982000Y-96312000D01*
X226982000Y-96310000D01*
X226983000Y-96307000D01*
X226984000Y-96305000D01*
X226985000Y-96302000D01*
X226987000Y-96300000D01*
X226988000Y-96298000D01*
X226990000Y-96296000D01*
X226991000Y-96294000D01*
X226993000Y-96292000D01*
X226995000Y-96290000D01*
X226997000Y-96288000D01*
X226999000Y-96286000D01*
X227001000Y-96285000D01*
X227003000Y-96283000D01*
X227005000Y-96282000D01*
X227007000Y-96280000D01*
X227010000Y-96279000D01*
X227012000Y-96278000D01*
X227015000Y-96277000D01*
X227017000Y-96277000D01*
X227020000Y-96276000D01*
X227022000Y-96276000D01*
X227025000Y-96275000D01*
X227027000Y-96275000D01*
X227030000Y-96275000D01*
X227590000Y-96275000D01*
X227593000Y-96275000D01*
X227595000Y-96275000D01*
X227598000Y-96276000D01*
G36*
X227598000Y-96276000D02*
G01*
X227600000Y-96276000D01*
X227603000Y-96277000D01*
X227605000Y-96277000D01*
X227608000Y-96278000D01*
X227610000Y-96279000D01*
X227613000Y-96280000D01*
X227615000Y-96282000D01*
X227617000Y-96283000D01*
X227619000Y-96285000D01*
X227621000Y-96286000D01*
X227623000Y-96288000D01*
X227625000Y-96290000D01*
X227627000Y-96292000D01*
X227629000Y-96294000D01*
X227630000Y-96296000D01*
X227632000Y-96298000D01*
X227633000Y-96300000D01*
X227635000Y-96302000D01*
X227636000Y-96305000D01*
X227637000Y-96307000D01*
X227638000Y-96310000D01*
X227638000Y-96312000D01*
X227639000Y-96315000D01*
X227639000Y-96317000D01*
X227640000Y-96320000D01*
X227640000Y-96322000D01*
X227640000Y-96325000D01*
X227640000Y-96475000D01*
X227640000Y-96478000D01*
X227640000Y-96480000D01*
X227639000Y-96483000D01*
X227639000Y-96485000D01*
X227638000Y-96488000D01*
X227638000Y-96490000D01*
X227637000Y-96493000D01*
X227636000Y-96495000D01*
X227635000Y-96498000D01*
X227633000Y-96500000D01*
X227632000Y-96502000D01*
X227630000Y-96504000D01*
X227629000Y-96506000D01*
X227627000Y-96508000D01*
X227625000Y-96510000D01*
X227623000Y-96512000D01*
X227621000Y-96514000D01*
X227619000Y-96515000D01*
X227617000Y-96517000D01*
X227615000Y-96518000D01*
X227613000Y-96520000D01*
X227610000Y-96521000D01*
X227608000Y-96522000D01*
X227605000Y-96523000D01*
X227603000Y-96523000D01*
X227600000Y-96524000D01*
X227598000Y-96524000D01*
X227595000Y-96525000D01*
X227593000Y-96525000D01*
X227590000Y-96525000D01*
X227030000Y-96525000D01*
X227027000Y-96525000D01*
X227025000Y-96525000D01*
X227022000Y-96524000D01*
X227020000Y-96524000D01*
X227017000Y-96523000D01*
X227015000Y-96523000D01*
X227012000Y-96522000D01*
X227010000Y-96521000D01*
X227007000Y-96520000D01*
X227005000Y-96518000D01*
X227003000Y-96517000D01*
X227001000Y-96515000D01*
X226999000Y-96514000D01*
X226997000Y-96512000D01*
X226995000Y-96510000D01*
X226993000Y-96508000D01*
X226991000Y-96506000D01*
X226990000Y-96504000D01*
X226988000Y-96502000D01*
X226987000Y-96500000D01*
X226985000Y-96498000D01*
X226984000Y-96495000D01*
X226983000Y-96493000D01*
X226982000Y-96490000D01*
X226982000Y-96488000D01*
X226981000Y-96485000D01*
X226981000Y-96483000D01*
X226980000Y-96480000D01*
X226980000Y-96478000D01*
X226980000Y-96475000D01*
X226980000Y-96325000D01*
X226980000Y-96322000D01*
X226980000Y-96320000D01*
X226981000Y-96317000D01*
X226981000Y-96315000D01*
X226982000Y-96312000D01*
X226982000Y-96310000D01*
X226983000Y-96307000D01*
X226984000Y-96305000D01*
X226985000Y-96302000D01*
X226987000Y-96300000D01*
X226988000Y-96298000D01*
X226990000Y-96296000D01*
X226991000Y-96294000D01*
X226993000Y-96292000D01*
X226995000Y-96290000D01*
X226997000Y-96288000D01*
X226999000Y-96286000D01*
X227001000Y-96285000D01*
X227003000Y-96283000D01*
X227005000Y-96282000D01*
X227007000Y-96280000D01*
X227010000Y-96279000D01*
X227012000Y-96278000D01*
X227015000Y-96277000D01*
X227017000Y-96277000D01*
X227020000Y-96276000D01*
X227022000Y-96276000D01*
X227025000Y-96275000D01*
X227027000Y-96275000D01*
X227030000Y-96275000D01*
X227590000Y-96275000D01*
X227593000Y-96275000D01*
X227595000Y-96275000D01*
X227598000Y-96276000D01*
G37*
X227598000Y-95776000D02*
X227600000Y-95776000D01*
X227603000Y-95777000D01*
X227605000Y-95777000D01*
X227608000Y-95778000D01*
X227610000Y-95779000D01*
X227613000Y-95780000D01*
X227615000Y-95782000D01*
X227617000Y-95783000D01*
X227619000Y-95785000D01*
X227621000Y-95786000D01*
X227623000Y-95788000D01*
X227625000Y-95790000D01*
X227627000Y-95792000D01*
X227629000Y-95794000D01*
X227630000Y-95796000D01*
X227632000Y-95798000D01*
X227633000Y-95800000D01*
X227635000Y-95802000D01*
X227636000Y-95805000D01*
X227637000Y-95807000D01*
X227638000Y-95810000D01*
X227638000Y-95812000D01*
X227639000Y-95815000D01*
X227639000Y-95817000D01*
X227640000Y-95820000D01*
X227640000Y-95822000D01*
X227640000Y-95825000D01*
X227640000Y-95975000D01*
X227640000Y-95978000D01*
X227640000Y-95980000D01*
X227639000Y-95983000D01*
X227639000Y-95985000D01*
X227638000Y-95988000D01*
X227638000Y-95990000D01*
X227637000Y-95993000D01*
X227636000Y-95995000D01*
X227635000Y-95998000D01*
X227633000Y-96000000D01*
X227632000Y-96002000D01*
X227630000Y-96004000D01*
X227629000Y-96006000D01*
X227627000Y-96008000D01*
X227625000Y-96010000D01*
X227623000Y-96012000D01*
X227621000Y-96014000D01*
X227619000Y-96015000D01*
X227617000Y-96017000D01*
X227615000Y-96018000D01*
X227613000Y-96020000D01*
X227610000Y-96021000D01*
X227608000Y-96022000D01*
X227605000Y-96023000D01*
X227603000Y-96023000D01*
X227600000Y-96024000D01*
X227598000Y-96024000D01*
X227595000Y-96025000D01*
X227593000Y-96025000D01*
X227590000Y-96025000D01*
X227030000Y-96025000D01*
X227027000Y-96025000D01*
X227025000Y-96025000D01*
X227022000Y-96024000D01*
X227020000Y-96024000D01*
X227017000Y-96023000D01*
X227015000Y-96023000D01*
X227012000Y-96022000D01*
X227010000Y-96021000D01*
X227007000Y-96020000D01*
X227005000Y-96018000D01*
X227003000Y-96017000D01*
X227001000Y-96015000D01*
X226999000Y-96014000D01*
X226997000Y-96012000D01*
X226995000Y-96010000D01*
X226993000Y-96008000D01*
X226991000Y-96006000D01*
X226990000Y-96004000D01*
X226988000Y-96002000D01*
X226987000Y-96000000D01*
X226985000Y-95998000D01*
X226984000Y-95995000D01*
X226983000Y-95993000D01*
X226982000Y-95990000D01*
X226982000Y-95988000D01*
X226981000Y-95985000D01*
X226981000Y-95983000D01*
X226980000Y-95980000D01*
X226980000Y-95978000D01*
X226980000Y-95975000D01*
X226980000Y-95825000D01*
X226980000Y-95822000D01*
X226980000Y-95820000D01*
X226981000Y-95817000D01*
X226981000Y-95815000D01*
X226982000Y-95812000D01*
X226982000Y-95810000D01*
X226983000Y-95807000D01*
X226984000Y-95805000D01*
X226985000Y-95802000D01*
X226987000Y-95800000D01*
X226988000Y-95798000D01*
X226990000Y-95796000D01*
X226991000Y-95794000D01*
X226993000Y-95792000D01*
X226995000Y-95790000D01*
X226997000Y-95788000D01*
X226999000Y-95786000D01*
X227001000Y-95785000D01*
X227003000Y-95783000D01*
X227005000Y-95782000D01*
X227007000Y-95780000D01*
X227010000Y-95779000D01*
X227012000Y-95778000D01*
X227015000Y-95777000D01*
X227017000Y-95777000D01*
X227020000Y-95776000D01*
X227022000Y-95776000D01*
X227025000Y-95775000D01*
X227027000Y-95775000D01*
X227030000Y-95775000D01*
X227590000Y-95775000D01*
X227593000Y-95775000D01*
X227595000Y-95775000D01*
X227598000Y-95776000D01*
G36*
X227598000Y-95776000D02*
G01*
X227600000Y-95776000D01*
X227603000Y-95777000D01*
X227605000Y-95777000D01*
X227608000Y-95778000D01*
X227610000Y-95779000D01*
X227613000Y-95780000D01*
X227615000Y-95782000D01*
X227617000Y-95783000D01*
X227619000Y-95785000D01*
X227621000Y-95786000D01*
X227623000Y-95788000D01*
X227625000Y-95790000D01*
X227627000Y-95792000D01*
X227629000Y-95794000D01*
X227630000Y-95796000D01*
X227632000Y-95798000D01*
X227633000Y-95800000D01*
X227635000Y-95802000D01*
X227636000Y-95805000D01*
X227637000Y-95807000D01*
X227638000Y-95810000D01*
X227638000Y-95812000D01*
X227639000Y-95815000D01*
X227639000Y-95817000D01*
X227640000Y-95820000D01*
X227640000Y-95822000D01*
X227640000Y-95825000D01*
X227640000Y-95975000D01*
X227640000Y-95978000D01*
X227640000Y-95980000D01*
X227639000Y-95983000D01*
X227639000Y-95985000D01*
X227638000Y-95988000D01*
X227638000Y-95990000D01*
X227637000Y-95993000D01*
X227636000Y-95995000D01*
X227635000Y-95998000D01*
X227633000Y-96000000D01*
X227632000Y-96002000D01*
X227630000Y-96004000D01*
X227629000Y-96006000D01*
X227627000Y-96008000D01*
X227625000Y-96010000D01*
X227623000Y-96012000D01*
X227621000Y-96014000D01*
X227619000Y-96015000D01*
X227617000Y-96017000D01*
X227615000Y-96018000D01*
X227613000Y-96020000D01*
X227610000Y-96021000D01*
X227608000Y-96022000D01*
X227605000Y-96023000D01*
X227603000Y-96023000D01*
X227600000Y-96024000D01*
X227598000Y-96024000D01*
X227595000Y-96025000D01*
X227593000Y-96025000D01*
X227590000Y-96025000D01*
X227030000Y-96025000D01*
X227027000Y-96025000D01*
X227025000Y-96025000D01*
X227022000Y-96024000D01*
X227020000Y-96024000D01*
X227017000Y-96023000D01*
X227015000Y-96023000D01*
X227012000Y-96022000D01*
X227010000Y-96021000D01*
X227007000Y-96020000D01*
X227005000Y-96018000D01*
X227003000Y-96017000D01*
X227001000Y-96015000D01*
X226999000Y-96014000D01*
X226997000Y-96012000D01*
X226995000Y-96010000D01*
X226993000Y-96008000D01*
X226991000Y-96006000D01*
X226990000Y-96004000D01*
X226988000Y-96002000D01*
X226987000Y-96000000D01*
X226985000Y-95998000D01*
X226984000Y-95995000D01*
X226983000Y-95993000D01*
X226982000Y-95990000D01*
X226982000Y-95988000D01*
X226981000Y-95985000D01*
X226981000Y-95983000D01*
X226980000Y-95980000D01*
X226980000Y-95978000D01*
X226980000Y-95975000D01*
X226980000Y-95825000D01*
X226980000Y-95822000D01*
X226980000Y-95820000D01*
X226981000Y-95817000D01*
X226981000Y-95815000D01*
X226982000Y-95812000D01*
X226982000Y-95810000D01*
X226983000Y-95807000D01*
X226984000Y-95805000D01*
X226985000Y-95802000D01*
X226987000Y-95800000D01*
X226988000Y-95798000D01*
X226990000Y-95796000D01*
X226991000Y-95794000D01*
X226993000Y-95792000D01*
X226995000Y-95790000D01*
X226997000Y-95788000D01*
X226999000Y-95786000D01*
X227001000Y-95785000D01*
X227003000Y-95783000D01*
X227005000Y-95782000D01*
X227007000Y-95780000D01*
X227010000Y-95779000D01*
X227012000Y-95778000D01*
X227015000Y-95777000D01*
X227017000Y-95777000D01*
X227020000Y-95776000D01*
X227022000Y-95776000D01*
X227025000Y-95775000D01*
X227027000Y-95775000D01*
X227030000Y-95775000D01*
X227590000Y-95775000D01*
X227593000Y-95775000D01*
X227595000Y-95775000D01*
X227598000Y-95776000D01*
G37*
X227598000Y-95276000D02*
X227600000Y-95276000D01*
X227603000Y-95277000D01*
X227605000Y-95277000D01*
X227608000Y-95278000D01*
X227610000Y-95279000D01*
X227613000Y-95280000D01*
X227615000Y-95282000D01*
X227617000Y-95283000D01*
X227619000Y-95285000D01*
X227621000Y-95286000D01*
X227623000Y-95288000D01*
X227625000Y-95290000D01*
X227627000Y-95292000D01*
X227629000Y-95294000D01*
X227630000Y-95296000D01*
X227632000Y-95298000D01*
X227633000Y-95300000D01*
X227635000Y-95302000D01*
X227636000Y-95305000D01*
X227637000Y-95307000D01*
X227638000Y-95310000D01*
X227638000Y-95312000D01*
X227639000Y-95315000D01*
X227639000Y-95317000D01*
X227640000Y-95320000D01*
X227640000Y-95322000D01*
X227640000Y-95325000D01*
X227640000Y-95475000D01*
X227640000Y-95478000D01*
X227640000Y-95480000D01*
X227639000Y-95483000D01*
X227639000Y-95485000D01*
X227638000Y-95488000D01*
X227638000Y-95490000D01*
X227637000Y-95493000D01*
X227636000Y-95495000D01*
X227635000Y-95498000D01*
X227633000Y-95500000D01*
X227632000Y-95502000D01*
X227630000Y-95504000D01*
X227629000Y-95506000D01*
X227627000Y-95508000D01*
X227625000Y-95510000D01*
X227623000Y-95512000D01*
X227621000Y-95514000D01*
X227619000Y-95515000D01*
X227617000Y-95517000D01*
X227615000Y-95518000D01*
X227613000Y-95520000D01*
X227610000Y-95521000D01*
X227608000Y-95522000D01*
X227605000Y-95523000D01*
X227603000Y-95523000D01*
X227600000Y-95524000D01*
X227598000Y-95524000D01*
X227595000Y-95525000D01*
X227593000Y-95525000D01*
X227590000Y-95525000D01*
X227030000Y-95525000D01*
X227027000Y-95525000D01*
X227025000Y-95525000D01*
X227022000Y-95524000D01*
X227020000Y-95524000D01*
X227017000Y-95523000D01*
X227015000Y-95523000D01*
X227012000Y-95522000D01*
X227010000Y-95521000D01*
X227007000Y-95520000D01*
X227005000Y-95518000D01*
X227003000Y-95517000D01*
X227001000Y-95515000D01*
X226999000Y-95514000D01*
X226997000Y-95512000D01*
X226995000Y-95510000D01*
X226993000Y-95508000D01*
X226991000Y-95506000D01*
X226990000Y-95504000D01*
X226988000Y-95502000D01*
X226987000Y-95500000D01*
X226985000Y-95498000D01*
X226984000Y-95495000D01*
X226983000Y-95493000D01*
X226982000Y-95490000D01*
X226982000Y-95488000D01*
X226981000Y-95485000D01*
X226981000Y-95483000D01*
X226980000Y-95480000D01*
X226980000Y-95478000D01*
X226980000Y-95475000D01*
X226980000Y-95325000D01*
X226980000Y-95322000D01*
X226980000Y-95320000D01*
X226981000Y-95317000D01*
X226981000Y-95315000D01*
X226982000Y-95312000D01*
X226982000Y-95310000D01*
X226983000Y-95307000D01*
X226984000Y-95305000D01*
X226985000Y-95302000D01*
X226987000Y-95300000D01*
X226988000Y-95298000D01*
X226990000Y-95296000D01*
X226991000Y-95294000D01*
X226993000Y-95292000D01*
X226995000Y-95290000D01*
X226997000Y-95288000D01*
X226999000Y-95286000D01*
X227001000Y-95285000D01*
X227003000Y-95283000D01*
X227005000Y-95282000D01*
X227007000Y-95280000D01*
X227010000Y-95279000D01*
X227012000Y-95278000D01*
X227015000Y-95277000D01*
X227017000Y-95277000D01*
X227020000Y-95276000D01*
X227022000Y-95276000D01*
X227025000Y-95275000D01*
X227027000Y-95275000D01*
X227030000Y-95275000D01*
X227590000Y-95275000D01*
X227593000Y-95275000D01*
X227595000Y-95275000D01*
X227598000Y-95276000D01*
G36*
X227598000Y-95276000D02*
G01*
X227600000Y-95276000D01*
X227603000Y-95277000D01*
X227605000Y-95277000D01*
X227608000Y-95278000D01*
X227610000Y-95279000D01*
X227613000Y-95280000D01*
X227615000Y-95282000D01*
X227617000Y-95283000D01*
X227619000Y-95285000D01*
X227621000Y-95286000D01*
X227623000Y-95288000D01*
X227625000Y-95290000D01*
X227627000Y-95292000D01*
X227629000Y-95294000D01*
X227630000Y-95296000D01*
X227632000Y-95298000D01*
X227633000Y-95300000D01*
X227635000Y-95302000D01*
X227636000Y-95305000D01*
X227637000Y-95307000D01*
X227638000Y-95310000D01*
X227638000Y-95312000D01*
X227639000Y-95315000D01*
X227639000Y-95317000D01*
X227640000Y-95320000D01*
X227640000Y-95322000D01*
X227640000Y-95325000D01*
X227640000Y-95475000D01*
X227640000Y-95478000D01*
X227640000Y-95480000D01*
X227639000Y-95483000D01*
X227639000Y-95485000D01*
X227638000Y-95488000D01*
X227638000Y-95490000D01*
X227637000Y-95493000D01*
X227636000Y-95495000D01*
X227635000Y-95498000D01*
X227633000Y-95500000D01*
X227632000Y-95502000D01*
X227630000Y-95504000D01*
X227629000Y-95506000D01*
X227627000Y-95508000D01*
X227625000Y-95510000D01*
X227623000Y-95512000D01*
X227621000Y-95514000D01*
X227619000Y-95515000D01*
X227617000Y-95517000D01*
X227615000Y-95518000D01*
X227613000Y-95520000D01*
X227610000Y-95521000D01*
X227608000Y-95522000D01*
X227605000Y-95523000D01*
X227603000Y-95523000D01*
X227600000Y-95524000D01*
X227598000Y-95524000D01*
X227595000Y-95525000D01*
X227593000Y-95525000D01*
X227590000Y-95525000D01*
X227030000Y-95525000D01*
X227027000Y-95525000D01*
X227025000Y-95525000D01*
X227022000Y-95524000D01*
X227020000Y-95524000D01*
X227017000Y-95523000D01*
X227015000Y-95523000D01*
X227012000Y-95522000D01*
X227010000Y-95521000D01*
X227007000Y-95520000D01*
X227005000Y-95518000D01*
X227003000Y-95517000D01*
X227001000Y-95515000D01*
X226999000Y-95514000D01*
X226997000Y-95512000D01*
X226995000Y-95510000D01*
X226993000Y-95508000D01*
X226991000Y-95506000D01*
X226990000Y-95504000D01*
X226988000Y-95502000D01*
X226987000Y-95500000D01*
X226985000Y-95498000D01*
X226984000Y-95495000D01*
X226983000Y-95493000D01*
X226982000Y-95490000D01*
X226982000Y-95488000D01*
X226981000Y-95485000D01*
X226981000Y-95483000D01*
X226980000Y-95480000D01*
X226980000Y-95478000D01*
X226980000Y-95475000D01*
X226980000Y-95325000D01*
X226980000Y-95322000D01*
X226980000Y-95320000D01*
X226981000Y-95317000D01*
X226981000Y-95315000D01*
X226982000Y-95312000D01*
X226982000Y-95310000D01*
X226983000Y-95307000D01*
X226984000Y-95305000D01*
X226985000Y-95302000D01*
X226987000Y-95300000D01*
X226988000Y-95298000D01*
X226990000Y-95296000D01*
X226991000Y-95294000D01*
X226993000Y-95292000D01*
X226995000Y-95290000D01*
X226997000Y-95288000D01*
X226999000Y-95286000D01*
X227001000Y-95285000D01*
X227003000Y-95283000D01*
X227005000Y-95282000D01*
X227007000Y-95280000D01*
X227010000Y-95279000D01*
X227012000Y-95278000D01*
X227015000Y-95277000D01*
X227017000Y-95277000D01*
X227020000Y-95276000D01*
X227022000Y-95276000D01*
X227025000Y-95275000D01*
X227027000Y-95275000D01*
X227030000Y-95275000D01*
X227590000Y-95275000D01*
X227593000Y-95275000D01*
X227595000Y-95275000D01*
X227598000Y-95276000D01*
G37*
X226738000Y-96276000D02*
X226740000Y-96276000D01*
X226743000Y-96277000D01*
X226745000Y-96277000D01*
X226748000Y-96278000D01*
X226750000Y-96279000D01*
X226753000Y-96280000D01*
X226755000Y-96282000D01*
X226757000Y-96283000D01*
X226759000Y-96285000D01*
X226761000Y-96286000D01*
X226763000Y-96288000D01*
X226765000Y-96290000D01*
X226767000Y-96292000D01*
X226769000Y-96294000D01*
X226770000Y-96296000D01*
X226772000Y-96298000D01*
X226773000Y-96300000D01*
X226775000Y-96302000D01*
X226776000Y-96305000D01*
X226777000Y-96307000D01*
X226778000Y-96310000D01*
X226778000Y-96312000D01*
X226779000Y-96315000D01*
X226779000Y-96317000D01*
X226780000Y-96320000D01*
X226780000Y-96322000D01*
X226780000Y-96325000D01*
X226780000Y-96475000D01*
X226780000Y-96478000D01*
X226780000Y-96480000D01*
X226779000Y-96483000D01*
X226779000Y-96485000D01*
X226778000Y-96488000D01*
X226778000Y-96490000D01*
X226777000Y-96493000D01*
X226776000Y-96495000D01*
X226775000Y-96498000D01*
X226773000Y-96500000D01*
X226772000Y-96502000D01*
X226770000Y-96504000D01*
X226769000Y-96506000D01*
X226767000Y-96508000D01*
X226765000Y-96510000D01*
X226763000Y-96512000D01*
X226761000Y-96514000D01*
X226759000Y-96515000D01*
X226757000Y-96517000D01*
X226755000Y-96518000D01*
X226753000Y-96520000D01*
X226750000Y-96521000D01*
X226748000Y-96522000D01*
X226745000Y-96523000D01*
X226743000Y-96523000D01*
X226740000Y-96524000D01*
X226738000Y-96524000D01*
X226735000Y-96525000D01*
X226733000Y-96525000D01*
X226730000Y-96525000D01*
X226170000Y-96525000D01*
X226167000Y-96525000D01*
X226165000Y-96525000D01*
X226162000Y-96524000D01*
X226160000Y-96524000D01*
X226157000Y-96523000D01*
X226155000Y-96523000D01*
X226152000Y-96522000D01*
X226150000Y-96521000D01*
X226147000Y-96520000D01*
X226145000Y-96518000D01*
X226143000Y-96517000D01*
X226141000Y-96515000D01*
X226139000Y-96514000D01*
X226137000Y-96512000D01*
X226135000Y-96510000D01*
X226133000Y-96508000D01*
X226131000Y-96506000D01*
X226130000Y-96504000D01*
X226128000Y-96502000D01*
X226127000Y-96500000D01*
X226125000Y-96498000D01*
X226124000Y-96495000D01*
X226123000Y-96493000D01*
X226122000Y-96490000D01*
X226122000Y-96488000D01*
X226121000Y-96485000D01*
X226121000Y-96483000D01*
X226120000Y-96480000D01*
X226120000Y-96478000D01*
X226120000Y-96475000D01*
X226120000Y-96325000D01*
X226120000Y-96322000D01*
X226120000Y-96320000D01*
X226121000Y-96317000D01*
X226121000Y-96315000D01*
X226122000Y-96312000D01*
X226122000Y-96310000D01*
X226123000Y-96307000D01*
X226124000Y-96305000D01*
X226125000Y-96302000D01*
X226127000Y-96300000D01*
X226128000Y-96298000D01*
X226130000Y-96296000D01*
X226131000Y-96294000D01*
X226133000Y-96292000D01*
X226135000Y-96290000D01*
X226137000Y-96288000D01*
X226139000Y-96286000D01*
X226141000Y-96285000D01*
X226143000Y-96283000D01*
X226145000Y-96282000D01*
X226147000Y-96280000D01*
X226150000Y-96279000D01*
X226152000Y-96278000D01*
X226155000Y-96277000D01*
X226157000Y-96277000D01*
X226160000Y-96276000D01*
X226162000Y-96276000D01*
X226165000Y-96275000D01*
X226167000Y-96275000D01*
X226170000Y-96275000D01*
X226730000Y-96275000D01*
X226733000Y-96275000D01*
X226735000Y-96275000D01*
X226738000Y-96276000D01*
G36*
X226738000Y-96276000D02*
G01*
X226740000Y-96276000D01*
X226743000Y-96277000D01*
X226745000Y-96277000D01*
X226748000Y-96278000D01*
X226750000Y-96279000D01*
X226753000Y-96280000D01*
X226755000Y-96282000D01*
X226757000Y-96283000D01*
X226759000Y-96285000D01*
X226761000Y-96286000D01*
X226763000Y-96288000D01*
X226765000Y-96290000D01*
X226767000Y-96292000D01*
X226769000Y-96294000D01*
X226770000Y-96296000D01*
X226772000Y-96298000D01*
X226773000Y-96300000D01*
X226775000Y-96302000D01*
X226776000Y-96305000D01*
X226777000Y-96307000D01*
X226778000Y-96310000D01*
X226778000Y-96312000D01*
X226779000Y-96315000D01*
X226779000Y-96317000D01*
X226780000Y-96320000D01*
X226780000Y-96322000D01*
X226780000Y-96325000D01*
X226780000Y-96475000D01*
X226780000Y-96478000D01*
X226780000Y-96480000D01*
X226779000Y-96483000D01*
X226779000Y-96485000D01*
X226778000Y-96488000D01*
X226778000Y-96490000D01*
X226777000Y-96493000D01*
X226776000Y-96495000D01*
X226775000Y-96498000D01*
X226773000Y-96500000D01*
X226772000Y-96502000D01*
X226770000Y-96504000D01*
X226769000Y-96506000D01*
X226767000Y-96508000D01*
X226765000Y-96510000D01*
X226763000Y-96512000D01*
X226761000Y-96514000D01*
X226759000Y-96515000D01*
X226757000Y-96517000D01*
X226755000Y-96518000D01*
X226753000Y-96520000D01*
X226750000Y-96521000D01*
X226748000Y-96522000D01*
X226745000Y-96523000D01*
X226743000Y-96523000D01*
X226740000Y-96524000D01*
X226738000Y-96524000D01*
X226735000Y-96525000D01*
X226733000Y-96525000D01*
X226730000Y-96525000D01*
X226170000Y-96525000D01*
X226167000Y-96525000D01*
X226165000Y-96525000D01*
X226162000Y-96524000D01*
X226160000Y-96524000D01*
X226157000Y-96523000D01*
X226155000Y-96523000D01*
X226152000Y-96522000D01*
X226150000Y-96521000D01*
X226147000Y-96520000D01*
X226145000Y-96518000D01*
X226143000Y-96517000D01*
X226141000Y-96515000D01*
X226139000Y-96514000D01*
X226137000Y-96512000D01*
X226135000Y-96510000D01*
X226133000Y-96508000D01*
X226131000Y-96506000D01*
X226130000Y-96504000D01*
X226128000Y-96502000D01*
X226127000Y-96500000D01*
X226125000Y-96498000D01*
X226124000Y-96495000D01*
X226123000Y-96493000D01*
X226122000Y-96490000D01*
X226122000Y-96488000D01*
X226121000Y-96485000D01*
X226121000Y-96483000D01*
X226120000Y-96480000D01*
X226120000Y-96478000D01*
X226120000Y-96475000D01*
X226120000Y-96325000D01*
X226120000Y-96322000D01*
X226120000Y-96320000D01*
X226121000Y-96317000D01*
X226121000Y-96315000D01*
X226122000Y-96312000D01*
X226122000Y-96310000D01*
X226123000Y-96307000D01*
X226124000Y-96305000D01*
X226125000Y-96302000D01*
X226127000Y-96300000D01*
X226128000Y-96298000D01*
X226130000Y-96296000D01*
X226131000Y-96294000D01*
X226133000Y-96292000D01*
X226135000Y-96290000D01*
X226137000Y-96288000D01*
X226139000Y-96286000D01*
X226141000Y-96285000D01*
X226143000Y-96283000D01*
X226145000Y-96282000D01*
X226147000Y-96280000D01*
X226150000Y-96279000D01*
X226152000Y-96278000D01*
X226155000Y-96277000D01*
X226157000Y-96277000D01*
X226160000Y-96276000D01*
X226162000Y-96276000D01*
X226165000Y-96275000D01*
X226167000Y-96275000D01*
X226170000Y-96275000D01*
X226730000Y-96275000D01*
X226733000Y-96275000D01*
X226735000Y-96275000D01*
X226738000Y-96276000D01*
G37*
X226738000Y-95776000D02*
X226740000Y-95776000D01*
X226743000Y-95777000D01*
X226745000Y-95777000D01*
X226748000Y-95778000D01*
X226750000Y-95779000D01*
X226753000Y-95780000D01*
X226755000Y-95782000D01*
X226757000Y-95783000D01*
X226759000Y-95785000D01*
X226761000Y-95786000D01*
X226763000Y-95788000D01*
X226765000Y-95790000D01*
X226767000Y-95792000D01*
X226769000Y-95794000D01*
X226770000Y-95796000D01*
X226772000Y-95798000D01*
X226773000Y-95800000D01*
X226775000Y-95802000D01*
X226776000Y-95805000D01*
X226777000Y-95807000D01*
X226778000Y-95810000D01*
X226778000Y-95812000D01*
X226779000Y-95815000D01*
X226779000Y-95817000D01*
X226780000Y-95820000D01*
X226780000Y-95822000D01*
X226780000Y-95825000D01*
X226780000Y-95975000D01*
X226780000Y-95978000D01*
X226780000Y-95980000D01*
X226779000Y-95983000D01*
X226779000Y-95985000D01*
X226778000Y-95988000D01*
X226778000Y-95990000D01*
X226777000Y-95993000D01*
X226776000Y-95995000D01*
X226775000Y-95998000D01*
X226773000Y-96000000D01*
X226772000Y-96002000D01*
X226770000Y-96004000D01*
X226769000Y-96006000D01*
X226767000Y-96008000D01*
X226765000Y-96010000D01*
X226763000Y-96012000D01*
X226761000Y-96014000D01*
X226759000Y-96015000D01*
X226757000Y-96017000D01*
X226755000Y-96018000D01*
X226753000Y-96020000D01*
X226750000Y-96021000D01*
X226748000Y-96022000D01*
X226745000Y-96023000D01*
X226743000Y-96023000D01*
X226740000Y-96024000D01*
X226738000Y-96024000D01*
X226735000Y-96025000D01*
X226733000Y-96025000D01*
X226730000Y-96025000D01*
X226170000Y-96025000D01*
X226167000Y-96025000D01*
X226165000Y-96025000D01*
X226162000Y-96024000D01*
X226160000Y-96024000D01*
X226157000Y-96023000D01*
X226155000Y-96023000D01*
X226152000Y-96022000D01*
X226150000Y-96021000D01*
X226147000Y-96020000D01*
X226145000Y-96018000D01*
X226143000Y-96017000D01*
X226141000Y-96015000D01*
X226139000Y-96014000D01*
X226137000Y-96012000D01*
X226135000Y-96010000D01*
X226133000Y-96008000D01*
X226131000Y-96006000D01*
X226130000Y-96004000D01*
X226128000Y-96002000D01*
X226127000Y-96000000D01*
X226125000Y-95998000D01*
X226124000Y-95995000D01*
X226123000Y-95993000D01*
X226122000Y-95990000D01*
X226122000Y-95988000D01*
X226121000Y-95985000D01*
X226121000Y-95983000D01*
X226120000Y-95980000D01*
X226120000Y-95978000D01*
X226120000Y-95975000D01*
X226120000Y-95825000D01*
X226120000Y-95822000D01*
X226120000Y-95820000D01*
X226121000Y-95817000D01*
X226121000Y-95815000D01*
X226122000Y-95812000D01*
X226122000Y-95810000D01*
X226123000Y-95807000D01*
X226124000Y-95805000D01*
X226125000Y-95802000D01*
X226127000Y-95800000D01*
X226128000Y-95798000D01*
X226130000Y-95796000D01*
X226131000Y-95794000D01*
X226133000Y-95792000D01*
X226135000Y-95790000D01*
X226137000Y-95788000D01*
X226139000Y-95786000D01*
X226141000Y-95785000D01*
X226143000Y-95783000D01*
X226145000Y-95782000D01*
X226147000Y-95780000D01*
X226150000Y-95779000D01*
X226152000Y-95778000D01*
X226155000Y-95777000D01*
X226157000Y-95777000D01*
X226160000Y-95776000D01*
X226162000Y-95776000D01*
X226165000Y-95775000D01*
X226167000Y-95775000D01*
X226170000Y-95775000D01*
X226730000Y-95775000D01*
X226733000Y-95775000D01*
X226735000Y-95775000D01*
X226738000Y-95776000D01*
G36*
X226738000Y-95776000D02*
G01*
X226740000Y-95776000D01*
X226743000Y-95777000D01*
X226745000Y-95777000D01*
X226748000Y-95778000D01*
X226750000Y-95779000D01*
X226753000Y-95780000D01*
X226755000Y-95782000D01*
X226757000Y-95783000D01*
X226759000Y-95785000D01*
X226761000Y-95786000D01*
X226763000Y-95788000D01*
X226765000Y-95790000D01*
X226767000Y-95792000D01*
X226769000Y-95794000D01*
X226770000Y-95796000D01*
X226772000Y-95798000D01*
X226773000Y-95800000D01*
X226775000Y-95802000D01*
X226776000Y-95805000D01*
X226777000Y-95807000D01*
X226778000Y-95810000D01*
X226778000Y-95812000D01*
X226779000Y-95815000D01*
X226779000Y-95817000D01*
X226780000Y-95820000D01*
X226780000Y-95822000D01*
X226780000Y-95825000D01*
X226780000Y-95975000D01*
X226780000Y-95978000D01*
X226780000Y-95980000D01*
X226779000Y-95983000D01*
X226779000Y-95985000D01*
X226778000Y-95988000D01*
X226778000Y-95990000D01*
X226777000Y-95993000D01*
X226776000Y-95995000D01*
X226775000Y-95998000D01*
X226773000Y-96000000D01*
X226772000Y-96002000D01*
X226770000Y-96004000D01*
X226769000Y-96006000D01*
X226767000Y-96008000D01*
X226765000Y-96010000D01*
X226763000Y-96012000D01*
X226761000Y-96014000D01*
X226759000Y-96015000D01*
X226757000Y-96017000D01*
X226755000Y-96018000D01*
X226753000Y-96020000D01*
X226750000Y-96021000D01*
X226748000Y-96022000D01*
X226745000Y-96023000D01*
X226743000Y-96023000D01*
X226740000Y-96024000D01*
X226738000Y-96024000D01*
X226735000Y-96025000D01*
X226733000Y-96025000D01*
X226730000Y-96025000D01*
X226170000Y-96025000D01*
X226167000Y-96025000D01*
X226165000Y-96025000D01*
X226162000Y-96024000D01*
X226160000Y-96024000D01*
X226157000Y-96023000D01*
X226155000Y-96023000D01*
X226152000Y-96022000D01*
X226150000Y-96021000D01*
X226147000Y-96020000D01*
X226145000Y-96018000D01*
X226143000Y-96017000D01*
X226141000Y-96015000D01*
X226139000Y-96014000D01*
X226137000Y-96012000D01*
X226135000Y-96010000D01*
X226133000Y-96008000D01*
X226131000Y-96006000D01*
X226130000Y-96004000D01*
X226128000Y-96002000D01*
X226127000Y-96000000D01*
X226125000Y-95998000D01*
X226124000Y-95995000D01*
X226123000Y-95993000D01*
X226122000Y-95990000D01*
X226122000Y-95988000D01*
X226121000Y-95985000D01*
X226121000Y-95983000D01*
X226120000Y-95980000D01*
X226120000Y-95978000D01*
X226120000Y-95975000D01*
X226120000Y-95825000D01*
X226120000Y-95822000D01*
X226120000Y-95820000D01*
X226121000Y-95817000D01*
X226121000Y-95815000D01*
X226122000Y-95812000D01*
X226122000Y-95810000D01*
X226123000Y-95807000D01*
X226124000Y-95805000D01*
X226125000Y-95802000D01*
X226127000Y-95800000D01*
X226128000Y-95798000D01*
X226130000Y-95796000D01*
X226131000Y-95794000D01*
X226133000Y-95792000D01*
X226135000Y-95790000D01*
X226137000Y-95788000D01*
X226139000Y-95786000D01*
X226141000Y-95785000D01*
X226143000Y-95783000D01*
X226145000Y-95782000D01*
X226147000Y-95780000D01*
X226150000Y-95779000D01*
X226152000Y-95778000D01*
X226155000Y-95777000D01*
X226157000Y-95777000D01*
X226160000Y-95776000D01*
X226162000Y-95776000D01*
X226165000Y-95775000D01*
X226167000Y-95775000D01*
X226170000Y-95775000D01*
X226730000Y-95775000D01*
X226733000Y-95775000D01*
X226735000Y-95775000D01*
X226738000Y-95776000D01*
G37*
X226738000Y-95276000D02*
X226740000Y-95276000D01*
X226743000Y-95277000D01*
X226745000Y-95277000D01*
X226748000Y-95278000D01*
X226750000Y-95279000D01*
X226753000Y-95280000D01*
X226755000Y-95282000D01*
X226757000Y-95283000D01*
X226759000Y-95285000D01*
X226761000Y-95286000D01*
X226763000Y-95288000D01*
X226765000Y-95290000D01*
X226767000Y-95292000D01*
X226769000Y-95294000D01*
X226770000Y-95296000D01*
X226772000Y-95298000D01*
X226773000Y-95300000D01*
X226775000Y-95302000D01*
X226776000Y-95305000D01*
X226777000Y-95307000D01*
X226778000Y-95310000D01*
X226778000Y-95312000D01*
X226779000Y-95315000D01*
X226779000Y-95317000D01*
X226780000Y-95320000D01*
X226780000Y-95322000D01*
X226780000Y-95325000D01*
X226780000Y-95475000D01*
X226780000Y-95478000D01*
X226780000Y-95480000D01*
X226779000Y-95483000D01*
X226779000Y-95485000D01*
X226778000Y-95488000D01*
X226778000Y-95490000D01*
X226777000Y-95493000D01*
X226776000Y-95495000D01*
X226775000Y-95498000D01*
X226773000Y-95500000D01*
X226772000Y-95502000D01*
X226770000Y-95504000D01*
X226769000Y-95506000D01*
X226767000Y-95508000D01*
X226765000Y-95510000D01*
X226763000Y-95512000D01*
X226761000Y-95514000D01*
X226759000Y-95515000D01*
X226757000Y-95517000D01*
X226755000Y-95518000D01*
X226753000Y-95520000D01*
X226750000Y-95521000D01*
X226748000Y-95522000D01*
X226745000Y-95523000D01*
X226743000Y-95523000D01*
X226740000Y-95524000D01*
X226738000Y-95524000D01*
X226735000Y-95525000D01*
X226733000Y-95525000D01*
X226730000Y-95525000D01*
X226170000Y-95525000D01*
X226167000Y-95525000D01*
X226165000Y-95525000D01*
X226162000Y-95524000D01*
X226160000Y-95524000D01*
X226157000Y-95523000D01*
X226155000Y-95523000D01*
X226152000Y-95522000D01*
X226150000Y-95521000D01*
X226147000Y-95520000D01*
X226145000Y-95518000D01*
X226143000Y-95517000D01*
X226141000Y-95515000D01*
X226139000Y-95514000D01*
X226137000Y-95512000D01*
X226135000Y-95510000D01*
X226133000Y-95508000D01*
X226131000Y-95506000D01*
X226130000Y-95504000D01*
X226128000Y-95502000D01*
X226127000Y-95500000D01*
X226125000Y-95498000D01*
X226124000Y-95495000D01*
X226123000Y-95493000D01*
X226122000Y-95490000D01*
X226122000Y-95488000D01*
X226121000Y-95485000D01*
X226121000Y-95483000D01*
X226120000Y-95480000D01*
X226120000Y-95478000D01*
X226120000Y-95475000D01*
X226120000Y-95325000D01*
X226120000Y-95322000D01*
X226120000Y-95320000D01*
X226121000Y-95317000D01*
X226121000Y-95315000D01*
X226122000Y-95312000D01*
X226122000Y-95310000D01*
X226123000Y-95307000D01*
X226124000Y-95305000D01*
X226125000Y-95302000D01*
X226127000Y-95300000D01*
X226128000Y-95298000D01*
X226130000Y-95296000D01*
X226131000Y-95294000D01*
X226133000Y-95292000D01*
X226135000Y-95290000D01*
X226137000Y-95288000D01*
X226139000Y-95286000D01*
X226141000Y-95285000D01*
X226143000Y-95283000D01*
X226145000Y-95282000D01*
X226147000Y-95280000D01*
X226150000Y-95279000D01*
X226152000Y-95278000D01*
X226155000Y-95277000D01*
X226157000Y-95277000D01*
X226160000Y-95276000D01*
X226162000Y-95276000D01*
X226165000Y-95275000D01*
X226167000Y-95275000D01*
X226170000Y-95275000D01*
X226730000Y-95275000D01*
X226733000Y-95275000D01*
X226735000Y-95275000D01*
X226738000Y-95276000D01*
G36*
X226738000Y-95276000D02*
G01*
X226740000Y-95276000D01*
X226743000Y-95277000D01*
X226745000Y-95277000D01*
X226748000Y-95278000D01*
X226750000Y-95279000D01*
X226753000Y-95280000D01*
X226755000Y-95282000D01*
X226757000Y-95283000D01*
X226759000Y-95285000D01*
X226761000Y-95286000D01*
X226763000Y-95288000D01*
X226765000Y-95290000D01*
X226767000Y-95292000D01*
X226769000Y-95294000D01*
X226770000Y-95296000D01*
X226772000Y-95298000D01*
X226773000Y-95300000D01*
X226775000Y-95302000D01*
X226776000Y-95305000D01*
X226777000Y-95307000D01*
X226778000Y-95310000D01*
X226778000Y-95312000D01*
X226779000Y-95315000D01*
X226779000Y-95317000D01*
X226780000Y-95320000D01*
X226780000Y-95322000D01*
X226780000Y-95325000D01*
X226780000Y-95475000D01*
X226780000Y-95478000D01*
X226780000Y-95480000D01*
X226779000Y-95483000D01*
X226779000Y-95485000D01*
X226778000Y-95488000D01*
X226778000Y-95490000D01*
X226777000Y-95493000D01*
X226776000Y-95495000D01*
X226775000Y-95498000D01*
X226773000Y-95500000D01*
X226772000Y-95502000D01*
X226770000Y-95504000D01*
X226769000Y-95506000D01*
X226767000Y-95508000D01*
X226765000Y-95510000D01*
X226763000Y-95512000D01*
X226761000Y-95514000D01*
X226759000Y-95515000D01*
X226757000Y-95517000D01*
X226755000Y-95518000D01*
X226753000Y-95520000D01*
X226750000Y-95521000D01*
X226748000Y-95522000D01*
X226745000Y-95523000D01*
X226743000Y-95523000D01*
X226740000Y-95524000D01*
X226738000Y-95524000D01*
X226735000Y-95525000D01*
X226733000Y-95525000D01*
X226730000Y-95525000D01*
X226170000Y-95525000D01*
X226167000Y-95525000D01*
X226165000Y-95525000D01*
X226162000Y-95524000D01*
X226160000Y-95524000D01*
X226157000Y-95523000D01*
X226155000Y-95523000D01*
X226152000Y-95522000D01*
X226150000Y-95521000D01*
X226147000Y-95520000D01*
X226145000Y-95518000D01*
X226143000Y-95517000D01*
X226141000Y-95515000D01*
X226139000Y-95514000D01*
X226137000Y-95512000D01*
X226135000Y-95510000D01*
X226133000Y-95508000D01*
X226131000Y-95506000D01*
X226130000Y-95504000D01*
X226128000Y-95502000D01*
X226127000Y-95500000D01*
X226125000Y-95498000D01*
X226124000Y-95495000D01*
X226123000Y-95493000D01*
X226122000Y-95490000D01*
X226122000Y-95488000D01*
X226121000Y-95485000D01*
X226121000Y-95483000D01*
X226120000Y-95480000D01*
X226120000Y-95478000D01*
X226120000Y-95475000D01*
X226120000Y-95325000D01*
X226120000Y-95322000D01*
X226120000Y-95320000D01*
X226121000Y-95317000D01*
X226121000Y-95315000D01*
X226122000Y-95312000D01*
X226122000Y-95310000D01*
X226123000Y-95307000D01*
X226124000Y-95305000D01*
X226125000Y-95302000D01*
X226127000Y-95300000D01*
X226128000Y-95298000D01*
X226130000Y-95296000D01*
X226131000Y-95294000D01*
X226133000Y-95292000D01*
X226135000Y-95290000D01*
X226137000Y-95288000D01*
X226139000Y-95286000D01*
X226141000Y-95285000D01*
X226143000Y-95283000D01*
X226145000Y-95282000D01*
X226147000Y-95280000D01*
X226150000Y-95279000D01*
X226152000Y-95278000D01*
X226155000Y-95277000D01*
X226157000Y-95277000D01*
X226160000Y-95276000D01*
X226162000Y-95276000D01*
X226165000Y-95275000D01*
X226167000Y-95275000D01*
X226170000Y-95275000D01*
X226730000Y-95275000D01*
X226733000Y-95275000D01*
X226735000Y-95275000D01*
X226738000Y-95276000D01*
G37*
X225878000Y-96276000D02*
X225880000Y-96276000D01*
X225883000Y-96277000D01*
X225885000Y-96277000D01*
X225888000Y-96278000D01*
X225890000Y-96279000D01*
X225893000Y-96280000D01*
X225895000Y-96282000D01*
X225897000Y-96283000D01*
X225899000Y-96285000D01*
X225901000Y-96286000D01*
X225903000Y-96288000D01*
X225905000Y-96290000D01*
X225907000Y-96292000D01*
X225909000Y-96294000D01*
X225910000Y-96296000D01*
X225912000Y-96298000D01*
X225913000Y-96300000D01*
X225915000Y-96302000D01*
X225916000Y-96305000D01*
X225917000Y-96307000D01*
X225918000Y-96310000D01*
X225918000Y-96312000D01*
X225919000Y-96315000D01*
X225919000Y-96317000D01*
X225920000Y-96320000D01*
X225920000Y-96322000D01*
X225920000Y-96325000D01*
X225920000Y-96475000D01*
X225920000Y-96478000D01*
X225920000Y-96480000D01*
X225919000Y-96483000D01*
X225919000Y-96485000D01*
X225918000Y-96488000D01*
X225918000Y-96490000D01*
X225917000Y-96493000D01*
X225916000Y-96495000D01*
X225915000Y-96498000D01*
X225913000Y-96500000D01*
X225912000Y-96502000D01*
X225910000Y-96504000D01*
X225909000Y-96506000D01*
X225907000Y-96508000D01*
X225905000Y-96510000D01*
X225903000Y-96512000D01*
X225901000Y-96514000D01*
X225899000Y-96515000D01*
X225897000Y-96517000D01*
X225895000Y-96518000D01*
X225893000Y-96520000D01*
X225890000Y-96521000D01*
X225888000Y-96522000D01*
X225885000Y-96523000D01*
X225883000Y-96523000D01*
X225880000Y-96524000D01*
X225878000Y-96524000D01*
X225875000Y-96525000D01*
X225873000Y-96525000D01*
X225870000Y-96525000D01*
X225310000Y-96525000D01*
X225307000Y-96525000D01*
X225305000Y-96525000D01*
X225302000Y-96524000D01*
X225300000Y-96524000D01*
X225297000Y-96523000D01*
X225295000Y-96523000D01*
X225292000Y-96522000D01*
X225290000Y-96521000D01*
X225287000Y-96520000D01*
X225285000Y-96518000D01*
X225283000Y-96517000D01*
X225281000Y-96515000D01*
X225279000Y-96514000D01*
X225277000Y-96512000D01*
X225275000Y-96510000D01*
X225273000Y-96508000D01*
X225271000Y-96506000D01*
X225270000Y-96504000D01*
X225268000Y-96502000D01*
X225267000Y-96500000D01*
X225265000Y-96498000D01*
X225264000Y-96495000D01*
X225263000Y-96493000D01*
X225262000Y-96490000D01*
X225262000Y-96488000D01*
X225261000Y-96485000D01*
X225261000Y-96483000D01*
X225260000Y-96480000D01*
X225260000Y-96478000D01*
X225260000Y-96475000D01*
X225260000Y-96325000D01*
X225260000Y-96322000D01*
X225260000Y-96320000D01*
X225261000Y-96317000D01*
X225261000Y-96315000D01*
X225262000Y-96312000D01*
X225262000Y-96310000D01*
X225263000Y-96307000D01*
X225264000Y-96305000D01*
X225265000Y-96302000D01*
X225267000Y-96300000D01*
X225268000Y-96298000D01*
X225270000Y-96296000D01*
X225271000Y-96294000D01*
X225273000Y-96292000D01*
X225275000Y-96290000D01*
X225277000Y-96288000D01*
X225279000Y-96286000D01*
X225281000Y-96285000D01*
X225283000Y-96283000D01*
X225285000Y-96282000D01*
X225287000Y-96280000D01*
X225290000Y-96279000D01*
X225292000Y-96278000D01*
X225295000Y-96277000D01*
X225297000Y-96277000D01*
X225300000Y-96276000D01*
X225302000Y-96276000D01*
X225305000Y-96275000D01*
X225307000Y-96275000D01*
X225310000Y-96275000D01*
X225870000Y-96275000D01*
X225873000Y-96275000D01*
X225875000Y-96275000D01*
X225878000Y-96276000D01*
G36*
X225878000Y-96276000D02*
G01*
X225880000Y-96276000D01*
X225883000Y-96277000D01*
X225885000Y-96277000D01*
X225888000Y-96278000D01*
X225890000Y-96279000D01*
X225893000Y-96280000D01*
X225895000Y-96282000D01*
X225897000Y-96283000D01*
X225899000Y-96285000D01*
X225901000Y-96286000D01*
X225903000Y-96288000D01*
X225905000Y-96290000D01*
X225907000Y-96292000D01*
X225909000Y-96294000D01*
X225910000Y-96296000D01*
X225912000Y-96298000D01*
X225913000Y-96300000D01*
X225915000Y-96302000D01*
X225916000Y-96305000D01*
X225917000Y-96307000D01*
X225918000Y-96310000D01*
X225918000Y-96312000D01*
X225919000Y-96315000D01*
X225919000Y-96317000D01*
X225920000Y-96320000D01*
X225920000Y-96322000D01*
X225920000Y-96325000D01*
X225920000Y-96475000D01*
X225920000Y-96478000D01*
X225920000Y-96480000D01*
X225919000Y-96483000D01*
X225919000Y-96485000D01*
X225918000Y-96488000D01*
X225918000Y-96490000D01*
X225917000Y-96493000D01*
X225916000Y-96495000D01*
X225915000Y-96498000D01*
X225913000Y-96500000D01*
X225912000Y-96502000D01*
X225910000Y-96504000D01*
X225909000Y-96506000D01*
X225907000Y-96508000D01*
X225905000Y-96510000D01*
X225903000Y-96512000D01*
X225901000Y-96514000D01*
X225899000Y-96515000D01*
X225897000Y-96517000D01*
X225895000Y-96518000D01*
X225893000Y-96520000D01*
X225890000Y-96521000D01*
X225888000Y-96522000D01*
X225885000Y-96523000D01*
X225883000Y-96523000D01*
X225880000Y-96524000D01*
X225878000Y-96524000D01*
X225875000Y-96525000D01*
X225873000Y-96525000D01*
X225870000Y-96525000D01*
X225310000Y-96525000D01*
X225307000Y-96525000D01*
X225305000Y-96525000D01*
X225302000Y-96524000D01*
X225300000Y-96524000D01*
X225297000Y-96523000D01*
X225295000Y-96523000D01*
X225292000Y-96522000D01*
X225290000Y-96521000D01*
X225287000Y-96520000D01*
X225285000Y-96518000D01*
X225283000Y-96517000D01*
X225281000Y-96515000D01*
X225279000Y-96514000D01*
X225277000Y-96512000D01*
X225275000Y-96510000D01*
X225273000Y-96508000D01*
X225271000Y-96506000D01*
X225270000Y-96504000D01*
X225268000Y-96502000D01*
X225267000Y-96500000D01*
X225265000Y-96498000D01*
X225264000Y-96495000D01*
X225263000Y-96493000D01*
X225262000Y-96490000D01*
X225262000Y-96488000D01*
X225261000Y-96485000D01*
X225261000Y-96483000D01*
X225260000Y-96480000D01*
X225260000Y-96478000D01*
X225260000Y-96475000D01*
X225260000Y-96325000D01*
X225260000Y-96322000D01*
X225260000Y-96320000D01*
X225261000Y-96317000D01*
X225261000Y-96315000D01*
X225262000Y-96312000D01*
X225262000Y-96310000D01*
X225263000Y-96307000D01*
X225264000Y-96305000D01*
X225265000Y-96302000D01*
X225267000Y-96300000D01*
X225268000Y-96298000D01*
X225270000Y-96296000D01*
X225271000Y-96294000D01*
X225273000Y-96292000D01*
X225275000Y-96290000D01*
X225277000Y-96288000D01*
X225279000Y-96286000D01*
X225281000Y-96285000D01*
X225283000Y-96283000D01*
X225285000Y-96282000D01*
X225287000Y-96280000D01*
X225290000Y-96279000D01*
X225292000Y-96278000D01*
X225295000Y-96277000D01*
X225297000Y-96277000D01*
X225300000Y-96276000D01*
X225302000Y-96276000D01*
X225305000Y-96275000D01*
X225307000Y-96275000D01*
X225310000Y-96275000D01*
X225870000Y-96275000D01*
X225873000Y-96275000D01*
X225875000Y-96275000D01*
X225878000Y-96276000D01*
G37*
X225878000Y-95776000D02*
X225880000Y-95776000D01*
X225883000Y-95777000D01*
X225885000Y-95777000D01*
X225888000Y-95778000D01*
X225890000Y-95779000D01*
X225893000Y-95780000D01*
X225895000Y-95782000D01*
X225897000Y-95783000D01*
X225899000Y-95785000D01*
X225901000Y-95786000D01*
X225903000Y-95788000D01*
X225905000Y-95790000D01*
X225907000Y-95792000D01*
X225909000Y-95794000D01*
X225910000Y-95796000D01*
X225912000Y-95798000D01*
X225913000Y-95800000D01*
X225915000Y-95802000D01*
X225916000Y-95805000D01*
X225917000Y-95807000D01*
X225918000Y-95810000D01*
X225918000Y-95812000D01*
X225919000Y-95815000D01*
X225919000Y-95817000D01*
X225920000Y-95820000D01*
X225920000Y-95822000D01*
X225920000Y-95825000D01*
X225920000Y-95975000D01*
X225920000Y-95978000D01*
X225920000Y-95980000D01*
X225919000Y-95983000D01*
X225919000Y-95985000D01*
X225918000Y-95988000D01*
X225918000Y-95990000D01*
X225917000Y-95993000D01*
X225916000Y-95995000D01*
X225915000Y-95998000D01*
X225913000Y-96000000D01*
X225912000Y-96002000D01*
X225910000Y-96004000D01*
X225909000Y-96006000D01*
X225907000Y-96008000D01*
X225905000Y-96010000D01*
X225903000Y-96012000D01*
X225901000Y-96014000D01*
X225899000Y-96015000D01*
X225897000Y-96017000D01*
X225895000Y-96018000D01*
X225893000Y-96020000D01*
X225890000Y-96021000D01*
X225888000Y-96022000D01*
X225885000Y-96023000D01*
X225883000Y-96023000D01*
X225880000Y-96024000D01*
X225878000Y-96024000D01*
X225875000Y-96025000D01*
X225873000Y-96025000D01*
X225870000Y-96025000D01*
X225310000Y-96025000D01*
X225307000Y-96025000D01*
X225305000Y-96025000D01*
X225302000Y-96024000D01*
X225300000Y-96024000D01*
X225297000Y-96023000D01*
X225295000Y-96023000D01*
X225292000Y-96022000D01*
X225290000Y-96021000D01*
X225287000Y-96020000D01*
X225285000Y-96018000D01*
X225283000Y-96017000D01*
X225281000Y-96015000D01*
X225279000Y-96014000D01*
X225277000Y-96012000D01*
X225275000Y-96010000D01*
X225273000Y-96008000D01*
X225271000Y-96006000D01*
X225270000Y-96004000D01*
X225268000Y-96002000D01*
X225267000Y-96000000D01*
X225265000Y-95998000D01*
X225264000Y-95995000D01*
X225263000Y-95993000D01*
X225262000Y-95990000D01*
X225262000Y-95988000D01*
X225261000Y-95985000D01*
X225261000Y-95983000D01*
X225260000Y-95980000D01*
X225260000Y-95978000D01*
X225260000Y-95975000D01*
X225260000Y-95825000D01*
X225260000Y-95822000D01*
X225260000Y-95820000D01*
X225261000Y-95817000D01*
X225261000Y-95815000D01*
X225262000Y-95812000D01*
X225262000Y-95810000D01*
X225263000Y-95807000D01*
X225264000Y-95805000D01*
X225265000Y-95802000D01*
X225267000Y-95800000D01*
X225268000Y-95798000D01*
X225270000Y-95796000D01*
X225271000Y-95794000D01*
X225273000Y-95792000D01*
X225275000Y-95790000D01*
X225277000Y-95788000D01*
X225279000Y-95786000D01*
X225281000Y-95785000D01*
X225283000Y-95783000D01*
X225285000Y-95782000D01*
X225287000Y-95780000D01*
X225290000Y-95779000D01*
X225292000Y-95778000D01*
X225295000Y-95777000D01*
X225297000Y-95777000D01*
X225300000Y-95776000D01*
X225302000Y-95776000D01*
X225305000Y-95775000D01*
X225307000Y-95775000D01*
X225310000Y-95775000D01*
X225870000Y-95775000D01*
X225873000Y-95775000D01*
X225875000Y-95775000D01*
X225878000Y-95776000D01*
G36*
X225878000Y-95776000D02*
G01*
X225880000Y-95776000D01*
X225883000Y-95777000D01*
X225885000Y-95777000D01*
X225888000Y-95778000D01*
X225890000Y-95779000D01*
X225893000Y-95780000D01*
X225895000Y-95782000D01*
X225897000Y-95783000D01*
X225899000Y-95785000D01*
X225901000Y-95786000D01*
X225903000Y-95788000D01*
X225905000Y-95790000D01*
X225907000Y-95792000D01*
X225909000Y-95794000D01*
X225910000Y-95796000D01*
X225912000Y-95798000D01*
X225913000Y-95800000D01*
X225915000Y-95802000D01*
X225916000Y-95805000D01*
X225917000Y-95807000D01*
X225918000Y-95810000D01*
X225918000Y-95812000D01*
X225919000Y-95815000D01*
X225919000Y-95817000D01*
X225920000Y-95820000D01*
X225920000Y-95822000D01*
X225920000Y-95825000D01*
X225920000Y-95975000D01*
X225920000Y-95978000D01*
X225920000Y-95980000D01*
X225919000Y-95983000D01*
X225919000Y-95985000D01*
X225918000Y-95988000D01*
X225918000Y-95990000D01*
X225917000Y-95993000D01*
X225916000Y-95995000D01*
X225915000Y-95998000D01*
X225913000Y-96000000D01*
X225912000Y-96002000D01*
X225910000Y-96004000D01*
X225909000Y-96006000D01*
X225907000Y-96008000D01*
X225905000Y-96010000D01*
X225903000Y-96012000D01*
X225901000Y-96014000D01*
X225899000Y-96015000D01*
X225897000Y-96017000D01*
X225895000Y-96018000D01*
X225893000Y-96020000D01*
X225890000Y-96021000D01*
X225888000Y-96022000D01*
X225885000Y-96023000D01*
X225883000Y-96023000D01*
X225880000Y-96024000D01*
X225878000Y-96024000D01*
X225875000Y-96025000D01*
X225873000Y-96025000D01*
X225870000Y-96025000D01*
X225310000Y-96025000D01*
X225307000Y-96025000D01*
X225305000Y-96025000D01*
X225302000Y-96024000D01*
X225300000Y-96024000D01*
X225297000Y-96023000D01*
X225295000Y-96023000D01*
X225292000Y-96022000D01*
X225290000Y-96021000D01*
X225287000Y-96020000D01*
X225285000Y-96018000D01*
X225283000Y-96017000D01*
X225281000Y-96015000D01*
X225279000Y-96014000D01*
X225277000Y-96012000D01*
X225275000Y-96010000D01*
X225273000Y-96008000D01*
X225271000Y-96006000D01*
X225270000Y-96004000D01*
X225268000Y-96002000D01*
X225267000Y-96000000D01*
X225265000Y-95998000D01*
X225264000Y-95995000D01*
X225263000Y-95993000D01*
X225262000Y-95990000D01*
X225262000Y-95988000D01*
X225261000Y-95985000D01*
X225261000Y-95983000D01*
X225260000Y-95980000D01*
X225260000Y-95978000D01*
X225260000Y-95975000D01*
X225260000Y-95825000D01*
X225260000Y-95822000D01*
X225260000Y-95820000D01*
X225261000Y-95817000D01*
X225261000Y-95815000D01*
X225262000Y-95812000D01*
X225262000Y-95810000D01*
X225263000Y-95807000D01*
X225264000Y-95805000D01*
X225265000Y-95802000D01*
X225267000Y-95800000D01*
X225268000Y-95798000D01*
X225270000Y-95796000D01*
X225271000Y-95794000D01*
X225273000Y-95792000D01*
X225275000Y-95790000D01*
X225277000Y-95788000D01*
X225279000Y-95786000D01*
X225281000Y-95785000D01*
X225283000Y-95783000D01*
X225285000Y-95782000D01*
X225287000Y-95780000D01*
X225290000Y-95779000D01*
X225292000Y-95778000D01*
X225295000Y-95777000D01*
X225297000Y-95777000D01*
X225300000Y-95776000D01*
X225302000Y-95776000D01*
X225305000Y-95775000D01*
X225307000Y-95775000D01*
X225310000Y-95775000D01*
X225870000Y-95775000D01*
X225873000Y-95775000D01*
X225875000Y-95775000D01*
X225878000Y-95776000D01*
G37*
X225878000Y-95276000D02*
X225880000Y-95276000D01*
X225883000Y-95277000D01*
X225885000Y-95277000D01*
X225888000Y-95278000D01*
X225890000Y-95279000D01*
X225893000Y-95280000D01*
X225895000Y-95282000D01*
X225897000Y-95283000D01*
X225899000Y-95285000D01*
X225901000Y-95286000D01*
X225903000Y-95288000D01*
X225905000Y-95290000D01*
X225907000Y-95292000D01*
X225909000Y-95294000D01*
X225910000Y-95296000D01*
X225912000Y-95298000D01*
X225913000Y-95300000D01*
X225915000Y-95302000D01*
X225916000Y-95305000D01*
X225917000Y-95307000D01*
X225918000Y-95310000D01*
X225918000Y-95312000D01*
X225919000Y-95315000D01*
X225919000Y-95317000D01*
X225920000Y-95320000D01*
X225920000Y-95322000D01*
X225920000Y-95325000D01*
X225920000Y-95475000D01*
X225920000Y-95478000D01*
X225920000Y-95480000D01*
X225919000Y-95483000D01*
X225919000Y-95485000D01*
X225918000Y-95488000D01*
X225918000Y-95490000D01*
X225917000Y-95493000D01*
X225916000Y-95495000D01*
X225915000Y-95498000D01*
X225913000Y-95500000D01*
X225912000Y-95502000D01*
X225910000Y-95504000D01*
X225909000Y-95506000D01*
X225907000Y-95508000D01*
X225905000Y-95510000D01*
X225903000Y-95512000D01*
X225901000Y-95514000D01*
X225899000Y-95515000D01*
X225897000Y-95517000D01*
X225895000Y-95518000D01*
X225893000Y-95520000D01*
X225890000Y-95521000D01*
X225888000Y-95522000D01*
X225885000Y-95523000D01*
X225883000Y-95523000D01*
X225880000Y-95524000D01*
X225878000Y-95524000D01*
X225875000Y-95525000D01*
X225873000Y-95525000D01*
X225870000Y-95525000D01*
X225310000Y-95525000D01*
X225307000Y-95525000D01*
X225305000Y-95525000D01*
X225302000Y-95524000D01*
X225300000Y-95524000D01*
X225297000Y-95523000D01*
X225295000Y-95523000D01*
X225292000Y-95522000D01*
X225290000Y-95521000D01*
X225287000Y-95520000D01*
X225285000Y-95518000D01*
X225283000Y-95517000D01*
X225281000Y-95515000D01*
X225279000Y-95514000D01*
X225277000Y-95512000D01*
X225275000Y-95510000D01*
X225273000Y-95508000D01*
X225271000Y-95506000D01*
X225270000Y-95504000D01*
X225268000Y-95502000D01*
X225267000Y-95500000D01*
X225265000Y-95498000D01*
X225264000Y-95495000D01*
X225263000Y-95493000D01*
X225262000Y-95490000D01*
X225262000Y-95488000D01*
X225261000Y-95485000D01*
X225261000Y-95483000D01*
X225260000Y-95480000D01*
X225260000Y-95478000D01*
X225260000Y-95475000D01*
X225260000Y-95325000D01*
X225260000Y-95322000D01*
X225260000Y-95320000D01*
X225261000Y-95317000D01*
X225261000Y-95315000D01*
X225262000Y-95312000D01*
X225262000Y-95310000D01*
X225263000Y-95307000D01*
X225264000Y-95305000D01*
X225265000Y-95302000D01*
X225267000Y-95300000D01*
X225268000Y-95298000D01*
X225270000Y-95296000D01*
X225271000Y-95294000D01*
X225273000Y-95292000D01*
X225275000Y-95290000D01*
X225277000Y-95288000D01*
X225279000Y-95286000D01*
X225281000Y-95285000D01*
X225283000Y-95283000D01*
X225285000Y-95282000D01*
X225287000Y-95280000D01*
X225290000Y-95279000D01*
X225292000Y-95278000D01*
X225295000Y-95277000D01*
X225297000Y-95277000D01*
X225300000Y-95276000D01*
X225302000Y-95276000D01*
X225305000Y-95275000D01*
X225307000Y-95275000D01*
X225310000Y-95275000D01*
X225870000Y-95275000D01*
X225873000Y-95275000D01*
X225875000Y-95275000D01*
X225878000Y-95276000D01*
G36*
X225878000Y-95276000D02*
G01*
X225880000Y-95276000D01*
X225883000Y-95277000D01*
X225885000Y-95277000D01*
X225888000Y-95278000D01*
X225890000Y-95279000D01*
X225893000Y-95280000D01*
X225895000Y-95282000D01*
X225897000Y-95283000D01*
X225899000Y-95285000D01*
X225901000Y-95286000D01*
X225903000Y-95288000D01*
X225905000Y-95290000D01*
X225907000Y-95292000D01*
X225909000Y-95294000D01*
X225910000Y-95296000D01*
X225912000Y-95298000D01*
X225913000Y-95300000D01*
X225915000Y-95302000D01*
X225916000Y-95305000D01*
X225917000Y-95307000D01*
X225918000Y-95310000D01*
X225918000Y-95312000D01*
X225919000Y-95315000D01*
X225919000Y-95317000D01*
X225920000Y-95320000D01*
X225920000Y-95322000D01*
X225920000Y-95325000D01*
X225920000Y-95475000D01*
X225920000Y-95478000D01*
X225920000Y-95480000D01*
X225919000Y-95483000D01*
X225919000Y-95485000D01*
X225918000Y-95488000D01*
X225918000Y-95490000D01*
X225917000Y-95493000D01*
X225916000Y-95495000D01*
X225915000Y-95498000D01*
X225913000Y-95500000D01*
X225912000Y-95502000D01*
X225910000Y-95504000D01*
X225909000Y-95506000D01*
X225907000Y-95508000D01*
X225905000Y-95510000D01*
X225903000Y-95512000D01*
X225901000Y-95514000D01*
X225899000Y-95515000D01*
X225897000Y-95517000D01*
X225895000Y-95518000D01*
X225893000Y-95520000D01*
X225890000Y-95521000D01*
X225888000Y-95522000D01*
X225885000Y-95523000D01*
X225883000Y-95523000D01*
X225880000Y-95524000D01*
X225878000Y-95524000D01*
X225875000Y-95525000D01*
X225873000Y-95525000D01*
X225870000Y-95525000D01*
X225310000Y-95525000D01*
X225307000Y-95525000D01*
X225305000Y-95525000D01*
X225302000Y-95524000D01*
X225300000Y-95524000D01*
X225297000Y-95523000D01*
X225295000Y-95523000D01*
X225292000Y-95522000D01*
X225290000Y-95521000D01*
X225287000Y-95520000D01*
X225285000Y-95518000D01*
X225283000Y-95517000D01*
X225281000Y-95515000D01*
X225279000Y-95514000D01*
X225277000Y-95512000D01*
X225275000Y-95510000D01*
X225273000Y-95508000D01*
X225271000Y-95506000D01*
X225270000Y-95504000D01*
X225268000Y-95502000D01*
X225267000Y-95500000D01*
X225265000Y-95498000D01*
X225264000Y-95495000D01*
X225263000Y-95493000D01*
X225262000Y-95490000D01*
X225262000Y-95488000D01*
X225261000Y-95485000D01*
X225261000Y-95483000D01*
X225260000Y-95480000D01*
X225260000Y-95478000D01*
X225260000Y-95475000D01*
X225260000Y-95325000D01*
X225260000Y-95322000D01*
X225260000Y-95320000D01*
X225261000Y-95317000D01*
X225261000Y-95315000D01*
X225262000Y-95312000D01*
X225262000Y-95310000D01*
X225263000Y-95307000D01*
X225264000Y-95305000D01*
X225265000Y-95302000D01*
X225267000Y-95300000D01*
X225268000Y-95298000D01*
X225270000Y-95296000D01*
X225271000Y-95294000D01*
X225273000Y-95292000D01*
X225275000Y-95290000D01*
X225277000Y-95288000D01*
X225279000Y-95286000D01*
X225281000Y-95285000D01*
X225283000Y-95283000D01*
X225285000Y-95282000D01*
X225287000Y-95280000D01*
X225290000Y-95279000D01*
X225292000Y-95278000D01*
X225295000Y-95277000D01*
X225297000Y-95277000D01*
X225300000Y-95276000D01*
X225302000Y-95276000D01*
X225305000Y-95275000D01*
X225307000Y-95275000D01*
X225310000Y-95275000D01*
X225870000Y-95275000D01*
X225873000Y-95275000D01*
X225875000Y-95275000D01*
X225878000Y-95276000D01*
G37*
%TD*%
D11*
%TO.C,C49*%
X176962500Y-81600000D03*
X173837500Y-81600000D03*
%TD*%
D12*
%TO.C,R5*%
X224955000Y-70625000D03*
X224955000Y-73725000D03*
%TD*%
D13*
%TO.C,C19*%
X220937500Y-79600000D03*
X224062500Y-79600000D03*
%TD*%
D14*
%TO.C,R2*%
X158950000Y-86852500D03*
X162050000Y-86852500D03*
%TD*%
D11*
%TO.C,C46*%
X174300000Y-70900000D03*
X171175000Y-70900000D03*
%TD*%
D14*
%TO.C,R20*%
X178962500Y-73600000D03*
X182062500Y-73600000D03*
%TD*%
D13*
%TO.C,C22*%
X217737500Y-76800000D03*
X220862500Y-76800000D03*
%TD*%
D11*
%TO.C,C9*%
X250962500Y-87200000D03*
X247837500Y-87200000D03*
%TD*%
D13*
%TO.C,C16*%
X222937500Y-76200000D03*
X226062500Y-76200000D03*
%TD*%
D11*
%TO.C,C44*%
X201825000Y-86475000D03*
X198700000Y-86475000D03*
%TD*%
D15*
%TO.C,C36*%
X215315000Y-70582500D03*
X215315000Y-73707500D03*
%TD*%
D16*
%TO.C,U6*%
X251125000Y-81425000D03*
X250275000Y-81775000D03*
X250275000Y-81075000D03*
%TD*%
D17*
%TO.C,R29*%
X256550000Y-75800000D03*
X253450000Y-75800000D03*
%TD*%
D15*
%TO.C,C27*%
X237500000Y-70637500D03*
X237500000Y-73762500D03*
%TD*%
D17*
%TO.C,R23*%
X192612500Y-71000000D03*
X189512500Y-71000000D03*
%TD*%
D18*
%TO.C,FB1*%
X236812500Y-90100000D03*
X238937500Y-90100000D03*
%TD*%
D13*
%TO.C,C1*%
X177437500Y-86452500D03*
X180562500Y-86452500D03*
%TD*%
%TO.C,C2*%
X215137500Y-95900000D03*
X218262500Y-95900000D03*
%TD*%
D14*
%TO.C,R28*%
X253450000Y-73100000D03*
X256550000Y-73100000D03*
%TD*%
D11*
%TO.C,C14*%
X244262500Y-76250000D03*
X241137500Y-76250000D03*
%TD*%
D15*
%TO.C,C17*%
X227900000Y-70700000D03*
X227900000Y-73825000D03*
%TD*%
D11*
%TO.C,C47*%
X187387500Y-71000000D03*
X184262500Y-71000000D03*
%TD*%
D13*
%TO.C,C4*%
X190437500Y-91700000D03*
X193562500Y-91700000D03*
%TD*%
D19*
%TO.C,C33*%
X231000000Y-91462500D03*
X231000000Y-88337500D03*
%TD*%
D20*
%TO.C,R1*%
X153400000Y-94002500D03*
X153400000Y-90902500D03*
%TD*%
D19*
%TO.C,C5*%
X200200000Y-93162500D03*
X200200000Y-90037500D03*
%TD*%
D21*
%TO.C,U3*%
X227200000Y-97300000D03*
X226700000Y-97300000D03*
X226200000Y-97300000D03*
X225700000Y-97300000D03*
X225700000Y-94500000D03*
X226200000Y-94500000D03*
X226700000Y-94500000D03*
X227200000Y-94500000D03*
%TD*%
D11*
%TO.C,C40*%
X201687500Y-77375000D03*
X198562500Y-77375000D03*
%TD*%
%TO.C,C13*%
X244262500Y-72900000D03*
X241137500Y-72900000D03*
%TD*%
D14*
%TO.C,R3*%
X242550000Y-87200000D03*
X245650000Y-87200000D03*
%TD*%
D13*
%TO.C,C23*%
X220937500Y-85500000D03*
X224062500Y-85500000D03*
%TD*%
D11*
%TO.C,C50*%
X176962500Y-78900000D03*
X173837500Y-78900000D03*
%TD*%
D13*
%TO.C,C8*%
X247837500Y-84500000D03*
X250962500Y-84500000D03*
%TD*%
D15*
%TO.C,C20*%
X234300000Y-70737500D03*
X234300000Y-73862500D03*
%TD*%
D11*
%TO.C,C10*%
X250962500Y-89800000D03*
X247837500Y-89800000D03*
%TD*%
D22*
%TO.C,D2*%
X251200000Y-76300000D03*
X248400000Y-76300000D03*
%TD*%
D17*
%TO.C,R6*%
X215850000Y-79300000D03*
X212750000Y-79300000D03*
%TD*%
D15*
%TO.C,C29*%
X190600000Y-94237500D03*
X190600000Y-97362500D03*
%TD*%
D23*
%TO.C,F1*%
X254900000Y-94237500D03*
X254900000Y-89962500D03*
%TD*%
D17*
%TO.C,R30*%
X215100000Y-75800000D03*
X212000000Y-75800000D03*
%TD*%
D12*
%TO.C,R21*%
X171375000Y-73350000D03*
X171375000Y-76450000D03*
%TD*%
D11*
%TO.C,C39*%
X194325000Y-73575000D03*
X191200000Y-73575000D03*
%TD*%
%TO.C,C48*%
X187400000Y-73600000D03*
X184275000Y-73600000D03*
%TD*%
D14*
%TO.C,R25*%
X168600000Y-81640000D03*
X171700000Y-81640000D03*
%TD*%
%TO.C,R27*%
X168600000Y-78840000D03*
X171700000Y-78840000D03*
%TD*%
D19*
%TO.C,C34*%
X233900000Y-91462500D03*
X233900000Y-88337500D03*
%TD*%
D11*
%TO.C,C38*%
X173762500Y-86652500D03*
X170637500Y-86652500D03*
%TD*%
D13*
%TO.C,C21*%
X220937500Y-82600000D03*
X224062500Y-82600000D03*
%TD*%
%TO.C,C6*%
X210037500Y-90500000D03*
X213162500Y-90500000D03*
%TD*%
D17*
%TO.C,R19*%
X200225000Y-73475000D03*
X197125000Y-73475000D03*
%TD*%
D24*
%TO.C,Y2*%
X218220000Y-72520000D03*
X220070000Y-72520000D03*
X220070000Y-73970000D03*
X218220000Y-73970000D03*
%TD*%
D17*
%TO.C,R9*%
X223450000Y-93385000D03*
X220350000Y-93385000D03*
%TD*%
D25*
%TO.C,U4*%
X197937500Y-91050000D03*
X197937500Y-92950000D03*
X195662500Y-92950000D03*
X195662500Y-92000000D03*
X195662500Y-91050000D03*
%TD*%
D26*
%TO.C,J3_IN1*%
X157500000Y-79325000D03*
D27*
X164900000Y-86675000D03*
D26*
X155600000Y-86675000D03*
%TD*%
D11*
%TO.C,C31*%
X207862500Y-93200000D03*
X204737500Y-93200000D03*
%TD*%
%TO.C,C32*%
X239362500Y-87000000D03*
X236237500Y-87000000D03*
%TD*%
D28*
%TO.C,J1*%
X255502500Y-86130000D03*
X255502500Y-84630000D03*
X255502500Y-84130000D03*
X255502500Y-83630000D03*
X255502500Y-82630000D03*
X255502500Y-82130000D03*
X255502500Y-81630000D03*
X255502500Y-80130000D03*
X254252500Y-80080000D03*
X254252500Y-81880000D03*
X254252500Y-82380000D03*
X254252500Y-82880000D03*
X254252500Y-83380000D03*
X254252500Y-83880000D03*
X254252500Y-84380000D03*
D29*
X254252500Y-79580000D03*
D28*
X254252500Y-86180000D03*
D29*
X254252500Y-86680000D03*
%TD*%
D26*
%TO.C,J4_OUT1*%
X157700000Y-69025000D03*
D27*
X165100000Y-76375000D03*
D26*
X155800000Y-76375000D03*
%TD*%
D13*
%TO.C,C3*%
X215137500Y-93400000D03*
X218262500Y-93400000D03*
%TD*%
D22*
%TO.C,D1*%
X251150000Y-73100000D03*
X248350000Y-73100000D03*
%TD*%
D11*
%TO.C,C41*%
X194325000Y-76075000D03*
X191200000Y-76075000D03*
%TD*%
%TO.C,C15*%
X241762500Y-79000000D03*
X238637500Y-79000000D03*
%TD*%
D30*
%TO.C,U2*%
X230699700Y-81225100D03*
D31*
X228140650Y-81225100D03*
D32*
X230699700Y-78666050D03*
D31*
X233258750Y-81225100D03*
D32*
X230699700Y-83784150D03*
D33*
X227424700Y-84025450D03*
X227424700Y-83625400D03*
X227424700Y-83225350D03*
X227424700Y-82825300D03*
X227424700Y-82425250D03*
X227424700Y-82025200D03*
X227424700Y-81625150D03*
X227424700Y-81225100D03*
X227424700Y-80825050D03*
X227424700Y-80425000D03*
X227424700Y-80024950D03*
X227424700Y-79624900D03*
X227424700Y-79224850D03*
X227424700Y-78824800D03*
X227424700Y-78424750D03*
D34*
X227899350Y-77950151D03*
X228299400Y-77950151D03*
X228699450Y-77950151D03*
X229099500Y-77950151D03*
X229499550Y-77950151D03*
X229899600Y-77950151D03*
X230299650Y-77950151D03*
X230699700Y-77950151D03*
X231099750Y-77950151D03*
X231499800Y-77950151D03*
X231899850Y-77950151D03*
X232299900Y-77950151D03*
X232699950Y-77950151D03*
X233100000Y-77950151D03*
X233500050Y-77950151D03*
D33*
X233974700Y-78424750D03*
X233974700Y-78824800D03*
X233974700Y-79224850D03*
X233974700Y-79624900D03*
X233974700Y-80024950D03*
X233974700Y-80425000D03*
X233974700Y-80825050D03*
X233974700Y-81225100D03*
X233974700Y-81625150D03*
X233974700Y-82025200D03*
X233974700Y-82425250D03*
X233974700Y-82825300D03*
X233974700Y-83225350D03*
X233974700Y-83625400D03*
X233974700Y-84025450D03*
D34*
X233500050Y-84500049D03*
X233100000Y-84500049D03*
X232699950Y-84500049D03*
X232299900Y-84500049D03*
X231899850Y-84500049D03*
X231499800Y-84500049D03*
X231099750Y-84500049D03*
X230699700Y-84500049D03*
X230299650Y-84500049D03*
X229899600Y-84500049D03*
X229499550Y-84500049D03*
X229099500Y-84500049D03*
X228699450Y-84500049D03*
X228299400Y-84500049D03*
X227899350Y-84500049D03*
%TD*%
D13*
%TO.C,C45*%
X173712500Y-73600000D03*
X176837500Y-73600000D03*
%TD*%
D11*
%TO.C,C37*%
X207882500Y-95800000D03*
X204757500Y-95800000D03*
%TD*%
%TO.C,C11*%
X209062500Y-82600000D03*
X205937500Y-82600000D03*
%TD*%
D14*
%TO.C,R7*%
X211450000Y-82600000D03*
X214550000Y-82600000D03*
%TD*%
D17*
%TO.C,R26*%
X182150000Y-78900000D03*
X179050000Y-78900000D03*
%TD*%
%TO.C,R24*%
X182150000Y-81600000D03*
X179050000Y-81600000D03*
%TD*%
D15*
%TO.C,C24*%
X231200000Y-70737500D03*
X231200000Y-73862500D03*
%TD*%
D25*
%TO.C,U5*%
X212737500Y-93150000D03*
X212737500Y-95050000D03*
X210462500Y-95050000D03*
X210462500Y-94100000D03*
X210462500Y-93150000D03*
%TD*%
D13*
%TO.C,C12*%
X222637500Y-90900000D03*
X225762500Y-90900000D03*
%TD*%
D11*
%TO.C,C25*%
X238762500Y-76400000D03*
X235637500Y-76400000D03*
%TD*%
D19*
%TO.C,C18*%
X228200000Y-91462500D03*
X228200000Y-88337500D03*
%TD*%
D11*
%TO.C,C42*%
X201725000Y-79975000D03*
X198600000Y-79975000D03*
%TD*%
%TO.C,C43*%
X201825000Y-82775000D03*
X198700000Y-82775000D03*
%TD*%
D17*
%TO.C,R18*%
X187612500Y-78975000D03*
X184512500Y-78975000D03*
%TD*%
D35*
%TO.C,U1*%
X205490000Y-74400000D03*
X206760000Y-74400000D03*
X208030000Y-74400000D03*
X209300000Y-74400000D03*
X209300000Y-80200000D03*
X208030000Y-80200000D03*
X206760000Y-80200000D03*
X205490000Y-80200000D03*
D36*
X208895000Y-75800000D03*
X207895000Y-75800000D03*
X206895000Y-75800000D03*
X205895000Y-75800000D03*
X208895000Y-76800000D03*
X207895000Y-76800000D03*
X206895000Y-76800000D03*
X205895000Y-76800000D03*
X208895000Y-77800000D03*
X207895000Y-77800000D03*
X206895000Y-77800000D03*
X205895000Y-77800000D03*
X208895000Y-78800000D03*
X207895000Y-78800000D03*
X206895000Y-78800000D03*
X205895000Y-78800000D03*
%TD*%
D37*
%TO.C,U9*%
X196225000Y-78450000D03*
X196225000Y-79100000D03*
X196225000Y-79750000D03*
X196225000Y-80400000D03*
X196225000Y-81050000D03*
X196225000Y-81700000D03*
X196225000Y-82350000D03*
X196225000Y-83000000D03*
X196225000Y-83650000D03*
X196225000Y-84300000D03*
X196225000Y-84950000D03*
X196225000Y-85600000D03*
X196225000Y-86250000D03*
X196225000Y-86900000D03*
X190500000Y-86900000D03*
X190500000Y-86250000D03*
X190500000Y-85600000D03*
X190500000Y-84950000D03*
X190500000Y-84300000D03*
X190500000Y-83650000D03*
X190500000Y-83000000D03*
X190500000Y-82350000D03*
X190500000Y-81700000D03*
X190500000Y-81050000D03*
X190500000Y-80400000D03*
X190500000Y-79750000D03*
X190500000Y-79100000D03*
X190500000Y-78450000D03*
%TD*%
D14*
%TO.C,R4*%
X242550000Y-89800000D03*
X245650000Y-89800000D03*
%TD*%
D15*
%TO.C,C30*%
X193300000Y-94200000D03*
X193300000Y-97325000D03*
%TD*%
D38*
%TO.C,L1*%
X230635000Y-94820000D03*
X230635000Y-97190000D03*
%TD*%
D11*
%TO.C,C28*%
X241762500Y-81600000D03*
X238637500Y-81600000D03*
%TD*%
D17*
%TO.C,R17*%
X223450000Y-95900000D03*
X220350000Y-95900000D03*
%TD*%
D11*
%TO.C,C26*%
X241762500Y-84100000D03*
X238637500Y-84100000D03*
%TD*%
%TO.C,C7*%
X207762500Y-90500000D03*
X204637500Y-90500000D03*
%TD*%
D17*
%TO.C,R8*%
X187612500Y-81575000D03*
X184512500Y-81575000D03*
%TD*%
D14*
%TO.C,R22*%
X178962500Y-71000000D03*
X182062500Y-71000000D03*
%TD*%
M02*
