M48
; DRILL file {KiCad 9.0.3} date 2026-08-11T16:00:39+0100
; FORMAT={-:-/ absolute / metric / decimal}
; #@! TF.CreationDate,2026-08-11T16:00:39+01:00
; #@! TF.GenerationSoftware,Kicad,Pcbnew,9.0.3
; #@! TF.FileFunction,Plated,1,4,PTH
FMAT,2
METRIC
; #@! TA.AperFunction,Plated,PTH,ViaDrill
T1C0.200
; #@! TA.AperFunction,Plated,PTH,ComponentDrill
T2C0.450
; #@! TA.AperFunction,Plated,PTH,ComponentDrill
T3C0.650
; #@! TA.AperFunction,Plated,PTH,ComponentDrill
T4C0.800
; #@! TA.AperFunction,Plated,PTH,ComponentDrill
T5C0.810
; #@! TA.AperFunction,Plated,PTH,ComponentDrill
T6C1.000
%
G90
G05
T1
X153.4Y-90.902
X153.4Y-94.002
X155.6Y-86.675
X155.8Y-76.375
X156.7Y-87.9
X157.5Y-79.325
X157.7Y-69.025
X158.95Y-86.852
X160.5Y-83.2
X160.6Y-85.5
X162.05Y-86.852
X164.5Y-82.1
X164.9Y-86.675
X165.1Y-76.375
X168.6Y-78.84
X168.6Y-81.64
X170.637Y-86.652
X170.9Y-72.6
X171.175Y-70.9
X171.375Y-73.35
X171.375Y-76.45
X171.7Y-78.84
X171.7Y-81.64
X173.713Y-73.6
X173.762Y-86.652
X173.838Y-78.9
X173.838Y-81.6
X174.3Y-70.9
X176.838Y-73.6
X176.963Y-78.9
X176.963Y-81.6
X177.438Y-86.453
X178.963Y-71.0
X178.963Y-73.6
X179.05Y-78.9
X179.05Y-81.6
X180.562Y-86.453
X182.0Y-89.5
X182.062Y-71.0
X182.062Y-73.6
X182.15Y-78.9
X182.15Y-81.6
X182.2Y-92.8
X182.6Y-88.8
X184.262Y-71.0
X184.275Y-73.6
X184.512Y-78.975
X184.512Y-81.575
X185.8Y-81.3
X187.387Y-71.0
X187.4Y-73.6
X187.612Y-78.975
X187.612Y-81.575
X189.512Y-71.0
X190.438Y-91.7
X190.5Y-78.45
X190.5Y-79.1
X190.5Y-79.75
X190.5Y-80.4
X190.5Y-81.05
X190.5Y-81.7
X190.5Y-82.35
X190.5Y-83.0
X190.5Y-83.65
X190.5Y-84.3
X190.5Y-84.95
X190.5Y-85.6
X190.6Y-94.237
X190.6Y-97.362
X191.2Y-73.575
X191.2Y-76.075
X191.7Y-80.1
X192.0Y-84.0
X192.1Y-84.6
X192.612Y-71.0
X193.3Y-94.2
X193.3Y-97.325
X193.562Y-91.7
X193.8Y-81.2
X193.8Y-93.4
X194.0Y-89.4
X194.325Y-73.575
X194.325Y-76.075
X194.5Y-77.3
X194.7Y-81.7
X194.7Y-83.1
X195.662Y-91.05
X195.662Y-92.0
X195.662Y-92.95
X196.2Y-77.5
X196.2Y-88.8
X196.225Y-78.45
X196.225Y-79.75
X196.225Y-80.4
X196.225Y-81.05
X196.225Y-81.7
X196.225Y-83.0
X196.225Y-83.65
X196.225Y-84.95
X196.225Y-86.25
X196.225Y-86.9
X196.9Y-89.4
X197.1Y-93.4
X197.125Y-73.475
X197.938Y-91.05
X198.1Y-94.5
X198.562Y-77.375
X198.6Y-79.975
X198.7Y-82.775
X198.7Y-86.475
X200.2Y-90.037
X200.2Y-93.162
X200.225Y-73.475
X200.3Y-81.8
X201.688Y-77.375
X201.725Y-79.975
X201.825Y-82.775
X201.825Y-86.475
X202.1Y-71.4
X202.9Y-65.5
X202.9Y-73.8
X203.5Y-78.0
X203.7Y-66.6
X204.3Y-67.7
X204.3Y-68.8
X204.4Y-71.4
X204.637Y-90.5
X204.7Y-69.3
X204.737Y-93.2
X204.757Y-95.8
X204.9Y-79.4
X205.2Y-77.1
X205.49Y-74.4
X205.49Y-80.2
X205.938Y-82.6
X206.6Y-89.4
X206.76Y-74.4
X206.76Y-80.2
X207.2Y-81.8
X207.5Y-86.0
X207.762Y-90.5
X207.862Y-93.2
X207.882Y-95.8
X208.03Y-74.4
X208.03Y-80.2
X209.062Y-82.6
X209.3Y-74.4
X209.3Y-80.2
X209.7Y-67.0
X210.037Y-90.5
X210.462Y-93.15
X210.462Y-94.1
X210.462Y-95.05
X210.5Y-75.2
X210.6Y-72.1
X211.1Y-95.4
X211.4Y-69.3
X211.4Y-93.7
X211.45Y-82.6
X212.0Y-75.8
X212.3Y-77.6
X212.737Y-93.15
X212.75Y-79.3
X213.0Y-88.7
X213.162Y-90.5
X213.6Y-74.9
X214.0Y-78.6
X214.55Y-82.6
X215.1Y-75.8
X215.137Y-93.4
X215.137Y-95.9
X215.315Y-70.582
X215.315Y-73.707
X215.8Y-92.7
X215.85Y-79.3
X215.9Y-78.1
X216.1Y-70.6
X217.0Y-81.9
X217.3Y-89.4
X217.737Y-76.8
X217.8Y-70.0
X217.8Y-71.0
X218.22Y-72.52
X218.262Y-93.4
X218.262Y-95.9
X219.1Y-86.6
X219.2Y-72.9
X219.2Y-77.6
X219.6Y-77.9
X219.9Y-76.5
X219.9Y-82.7
X220.07Y-72.52
X220.07Y-73.97
X220.35Y-93.385
X220.35Y-95.9
X220.7Y-74.7
X220.862Y-76.8
X220.938Y-79.6
X220.938Y-82.6
X220.938Y-85.5
X221.1Y-75.0
X221.5Y-87.1
X221.8Y-74.1
X221.8Y-75.1
X221.9Y-80.2
X222.0Y-72.1
X222.1Y-77.3
X222.2Y-74.7
X222.6Y-85.6
X222.637Y-90.9
X222.938Y-76.2
X223.0Y-78.8
X223.0Y-83.4
X223.45Y-93.385
X223.45Y-95.9
X223.6Y-74.7
X223.8Y-73.6
X224.062Y-79.6
X224.062Y-82.6
X224.062Y-85.5
X224.9Y-84.3
X224.955Y-70.625
X224.955Y-73.725
X225.0Y-80.0
X225.0Y-82.9
X225.0Y-83.7
X225.1Y-82.5
X225.762Y-90.9
X225.8Y-75.0
X225.8Y-85.4
X226.062Y-76.2
X226.2Y-94.5
X226.3Y-74.4
X226.4Y-72.7
X226.45Y-95.4
X226.45Y-95.9
X226.65Y-80.0
X226.65Y-80.85
X226.65Y-81.3
X226.65Y-81.75
X226.65Y-82.15
X226.65Y-83.65
X226.7Y-73.8
X226.7Y-78.1
X226.7Y-94.5
X226.7Y-97.3
X226.9Y-78.55
X227.05Y-79.2
X227.05Y-80.4
X227.05Y-82.45
X227.05Y-83.25
X227.2Y-97.3
X227.3Y-84.1
X227.4Y-77.4
X227.425Y-78.425
X227.6Y-76.2
X227.8Y-77.9
X227.8Y-84.5
X227.9Y-70.7
X227.9Y-73.825
X227.9Y-76.6
X228.0Y-79.1
X228.141Y-81.225
X228.2Y-79.6
X228.2Y-82.8
X228.2Y-88.337
X228.2Y-91.462
X228.3Y-78.8
X228.3Y-83.7
X228.3Y-85.0
X228.7Y-77.5
X228.7Y-85.3
X228.996Y-79.521
X228.996Y-80.657
X228.996Y-81.793
X228.996Y-82.929
X229.0Y-91.0
X229.1Y-78.8
X229.1Y-83.7
X229.2Y-85.1
X229.2Y-86.4
X229.5Y-77.1
X229.7Y-74.5
X229.9Y-85.3
X230.0Y-77.1
X230.0Y-93.1
X230.132Y-79.521
X230.132Y-80.657
X230.132Y-81.793
X230.132Y-82.929
X230.3Y-72.8
X230.3Y-77.5
X230.3Y-85.0
X230.6Y-74.5
X230.635Y-94.82
X230.635Y-97.19
X230.7Y-78.666
X230.7Y-83.784
X230.7Y-77.1
X230.7Y-85.3
X231.0Y-88.337
X231.0Y-89.5
X231.0Y-91.462
X231.1Y-77.5
X231.2Y-70.737
X231.2Y-73.862
X231.2Y-85.3
X231.268Y-79.521
X231.268Y-80.657
X231.268Y-81.793
X231.268Y-82.929
X231.5Y-77.1
X231.7Y-85.3
X231.9Y-75.8
X231.9Y-77.5
X231.9Y-87.2
X232.1Y-85.1
X232.3Y-78.8
X232.3Y-83.7
X232.3Y-87.8
X232.403Y-79.521
X232.403Y-80.657
X232.403Y-81.793
X232.403Y-82.929
X232.6Y-74.6
X232.7Y-77.5
X232.7Y-85.3
X233.1Y-74.0
X233.1Y-84.0
X233.2Y-82.8
X233.2Y-83.6
X233.2Y-86.8
X233.259Y-81.225
X233.4Y-78.6
X233.4Y-79.3
X233.6Y-77.9
X233.9Y-88.337
X233.9Y-91.462
X233.975Y-78.425
X234.0Y-75.0
X234.0Y-84.1
X234.1Y-86.9
X234.3Y-70.737
X234.3Y-73.862
X234.35Y-80.0
X234.35Y-81.25
X234.35Y-82.45
X234.35Y-83.25
X234.5Y-80.55
X234.6Y-83.8
X234.6Y-85.1
X234.75Y-81.65
X234.75Y-82.05
X235.0Y-78.4
X235.1Y-86.8
X235.1Y-90.4
X235.3Y-82.8
X235.637Y-76.4
X235.8Y-73.1
X235.8Y-91.0
X236.237Y-87.0
X236.3Y-81.8
X236.5Y-85.8
X236.812Y-90.1
X237.3Y-77.1
X237.3Y-88.2
X237.5Y-70.638
X237.5Y-73.763
X238.637Y-79.0
X238.637Y-81.6
X238.637Y-84.1
X238.762Y-76.4
X238.938Y-90.1
X239.362Y-87.0
X240.0Y-91.0
X240.1Y-80.9
X240.5Y-90.7
X240.8Y-92.5
X241.137Y-72.9
X241.137Y-76.25
X241.762Y-79.0
X241.762Y-81.6
X241.762Y-84.1
X241.9Y-87.2
X242.5Y-92.5
X242.55Y-87.2
X242.55Y-89.8
X243.1Y-95.3
X243.5Y-83.4
X243.8Y-91.4
X244.2Y-92.7
X244.262Y-72.9
X244.262Y-76.25
X244.5Y-93.5
X245.6Y-88.6
X245.65Y-87.2
X245.65Y-89.8
X245.8Y-95.4
X246.7Y-89.5
X247.2Y-92.2
X247.7Y-95.4
X247.837Y-84.5
X247.837Y-87.2
X247.837Y-89.8
X248.35Y-73.1
X248.4Y-76.3
X250.0Y-90.1
X250.962Y-84.5
X250.962Y-87.2
X250.962Y-89.8
X251.125Y-81.425
X251.15Y-73.1
X251.2Y-76.3
X253.45Y-73.1
X253.45Y-75.8
X254.252Y-83.88
X254.9Y-83.3
X254.9Y-89.962
X254.9Y-94.237
X255.4Y-82.7
X255.502Y-80.13
X255.502Y-81.63
X255.502Y-82.13
X255.502Y-84.63
X255.502Y-86.13
X255.6Y-83.5
X256.2Y-82.6
X256.55Y-73.1
X256.55Y-75.8
T3
X201.15Y-70.3
X202.42Y-70.3
X203.69Y-70.3
X204.96Y-70.3
X206.23Y-70.3
X207.5Y-70.3
X208.77Y-70.3
X210.04Y-70.3
X211.31Y-70.3
X212.58Y-70.3
X239.72Y-94.2
X240.99Y-94.2
X242.26Y-94.2
X243.53Y-94.2
X244.8Y-94.2
X246.07Y-94.2
X247.34Y-94.2
X248.61Y-94.2
X249.88Y-94.2
X251.15Y-94.2
T4
X168.6Y-88.6
X185.1Y-86.5
X222.4Y-73.1
X229.6Y-75.5
T6
X160.32Y-91.7
X160.32Y-94.24
X162.86Y-91.7
X162.86Y-94.24
X165.4Y-91.7
X165.4Y-94.24
X167.94Y-91.7
X167.94Y-94.24
X170.48Y-91.7
X170.48Y-94.24
X173.02Y-91.7
X173.02Y-94.24
X175.56Y-91.7
X175.56Y-94.24
X178.1Y-91.7
X178.1Y-94.24
X180.64Y-91.7
X180.64Y-94.24
X183.18Y-91.7
X183.18Y-94.24
T2
G00X253.927Y-78.68
M15
G01X254.927Y-78.68
M16
G05
G00X253.927Y-87.58
M15
G01X254.927Y-87.58
M16
G05
G00X257.027Y-87.58
M15
G01X258.227Y-87.58
M16
G05
T5
G00X257.207Y-78.68
M15
G01X258.048Y-78.68
M16
G05
M30
