%TF.GenerationSoftware,KiCad,Pcbnew,9.0.3*%
%TF.CreationDate,2026-08-21T04:16:37+01:00*%
%TF.ProjectId,XMOS_with_audio_codec,584d4f53-5f77-4697-9468-5f617564696f,rev?*%
%TF.SameCoordinates,Original*%
%TF.FileFunction,Copper,L3,Inr*%
%TF.FilePolarity,Positive*%
%FSLAX46Y46*%
G04 Gerber Fmt 4.6, Leading zero omitted, Abs format (unit mm)*
G04 Created by KiCad (PCBNEW 9.0.3) date 2026-08-21 04:16:37*
%MOMM*%
%LPD*%
G01*
G04 APERTURE LIST*
%TA.AperFunction,ComponentPad*%
%ADD10C,1.200000*%
%TD*%
%TA.AperFunction,HeatsinkPad*%
%ADD11O,1.950000X0.950000*%
%TD*%
%TA.AperFunction,HeatsinkPad*%
%ADD12O,2.150000X0.950000*%
%TD*%
%TA.AperFunction,HeatsinkPad*%
%ADD13O,2.150000X1.250000*%
%TD*%
%TA.AperFunction,ComponentPad*%
%ADD14R,1.000000X1.000000*%
%TD*%
%TA.AperFunction,ComponentPad*%
%ADD15C,1.000000*%
%TD*%
%TA.AperFunction,ViaPad*%
%ADD16C,0.450000*%
%TD*%
%TA.AperFunction,ViaPad*%
%ADD17C,0.600000*%
%TD*%
%TA.AperFunction,ViaPad*%
%ADD18C,0.400000*%
%TD*%
%TA.AperFunction,Conductor*%
%ADD19C,0.200000*%
%TD*%
%TA.AperFunction,Conductor*%
%ADD20C,0.100000*%
%TD*%
%TA.AperFunction,Conductor*%
%ADD21C,0.150000*%
%TD*%
G04 APERTURE END LIST*
D10*
%TO.N,3V3*%
%TO.C,TP3V3+1*%
X168800000Y-85700000D03*
%TD*%
%TO.N,OSC*%
%TO.C,TPOSC1*%
X245100000Y-89500000D03*
%TD*%
D11*
%TO.N,Net-(J1-SHIELD)*%
%TO.C,J1*%
X254427500Y-87580000D03*
D12*
X257627500Y-87580000D03*
D11*
X254427500Y-78680000D03*
D13*
X257627500Y-78680000D03*
%TD*%
D10*
%TO.N,1V8*%
%TO.C,TP1V8+1*%
X185100000Y-86500000D03*
%TD*%
%TO.N,0V9*%
%TO.C,TP0V9+1*%
X225300000Y-72500000D03*
%TD*%
D14*
%TO.N,X0D41*%
%TO.C,J3*%
X235320000Y-95762500D03*
D15*
%TO.N,X0D42*%
X236590000Y-95762500D03*
%TO.N,X0D43*%
X237860000Y-95762500D03*
%TO.N,X1D09*%
X239130000Y-95762500D03*
%TO.N,X1D11*%
X240400000Y-95762500D03*
%TO.N,X1D13*%
X241670000Y-95762500D03*
%TO.N,X1D22*%
X242940000Y-95762500D03*
%TO.N,RESET*%
X244210000Y-95762500D03*
%TO.N,5V*%
X245480000Y-95762500D03*
%TO.N,3V3*%
X246750000Y-95762500D03*
%TD*%
D14*
%TO.N,1V8*%
%TO.C,U8*%
X168220000Y-90600000D03*
D15*
%TO.N,xSYS2_TMS*%
X168220000Y-91870000D03*
%TO.N,GND*%
X166950000Y-90600000D03*
%TO.N,xSYS2_TCK*%
X166950000Y-91870000D03*
%TO.N,GND*%
X165680000Y-90600000D03*
%TO.N,xSYS2_TDO*%
X165680000Y-91870000D03*
%TO.N,GND*%
X164410000Y-90600000D03*
%TO.N,xSYS2_TDI*%
X164410000Y-91870000D03*
%TO.N,GND*%
X163140000Y-90600000D03*
%TO.N,RESET*%
X163140000Y-91870000D03*
%TO.N,3V3*%
X161870000Y-90600000D03*
%TO.N,XL_DN1*%
X161870000Y-91870000D03*
%TO.N,GND*%
X160600000Y-90600000D03*
%TO.N,XL_DN0*%
X160600000Y-91870000D03*
%TO.N,GND*%
X159330000Y-90600000D03*
%TO.N,XL_UP0*%
X159330000Y-91870000D03*
%TO.N,GND*%
X158060000Y-90600000D03*
%TO.N,XL_UP1*%
X158060000Y-91870000D03*
%TO.N,GND*%
X156790000Y-90600000D03*
%TO.N,unconnected-(U8-DEBUG_N-Pad20)*%
X156790000Y-91870000D03*
%TD*%
D14*
%TO.N,X0D00*%
%TO.C,J2*%
X212150000Y-70400000D03*
D15*
%TO.N,X0D11*%
X213420000Y-70400000D03*
%TO.N,X0D29*%
X214690000Y-70400000D03*
%TO.N,X0D30*%
X215960000Y-70400000D03*
%TO.N,X0D31*%
X217230000Y-70400000D03*
%TO.N,X0D32*%
X218500000Y-70400000D03*
%TO.N,X0D33*%
X219770000Y-70400000D03*
%TO.N,X0D36*%
X221040000Y-70400000D03*
%TO.N,X0D39*%
X222310000Y-70400000D03*
%TO.N,GND*%
X223580000Y-70400000D03*
%TD*%
D16*
%TO.N,3V3*%
X202700000Y-96300000D03*
%TO.N,0V9*%
X225100000Y-80300000D03*
X222800000Y-82200000D03*
X223000000Y-85200000D03*
X222300000Y-88100000D03*
D17*
%TO.N,GND*%
X220600000Y-90100000D03*
D16*
%TO.N,0V9*%
X219300000Y-92300000D03*
%TO.N,3V3*%
X234770000Y-72530000D03*
%TO.N,X0D43*%
X254620000Y-76360000D03*
%TO.N,Net-(J1-CC2)*%
X246110000Y-82220000D03*
X256450000Y-82090000D03*
%TO.N,X1D11*%
X233200000Y-85240000D03*
X237730000Y-93770000D03*
X234110000Y-87780000D03*
X233930000Y-85690000D03*
%TO.N,X1D09*%
X233870000Y-86250000D03*
X234540000Y-87150000D03*
X231920000Y-85450000D03*
%TO.N,X0D42*%
X222370000Y-94790000D03*
X212720000Y-84580000D03*
X222790000Y-98020000D03*
X212940000Y-88090000D03*
X216530000Y-88080000D03*
X219450000Y-91280000D03*
%TO.N,X0D43*%
X214910000Y-91260000D03*
%TO.N,X0D42*%
X216830000Y-84540000D03*
X217000000Y-80980000D03*
X218950000Y-78050000D03*
X221300000Y-77460000D03*
X224130000Y-77510000D03*
X225120000Y-79040000D03*
%TO.N,X0D41*%
X215160000Y-85580000D03*
X216330000Y-91210000D03*
X218520000Y-85610000D03*
X218600000Y-82410000D03*
X223040000Y-78430000D03*
X218440000Y-79230000D03*
D17*
%TO.N,GND*%
X247100000Y-74700000D03*
D16*
X250610000Y-79330000D03*
D17*
X238250000Y-87230000D03*
D16*
%TO.N,1V8*%
X237270000Y-86030000D03*
X239540000Y-94000000D03*
X212880000Y-97170000D03*
X213780000Y-95980000D03*
%TO.N,Net-(U3-FB)*%
X221830000Y-95610000D03*
X224590000Y-93440000D03*
X226970000Y-93740000D03*
%TO.N,Net-(U2B-PLL_AVDD)*%
X236720000Y-81990000D03*
%TO.N,X1D13*%
X236670000Y-81340000D03*
%TO.N,RESET*%
X235800000Y-81960000D03*
%TO.N,Net-(U2B-PLL_AVDD)*%
X241000000Y-84990000D03*
X240090000Y-86490000D03*
%TO.N,X1D13*%
X237580000Y-83760000D03*
%TO.N,Net-(U2B-PLL_AVDD)*%
X236730000Y-86580000D03*
X238780000Y-88990000D03*
X237440000Y-88340000D03*
%TO.N,X1D13*%
X237370000Y-84700000D03*
X237860000Y-90050000D03*
%TO.N,X1D22*%
X240430000Y-90980000D03*
X236650000Y-82820000D03*
X237600000Y-83040000D03*
X241320000Y-92040000D03*
%TO.N,X0D39*%
X222500000Y-71940000D03*
%TO.N,X0D29*%
X221210000Y-71940000D03*
%TO.N,X0D39*%
X224810000Y-77670000D03*
%TO.N,X0D36*%
X226460000Y-73420000D03*
X226480000Y-74500000D03*
%TO.N,X0D33*%
X217070000Y-75300000D03*
X225200000Y-83430000D03*
%TO.N,X0D32*%
X218180000Y-74970000D03*
%TO.N,Net-(U2A-XIN)*%
X236800000Y-83510000D03*
%TO.N,X1D19*%
X161040000Y-85220000D03*
X164810000Y-88890000D03*
X160850000Y-88520000D03*
X175390000Y-77650000D03*
X177900000Y-77010000D03*
X192090000Y-77880000D03*
X193060000Y-77580000D03*
X185530000Y-77330000D03*
X176960000Y-76470000D03*
%TO.N,X0D31*%
X217720000Y-73270000D03*
%TO.N,X0D29*%
X223640000Y-74570000D03*
D18*
X216590000Y-70930000D03*
D16*
%TO.N,X0D11*%
X216890000Y-72040000D03*
X222850000Y-74960000D03*
%TO.N,X0D00*%
X212000000Y-73500000D03*
X215600000Y-73400000D03*
X219350000Y-75450000D03*
D18*
%TO.N,Net-(U2A-X0D10)*%
X226800000Y-86200000D03*
X222550000Y-82790000D03*
X217900000Y-83000000D03*
X214700000Y-80900000D03*
X217100000Y-82000000D03*
D16*
%TO.N,3V3*%
X240000000Y-83200000D03*
%TO.N,5V*%
X226790000Y-99530000D03*
X254910000Y-73080000D03*
X246690000Y-85790000D03*
%TO.N,3V3*%
X227990000Y-87160000D03*
X203550000Y-88660000D03*
X184600000Y-83220000D03*
X201310000Y-73420000D03*
X204970000Y-76690000D03*
X211600000Y-79450000D03*
%TO.N,X1D19*%
X231210000Y-77390000D03*
%TO.N,xSYS2_TMS*%
X221500000Y-93700000D03*
X170700000Y-91930000D03*
X234670000Y-81280000D03*
%TO.N,X0D32*%
X226130000Y-82170000D03*
%TO.N,1V8*%
X235500000Y-80600000D03*
X235800000Y-83700000D03*
X239900000Y-75000000D03*
X190200000Y-88500000D03*
X212300000Y-92200000D03*
X234700000Y-83700000D03*
X178900000Y-85400000D03*
X236400000Y-74800000D03*
X206100000Y-91700000D03*
X182100000Y-86700000D03*
X234500000Y-77600000D03*
X196900000Y-89000000D03*
%TO.N,I2C_SCL*%
X225900000Y-75000000D03*
X192600000Y-78400000D03*
%TO.N,X1D13*%
X233230000Y-76600000D03*
%TO.N,CS*%
X206500000Y-84600000D03*
X228000000Y-85700000D03*
X221900000Y-86600000D03*
%TO.N,X0D29*%
X229870000Y-77080000D03*
%TO.N,X0D41*%
X226720000Y-80120000D03*
%TO.N,I2S_ADC_DATA*%
X221500000Y-81300000D03*
X194100000Y-80400000D03*
%TO.N,D-*%
X254710000Y-82820000D03*
X255740000Y-83160000D03*
%TO.N,xSYS2_TDI*%
X234000000Y-85000000D03*
X164920000Y-93940000D03*
X233050000Y-83800000D03*
%TO.N,I2C_SDA*%
X220200000Y-73600000D03*
X192100000Y-79000000D03*
%TO.N,I2S_DAC_DATA*%
X193000000Y-85700000D03*
X227400000Y-88400000D03*
%TO.N,X0D43*%
X213900000Y-84400000D03*
X226000000Y-80100000D03*
X219828106Y-83799999D03*
D17*
%TO.N,GND*%
X252400000Y-89840000D03*
X233850000Y-93350000D03*
X240000000Y-76100000D03*
X231400000Y-93200000D03*
D16*
X229100000Y-82800000D03*
D17*
X207882500Y-97500000D03*
X235870000Y-70650000D03*
D16*
X195000000Y-85600000D03*
D17*
X243315000Y-82885000D03*
D16*
X230700000Y-82800000D03*
D17*
X153800000Y-76400000D03*
D16*
X232200000Y-81300000D03*
D17*
X203100000Y-82700000D03*
X219200000Y-79800000D03*
X175500000Y-86652500D03*
D16*
X223210000Y-75840000D03*
D17*
X210300000Y-83200000D03*
D16*
X232200000Y-82800000D03*
D17*
X245200000Y-84950000D03*
X192670000Y-69340000D03*
X191860000Y-92900000D03*
X153600000Y-86800000D03*
X237900000Y-85200000D03*
X216400000Y-94650000D03*
X243370000Y-80530000D03*
X245600000Y-73800000D03*
X236800000Y-93800000D03*
D16*
X230699700Y-81225100D03*
D17*
X228700000Y-93300000D03*
X171100000Y-72235996D03*
X219900000Y-85300000D03*
X197600000Y-78800000D03*
D16*
X230700000Y-79700000D03*
X209800000Y-79300000D03*
X232100000Y-79800000D03*
X197500000Y-82700000D03*
D17*
X252360000Y-84470000D03*
X184310000Y-75040000D03*
D16*
X189400000Y-83000000D03*
D17*
X209110000Y-94350000D03*
X223450000Y-97480000D03*
X229480000Y-70750000D03*
D16*
X229200000Y-81200000D03*
D17*
X170010000Y-80050000D03*
X209200000Y-92100000D03*
X197000000Y-92000000D03*
X203400000Y-86500000D03*
X200290000Y-94650000D03*
X244830000Y-91280000D03*
X190080000Y-74860000D03*
D16*
X229200000Y-79800000D03*
D17*
X227200000Y-98300000D03*
X252395000Y-87195000D03*
X202950000Y-78630000D03*
D16*
%TO.N,X0D39*%
X226030000Y-78830000D03*
%TO.N,0V9*%
X233258750Y-81225100D03*
X226300000Y-87400000D03*
X228140650Y-81225100D03*
X232300000Y-76100000D03*
X233275000Y-90400000D03*
X228830000Y-76140000D03*
X237400000Y-80200000D03*
X231080000Y-74910000D03*
X230699700Y-78666050D03*
X230699700Y-83784150D03*
X234200000Y-76400000D03*
X229200000Y-74900000D03*
X232000000Y-90000000D03*
X226010000Y-92110000D03*
X226460000Y-93370000D03*
X226130000Y-85270000D03*
X232910000Y-94210000D03*
%TO.N,Net-(U2A-XIN)*%
X234360000Y-84410000D03*
%TO.N,I2S_BCLK*%
X232600000Y-86700000D03*
X193500000Y-81000000D03*
%TO.N,I2S_RCLK*%
X230900000Y-87400000D03*
X193200000Y-85000000D03*
%TO.N,I2S_MCLK*%
X193000000Y-81700000D03*
X229688351Y-76200000D03*
%TO.N,D+*%
X251620000Y-80960000D03*
X252970000Y-80730000D03*
%TO.N,X0D30*%
X213370000Y-73700000D03*
X213200000Y-77200000D03*
X225600000Y-82000000D03*
X222100000Y-81800000D03*
X215300000Y-71900000D03*
%TO.N,3V3*%
X201500000Y-90200000D03*
X195400000Y-73000000D03*
X236510000Y-80280000D03*
X231190000Y-76180000D03*
X194900000Y-97300000D03*
X233400000Y-75000000D03*
X206300000Y-83900000D03*
X191800000Y-82900000D03*
X236640000Y-77550000D03*
X229900000Y-87500000D03*
X198900000Y-91900000D03*
X195700000Y-75100000D03*
X230670000Y-86280000D03*
%TO.N,X1D22*%
X230220000Y-76500000D03*
%TO.N,X1D18*%
X231310000Y-76800000D03*
X230320000Y-75200000D03*
%TO.N,HLD_RST_IO3*%
X204200000Y-75800000D03*
X226800000Y-87000000D03*
%TO.N,X0D00*%
X229750000Y-85970000D03*
%TO.N,SI_IO1*%
X207200000Y-84500000D03*
X227000000Y-85700000D03*
%TO.N,XL_DN0*%
X231790000Y-76500000D03*
%TO.N,XL_DN1*%
X167950000Y-87820000D03*
X167950000Y-89000000D03*
%TO.N,X0D31*%
X226720000Y-82010000D03*
%TO.N,X0D11*%
X230220000Y-85550000D03*
%TO.N,X0D36*%
X228550000Y-77120000D03*
%TO.N,Net-(U2A-X0D10)*%
X228660000Y-86500000D03*
%TO.N,xSYS2_TCK*%
X234880000Y-80770000D03*
X169100000Y-91200000D03*
X224800000Y-92800000D03*
X171100000Y-91000000D03*
%TO.N,SI_IO0*%
X210300000Y-76500000D03*
X225420000Y-83980000D03*
%TO.N,xSYS2_TDO*%
X201880000Y-89290000D03*
X172700000Y-90800000D03*
X235350000Y-82370000D03*
X230500000Y-89980000D03*
X185700000Y-90700000D03*
X226700000Y-88700000D03*
X189200000Y-90300000D03*
%TO.N,5V*%
X213800000Y-92000000D03*
X197400000Y-81600000D03*
X193800000Y-90100000D03*
X198200000Y-95200000D03*
X193500000Y-88300000D03*
X211400000Y-94600000D03*
X216900000Y-97700000D03*
X194600000Y-88300000D03*
%TO.N,Net-(U9-V_{IN}R)*%
X180400000Y-79300000D03*
X195150000Y-79970000D03*
%TO.N,Net-(U9-V_{IN}L)*%
X194900000Y-82000000D03*
X180600000Y-82400000D03*
%TO.N,Net-(C47-Pad1)*%
X185600000Y-71500000D03*
X186000000Y-73400000D03*
%TO.N,Net-(U9-V_{OUT}R+)*%
X175400000Y-73100000D03*
X194900000Y-84500000D03*
X177900000Y-71200000D03*
X176100000Y-76200000D03*
%TO.N,Net-(C45-Pad1)*%
X177900000Y-75100000D03*
X180600000Y-75100000D03*
%TO.N,Net-(U9-V_{OUT}L+)*%
X187200000Y-83200000D03*
X185900000Y-83200000D03*
X193800000Y-84100000D03*
X194800000Y-83300000D03*
X185700000Y-81400000D03*
X180000000Y-72800000D03*
X188300000Y-84400000D03*
X193700000Y-83200000D03*
%TO.N,Net-(U9-V_{COM})*%
X197900000Y-84300000D03*
X200100000Y-86100000D03*
%TO.N,WP_IO2*%
X207900000Y-84400000D03*
X225900000Y-84700000D03*
%TO.N,X0D31*%
X221970000Y-77960000D03*
%TO.N,0V9*%
X221600000Y-90000000D03*
%TD*%
D19*
%TO.N,3V3*%
X246750000Y-95762500D02*
X246750000Y-94450000D01*
X240610000Y-88310000D02*
X240610000Y-85460000D01*
X240610000Y-85460000D02*
X240520000Y-85370000D01*
X246750000Y-94450000D02*
X240610000Y-88310000D01*
X240520000Y-85370000D02*
X240520000Y-83720000D01*
X240520000Y-83720000D02*
X240000000Y-83200000D01*
D20*
%TO.N,xSYS2_TMS*%
X234670000Y-81280000D02*
X234520000Y-81280000D01*
X230700000Y-85610000D02*
X228100000Y-88210000D01*
X222900000Y-93700000D02*
X221500000Y-93700000D01*
X228100000Y-88210000D02*
X228100000Y-88500000D01*
X234520000Y-81280000D02*
X230700000Y-85100000D01*
X230700000Y-85100000D02*
X230700000Y-85610000D01*
X228100000Y-88500000D02*
X222900000Y-93700000D01*
%TO.N,xSYS2_TCK*%
X234880000Y-80770000D02*
X235120000Y-81010000D01*
X235120000Y-81010000D02*
X235120000Y-81490000D01*
X235120000Y-81490000D02*
X233500000Y-83110000D01*
X233500000Y-83110000D02*
X233500000Y-83375000D01*
%TO.N,X0D11*%
X216890000Y-72040000D02*
X216850000Y-72000000D01*
X216100000Y-72000000D02*
X215430000Y-71330000D01*
X216850000Y-72000000D02*
X216100000Y-72000000D01*
X215430000Y-71330000D02*
X214350000Y-71330000D01*
X214350000Y-71330000D02*
X213420000Y-70400000D01*
D19*
%TO.N,0V9*%
X220600000Y-91000000D02*
X219300000Y-92300000D01*
X221600000Y-90000000D02*
X221600000Y-90700000D01*
X221600000Y-90700000D02*
X221300000Y-91000000D01*
X221300000Y-91000000D02*
X220600000Y-91000000D01*
X225100000Y-80300000D02*
X225000000Y-80400000D01*
X225000000Y-80400000D02*
X224600000Y-80400000D01*
X224600000Y-80400000D02*
X222800000Y-82200000D01*
D20*
%TO.N,X0D43*%
X226000000Y-80100000D02*
X225600000Y-80100000D01*
X221600000Y-79300000D02*
X219828106Y-81071894D01*
X225600000Y-80100000D02*
X224800000Y-79300000D01*
X224800000Y-79300000D02*
X221600000Y-79300000D01*
X219828106Y-81071894D02*
X219828106Y-83799999D01*
D19*
%TO.N,3V3*%
X202700000Y-96300000D02*
X207300000Y-100900000D01*
X207300000Y-100900000D02*
X242400000Y-100900000D01*
X246700000Y-96600000D02*
X246700000Y-95812500D01*
X242400000Y-100900000D02*
X246700000Y-96600000D01*
X246700000Y-95812500D02*
X246750000Y-95762500D01*
%TO.N,0V9*%
X223000000Y-85200000D02*
X223000000Y-85500000D01*
X223000000Y-85500000D02*
X222700000Y-85800000D01*
X222700000Y-85800000D02*
X222700000Y-86900000D01*
X222700000Y-86900000D02*
X222300000Y-87300000D01*
X222300000Y-87300000D02*
X222300000Y-88100000D01*
D20*
%TO.N,xSYS2_TCK*%
X233500000Y-86430000D02*
X233410000Y-86340000D01*
X233670000Y-85180000D02*
X233510000Y-85020000D01*
X233530000Y-85930000D02*
X233530000Y-85430000D01*
X224800000Y-92800000D02*
X224800000Y-92500000D01*
X233410000Y-86340000D02*
X233410000Y-86050000D01*
X224800000Y-92500000D02*
X225900000Y-91400000D01*
X225900000Y-91400000D02*
X228530000Y-91400000D01*
X228530000Y-91400000D02*
X233500000Y-86430000D01*
X233410000Y-86050000D02*
X233530000Y-85930000D01*
X233530000Y-85430000D02*
X233670000Y-85290000D01*
X233670000Y-85290000D02*
X233670000Y-85180000D01*
X233510000Y-85020000D02*
X233510000Y-83370000D01*
D19*
%TO.N,0V9*%
X228140650Y-81225100D02*
X228140650Y-83259350D01*
%TO.N,1V8*%
X236620000Y-75000000D02*
X236410000Y-74790000D01*
X237922798Y-75000000D02*
X236620000Y-75000000D01*
X235500000Y-80600000D02*
X236070000Y-80600000D01*
X236230000Y-80760000D02*
X237230000Y-80760000D01*
X236070000Y-80600000D02*
X236230000Y-80760000D01*
X238420000Y-81950000D02*
X238420000Y-83770000D01*
X237230000Y-80760000D02*
X238420000Y-81950000D01*
X238420000Y-83770000D02*
X238720000Y-84070000D01*
X238720000Y-84070000D02*
X238720000Y-86250000D01*
X238720000Y-86250000D02*
X238520000Y-86450000D01*
X238520000Y-86450000D02*
X238420000Y-86450000D01*
%TO.N,3V3*%
X236500000Y-80270000D02*
X236500000Y-78340000D01*
X236500000Y-78340000D02*
X236640000Y-78200000D01*
X236510000Y-80280000D02*
X236500000Y-80270000D01*
X236640000Y-78200000D02*
X236640000Y-77550000D01*
D20*
%TO.N,X1D13*%
X236670000Y-81340000D02*
X236730000Y-81340000D01*
X238040000Y-83530000D02*
X237810000Y-83760000D01*
X236730000Y-81340000D02*
X238040000Y-82650000D01*
X237810000Y-83760000D02*
X237580000Y-83760000D01*
X238040000Y-82650000D02*
X238040000Y-83530000D01*
D19*
%TO.N,3V3*%
X242020000Y-72730000D02*
X241510000Y-72220000D01*
X241690000Y-75940000D02*
X242020000Y-75610000D01*
X237160000Y-72220000D02*
X235080000Y-72220000D01*
X240000000Y-83200000D02*
X240000000Y-77630000D01*
X235080000Y-72220000D02*
X234770000Y-72530000D01*
X240000000Y-77630000D02*
X241690000Y-75940000D01*
X242020000Y-75610000D02*
X242020000Y-72730000D01*
X241510000Y-72220000D02*
X237160000Y-72220000D01*
%TO.N,0V9*%
X226130000Y-85270000D02*
X228140650Y-83259350D01*
D20*
%TO.N,X0D42*%
X224130000Y-78050000D02*
X224130000Y-77510000D01*
X225120000Y-79040000D02*
X224130000Y-78050000D01*
D19*
%TO.N,3V3*%
X227990000Y-87160000D02*
X227910000Y-87160000D01*
X227910000Y-87160000D02*
X227850000Y-87220000D01*
X227850000Y-87220000D02*
X227320000Y-87220000D01*
X225880000Y-88660000D02*
X203550000Y-88660000D01*
X227320000Y-87220000D02*
X225880000Y-88660000D01*
%TO.N,0V9*%
X231080000Y-74910000D02*
X231080000Y-75320000D01*
X230699700Y-75700300D02*
X230699700Y-78666050D01*
X231080000Y-75320000D02*
X230699700Y-75700300D01*
X229200000Y-74900000D02*
X226800000Y-72500000D01*
X226800000Y-72500000D02*
X225300000Y-72500000D01*
X232910000Y-94210000D02*
X232900000Y-94200000D01*
X232900000Y-94200000D02*
X232900000Y-90775000D01*
X232900000Y-90775000D02*
X233275000Y-90400000D01*
D20*
%TO.N,X0D31*%
X217740000Y-73250000D02*
X217740000Y-70910000D01*
X217740000Y-70910000D02*
X217230000Y-70400000D01*
X217720000Y-73270000D02*
X217740000Y-73250000D01*
%TO.N,X0D32*%
X218500000Y-74650000D02*
X218180000Y-74970000D01*
X218500000Y-74240000D02*
X218500000Y-74650000D01*
%TO.N,X0D33*%
X217070000Y-75300000D02*
X217230000Y-75460000D01*
X218510000Y-75460000D02*
X219770000Y-74200000D01*
X217230000Y-75460000D02*
X218510000Y-75460000D01*
X219770000Y-74200000D02*
X219770000Y-70400000D01*
D19*
%TO.N,1V8*%
X237270000Y-86030000D02*
X237510000Y-86270000D01*
X237510000Y-86270000D02*
X238200000Y-86270000D01*
X238200000Y-86270000D02*
X239540000Y-87610000D01*
X239540000Y-87610000D02*
X239540000Y-94000000D01*
X230030000Y-98890000D02*
X233630000Y-95290000D01*
X234700000Y-94390000D02*
X239150000Y-94390000D01*
X226450000Y-99060000D02*
X226620000Y-98890000D01*
X212880000Y-97170000D02*
X214770000Y-99060000D01*
X224660000Y-99060000D02*
X226450000Y-99060000D01*
X233630000Y-95290000D02*
X234530000Y-94390000D01*
X214770000Y-99060000D02*
X224660000Y-99060000D01*
X239150000Y-94390000D02*
X239540000Y-94000000D01*
X226620000Y-98890000D02*
X230030000Y-98890000D01*
X234530000Y-94390000D02*
X234700000Y-94390000D01*
X213290000Y-93190000D02*
X213290000Y-95410000D01*
X213290000Y-95410000D02*
X213290000Y-95490000D01*
X212300000Y-92200000D02*
X213290000Y-93190000D01*
X213290000Y-95490000D02*
X213780000Y-95980000D01*
D20*
%TO.N,X0D36*%
X226480000Y-75050000D02*
X226480000Y-74500000D01*
X228550000Y-77120000D02*
X226480000Y-75050000D01*
%TO.N,X0D32*%
X218500000Y-70400000D02*
X218500000Y-74240000D01*
%TO.N,xSYS2_TDO*%
X235350000Y-82370000D02*
X235370000Y-82370000D01*
X235370000Y-82370000D02*
X236350000Y-83350000D01*
X236350000Y-83350000D02*
X236350000Y-84350000D01*
X236350000Y-84350000D02*
X230720000Y-89980000D01*
X230720000Y-89980000D02*
X230490000Y-89980000D01*
%TO.N,X0D30*%
X213470000Y-73600000D02*
X213500000Y-73600000D01*
X213370000Y-73700000D02*
X213470000Y-73600000D01*
X213500000Y-73600000D02*
X215200000Y-71900000D01*
X215200000Y-71900000D02*
X215300000Y-71900000D01*
%TO.N,X0D00*%
X212000000Y-73500000D02*
X212000000Y-70550000D01*
X212000000Y-70550000D02*
X212150000Y-70400000D01*
%TO.N,Net-(U2A-X0D10)*%
X226800000Y-86200000D02*
X226900000Y-86200000D01*
X226900000Y-86200000D02*
X227200000Y-86500000D01*
X227200000Y-86500000D02*
X228660000Y-86500000D01*
D19*
%TO.N,3V3*%
X204970000Y-76690000D02*
X203890000Y-76690000D01*
X203890000Y-76690000D02*
X201310000Y-74110000D01*
X201310000Y-74110000D02*
X201310000Y-73420000D01*
%TO.N,5V*%
X242430000Y-99530000D02*
X226790000Y-99530000D01*
X245480000Y-96480000D02*
X243770000Y-98190000D01*
X243770000Y-98190000D02*
X242430000Y-99530000D01*
X245480000Y-95762500D02*
X245480000Y-96480000D01*
X246690000Y-81300000D02*
X254910000Y-73080000D01*
X246690000Y-85790000D02*
X246690000Y-81300000D01*
%TO.N,3V3*%
X186160000Y-81660000D02*
X184600000Y-83220000D01*
X189080000Y-81660000D02*
X186160000Y-81660000D01*
X190320000Y-82900000D02*
X189080000Y-81660000D01*
X191800000Y-82900000D02*
X190320000Y-82900000D01*
X206300000Y-78020000D02*
X204970000Y-76690000D01*
X206300000Y-83900000D02*
X206300000Y-78020000D01*
X210750000Y-79450000D02*
X211600000Y-79450000D01*
X206300000Y-83900000D02*
X210750000Y-79450000D01*
D20*
%TO.N,xSYS2_TMS*%
X170670000Y-91900000D02*
X168200000Y-91900000D01*
X170700000Y-91930000D02*
X170670000Y-91900000D01*
D19*
%TO.N,1V8*%
X235011500Y-75888500D02*
X235500000Y-75400000D01*
X234500000Y-77600000D02*
X235011500Y-77088500D01*
D20*
X168200000Y-90600000D02*
X168220000Y-90600000D01*
D19*
X168220000Y-90600000D02*
X173420000Y-85400000D01*
X207400000Y-91700000D02*
X208600000Y-92900000D01*
X208600000Y-92900000D02*
X211600000Y-92900000D01*
X235500000Y-75400000D02*
X235800000Y-75400000D01*
X237922798Y-75000000D02*
X239900000Y-75000000D01*
X235800000Y-75400000D02*
X236400000Y-74800000D01*
X206100000Y-91700000D02*
X199600000Y-91700000D01*
X187100000Y-88500000D02*
X185100000Y-86500000D01*
X235500000Y-80100000D02*
X235700000Y-79900000D01*
X235011500Y-77088500D02*
X235011500Y-75888500D01*
X190200000Y-88500000D02*
X187100000Y-88500000D01*
X235700000Y-77222798D02*
X237922798Y-75000000D01*
X206100000Y-91700000D02*
X207400000Y-91700000D01*
D21*
X234700000Y-83700000D02*
X235800000Y-83700000D01*
D19*
X235500000Y-80600000D02*
X235500000Y-80100000D01*
X199600000Y-91700000D02*
X196900000Y-89000000D01*
X183900000Y-88500000D02*
X182100000Y-86700000D01*
X235700000Y-79900000D02*
X235700000Y-77222798D01*
X187100000Y-88500000D02*
X183900000Y-88500000D01*
X173420000Y-85400000D02*
X178900000Y-85400000D01*
X211600000Y-92900000D02*
X212300000Y-92200000D01*
%TO.N,0V9*%
X230699700Y-83784150D02*
X228215850Y-83784150D01*
X233258750Y-81225100D02*
X233258750Y-77341250D01*
X228830000Y-76140000D02*
X229200000Y-75770000D01*
X233275000Y-90400000D02*
X232975000Y-90100000D01*
X228215850Y-83784150D02*
X226300000Y-85700000D01*
X233258750Y-77341250D02*
X234200000Y-76400000D01*
X226000000Y-92120000D02*
X226010000Y-92110000D01*
X232975000Y-90100000D02*
X232100000Y-90100000D01*
X226000000Y-92700000D02*
X226000000Y-92120000D01*
X226460000Y-93370000D02*
X226460000Y-93160000D01*
X226300000Y-85700000D02*
X226300000Y-87400000D01*
X229200000Y-75770000D02*
X229200000Y-74900000D01*
X232100000Y-90100000D02*
X232000000Y-90000000D01*
X226460000Y-93160000D02*
X226000000Y-92700000D01*
%TO.N,3V3*%
X166770000Y-85700000D02*
X161870000Y-90600000D01*
D21*
X230650000Y-86300000D02*
X230650000Y-86750000D01*
D19*
X204200000Y-85500000D02*
X204700000Y-85500000D01*
X194900000Y-97300000D02*
X198900000Y-93300000D01*
X200400000Y-89100000D02*
X200400000Y-87000000D01*
X195700000Y-75100000D02*
X195700000Y-73300000D01*
X194100000Y-89200000D02*
X195300000Y-90400000D01*
X200400000Y-87000000D02*
X201900000Y-85500000D01*
D21*
X230670000Y-86280000D02*
X230650000Y-86300000D01*
D19*
X231210000Y-76200000D02*
X231400000Y-76200000D01*
X204700000Y-85500000D02*
X206300000Y-83900000D01*
X195300000Y-90400000D02*
X197400000Y-90400000D01*
X168800000Y-85700000D02*
X166770000Y-85700000D01*
X231400000Y-76200000D02*
X232600000Y-75000000D01*
X195700000Y-76800000D02*
X191800000Y-80700000D01*
X198900000Y-93300000D02*
X198900000Y-91900000D01*
X191800000Y-82900000D02*
X194100000Y-85200000D01*
X191800000Y-80700000D02*
X191800000Y-82900000D01*
X231190000Y-76180000D02*
X231210000Y-76200000D01*
X194100000Y-85200000D02*
X194100000Y-89200000D01*
X232600000Y-75000000D02*
X233400000Y-75000000D01*
X201500000Y-90200000D02*
X200400000Y-89100000D01*
X195700000Y-75100000D02*
X195700000Y-76800000D01*
D21*
X230650000Y-86750000D02*
X229900000Y-87500000D01*
D19*
X195700000Y-73300000D02*
X195400000Y-73000000D01*
X201900000Y-85500000D02*
X204200000Y-85500000D01*
X197400000Y-90400000D02*
X198900000Y-91900000D01*
D20*
%TO.N,xSYS2_TCK*%
X169300000Y-91000000D02*
X169100000Y-91200000D01*
X171100000Y-91000000D02*
X169300000Y-91000000D01*
%TO.N,xSYS2_TDO*%
X189200000Y-90300000D02*
X188800000Y-90700000D01*
X226500000Y-88700000D02*
X225900000Y-89300000D01*
X172700000Y-90800000D02*
X170900000Y-92600000D01*
X188800000Y-90700000D02*
X185900000Y-90700000D01*
X170900000Y-92600000D02*
X167873995Y-92600000D01*
X201890000Y-89300000D02*
X201880000Y-89290000D01*
X226700000Y-88700000D02*
X226500000Y-88700000D01*
X166400000Y-92600000D02*
X165700000Y-91900000D01*
X225900000Y-89300000D02*
X201890000Y-89300000D01*
X167873995Y-92600000D02*
X166400000Y-92600000D01*
D19*
%TO.N,5V*%
X214500000Y-97700000D02*
X211400000Y-94600000D01*
X193500000Y-88300000D02*
X193500000Y-89800000D01*
X197400000Y-81600000D02*
X196900000Y-81600000D01*
X196500000Y-82600000D02*
X197200000Y-83300000D01*
X197200000Y-85700000D02*
X194600000Y-88300000D01*
X198200000Y-95200000D02*
X210800000Y-95200000D01*
X210800000Y-95200000D02*
X211400000Y-94600000D01*
X197200000Y-83300000D02*
X197200000Y-85700000D01*
X216900000Y-97700000D02*
X213800000Y-94600000D01*
X216900000Y-97700000D02*
X214500000Y-97700000D01*
X196500000Y-82000000D02*
X196500000Y-82600000D01*
X193500000Y-89800000D02*
X193800000Y-90100000D01*
X196900000Y-81600000D02*
X196500000Y-82000000D01*
X213800000Y-94600000D02*
X213800000Y-92000000D01*
D20*
%TO.N,Net-(C47-Pad1)*%
X186000000Y-73400000D02*
X185600000Y-73000000D01*
X185600000Y-73000000D02*
X185600000Y-71500000D01*
%TD*%
M02*
